<?xml version="1.0" encoding="utf-8"?>
<!-- Generator: Adobe Illustrator 16.0.0, SVG Export Plug-In . SVG Version: 6.00 Build 0)  -->
<!DOCTYPE svg PUBLIC "-//W3C//DTD SVG 1.1//EN" "http://www.w3.org/Graphics/SVG/1.1/DTD/svg11.dtd">
<svg version="1.1" id="Calque_1" xmlns="http://www.w3.org/2000/svg" xmlns:xlink="http://www.w3.org/1999/xlink" x="0px" y="0px"
	 width="295px" height="295px" viewBox="0 0 295 295" enable-background="new 0 0 295 295" xml:space="preserve">
<path fill-rule="evenodd" clip-rule="evenodd" stroke="#000000" stroke-width="2" stroke-miterlimit="10" d="M282.896,143.458
	c-5.931-6.717-13.38-12.22-18.637-19.37c-5.011-6.814-7.897-15.172-11.89-22.761c-8.56-16.271-14.533-33.181-13.569-51.935
	c0.095-1.849-0.174-3.715-0.35-6.996c-2.995,4.022-4.903,6.587-6.812,9.15c-1.205,0.369-1.482,1.541-2.217,2.034
	c-6.773,4.552-13.23,9.828-20.547,13.255c-11.159,5.229-22.664,10.149-34.527,13.293c-8.237,2.182-17.493,2.398-25.986,1.24
	c-9.888-1.348-19.701-4.479-29.06-8.096c-8.097-3.127-15.803-7.563-23.153-12.249c-8.266-5.271-15.938-11.469-23.871-17.261
	C65.275,38.65,58.33,33.457,51.247,28.457c-6.753-4.766-13.649-9.328-20.302-13.858c-1.174-0.483-5.203-4.309-10.142-7.602
	c-0.555-0.37,5.455,10.446,6.295,11.821c3.011,5.768,5.922,11.345,8.576,16.43c0,2.9,0.276,5.349-0.045,7.717
	c-2.025,14.936-4.37,29.83-6.241,44.784c-1.785,14.262-2.822,28.619-4.752,42.859c-1.417,10.449-3.364,20.866-5.807,31.125
	c-1.488,6.248-4.366,12.167-6.606,18.197c-2.413,2.747-4.507,5.132-6.179,7.035c0.38,1.634,0.696,2.985,1.037,4.444
	c1.017-0.09,2.05-0.18,3.332-0.295c4.671,8.832,10.689,17.182,13.58,26.5c3.093,9.969,3.723,20.813,4.54,31.346
	c0.908,11.697,0.735,23.479,1.297,35.211c0.045,0.944,2.145,2.562,3.287,2.559c9.982-0.017,19.965-0.314,29.946-0.566
	c2.758-0.072,5.557-0.045,8.249-0.539c0.986-0.182,1.718-1.746,2.734-2.865c-1.589-0.877-2.407-1.328-3.808-2.102V247.15
	c4.866,0.537,10,1.104,14.788,1.633c0,11.417,0.143,22.584-0.074,33.743c-0.08,4.106-0.078,7.423,5.387,7.124
	c10.562-0.578,21.133-1.019,31.689-1.689c0.753-0.048,2.041-1.523,2.022-2.312c-0.125-5.552-0.656-11.093-0.806-16.644
	c-0.158-5.813-0.036-11.631-0.036-17.635h18.19c0.769,13.114,1.524,26.019,2.312,39.463c1.768-0.558,2.714-0.855,4.117-1.298
	c-0.83-13.012-1.646-25.804-2.476-38.826c2.131,0.114,3.485,0.188,4.611,0.248c0.998,13.189,1.969,26.015,2.939,38.839
	c0.721-0.035,1.443-0.072,2.164-0.109v-39.689c5.519-0.305,11.616-0.641,18.797-1.035v36.955c0.921-0.008,1.842-0.014,2.763-0.021
	v-37.163c3.452-0.232,5.829-0.392,8.485-0.569c-3.409,8.805-0.534,37.438,2.82,37.55v-38.452h16.212v39.476
	c2.137-0.567,3.289-1.61,3.314-2.679c0.243-10.17,0.249-20.344,0.437-30.515c0.044-2.37-0.285-5.546,1.038-6.864
	c1.255-1.248,4.452-0.551,7.371-0.749v36.451c0.74,0.018,1.478,0.036,2.218,0.054v-36.002h18.414
	c-0.401,6.742-1.243,13.084-1.015,19.387c0.207,5.694,1.583,11.346,2.443,17.016c0.826-0.123,1.651-0.246,2.477-0.369
	c-0.419-5.905-1.005-11.805-1.211-17.717c-0.21-6.039-0.046-12.092-0.046-18.14c0.703-0.381,1.406-0.761,2.109-1.142
	c1.133,1.732,3.02,3.361,3.273,5.215c1.37,9.983,2.278,20.029,3.531,30.031c0.07,0.559,0.578,1.072,1.39,1.84
	c0.654-0.104,1.317-0.175,1.985-0.226c-1.18-12.962-2.202-24.183-3.218-35.339c11.496-2.663,12.981-1.6,13.362,9.198
	c0.042,1.192-0.104,2.395-0.016,3.583c0.463,6.207,0.974,12.413,1.467,18.62c0.59-0.009,1.181-0.018,1.77-0.026
	c0.422-3.318,1.26-6.645,1.198-9.953c-0.459-24.783-1.596-49.564-1.504-74.342c0.062-16.683,12.304-28.599,18.925-42.732
	C284.835,149.242,284.379,145.139,282.896,143.458z M240.319,84.811c3.409,7.521,6.808,15.021,10.646,23.49
	c-6.269,0.496-12.142,0.963-18.281,1.45c-1.491-7.667-2.938-15.104-4.419-22.721C232.648,86.223,236.542,85.506,240.319,84.811z
	 M58.402,117.184c4.149,1.344,8.441,4.287,11.032,7.811c2.389,3.251,2.525,8.109,3.911,12.171c0.451,1.321,1.711,2.365,2.434,3.316
	c2.572-7.121,4.799-13.288,7.473-20.69c9.729,15.996,18.14,29.824,26.808,44.075H72.964c-11.378,1.364-21.453,2.571-31.528,3.778
	c-0.051-0.347-0.102-0.693-0.153-1.04c-0.93,0.518-1.859,1.034-3.745,2.082c1.189-4.533,2-8.299,3.165-11.949
	c3.459-10.833,6.751-21.739,10.795-32.356C52.647,121.363,56.957,116.717,58.402,117.184z M31.755,147.314
	c4.019-15.299,9.658-36.766,15.59-59.348c0.5-0.052,3.034-0.309,4.878-0.495C53.029,112.43,37.858,131.645,31.755,147.314z
	 M219.213,115.619c2.536,11.393,4.993,22.431,7.623,34.243h-21.283c-2.17-10.455-4.442-21.4-6.814-32.825
	C205.673,116.557,212.356,116.094,219.213,115.619z M208.277,109.541c-1.76-6.351-3.384-12.739-5.253-19.895
	c7.427-0.725,14.251-1.391,21.081-2.056c1.334,7.517,2.597,14.634,3.974,22.39c-6.104,0.546-12.063,1.139-18.035,1.519
	C209.48,111.533,208.496,110.329,208.277,109.541z M138.529,157.774c6.76-2.868,10.979-0.845,17.206,8.514
	c1.837,2.76,3.835,5.417,5.594,8.225c1.752,2.795,3.297,5.72,5.047,8.786h-6.419C152.347,174.234,145.401,165.961,138.529,157.774z
	 M153.426,182.987l-1.197,1.717c-2.727-1.503-5.994-2.476-8.081-4.605c-6.745-6.882-13.056-14.188-19.398-21.181
	c5.896-3.146,9.287,0.033,12.922,4.963c4.043,5.48,9.312,10.049,13.907,15.14C152.514,180.057,152.827,181.651,153.426,182.987z
	 M153.757,156.762c6.959-2.18,10.939,0.678,14.096,6.596c3.657,6.855,8.167,13.255,12.504,20.167h-8.119
	C166.053,174.567,159.89,165.643,153.757,156.762z M168.427,156.23h11.951c4.777,8.674,9.91,17.992,15.528,28.193H185.43
	C179.848,175.169,174.193,165.792,168.427,156.23z M195.245,175.357c-2.232-6.926-6.902-13.068-10.594-19.727
	c10.378-2.345,24.844,11.858,28.397,27.89c-1.45,0.196-2.907,0.353-4.342,0.624C201.368,185.539,197.637,182.779,195.245,175.357z
	 M202.621,155.413c3.942-0.179,8.215-0.372,11.068-0.502c4.649,10.194,8.878,19.463,13.291,29.14
	c-4.451-0.478-9.285,2.617-12.019-4.966C211.99,170.846,206.882,163.377,202.621,155.413z M218.027,154.704
	c3.437-0.172,6.493-0.325,9.173-0.458c3.984,10.429,7.795,20.404,11.607,30.383h-7.166
	C227.19,174.844,222.743,165.067,218.027,154.704z M201.437,151.368c-7.376,0-13.913,0.06-20.446-0.07
	c-0.882-0.017-2.372-0.854-2.523-1.543c-2.225-10.169-4.271-20.379-6.476-31.149c7.442-0.68,14.142-1.346,20.855-1.817
	c0.62-0.044,1.773,1.055,1.926,1.782C196.995,129.11,199.087,139.678,201.437,151.368z M174.596,151.43h-22.519
	c-2.257-10.531-4.545-21.208-6.95-32.433h22.937C170.21,129.657,172.333,140.195,174.596,151.43z M148.231,152.039
	c-5.019,0.318-10.149,0.644-14.874,0.944c-4.775-11.459-9.36-22.463-14.111-33.865h21.834
	C143.48,130.168,145.824,140.958,148.231,152.039z M106.354,114.48c-3.182-9.034-6.361-18.058-9.594-27.233
	c5.38,0,10.738-0.851,15.592,0.345c2.581,0.637,4.864,4.54,6.272,7.456c2.996,6.204,5.333,12.726,8.067,19.433H106.354z
	 M102.286,114.854c-6.055,0-10.829,0.899-14.949-0.352c-2.331-0.709-3.748-4.863-5.295-7.623
	c-4.078-7.273-8.001-14.631-12.38-22.682c7.893,0.9,15.072,1.478,22.123,2.756c1.205,0.22,2.062,3.369,2.741,5.284
	C97.101,99.495,99.537,106.802,102.286,114.854z M81.624,115.329c0.714,1.48-1.379,4.514-2.528,6.637
	c-1.024,1.891-2.539,3.514-3.938,5.39c-4.647-7.035-7.736-16.872-20.069-14.341c2.34-9.036,4.594-17.744,6.932-26.772
	c0.845-0.114,1.999-0.271,4.008-0.544C71.261,95.464,76.758,105.243,81.624,115.329z M105.932,149.624
	c-5.52-10.173-11.888-19.886-18.17-30.244h27.854c4.412,11.036,8.913,22.296,13.827,34.585c-4.419-0.202-7.598-0.348-12.421-0.567
	C113.731,154.749,109.45,156.108,105.932,149.624z M141.23,183.455c-7.468,3.267-10.4-2.979-14.17-7.024
	c-5.018-5.382-9.677-11.099-14.453-16.704c-0.375-0.44-0.456-1.132-0.677-1.719C116.939,156.54,139.412,176.264,141.23,183.455z
	 M259.538,188.263c-4.591,15.761-35.89,34.402-59.463,34.742c-31.325,0.451-60.414-16.503-67.784-34.742H259.538z M240.613,179.296
	c-2.309-8.541-5.987-16.711-9.246-25.507c3.077-0.248,5.498-0.443,8.042-0.648c4.134,10.532,8.214,20.929,12.442,31.702
	C246.925,185.125,242.512,186.317,240.613,179.296z M231.127,148.781c-2.69-10.776-5.461-21.878-8.533-34.186
	c7.043,0,13.152-0.047,19.257,0.076c0.601,0.012,1.47,0.975,1.727,1.675c3.817,10.389,7.553,20.81,11.744,32.435H231.127z
	 M234.235,57.008c1.038,6.464,2.359,14.694,3.83,23.853c-5.543,0.614-11.021,1.221-16.499,1.828c0,0.155,0,0.312,0,0.468
	c-13.454,0.934-26.908,1.867-39.327,2.729C199.542,76.275,217.321,66.401,234.235,57.008z M198.464,90.069
	c2.199,7.575,4.212,14.509,6.417,22.102c-7.174,0.481-13.723,0.921-20.146,1.352c-1.473-7.872-2.907-15.535-4.389-23.453H198.464z
	 M170.849,89.431c1.902,0.136,4.77,2.14,5.268,3.848c1.915,6.574,3.047,13.377,4.589,20.647H169.22
	c-0.004,0.066-0.009,0.133-0.014,0.2h-12.925c-1.946-8.366-3.924-16.87-5.787-24.878C157.583,89.248,164.243,88.958,170.849,89.431z
	 M143.636,88.256c1.642,0.147,3.674,3.783,4.282,6.134c1.667,6.446,2.674,13.064,4.026,20.048h-21.199
	c-3.309-8.591-6.518-16.926-10.193-26.471C128.655,87.967,136.192,87.594,143.636,88.256z M131.156,83.27
	c-8.524,0-15.662,0.378-22.746-0.083c-12.601-0.821-25.227-1.754-37.71-3.557c-2.968-0.429-6.154-4.021-7.968-6.946
	c-7.335-11.828-14.28-23.905-21.117-36.033c-1.697-3.01-2.448-6.554-3.544-9.604C69.552,44.209,93.46,73.576,131.156,83.27z
	 M39.475,41.618c6.177,9.795,11.602,18.396,16.948,26.873c-4.231,7.054-9.852,8.613-16.812,4.417
	c-1.448-0.874-2.851-3.365-2.744-5.013C37.401,59.645,38.444,51.427,39.475,41.618z M35.748,76.143
	c8.302,4.121,15.854,5.351,22.787-1.783c1.558,2.614,2.737,4.596,3.977,6.68c-9.292,0.848-18.521,1.69-28.502,2.602
	C34.585,81.159,35.093,78.971,35.748,76.143z M32.832,89.362c3.264-0.378,6.088-0.705,10.683-1.237
	c-5.19,19.919-10.159,38.988-15.128,58.058c-0.599-0.144-1.198-0.287-1.798-0.431C28.66,127.041,30.731,108.33,32.832,89.362z
	 M44.2,132.353c0.229,0.044,0.458,0.088,0.687,0.132c-3.985,13.08-7.972,26.16-12.308,40.392c5.007-0.642,8.963-1.366,12.947-1.618
	c13.621-0.865,27.252-1.566,40.879-2.322c6.265-0.349,12.682,0.059,18.764-1.179c10.381-2.113,14.401,5.484,19.642,11.463
	c1.318,1.504,2.34,3.269,4.838,6.813H15.815C25.178,168.326,34.689,150.339,44.2,132.353z M66.608,281.516H32.938v-34.938h33.669
	V281.516z M75.007,243.491c-14.516-0.826-29.049-1.331-44.056-1.999c-0.23-3.49-0.538-8.141-0.898-13.583
	c29.389,0.871,59.053,1.751,89.119,2.642v15.962C104.332,245.484,89.679,244.328,75.007,243.491z M66.956,225.309
	c0.548-5.297,1.041-10.063,1.558-15.063c13.895-0.866,15.458,1.065,12.182,15.063H66.956z M119.291,284.869H89.25v-35.451h30.041
	V284.869z M119.927,219.329c-0.1,1.108-0.381,4.239-0.692,7.702c-11.407-0.539-22.528-1.066-34.147-1.615
	c0-3.627-0.383-7.112,0.077-10.481c1.104-8.098-3.29-9.761-9.967-9.144c-3.612,0.336-7.224,0.68-11.061,1.039v17.206h-13.12
	c-2.818,0-5.634-0.005-8.452,0.005c-12.444,0.041-12.608-0.535-17.333-12.569c-2.799-7.131-7.121-13.663-11.202-21.296h115.087
	C126.375,198.876,123.432,208.21,119.927,219.329z M261.714,237.391c-0.074,1.826-2.667,5.068-4.147,5.093
	c-22.176,0.369-44.378-0.224-66.537,0.513c-18.283,0.607-36.512,2.727-54.775,4.045c-4.063,0.294-8.165,0.044-12.067,0.044
	c-4.056-7.601,1.468-44.438,7.223-51.146c16.417,21.214,38.792,30.495,64.851,31.099c26.757,0.621,47.653-11.817,64.951-31.615
	c0,6.906-0.092,14.031,0.026,21.153C261.355,223.519,261.994,230.471,261.714,237.391z M255.538,185.62
	c-4.019-11.032-7.782-21.362-11.907-32.683c3.449-0.219,6.062-0.385,8.385-0.531c2.555,7.789,4.985,15.224,7.441,22.65
	c0.227,0.686,0.66,1.299,0.917,1.977c0.886,2.325,1.737,4.664,2.601,6.999C260.446,184.571,257.917,185.112,255.538,185.62z
	 M264.512,178.22c-3.048-8.504-5.999-16.732-9.09-25.354c2.396-0.63,3.686-0.968,4.864-1.276
	C268.131,162.763,270.032,174.614,264.512,178.22z M271.273,163.617c-2.051-3.631-4.032-7.139-6.454-11.429
	c2.889-0.474,4.55-0.746,6.374-1.045c1.361,2.602,2.665,5.092,3.814,7.288C273.7,160.246,272.601,161.774,271.273,163.617z
	 M259.864,148.694c-4.104-11.733-8.053-23.021-11.994-34.289c5.348-1.615,4.625-1.127,7.861,3.671
	c5.951,8.82,12.841,17.007,19.355,25.445c0.635,0.822,1.385,1.556,3.1,3.463C271.406,147.617,265.793,148.142,259.864,148.694z"/>
<path fill-rule="evenodd" clip-rule="evenodd" fill="#FFFFFF" stroke="#000000" stroke-width="2" stroke-miterlimit="10" d="
	M131.412,195.938c16.417,21.214,38.792,30.495,64.851,31.099c26.757,0.621,47.653-11.817,64.951-31.615
	c0,6.906-0.092,14.031,0.026,21.153c0.115,6.943,0.754,13.896,0.474,20.815c-0.074,1.826-2.667,5.068-4.147,5.093
	c-22.176,0.369-44.378-0.224-66.537,0.513c-18.283,0.607-36.512,2.727-54.775,4.045c-4.063,0.294-8.165,0.044-12.067,0.044
	C120.133,239.484,125.657,202.646,131.412,195.938z"/>
<path fill-rule="evenodd" clip-rule="evenodd" fill="#FFFFFF" stroke="#000000" stroke-width="2" stroke-miterlimit="10" d="
	M132.291,188.263c42.603,0,84.745,0,127.247,0c-4.591,15.761-35.89,34.402-59.463,34.742
	C168.75,223.456,139.662,206.502,132.291,188.263z"/>
<path fill-rule="evenodd" clip-rule="evenodd" fill="#FFFFFF" stroke="#000000" stroke-width="2" stroke-miterlimit="10" d="
	M129.117,190.176c-2.742,8.7-5.685,18.034-9.19,29.153c-0.1,1.108-0.381,4.239-0.692,7.702c-11.407-0.539-22.528-1.066-34.147-1.615
	c0-3.627-0.383-7.112,0.077-10.481c1.104-8.098-3.29-9.761-9.967-9.144c-3.612,0.336-7.224,0.68-11.061,1.039
	c0,5.631,0,10.941,0,17.206c-4.053,0-8.586,0-13.12,0c-2.818,0-5.634-0.005-8.452,0.005c-12.444,0.041-12.608-0.535-17.333-12.569
	c-2.799-7.131-7.121-13.663-11.202-21.296C52.287,190.176,90.231,190.176,129.117,190.176z"/>
<path fill-rule="evenodd" clip-rule="evenodd" fill="#FFFFFF" stroke="#000000" stroke-width="2" stroke-miterlimit="10" d="
	M83.253,119.791c9.729,15.996,18.14,29.824,26.808,44.075c-12.568,0-25.544,0-37.097,0c-11.378,1.364-21.453,2.571-31.528,3.778
	c-0.051-0.347-0.102-0.693-0.153-1.04c-0.93,0.518-1.859,1.034-3.745,2.082c1.189-4.533,2-8.299,3.165-11.949
	c3.459-10.833,6.751-21.739,10.795-32.356c1.149-3.018,5.458-7.664,6.904-7.197c4.149,1.344,8.441,4.287,11.032,7.811
	c2.389,3.251,2.525,8.109,3.911,12.171c0.451,1.321,1.711,2.365,2.434,3.316C78.352,133.36,80.579,127.193,83.253,119.791z"/>
<path fill-rule="evenodd" clip-rule="evenodd" fill="#FFFFFF" stroke="#000000" stroke-width="2" stroke-miterlimit="10" d="
	M15.815,186.032c9.363-17.706,18.874-35.693,28.385-53.68c0.229,0.044,0.458,0.088,0.687,0.132
	c-3.985,13.08-7.972,26.16-12.308,40.392c5.007-0.642,8.963-1.366,12.947-1.618c13.621-0.865,27.252-1.566,40.879-2.322
	c6.265-0.349,12.682,0.059,18.764-1.179c10.381-2.113,14.401,5.484,19.642,11.463c1.318,1.504,2.34,3.269,4.838,6.813
	C90.539,186.032,53.022,186.032,15.815,186.032z"/>
<path fill-rule="evenodd" clip-rule="evenodd" fill="#FFFFFF" stroke="#000000" stroke-width="2" stroke-miterlimit="10" d="
	M131.156,83.27c-8.524,0-15.662,0.378-22.746-0.083c-12.601-0.821-25.227-1.754-37.71-3.557c-2.968-0.429-6.154-4.021-7.968-6.946
	c-7.335-11.828-14.28-23.905-21.117-36.033c-1.697-3.01-2.448-6.554-3.544-9.604C69.552,44.209,93.46,73.576,131.156,83.27z"/>
<path fill-rule="evenodd" clip-rule="evenodd" fill="#FFFFFF" stroke="#000000" stroke-width="2" stroke-miterlimit="10" d="
	M30.952,241.492c-0.23-3.49-0.538-8.141-0.898-13.583c29.389,0.871,59.053,1.751,89.119,2.642c0,5.125,0,9.771,0,15.962
	c-14.841-1.028-29.494-2.185-44.165-3.021C60.492,242.665,45.958,242.16,30.952,241.492z"/>
<path fill-rule="evenodd" clip-rule="evenodd" fill="#FFFFFF" stroke="#000000" stroke-width="2" stroke-miterlimit="10" d="
	M32.938,281.516c0-11.15,0-22.596,0-34.938c11.544,0,22.847,0,33.669,0c0,11.984,0,23.437,0,34.938
	C55.778,281.516,44.781,281.516,32.938,281.516z"/>
<path fill-rule="evenodd" clip-rule="evenodd" fill="#FFFFFF" stroke="#000000" stroke-width="2" stroke-miterlimit="10" d="
	M89.25,284.869c0-11.928,0-23.803,0-35.451c9.999,0,19.451,0,30.041,0c0,11.711,0,22.852,0,35.451
	C109.983,284.869,99.496,284.869,89.25,284.869z"/>
<path fill-rule="evenodd" clip-rule="evenodd" fill="#FFFFFF" stroke="#000000" stroke-width="2" stroke-miterlimit="10" d="
	M115.616,119.38c4.412,11.036,8.913,22.296,13.827,34.585c-4.419-0.202-7.598-0.348-12.421-0.567
	c-3.291,1.352-7.572,2.711-11.09-3.773c-5.52-10.173-11.888-19.886-18.17-30.244C97.188,119.38,105.896,119.38,115.616,119.38z"/>
<path fill-rule="evenodd" clip-rule="evenodd" fill="#FFFFFF" stroke="#000000" stroke-width="2" stroke-miterlimit="10" d="
	M171.992,118.605c7.442-0.68,14.142-1.346,20.855-1.817c0.62-0.044,1.773,1.055,1.926,1.782c2.221,10.54,4.313,21.107,6.664,32.798
	c-7.376,0-13.913,0.06-20.446-0.07c-0.882-0.017-2.372-0.854-2.523-1.543C176.243,139.586,174.197,129.376,171.992,118.605z"/>
<path fill-rule="evenodd" clip-rule="evenodd" fill="#FFFFFF" stroke="#000000" stroke-width="2" stroke-miterlimit="10" d="
	M255.321,148.781c-8.787,0-16.375,0-24.194,0c-2.69-10.776-5.461-21.878-8.533-34.186c7.043,0,13.152-0.047,19.257,0.076
	c0.601,0.012,1.47,0.975,1.727,1.675C247.395,126.735,251.13,137.156,255.321,148.781z"/>
<path fill-rule="evenodd" clip-rule="evenodd" fill="#FFFFFF" stroke="#000000" stroke-width="2" stroke-miterlimit="10" d="
	M152.077,151.43c-2.257-10.531-4.545-21.208-6.95-32.433c8.175,0,15.578,0,22.937,0c2.146,10.66,4.269,21.198,6.532,32.433
	C166.752,151.43,159.596,151.43,152.077,151.43z"/>
<path fill-rule="evenodd" clip-rule="evenodd" fill="#FFFFFF" stroke="#000000" stroke-width="2" stroke-miterlimit="10" d="
	M198.738,117.037c6.935-0.48,13.618-0.943,20.475-1.418c2.536,11.393,4.993,22.431,7.623,34.243c-7.427,0-14.037,0-21.283,0
	C203.382,139.407,201.11,128.462,198.738,117.037z"/>
<path fill-rule="evenodd" clip-rule="evenodd" fill="#FFFFFF" stroke="#000000" stroke-width="2" stroke-miterlimit="10" d="
	M238.064,80.86c-5.543,0.614-11.021,1.221-16.499,1.828c0,0.155,0,0.312,0,0.468c-13.454,0.934-26.908,1.867-39.327,2.729
	c17.304-9.61,35.083-19.484,51.997-28.878C235.272,63.472,236.594,71.702,238.064,80.86z"/>
<path fill-rule="evenodd" clip-rule="evenodd" fill="#FFFFFF" stroke="#000000" stroke-width="2" stroke-miterlimit="10" d="
	M150.495,89.248c7.088,0,13.748-0.29,20.354,0.183c1.902,0.136,4.77,2.14,5.268,3.848c1.915,6.574,3.047,13.377,4.589,20.647
	c-4.277,0-7.881,0-11.485,0c-0.004,0.066-0.009,0.133-0.014,0.2c-4.147,0-8.292,0-12.925,0
	C154.335,105.76,152.357,97.256,150.495,89.248z"/>
<path fill-rule="evenodd" clip-rule="evenodd" fill="#FFFFFF" stroke="#000000" stroke-width="2" stroke-miterlimit="10" d="
	M151.944,114.438c-7.319,0-14.668,0-21.199,0c-3.309-8.591-6.518-16.926-10.193-26.471c8.103,0,15.64-0.373,23.083,0.289
	c1.642,0.147,3.674,3.783,4.282,6.134C149.585,100.836,150.592,107.454,151.944,114.438z"/>
<path fill-rule="evenodd" clip-rule="evenodd" fill="#FFFFFF" stroke="#000000" stroke-width="2" stroke-miterlimit="10" d="
	M119.247,119.118c7.563,0,14.588,0,21.834,0c2.4,11.05,4.744,21.84,7.151,32.921c-5.019,0.318-10.149,0.644-14.874,0.944
	C128.582,141.524,123.998,130.521,119.247,119.118z"/>
<path fill-rule="evenodd" clip-rule="evenodd" fill="#FFFFFF" stroke="#000000" stroke-width="2" stroke-miterlimit="10" d="
	M69.662,84.197c7.893,0.9,15.072,1.478,22.123,2.756c1.205,0.22,2.062,3.369,2.741,5.284c2.575,7.258,5.012,14.564,7.761,22.616
	c-6.055,0-10.829,0.899-14.949-0.352c-2.331-0.709-3.748-4.863-5.295-7.623C77.964,99.605,74.041,92.248,69.662,84.197z"/>
<path fill-rule="evenodd" clip-rule="evenodd" fill="#FFFFFF" stroke="#000000" stroke-width="2" stroke-miterlimit="10" d="
	M126.692,114.48c-7.486,0-13.844,0-20.337,0c-3.182-9.034-6.361-18.058-9.594-27.233c5.38,0,10.738-0.851,15.592,0.345
	c2.581,0.637,4.864,4.54,6.272,7.456C121.621,101.252,123.958,107.773,126.692,114.48z"/>
<path fill-rule="evenodd" clip-rule="evenodd" fill="#FFFFFF" stroke="#000000" stroke-width="2" stroke-miterlimit="10" d="
	M62.02,86.242c0.845-0.114,1.999-0.271,4.008-0.544c5.233,9.766,10.73,19.545,15.596,29.631c0.714,1.48-1.379,4.514-2.528,6.637
	c-1.024,1.891-2.539,3.514-3.938,5.39c-4.647-7.035-7.736-16.872-20.069-14.341C57.428,103.979,59.682,95.271,62.02,86.242z"/>
<path fill-rule="evenodd" clip-rule="evenodd" fill="#FFFFFF" stroke="#000000" stroke-width="2" stroke-miterlimit="10" d="
	M203.024,89.646c7.427-0.725,14.251-1.391,21.081-2.056c1.334,7.517,2.597,14.634,3.974,22.39
	c-6.104,0.546-12.063,1.139-18.035,1.519c-0.563,0.034-1.548-1.17-1.767-1.958C206.517,103.19,204.893,96.802,203.024,89.646z"/>
<path fill-rule="evenodd" clip-rule="evenodd" fill="#FFFFFF" stroke="#000000" stroke-width="2" stroke-miterlimit="10" d="
	M204.88,112.171c-7.174,0.481-13.723,0.921-20.146,1.352c-1.473-7.872-2.907-15.535-4.389-23.453c6.154,0,12.15,0,18.119,0
	C200.663,97.645,202.676,104.578,204.88,112.171z"/>
<path fill-rule="evenodd" clip-rule="evenodd" fill="#FFFFFF" stroke="#000000" stroke-width="2" stroke-miterlimit="10" d="
	M184.651,155.631c10.378-2.345,24.844,11.858,28.396,27.882c-1.448,0.204-2.906,0.36-4.341,0.632
	c-7.338,1.395-11.069-1.365-13.461-8.787C193.012,168.432,188.343,162.289,184.651,155.631z"/>
<path fill-rule="evenodd" clip-rule="evenodd" fill="#FFFFFF" stroke="#000000" stroke-width="2" stroke-miterlimit="10" d="
	M56.423,68.491c-4.231,7.054-9.852,8.613-16.812,4.417c-1.448-0.874-2.851-3.365-2.744-5.013c0.534-8.251,1.577-16.469,2.607-26.277
	C45.652,51.413,51.076,60.014,56.423,68.491z"/>
<path fill-rule="evenodd" clip-rule="evenodd" fill="#FFFFFF" stroke="#000000" stroke-width="2" stroke-miterlimit="10" d="
	M259.864,148.694c-4.104-11.733-8.053-23.021-11.994-34.289c5.348-1.615,4.625-1.127,7.861,3.671
	c5.951,8.82,12.841,17.007,19.355,25.445c0.635,0.822,1.385,1.556,3.1,3.463C271.406,147.617,265.793,148.142,259.864,148.694z"/>
<path fill-rule="evenodd" clip-rule="evenodd" fill="#FFFFFF" stroke="#000000" stroke-width="2" stroke-miterlimit="10" d="
	M232.685,109.751c-1.491-7.667-2.938-15.104-4.419-22.721c4.383-0.808,8.276-1.524,12.054-2.22
	c3.409,7.521,6.808,15.021,10.646,23.49C244.697,108.797,238.824,109.264,232.685,109.751z"/>
<path fill-rule="evenodd" clip-rule="evenodd" fill="#FFFFFF" stroke="#000000" stroke-width="2" stroke-miterlimit="10" d="
	M26.588,145.752c2.072-18.711,4.143-37.422,6.243-56.39c3.264-0.378,6.088-0.705,10.683-1.237
	c-5.19,19.919-10.159,38.988-15.128,58.058C27.787,146.039,27.188,145.896,26.588,145.752z"/>
<path fill-rule="evenodd" clip-rule="evenodd" fill="#FFFFFF" stroke="#000000" stroke-width="2" stroke-miterlimit="10" d="
	M195.906,184.424c-4.526,0-7.435,0-10.477,0c-5.582-9.255-11.236-18.632-17.002-28.193c3.49,0,7.098,0,11.951,0
	C185.156,164.904,190.288,174.223,195.906,184.424z"/>
<path fill-rule="evenodd" clip-rule="evenodd" fill="#FFFFFF" stroke="#000000" stroke-width="2" stroke-miterlimit="10" d="
	M47.345,87.967c0.5-0.052,3.034-0.309,4.878-0.495c0.806,24.958-14.365,44.173-20.468,59.843
	C35.774,132.016,41.413,110.549,47.345,87.967z"/>
<path fill-rule="evenodd" clip-rule="evenodd" fill="#FFFFFF" stroke="#000000" stroke-width="2" stroke-miterlimit="10" d="
	M202.621,155.413c3.942-0.179,8.215-0.372,11.068-0.502c4.649,10.194,8.878,19.463,13.291,29.14
	c-4.451-0.478-9.285,2.617-12.019-4.966C211.99,170.846,206.882,163.377,202.621,155.413z"/>
<path fill-rule="evenodd" clip-rule="evenodd" fill="#FFFFFF" stroke="#000000" stroke-width="2" stroke-miterlimit="10" d="
	M231.368,153.789c3.077-0.248,5.498-0.443,8.042-0.648c4.134,10.532,8.214,20.929,12.442,31.702
	c-4.926,0.282-9.339,1.475-11.238-5.547C238.305,170.755,234.626,162.585,231.368,153.789z"/>
<path fill-rule="evenodd" clip-rule="evenodd" fill="#FFFFFF" stroke="#000000" stroke-width="2" stroke-miterlimit="10" d="
	M243.631,152.938c3.449-0.219,6.062-0.385,8.385-0.531c2.555,7.789,4.985,15.224,7.441,22.65c0.227,0.686,0.66,1.299,0.917,1.977
	c0.886,2.325,1.737,4.664,2.601,6.999c-2.53,0.539-5.059,1.08-7.438,1.588C251.52,174.588,247.756,164.258,243.631,152.938z"/>
<path fill-rule="evenodd" clip-rule="evenodd" fill="#FFFFFF" stroke="#000000" stroke-width="2" stroke-miterlimit="10" d="
	M218.027,154.704c3.437-0.172,6.493-0.325,9.173-0.458c3.984,10.429,7.795,20.404,11.607,30.383c-1.926,0-4.535,0-7.166,0
	C227.19,174.844,222.743,165.067,218.027,154.704z"/>
<path fill-rule="evenodd" clip-rule="evenodd" fill="#FFFFFF" stroke="#000000" stroke-width="2" stroke-miterlimit="10" d="
	M180.357,183.524c-3.037,0-5.607,0-8.119,0c-6.185-8.957-12.349-17.882-18.481-26.763c6.959-2.18,10.939,0.678,14.096,6.596
	C171.51,170.213,176.021,176.612,180.357,183.524z"/>
<path fill-rule="evenodd" clip-rule="evenodd" fill="#FFFFFF" stroke="#000000" stroke-width="2" stroke-miterlimit="10" d="
	M166.375,183.299c-2.679,0-5.208,0-6.419,0c-7.609-9.064-14.555-17.338-21.427-25.524c6.76-2.868,10.979-0.845,17.206,8.514
	c1.837,2.76,3.835,5.417,5.594,8.225C163.081,177.308,164.626,180.232,166.375,183.299z"/>
<path fill-rule="evenodd" clip-rule="evenodd" fill="#FFFFFF" stroke="#000000" stroke-width="2" stroke-miterlimit="10" d="
	M152.229,184.704c-2.727-1.503-5.994-2.476-8.081-4.605c-6.745-6.882-13.056-14.188-19.398-21.181
	c5.896-3.146,9.287,0.033,12.922,4.963c4.043,5.48,9.312,10.049,13.907,15.14c0.934,1.036,1.248,2.631,1.847,3.967
	C153.027,183.56,152.628,184.131,152.229,184.704z"/>
<path fill-rule="evenodd" clip-rule="evenodd" fill="#FFFFFF" stroke="#000000" stroke-width="2" stroke-miterlimit="10" d="
	M68.513,210.245c13.895-0.866,15.458,1.065,12.182,15.063c-4.49,0-9.022,0-13.74,0C67.503,220.012,67.996,215.246,68.513,210.245z"
	/>
<path fill-rule="evenodd" clip-rule="evenodd" fill="#FFFFFF" stroke="#000000" stroke-width="2" stroke-miterlimit="10" d="
	M111.93,158.008c5.01-1.468,27.482,18.256,29.301,25.447c-7.468,3.267-10.4-2.979-14.17-7.024
	c-5.018-5.382-9.677-11.099-14.453-16.704C112.232,159.286,112.151,158.595,111.93,158.008z"/>
<path fill-rule="evenodd" clip-rule="evenodd" fill="#FFFFFF" stroke="#000000" stroke-width="2" stroke-miterlimit="10" d="
	M264.512,178.22c-3.048-8.504-5.999-16.732-9.09-25.354c2.396-0.63,3.686-0.968,4.864-1.276
	C268.131,162.763,270.032,174.614,264.512,178.22z"/>
<path fill-rule="evenodd" clip-rule="evenodd" fill="#FFFFFF" stroke="#000000" stroke-width="2" stroke-miterlimit="10" d="
	M35.748,76.143c8.302,4.121,15.854,5.351,22.787-1.783c1.558,2.614,2.737,4.596,3.977,6.68c-9.292,0.848-18.521,1.69-28.502,2.602
	C34.585,81.159,35.093,78.971,35.748,76.143z"/>
<path fill-rule="evenodd" clip-rule="evenodd" fill="#FFFFFF" stroke="#000000" stroke-width="2" stroke-miterlimit="10" d="
	M264.819,152.188c2.889-0.474,4.55-0.746,6.374-1.045c1.361,2.602,2.665,5.092,3.814,7.288c-1.308,1.814-2.407,3.343-3.734,5.186
	C269.223,159.986,267.242,156.479,264.819,152.188z"/>
</svg>
