<?xml version="1.0" encoding="utf-8"?>
<!-- Generator: Adobe Illustrator 16.0.0, SVG Export Plug-In . SVG Version: 6.00 Build 0)  -->
<!DOCTYPE svg PUBLIC "-//W3C//DTD SVG 1.1//EN" "http://www.w3.org/Graphics/SVG/1.1/DTD/svg11.dtd">
<svg version="1.1" id="Calque_1" xmlns="http://www.w3.org/2000/svg" xmlns:xlink="http://www.w3.org/1999/xlink" x="0px" y="0px"
	 width="279px" height="307px" viewBox="0 0 279 307" enable-background="new 0 0 279 307" xml:space="preserve">
<g>
	<path fill-rule="evenodd" clip-rule="evenodd" stroke="#000000" stroke-miterlimit="10" d="M244.119,206.776
		c9.596-1.713,20.596-9.335,20.614-15.256c1.893,1.784,3.927,2.787,4.254,4.188c0.887,3.795,1.58,7.788,1.363,11.647
		c-0.283,5.019-2.086,9.97-2.214,14.978c-0.194,7.612-4.104,13.92-6.333,20.787c-1.86,5.737-4.577,11.235-7.307,16.641
		c-2.539,5.032-5.386,9.941-8.476,14.654c-4.062,6.196-8.479,12.16-12.792,18.188c-0.538,0.754-1.338,1.346-2.085,1.925
		c-3.121,2.42-3.928,2.131-4.759-1.614c-0.144-0.646-0.388-1.271-0.539-1.761c-23.993,0.815-47.748,1.879-71.514,2.324
		c-12.54,0.235-25.102-0.676-37.655-0.943c-10.655-0.229-21.326-0.014-31.969-0.472c-14.587-0.628-29.161-1.608-43.725-2.657
		c-3.886-0.28-7.821-1.024-11.516-2.227c-1.538-0.5-3.227-2.594-3.595-4.242c-1.038-4.648-1.379-9.45-2.085-14.179
		c-0.75-5.021-0.996-10.224-2.55-14.991c-2.33-7.145-5.635-13.97-8.476-20.95c-1.555-3.821-4.428-7.134-3.67-11.851
		c0.267-1.662-1.262-3.614-2.212-6.057c2.415,0.837,4.236,1.467,5.354,1.855c4.202-2.429,8.256-4.516,12.021-7.033
		c2.785-1.861,5.417-4.072,7.712-6.51c2.66-2.825,4.738-6.191,7.319-9.102c4.458-5.029,9.107-9.888,13.684-14.814
		c0.276-0.298,0.88-0.581,0.858-0.827c-0.555-6.086,6.034-7.39,7.939-11.89c1.179-2.787,3.372-5.129,4.688-7.872
		c3.96-8.252,8.188-16.425,11.389-24.974c2.356-6.295,3.599-13.077,4.681-19.748c0.564-3.473-0.288-7.176-0.545-11.497
		c1.071,1.285,1.72,1.915,2.185,2.659c0.498,0.797,0.824,1.701,1.227,2.558c0.522-1.032,1.422-2.032,1.507-3.099
		c0.501-6.255,0.6-12.547,1.233-18.785c1.039-10.237,1.545-20.551-0.149-30.643c-2.035-12.121-5.233-24.042-11.183-35.014
		c-1.359-2.508-2.45-5.198-3.329-7.913c-0.426-1.315-0.074-2.882-0.074-4.336c0.624-0.229,1.245-0.459,1.869-0.688
		c2.378,3.095,4.786,6.167,7.13,9.289c3.538,4.713,7.078,9.425,10.53,14.2c3.874,5.358,7.693,10.758,11.455,16.194
		c2.804,4.053,5.868,7.993,8.123,12.342c3.951,7.62,7.353,15.524,11.024,23.291c1.373,2.906,3.242,5.638,4.2,8.666
		c1.43,4.52,2.715,9.179,3.245,13.87c1.562,13.807,3.143,27.637,3.923,41.502c0.834,14.842,1.077,29.736,0.966,44.604
		c-0.059,7.682-1.462,15.353-2.223,23.031c-0.183,1.848-0.224,3.708-0.328,5.543c6.371,0.434,6.267,0.232,7.17-5.187
		c0.838-5.032,3.337-9.919,3.472-14.912c0.394-14.612-0.035-29.247-0.126-43.873c-0.069-11.253-2.378-22.283-3.549-33.421
		c-1.017-9.668-2.945-19.416-5.947-28.65c-2.943-9.053-7.808-17.476-11.688-26.238c-0.78-1.762-0.924-3.808-1.36-5.722
		c0.488-0.275,0.976-0.553,1.465-0.827c1.814,1.541,3.499,3.283,5.478,4.574c2.547,1.66,5.196,3.348,8.04,4.329
		c4.975,1.717,10.813,0.957,14.806,5.553c0.532,0.612,2.421-0.164,3.473,0.241c9.227,3.556,18.488,7.042,27.556,10.971
		c3.42,1.48,6.644,3.743,9.471,6.207c9.855,8.587,20.188,16.511,29.116,26.319c8.038,8.828,12.977,18.32,15.429,29.701
		c1.877,8.713,4.855,17.199,6.532,25.942c1.189,6.208,1.136,12.668,1.432,19.026C244.28,198.09,244.119,202.39,244.119,206.776z
		 M149.931,193.056c2.569-2.157,5.184-4.722,8.155-6.767c5.653-3.892,10.914-8.793,18.012-9.821
		c12.709-1.839,25.183,0.324,37.092,4.431c9.865,3.401,18.721,9.059,26.016,17.604c0-1.237,0.052-1.874-0.007-2.502
		c-0.84-8.923-1.303-17.903-2.664-26.747c-1.156-7.508-2.628-15.125-5.262-22.212c-3.701-9.963-7.864-19.841-16.613-26.953
		c-4.654-3.782-8.471-8.58-12.905-12.66c-1.865-1.716-4.947-2.291-6.444-4.195c-5.753-7.319-14.15-10.321-22.071-13.939
		c-8.144-3.72-16.597-6.807-25.043-9.804c-4.623-1.64-9.514-2.521-14.832-3.885C148.095,114.244,149.15,153.646,149.931,193.056z
		 M35.086,209.099c0.23,0.358,0.46,0.716,0.69,1.075c2.394-0.869,4.836-1.623,7.17-2.631c4.601-1.981,8.986-4.615,13.74-6.049
		c7.652-2.311,15.462-4.276,23.336-5.607c5.943-1.004,11.797,0.73,17.676,2.272c8.966,2.351,17.046,6.092,24.333,11.741
		c1.516,1.174,3.311,1.986,4.232,2.529c0.365-2.279,0.657-4.205,0.986-6.125c0.116-0.668,0.428-1.314,0.471-1.981
		c0.45-7.077,1.215-14.157,1.216-21.235c0.002-13.075-0.418-26.15-0.726-39.225c-0.166-7.096,0.289-14.316-0.883-21.254
		c-1.636-9.686-4.504-19.167-6.896-28.723c-1.092-4.365-1.967-8.825-3.523-13.026c-3.344-9.019-6.797-17.982-12.786-25.769
		c-5.891-7.661-11.342-15.662-16.986-23.514c1.09,5.639,3.507,10.914,3.834,16.315c1.009,16.638,1.261,33.324,1.688,49.993
		c0.051,2.012-0.461,4.086-0.987,6.057c-2.771,10.362-5.445,20.757-8.536,31.025c-1.711,5.684-3.866,11.284-6.382,16.66
		c-2.604,5.565-5.809,10.859-8.907,16.18c-1.414,2.428-3.344,4.553-4.804,6.959c-6.89,11.356-14.89,21.801-24.751,30.766
		C37.115,206.604,36.15,207.904,35.086,209.099z M30.591,264.186c0.022-0.045-0.409,0.648-0.685,1.398
		c-1.441,3.914-0.536,5.174,3.318,6.846c5.38,2.336,10.942,1.139,16.34,1.106c9.261-0.054,18.506-1.45,27.773-1.673
		c10.189-0.244,20.401,0.511,30.59,0.267c12.997-0.313,25.976-1.34,38.972-1.788c14.908-0.516,29.827-0.756,44.743-1.065
		c4.648-0.097,9.303,0.033,13.952-0.048c4.78-0.084,9.565-0.191,14.337-0.481c6.123-0.374,12.395-1.987,18.299-1.083
		c4.415,0.678,6.249-0.632,7.876-3.756c0.653-1.256,0.466-2.923,0.947-4.303c0.286-0.82,1.157-1.426,1.714-2.166
		c0.553-0.733,1.191-1.456,1.523-2.291c0.556-1.396,0.897-2.881,1.479-4.831c-1.035,0-2.59-0.146-4.11,0.021
		c-17.622,1.948-35.234,3.993-52.86,5.903c-8.032,0.87-16.081,1.666-24.141,2.208c-25.132,1.689-50.266,3.37-75.414,4.806
		c-18.545,1.059-37.108,1.801-55.672,2.484C36.85,265.84,34.087,264.822,30.591,264.186z M238.203,208.883
		c0.305-0.547,0.609-1.092,0.915-1.639c-2.305-2.583-4.411-5.382-6.963-7.694c-3.359-3.047-6.724-6.403-10.705-8.379
		c-6.266-3.108-12.925-5.597-19.642-7.586c-9.722-2.879-19.737-3.79-29.642-0.864c-2.438,0.721-4.311,3.169-6.659,4.415
		c-10.883,5.772-16.181,15.204-17.987,26.97c-0.651,4.241,0.085,5.055,4.233,4.508c8.025-1.057,16.005-2.588,24.058-3.293
		c6.593-0.578,13.307,0.195,19.895-0.413c9.651-0.894,19.245-2.444,28.852-3.798C229.12,210.467,233.655,209.631,238.203,208.883z
		 M260.39,230.175c-2.69,0.36-4.685,0.574-6.66,0.899c-19.904,3.271-39.724,7.238-59.731,9.664
		c-22.938,2.782-46.036,4.268-69.075,6.194c-23.997,2.007-47.992,4.093-72.021,5.664c-7.353,0.481-14.777,3.314-22.237,0.303
		c-0.557-0.226-2.046,0.345-2.147,0.772c-0.429,1.809-0.916,3.799-0.512,5.519c0.193,0.821,2.281,1.438,3.599,1.689
		c1.444,0.274,2.99,0.063,4.488-0.01c12.568-0.614,25.142-1.128,37.701-1.896c15.01-0.917,30-2.188,45.014-3.052
		c11.196-0.646,22.417-0.896,33.627-1.301c6.182-0.224,12.38-0.211,18.544-0.662c4.773-0.35,9.486-1.526,14.259-1.843
		c5.593-0.371,11.222-0.198,16.834-0.288c0.817-0.014,1.644-0.116,2.448-0.273c4.465-0.871,8.891-2.021,13.39-2.613
		c11.371-1.495,22.768-2.8,34.169-4.05c2.741-0.301,4.736-1.669,5.583-3.979C258.852,237.662,259.408,234.18,260.39,230.175z
		 M241.813,272.377c-70.347,2.158-140.029,4.297-209.627,6.434c-0.839,3.972-0.315,4.954,2.52,5.134
		c5.036,0.318,10.071,0.683,15.111,0.909c13.758,0.613,27.518,1.211,41.279,1.732c14.601,0.553,29.201,1.276,43.807,1.424
		c11.904,0.121,23.818-0.454,35.725-0.799c19.294-0.561,38.588-1.124,57.874-1.877c1.916-0.076,4.319-0.994,5.558-2.367
		C236.835,279.893,239.019,276.285,241.813,272.377z M23.486,240.525c-0.599,6.787,1.364,9.117,8.55,8.655
		c7.616-0.489,15.195-1.55,22.81-2.116c22.909-1.705,45.848-3.049,68.736-4.986c26.7-2.259,53.371-4.895,80.033-7.576
		c10.647-1.071,21.279-2.448,31.838-4.172c6.706-1.095,13.225-3.299,19.903-4.615c7.279-1.436,9.216-3.768,9.423-11.304
		c0.087-3.146-1.057-4.198-3.806-3.694c-5.47,1.002-10.999,1.877-16.32,3.432c-4.65,1.357-8.914,4.108-13.588,5.308
		c-11.686,3.001-23.407,6.081-35.298,8.002c-15.109,2.44-30.365,4.153-45.619,5.478c-16.896,1.466-33.868,2.011-50.791,3.189
		c-23.327,1.624-46.637,3.492-69.961,5.164C27.555,241.42,25.661,240.825,23.486,240.525z M124.315,220.858
		c0.034-0.446,0.07-0.895,0.105-1.341c-6.534-6.286-14.228-10.76-22.761-13.768c-6.063-2.135-11.908-4.37-18.82-3.878
		c-11.737,0.837-22.507,4.777-33.361,8.507c-6.084,2.091-11.824,5.209-17.656,7.998c-1.966,0.941-3.737,2.291-6.044,3.733
		c17.09,0,33.456,0.163,49.818-0.045C91.839,221.857,108.076,221.277,124.315,220.858z M204.232,220.497
		c-0.133-0.349-0.267-0.698-0.399-1.047c-3.731,0-7.485-0.261-11.191,0.05c-10.282,0.864-20.546,1.957-30.815,2.99
		c-0.787,0.08-1.54,0.465-2.328,0.6c-1.421,0.243-2.851,0.506-4.285,0.581c-5.147,0.269-10.705-0.702-15.36,0.93
		c-9.024,3.161-18.205,1.308-27.242,2.436c-5.48,0.684-11.143-0.231-16.715-0.086c-9.146,0.237-18.279,0.96-27.425,1.107
		c-16.108,0.257-32.221,0.213-48.33,0.374c-1.196,0.013-2.387,0.666-3.669,1.048c3.572,7.206,5.377,8.102,12.4,6.589
		c0.389-0.085,0.805-0.035,1.206-0.063c14.295-1.004,28.584-2.063,42.882-3c15.387-1.008,30.788-1.801,46.169-2.874
		c14.003-0.978,28.013-1.966,41.974-3.394c13.267-1.355,26.478-3.269,39.704-5.004C201.983,221.578,203.093,220.922,204.232,220.497
		z"/>
	<path fill-rule="evenodd" clip-rule="evenodd" fill="#FFFFFF" stroke="#000000" stroke-miterlimit="10" d="M149.931,193.056
		c-0.78-39.409-1.836-78.812-16.567-117.45c5.318,1.364,10.209,2.245,14.832,3.885c8.446,2.997,16.899,6.084,25.043,9.804
		c7.921,3.618,16.318,6.62,22.071,13.939c1.497,1.904,4.579,2.479,6.444,4.195c4.435,4.08,8.251,8.878,12.905,12.66
		c8.749,7.112,12.912,16.99,16.613,26.953c2.634,7.087,4.105,14.704,5.262,22.212c1.361,8.844,1.824,17.824,2.664,26.747
		c0.059,0.628,0.007,1.265,0.007,2.502c-7.295-8.546-16.15-14.203-26.016-17.604c-11.909-4.106-24.383-6.27-37.092-4.431
		c-7.098,1.028-12.358,5.93-18.012,9.821C155.114,188.334,152.5,190.898,149.931,193.056z M220.626,161.293
		c4.043-2.549,2.848-5.058,1.359-7.218c-4.523-6.562-9.003-13.179-13.95-19.419c-3.579-4.516-8.044-8.318-11.813-12.698
		c-7.038-8.182-14.688-15.438-25.363-18.585c-0.753-0.222-2.372,0.071-2.436,0.366c-0.224,1.067-0.297,2.448,0.23,3.308
		c0.491,0.8,1.771,1.232,2.788,1.577c9.297,3.153,16.145,9.716,22.579,16.647c5.123,5.518,9.798,11.469,14.436,17.412
		c2.471,3.166,4.439,6.724,6.636,10.104C216.898,155.564,218.704,158.339,220.626,161.293z"/>
	<path fill-rule="evenodd" clip-rule="evenodd" fill="#FFFFFF" stroke="#000000" stroke-miterlimit="10" d="M35.086,209.099
		c1.064-1.194,2.029-2.495,3.206-3.565c9.861-8.965,17.861-19.409,24.751-30.766c1.46-2.406,3.39-4.531,4.804-6.959
		c3.099-5.32,6.304-10.614,8.907-16.18c2.516-5.376,4.671-10.977,6.382-16.66c3.091-10.269,5.765-20.663,8.536-31.025
		c0.526-1.971,1.038-4.045,0.987-6.057c-0.428-16.669-0.68-33.355-1.688-49.993c-0.327-5.401-2.744-10.677-3.834-16.315
		c5.645,7.852,11.096,15.853,16.986,23.514c5.989,7.786,9.442,16.75,12.786,25.769c1.557,4.201,2.432,8.661,3.523,13.026
		c2.392,9.556,5.26,19.037,6.896,28.723c1.172,6.938,0.717,14.158,0.883,21.254c0.308,13.074,0.728,26.149,0.726,39.225
		c-0.001,7.078-0.766,14.158-1.216,21.235c-0.043,0.667-0.354,1.313-0.471,1.981c-0.329,1.92-0.621,3.846-0.986,6.125
		c-0.922-0.543-2.717-1.355-4.232-2.529c-7.287-5.649-15.367-9.391-24.333-11.741c-5.879-1.542-11.732-3.276-17.676-2.272
		c-7.874,1.331-15.684,3.297-23.336,5.607c-4.754,1.434-9.14,4.067-13.74,6.049c-2.334,1.008-4.776,1.762-7.17,2.631
		C35.546,209.814,35.316,209.457,35.086,209.099z"/>
	<path fill-rule="evenodd" clip-rule="evenodd" fill="#FFFFFF" stroke="#000000" stroke-miterlimit="10" d="M30.591,264.186
		c3.496,0.637,6.259,1.654,8.981,1.555c18.563-0.684,37.127-1.426,55.672-2.484c25.148-1.436,50.282-3.116,75.414-4.806
		c8.06-0.542,16.108-1.338,24.141-2.208c17.626-1.91,35.238-3.955,52.86-5.903c1.521-0.167,3.075-0.021,4.11-0.021
		c-0.581,1.95-0.923,3.435-1.479,4.831c-0.332,0.835-0.971,1.558-1.523,2.291c-0.557,0.74-1.428,1.346-1.714,2.166
		c-0.481,1.38-0.294,3.047-0.947,4.303c-1.627,3.124-3.461,4.434-7.876,3.756c-5.904-0.904-12.176,0.709-18.299,1.083
		c-4.771,0.29-9.557,0.397-14.337,0.481c-4.649,0.081-9.304-0.049-13.952,0.048c-14.916,0.31-29.835,0.55-44.743,1.065
		c-12.996,0.448-25.975,1.475-38.972,1.788c-10.188,0.244-20.4-0.511-30.59-0.267c-9.268,0.223-18.513,1.619-27.773,1.673
		c-5.397,0.032-10.96,1.229-16.34-1.106c-3.854-1.672-4.76-2.932-3.318-6.846C30.182,264.834,30.613,264.141,30.591,264.186z"/>
	<path fill-rule="evenodd" clip-rule="evenodd" fill="#FFFFFF" stroke="#000000" stroke-miterlimit="10" d="M238.203,208.883
		c-4.548,0.748-9.083,1.584-13.646,2.227c-9.606,1.354-19.2,2.904-28.852,3.798c-6.588,0.608-13.302-0.165-19.895,0.413
		c-8.053,0.705-16.032,2.236-24.058,3.293c-4.148,0.547-4.885-0.267-4.233-4.508c1.807-11.766,7.104-21.197,17.987-26.97
		c2.349-1.246,4.221-3.694,6.659-4.415c9.904-2.926,19.92-2.015,29.642,0.864c6.717,1.989,13.376,4.478,19.642,7.586
		c3.981,1.976,7.346,5.332,10.705,8.379c2.552,2.313,4.658,5.111,6.963,7.694C238.813,207.791,238.508,208.336,238.203,208.883z"/>
	<path fill-rule="evenodd" clip-rule="evenodd" fill="#FFFFFF" stroke="#000000" stroke-miterlimit="10" d="M260.39,230.175
		c-0.981,4.005-1.538,7.487-2.729,10.737c-0.847,2.311-2.842,3.679-5.583,3.979c-11.401,1.25-22.798,2.555-34.169,4.05
		c-4.499,0.593-8.925,1.742-13.39,2.613c-0.805,0.157-1.631,0.26-2.448,0.273c-5.612,0.09-11.241-0.083-16.834,0.288
		c-4.772,0.316-9.485,1.493-14.259,1.843c-6.164,0.451-12.362,0.438-18.544,0.662c-11.21,0.404-22.431,0.655-33.627,1.301
		c-15.014,0.863-30.004,2.135-45.014,3.052c-12.56,0.769-25.133,1.282-37.701,1.896c-1.498,0.073-3.044,0.284-4.488,0.01
		c-1.317-0.251-3.405-0.868-3.599-1.689c-0.404-1.72,0.083-3.71,0.512-5.519c0.102-0.428,1.591-0.998,2.147-0.772
		c7.46,3.012,14.885,0.179,22.237-0.303c24.028-1.571,48.023-3.657,72.021-5.664c23.039-1.927,46.138-3.412,69.075-6.194
		c20.008-2.426,39.827-6.394,59.731-9.664C255.705,230.749,257.699,230.535,260.39,230.175z"/>
	<path fill-rule="evenodd" clip-rule="evenodd" fill="#FFFFFF" stroke="#000000" stroke-miterlimit="10" d="M241.813,272.377
		c-2.794,3.908-4.978,7.516-7.754,10.59c-1.238,1.373-3.642,2.291-5.558,2.367c-19.286,0.753-38.58,1.316-57.874,1.877
		c-11.906,0.345-23.82,0.92-35.725,0.799c-14.605-0.147-29.206-0.871-43.807-1.424c-13.762-0.521-27.521-1.119-41.279-1.732
		c-5.04-0.227-10.075-0.591-15.111-0.909c-2.835-0.18-3.358-1.162-2.52-5.134C101.783,276.674,171.466,274.535,241.813,272.377z"/>
	<path fill-rule="evenodd" clip-rule="evenodd" fill="#FFFFFF" stroke="#000000" stroke-miterlimit="10" d="M23.486,240.525
		c2.175,0.3,4.068,0.895,5.91,0.764c23.324-1.672,46.634-3.54,69.961-5.164c16.923-1.179,33.896-1.724,50.791-3.189
		c15.254-1.324,30.51-3.037,45.619-5.478c11.891-1.921,23.612-5.001,35.298-8.002c4.674-1.199,8.938-3.95,13.588-5.308
		c5.321-1.555,10.851-2.43,16.32-3.432c2.749-0.504,3.893,0.549,3.806,3.694c-0.207,7.536-2.144,9.868-9.423,11.304
		c-6.679,1.316-13.197,3.521-19.903,4.615c-10.559,1.724-21.19,3.101-31.838,4.172c-26.662,2.682-53.333,5.317-80.033,7.576
		c-22.889,1.938-45.827,3.281-68.736,4.986c-7.614,0.566-15.193,1.627-22.81,2.116C24.851,249.643,22.888,247.313,23.486,240.525z"
		/>
	<path fill-rule="evenodd" clip-rule="evenodd" fill="#FFFFFF" stroke="#000000" stroke-miterlimit="10" d="M124.315,220.858
		c-16.239,0.419-32.477,0.999-48.719,1.207c-16.362,0.208-32.729,0.045-49.818,0.045c2.307-1.442,4.078-2.792,6.044-3.733
		c5.832-2.789,11.572-5.907,17.656-7.998c10.854-3.729,21.624-7.67,33.361-8.507c6.912-0.492,12.758,1.743,18.82,3.878
		c8.533,3.008,16.227,7.481,22.761,13.768C124.386,219.964,124.35,220.412,124.315,220.858z"/>
	<path fill-rule="evenodd" clip-rule="evenodd" fill="#FFFFFF" stroke="#000000" stroke-miterlimit="10" d="M204.232,220.497
		c-1.14,0.425-2.249,1.081-3.426,1.237c-13.227,1.735-26.438,3.648-39.704,5.004c-13.961,1.428-27.971,2.416-41.974,3.394
		c-15.381,1.073-30.782,1.866-46.169,2.874c-14.298,0.938-28.587,1.996-42.882,3c-0.401,0.027-0.817-0.022-1.206,0.063
		c-7.023,1.513-8.828,0.617-12.4-6.589c1.282-0.382,2.473-1.035,3.669-1.048c16.109-0.161,32.222-0.117,48.33-0.374
		c9.146-0.147,18.279-0.87,27.425-1.107c5.572-0.146,11.234,0.77,16.715,0.086c9.037-1.128,18.218,0.726,27.242-2.436
		c4.655-1.632,10.213-0.661,15.36-0.93c1.435-0.075,2.864-0.338,4.285-0.581c0.788-0.135,1.541-0.52,2.328-0.6
		c10.27-1.033,20.533-2.126,30.815-2.99c3.706-0.311,7.46-0.05,11.191-0.05C203.966,219.799,204.1,220.148,204.232,220.497z"/>
	<path fill-rule="evenodd" clip-rule="evenodd" stroke="#000000" stroke-miterlimit="10" d="M220.626,161.293
		c-1.922-2.954-3.728-5.729-5.534-8.506c-2.196-3.38-4.165-6.938-6.636-10.104c-4.638-5.943-9.313-11.895-14.436-17.412
		c-6.435-6.932-13.282-13.494-22.579-16.647c-1.017-0.345-2.297-0.777-2.788-1.577c-0.527-0.859-0.454-2.24-0.23-3.308
		c0.063-0.295,1.683-0.588,2.436-0.366c10.675,3.146,18.325,10.403,25.363,18.585c3.77,4.38,8.234,8.183,11.813,12.698
		c4.947,6.24,9.427,12.857,13.95,19.419C223.474,156.235,224.669,158.744,220.626,161.293z"/>
</g>
</svg>
