<?xml version="1.0" encoding="utf-8"?>
<!-- Generator: Adobe Illustrator 16.0.0, SVG Export Plug-In . SVG Version: 6.00 Build 0)  -->
<!DOCTYPE svg PUBLIC "-//W3C//DTD SVG 1.1//EN" "http://www.w3.org/Graphics/SVG/1.1/DTD/svg11.dtd">
<svg version="1.1" id="Calque_1" xmlns="http://www.w3.org/2000/svg" xmlns:xlink="http://www.w3.org/1999/xlink" x="0px" y="0px"
	 width="186.585px" height="268.112px" viewBox="0 0 186.585 268.112" enable-background="new 0 0 186.585 268.112"
	 xml:space="preserve">
<g>
	<path fill-rule="evenodd" clip-rule="evenodd" stroke="#000000" stroke-width="2" stroke-miterlimit="10" d="M178.851,135.353
		c-0.549-1.553-3.904-2.116-4.454-3.67c-1.422-4.025-1.95-8.363-2.938-12.552c-0.301-1.28-0.566-3.021-1.472-3.635
		c-6.42-4.354-12.927-8.598-19.569-12.608c-3.113-1.879-6.526-3.312-9.916-4.672c-3.114-1.25-6.779-1.528-9.473-3.325
		c-3.473-2.316-6.05-1.757-9.241,0.145c-1.169,0.697-3.505,0.769-4.59,0.046c-4.543-3.026-9.4-2.691-12.792,1.424
		c-0.873-0.494-1.706-1.198-2.661-1.464c-7.328-2.043-14.392,0.772-21.59,1.203c-1.447,0.086-3.327-0.353-4.351-1.277
		c-1.92-1.733-3.422-3.951-4.989-6.048c-5.173-6.919-10.188-13.958-15.469-20.794C48.77,59.61,42.089,51.171,35.26,42.857
		c-3.831-4.665-7.968-9.091-12.166-13.433c-0.798-0.825-2.529-0.745-3.83-1.083c-0.077,1.272-0.612,2.759-0.139,3.774
		c1.081,2.314,2.47,4.547,4.064,6.548c7.818,9.812,15.712,19.564,23.647,29.283c6.539,8.011,13.239,15.892,19.729,23.941
		c2.416,2.996,4.443,6.306,6.646,9.472c-0.367,0.535-0.734,1.071-1.103,1.605c-2.639-1.33-5.921-2.068-7.796-4.103
		c-5.479-5.948-10.361-12.444-15.545-18.669C36.958,66.01,25.212,51.771,13.127,37.826c-1.371-1.582-4.731-1.752-7.193-1.831
		c-0.538-0.018-1.859,3.288-1.567,4.825c0.257,1.345,2.255,2.374,3.514,3.51c4.185,3.777,8.611,7.318,12.502,11.376
		c3.173,3.311,5.576,7.348,8.567,10.851c3.572,4.183,7.593,7.988,11.087,12.23c5.748,6.979,11.208,14.198,16.841,21.275
		c1.549,1.947,3.625,3.563,4.777,5.7c0.55,1.019-0.014,3.577-0.933,4.231c-1.444,1.03-3.616,1.038-5.479,1.481
		c-2.156,0.513-4.751,0.456-6.359,1.686c-2.163,1.654-3.564,4.304-5.262,6.485c-4.499-2.828-5.626-1.205-7.725,10.541
		c-4.485-0.687-6.61,0.856-5.699,5.512c0.153,0.784,0.001,1.635-0.054,2.453c-0.724,10.569-2.287,21.162-1.989,31.702
		c0.442,15.643,3.298,30.727,9.592,45.561c5.236,12.341,11.949,22.14,23.552,28.478c2.359,1.289,2.946,2.031,1.71,4.629
		c-3.877,8.143-1.8,11.255,6.709,11.612c8.626,0.362,17.218,1.509,25.844,1.896c14.174,0.637,28.362,1,42.55,1.283
		c1.313,0.026,3.273-1.045,3.802-2.148c0.49-1.027-0.253-2.931-0.943-4.179c-1.825-3.303-3.109-6.171,0.869-9.087
		c3.096-2.27,6.358-4.769,8.416-7.907c6.02-9.178,11.354-18.802,17.178-28.113c6.603-10.558,9.495-22.422,11.761-34.349
		c1.774-9.341,2.587-18.942,2.867-28.456C182.193,144.512,180.411,139.779,178.851,135.353z M43.18,125.085
		c4.593-0.038,6.443-2.735,8.367-6.449c0.776-1.5,4.57-1.243,6.78-2.249c2.36-1.073,4.491-2.648,6.722-4.012
		c0.878-0.861,1.95-1.552,3.211-2.015c0.615-0.734,1.345-1.379,2.194-1.898c0.017-0.228,0.046-0.451,0.103-0.666
		c0.104-0.399,1.807-0.264,2.686-0.611c1.552-0.612,3.575-1.017,4.427-2.206c1.676-2.342,2.886-4.179,6.22-2.461
		c0.942,0.486,2.713-0.699,4.122-1.039c1.64-0.395,3.289-0.894,4.954-0.99c1.515-0.087,3.128,0.084,4.564,0.553
		c1.218,0.397,2.17,1.574,3.381,2.05c1.061,0.417,2.52,0.806,3.45,0.399c4.015-1.748,7.224-6.836,12.588-2.031
		c1.028,0.92,3.975-0.366,6.045-0.524c1.922-0.146,3.955-0.559,5.763-0.123c3.35,0.807,6.777,1.755,9.805,3.346
		c6.949,3.653,14.291,6.975,20.287,11.881c4.361,3.568,6.826,9.456,10.135,14.31c-0.416,0.684-0.829,1.366-1.245,2.05h-59.727
		c-1.069,0.376-2.265,0.593-3.604,0.593c-0.519,0-1.012-0.041-1.489-0.102c-2.966-0.191-5.932-0.432-8.898-0.471
		c-3.773-0.05-7.554,0.265-11.327,0.209c-5.958-0.087-11.913-0.296-17.867-0.555c-7.209-0.314-14.422-0.643-21.61-1.239
		c-0.806-0.067-1.995-1.91-2.027-2.958C41.158,126.921,42.456,125.091,43.18,125.085z M107.727,257.452
		c-9.552-0.779-19.054-2.13-28.592-3.089c-2.57-0.259-5.215,0.21-7.775-0.089c-0.973-0.114-1.804-1.447-2.7-2.224
		c1.196-1.088,2.5-3.214,3.572-3.103c9.938,1.033,19.817,2.665,29.759,3.655c4.015,0.399,8.143-0.491,12.223-0.566
		c6.191-0.114,12.388-0.03,18.954-0.03c0.308,1.042,1.022,3.474,2.009,6.826C125.674,258.376,116.678,258.182,107.727,257.452z
		 M176.87,154.758c-0.676,6.665-1.548,13.314-2.53,19.942c-0.499,3.367-1.162,6.75-2.183,9.99
		c-2.224,7.052-4.182,14.265-7.249,20.952c-3.685,8.032-8.546,15.517-12.654,23.365c-6.523,12.458-17.704,16.308-30.667,17.045
		c-1.341,0.076-2.689,0.01-4.126,0.01c-14.947,1.549-29.903,1.1-44.198-4.145c-13.251-4.86-24.314-12.587-29.297-26.745
		c-2.372-6.74-5.75-13.296-6.971-20.234c-1.892-10.73-2.674-21.699-3.244-32.603c-0.349-6.667,0.58-13.402,0.939-20.107
		c0.187-3.484,0.4-5.838,5.54-5.354c15.275,1.438,30.625,2.467,45.964,2.8c20.053,0.436,40.122,0.118,60.183-0.011
		c8.882-0.057,17.771-0.731,26.629-0.392c1.381,0.053,3.24,3.892,3.758,6.229C177.416,148.456,177.18,151.69,176.87,154.758z"/>
	<path display="none" fill-rule="evenodd" clip-rule="evenodd" fill="#FFFFFF" d="M117.461,246.062
		c-14.947,1.549-29.903,1.1-44.198-4.145c-13.251-4.86-24.314-12.587-29.297-26.745c-2.372-6.74-5.75-13.296-6.971-20.234
		c-1.892-10.73-2.674-21.699-3.244-32.603c-0.349-6.667,0.58-13.402,0.939-20.107c0.187-3.484,0.4-5.838,5.54-5.354
		c15.275,1.438,30.625,2.467,45.964,2.8c20.053,0.436,40.122,0.118,60.183-0.011c8.882-0.057,17.771-0.731,26.629-0.392
		c1.381,0.053,3.24,3.892,3.758,6.229c0.652,2.955,0.416,6.189,0.106,9.257c-0.676,6.665-1.548,13.314-2.53,19.942
		c-0.499,3.367-1.162,6.75-2.183,9.99c-2.224,7.052-4.182,14.265-7.249,20.952c-3.685,8.032-8.546,15.517-12.654,23.365
		c-6.523,12.458-17.704,16.308-30.667,17.045C120.246,246.128,118.897,246.062,117.461,246.062z"/>
	<path display="none" fill-rule="evenodd" clip-rule="evenodd" fill="#FFFFFF" d="M133.167,252.006
		c0.308,1.042,1.022,3.474,2.009,6.826c-9.502-0.456-18.498-0.65-27.449-1.38c-9.552-0.779-19.054-2.13-28.592-3.089
		c-2.57-0.259-5.215,0.21-7.775-0.089c-0.973-0.114-1.804-1.447-2.7-2.224c1.196-1.088,2.5-3.214,3.572-3.103
		c9.938,1.033,19.817,2.665,29.759,3.655c4.015,0.399,8.143-0.491,12.223-0.566C120.404,251.922,126.601,252.006,133.167,252.006z"
		/>
</g>
<g>
	<path d="M103.021,51.443c1.192-2.135,2.397-3.875,3.223-5.556c0.457-0.811,0.735-1.605,0.972-2.296
		c0.066-0.352,0.214-0.675,0.209-0.985c0.081-0.313,0.063-0.595,0.131-0.891c0.06-0.149,0.016-0.299,0.036-0.455
		c0.011-0.157,0.067-0.322,0.064-0.496c-0.034-0.332,0.018-0.769-0.001-1.13c-0.136-0.625-0.195-0.959-0.312-1.449
		c-0.161-0.514-0.33-1.035-0.561-1.546c-0.437-1.025-0.997-2-1.631-2.932c-0.646-0.921-1.307-1.859-2.018-2.822
		c-0.657-1.003-1.445-2.021-1.933-3.335c-0.313-0.623-0.417-1.354-0.59-2.073c-0.035-0.367-0.063-0.744-0.073-1.124
		c-0.005-0.189-0.017-0.383-0.011-0.573l0.074-0.561c0.049-0.377,0.12-0.754,0.195-1.133c0.096-0.361,0.238-0.702,0.367-1.053
		l0.206-0.524l0.108-0.261l0.006-0.017c-0.032,0.048,0.312-0.479,0.169-0.261l0.013-0.022l0.026-0.044l0.052-0.09l0.206-0.358
		l0.052-0.089l0.121-0.157l0.252-0.312c0.172-0.206,0.352-0.409,0.535-0.605l0.383-0.382l0.698-0.672l0.589-0.556
		c0.196-0.178,0.337-0.337,0.465-0.475l0.204-0.209l0.131-0.179l0.136-0.167c0.02-0.044,0.042-0.086,0.066-0.125
		s0.052-0.076,0.081-0.11c0.002-0.032,0.004-0.059,0.011-0.083c0.011-0.023,0.029-0.042,0.052-0.06
		c0.009-0.021-0.001-0.045,0.007-0.064c0.046-0.056,0.06-0.196,0.116-0.373c-0.012-0.118-0.004-0.238,0.022-0.365
		c0.049-0.109-0.027-0.318-0.029-0.477c-0.027-0.173-0.018-0.34-0.045-0.536l-0.14-0.615c-0.052-0.209-0.063-0.421-0.13-0.644
		c-0.069-0.226-0.147-0.448-0.209-0.681c-0.222-0.923-0.629-1.898-0.923-2.917l0.343,0.394c-0.122-0.157-0.18-0.26-0.26-0.384
		l-0.214-0.358c-0.138-0.237-0.253-0.492-0.37-0.74c-0.224-0.507-0.443-1.021-0.581-1.587c-0.132-0.558-0.247-1.167-0.181-1.808
		c0.017-0.161,0.028-0.311,0.075-0.478c0.05-0.164,0.065-0.311,0.151-0.465c0.135-0.305,0.34-0.561,0.569-0.752
		c0.152-0.127,0.38-0.107,0.508,0.046c0.043,0.051,0.069,0.111,0.079,0.172l0.021,0.129c0.036,0.222,0.077,0.388,0.177,0.542
		c0.032,0.069,0.102,0.151,0.146,0.213c0.041,0.062,0.113,0.132,0.174,0.194c0.058,0.061,0.121,0.119,0.196,0.181
		c0.071,0.063,0.119,0.117,0.2,0.178c0.143,0.118,0.292,0.229,0.456,0.339c0.326,0.214,0.639,0.438,0.992,0.633l0.526,0.284
		l0.258,0.133c0.08,0.037,0.183,0.094,0.228,0.092l0.343,0.394c0.863,0.842,1.755,1.646,2.499,2.697
		c0.389,0.497,0.761,1.018,1.084,1.636l0.487,0.906c0.156,0.319,0.278,0.692,0.401,1.045c0.268,0.672,0.44,1.537,0.521,2.396
		c0.021,0.909,0.014,1.889-0.336,2.864c-0.131,0.497-0.333,0.951-0.577,1.385l-0.376,0.642l-0.422,0.541l-0.436,0.527
		c-0.145,0.146-0.295,0.278-0.443,0.416l-0.45,0.403l-0.423,0.324c-0.287,0.22-0.569,0.41-0.813,0.561l-0.716,0.446l-0.587,0.353
		l-0.248,0.146c-0.009-0.003-0.023-0.011-0.046-0.023l-0.038-0.021l-0.024-0.011l-0.069,0.076l-0.279,0.306l-0.07,0.076
		l-0.035,0.038l-0.017,0.02c-0.148,0.225,0.191-0.295,0.155-0.24l-0.005,0.007l-0.072,0.109l-0.155,0.215
		c-0.104,0.143-0.224,0.288-0.339,0.43c-0.08,0.147-0.164,0.296-0.27,0.445c-0.246,0.296-0.308,0.629-0.534,0.98l-0.176,0.572
		l-0.101,0.304l-0.045,0.323c-0.187,0.87-0.067,1.885,0.185,2.866c0.314,0.975,0.781,1.924,1.419,2.782
		c0.619,0.869,1.399,1.63,2.28,2.357l1.382,1.109c0.49,0.424,1.054,0.994,1.414,1.349c0.525,0.593,0.838,1.239,1.221,1.919
		c0.274,0.714,0.516,1.5,0.585,2.291c0.148,1.619-0.306,3.207-0.966,4.514c-0.68,1.296-1.575,2.381-2.567,3.218
		c-0.991,0.858-2.082,1.5-3.227,1.977c-1.146,0.471-2.343,0.796-3.638,0.822c-0.22,0.004-0.401-0.17-0.405-0.39
		c-0.002-0.073,0.017-0.141,0.049-0.2L103.021,51.443z"/>
</g>
</svg>
