<?xml version="1.0" encoding="utf-8"?>
<!-- Generator: Adobe Illustrator 16.0.0, SVG Export Plug-In . SVG Version: 6.00 Build 0)  -->
<!DOCTYPE svg PUBLIC "-//W3C//DTD SVG 1.1//EN" "http://www.w3.org/Graphics/SVG/1.1/DTD/svg11.dtd">
<svg version="1.1" id="Calque_1" xmlns="http://www.w3.org/2000/svg" xmlns:xlink="http://www.w3.org/1999/xlink" x="0px" y="0px"
	 width="268.614px" height="266.43px" viewBox="0 0 268.614 266.43" enable-background="new 0 0 268.614 266.43"
	 xml:space="preserve">
<g>
	<path stroke="#FFFFFF" stroke-width="2" stroke-miterlimit="10" d="M134.377,124.231c-6.686,0-12.193,5.507-12.193,12.193
		c0,6.686,5.507,12.193,12.193,12.193s12.193-5.507,12.193-12.193C146.571,129.738,141.063,124.231,134.377,124.231z
		 M134.377,140.488c-2.292,0-4.063-1.771-4.063-4.064c0-2.292,1.771-4.064,4.063-4.064c2.293,0,4.064,1.772,4.064,4.064
		C138.442,138.717,136.67,140.488,134.377,140.488z"/>
	<path stroke="#FFFFFF" stroke-width="2" stroke-miterlimit="10" d="M264.385,135.801c-0.271-1.75-1.645-3.122-3.394-3.393
		l-37.759-5.809c-1.884-17.04-8.615-33.185-19.433-46.514l19.23-26.628c1.315-1.819,1.05-4.36-0.769-5.675
		c-0.699-0.505-2.262-0.775-2.262-0.771v-0.002c-1,0.006-1.821,0.279-2.509,0.78l-26.701,19.231
		c-13.316-10.808-29.5-17.564-46.551-19.45l-5.827-37.76c-0.326-2.107-2.234-3.604-4.36-3.429c-1.873,0.154-3.4,1.572-3.687,3.429
		l-5.81,37.749c-17.07,1.885-33.218,8.633-46.534,19.448l-26.977-19.22C50.271,47.223,50,46.954,48,47.022v0.002
		c-1,0.164-3.558,2.112-3.394,4.351c0.055,0.75,0.499,1.47,0.938,2.079l19.324,26.631c-10.808,13.315-17.502,29.461-19.389,46.512
		l-37.737,5.81c-2.219,0.344-3.727,2.42-3.382,4.64c0.271,1.75,1.648,3.121,3.398,3.393l37.759,5.809
		c1.884,17.051,8.63,33.195,19.446,46.52l-19.24,26.64c-1.313,1.821-0.901,4.361,0.919,5.675c1.423,1.026,3.345,1.024,4.765-0.007
		l26.632-19.235c13.321,10.811,29.465,17.556,46.512,19.441l5.809,37.753c0.344,2.219,2.421,3.738,4.639,3.394
		c1.751-0.271,3.123-1.644,3.394-3.394l5.808-37.751c17.057-1.885,33.193-8.638,46.51-19.446l26.635,19.237
		c1.817,1.319,4.359,0.914,5.677-0.903c1.031-1.419,1.033-3.342,0.006-4.765l-19.235-26.634
		c10.822-13.331,17.565-29.488,19.449-46.528l37.747-5.807C263.209,140.096,264.729,138.02,264.385,135.801z M214.884,125.314
		l-16.947-2.607c-1.681-7.782-4.783-15.194-9.136-21.855l10.052-13.918C207.447,98.125,212.958,111.353,214.884,125.314z
		 M183.65,107.983c2.428,4.206,4.312,8.701,5.596,13.386l-13.738-2.113L183.65,107.983z M166.479,117.867l-9.105-1.4
		c-0.941-1.083-1.956-2.097-3.039-3.038l-1.399-9.092l48.74-35.194L166.479,117.867z M151.546,177.554l11.291,8.154
		c-4.211,2.431-8.716,4.305-13.405,5.589L151.546,177.554z M134.377,158.777c-12.394,0-22.354-9.96-22.354-22.353
		c0-12.394,9.96-22.354,22.354-22.354s22.354,9.961,22.354,22.354C156.732,148.817,146.771,158.777,134.377,158.777z
		 M119.324,191.299c-4.688-1.288-9.191-3.168-13.397-5.597l11.282-8.148L119.324,191.299z M117.208,95.308l-11.282-8.147
		c4.208-2.429,8.709-4.306,13.396-5.591L117.208,95.308z M149.432,81.555c4.686,1.289,9.188,3.176,13.397,5.608l-11.28,8.147
		L149.432,81.555z M183.871,71.967l-13.903,10.041c-6.672-4.363-14.084-7.469-21.874-9.15l-2.606-16.942
		C159.461,57.843,172.685,63.377,183.871,71.967z M134.377,37.149l10.894,70.819c-3.387-1.305-7.058-2.026-10.894-2.026
		c-3.835,0-7.507,0.722-10.894,2.026L134.377,37.149z M123.27,55.904l-2.61,16.965c-7.789,1.681-15.199,4.781-21.866,9.14
		l-13.91-10.046C96.066,63.374,109.288,57.832,123.27,55.904z M115.818,104.333l-1.398,9.095c-1.083,0.941-2.098,1.956-3.038,3.038
		l-9.118,1.402l-35.217-48.76L115.818,104.333z M93.248,119.256l-13.742,2.114c1.287-4.684,3.169-9.181,5.6-13.387L93.248,119.256z
		 M69.906,86.937l10.05,13.915c-4.36,6.666-7.464,14.072-9.146,21.856l-16.958,2.609C55.78,111.343,61.318,98.122,69.906,86.937z
		 M105.922,125.53c-1.305,3.386-2.026,7.058-2.026,10.894c0,3.836,0.722,7.507,2.025,10.893L35.12,136.424L105.922,125.53z
		 M85.106,164.881c-2.432-4.212-4.313-8.716-5.6-13.403l13.751,2.115L85.106,164.881z M53.866,147.533l16.951,2.608
		c1.68,7.783,4.779,15.196,9.141,21.868l-10.046,13.91C61.322,174.73,55.793,161.502,53.866,147.533z M102.287,154.982l9.094,1.399
		c0.941,1.083,1.957,2.098,3.04,3.039l1.401,9.107l-18.797,13.573c-0.546,0.237-1.03,0.586-1.418,1.023l-28.528,20.599
		L102.287,154.982z M84.881,200.902l13.914-10.048c6.661,4.353,14.074,7.448,21.866,9.13l2.608,16.955
		C109.299,215.013,96.07,209.49,84.881,200.902z M134.377,235.698l-10.896-70.819c3.387,1.305,7.059,2.027,10.896,2.027
		c3.837,0,7.509-0.723,10.896-2.027L134.377,235.698z M145.484,216.955l2.608-16.957c7.791-1.68,15.205-4.774,21.877-9.139
		l13.9,10.039C172.686,209.482,159.456,215.026,145.484,216.955z M152.934,168.528l1.401-9.108c1.083-0.941,2.098-1.956,3.039-3.039
		l9.107-1.401l13.403,18.557c0.242,0.714,0.683,1.37,1.317,1.874c0.024,0.019,0.049,0.034,0.074,0.053l20.433,28.291
		L152.934,168.528z M175.498,153.593l13.756-2.116c-1.287,4.693-3.167,9.2-5.6,13.41L175.498,153.593z M198.856,185.937
		l-10.055-13.923c4.358-6.665,7.463-14.079,9.146-21.874l16.936-2.605C212.959,161.5,207.453,174.739,198.856,185.937z
		 M162.834,147.317c1.303-3.386,2.026-7.057,2.026-10.893c0-3.836-0.723-7.508-2.027-10.894l70.803,10.894L162.834,147.317z"/>
</g>
</svg>
