<?xml version="1.0" encoding="utf-8"?>
<!-- Generator: Adobe Illustrator 16.0.0, SVG Export Plug-In . SVG Version: 6.00 Build 0)  -->
<!DOCTYPE svg PUBLIC "-//W3C//DTD SVG 1.1//EN" "http://www.w3.org/Graphics/SVG/1.1/DTD/svg11.dtd">
<svg version="1.1" id="Calque_1" xmlns="http://www.w3.org/2000/svg" xmlns:xlink="http://www.w3.org/1999/xlink" x="0px" y="0px"
	 width="289.621px" height="265.609px" viewBox="0 0 289.621 265.609" enable-background="new 0 0 289.621 265.609"
	 xml:space="preserve">
<path fill-rule="evenodd" clip-rule="evenodd" stroke="#000000" stroke-width="5" stroke-miterlimit="10" d="M67.677,132.008
	c-6.375,8.586-12.526,17.351-19.189,25.707c-6.892,8.643-13.95,17.213-21.674,25.091c-2.056,2.098-8.04,3.285-10.089,1.849
	c-4.567-3.2-10.673-8.103-11.018-12.698c-1.055-14.049,0.547-28.276,0.689-42.439c0.217-21.423-0.194-42.854,0.169-64.273
	c0.283-16.677,10.439-21.823,24.926-14.161c14.4,7.616,19.71,21.762,27.251,34.464c2.728,4.598,5.809,8.986,8.729,13.471
	c1.252-0.373,2.505-0.744,3.758-1.117c-1.375-10.062-2.357-20.198-4.23-30.167c-2.102-11.18-5.707-22.104-7.367-33.33
	c-1.609-10.876,8.794-21.522,19.424-24.133c20.639-5.069,40.34-2.252,60.303,3.475c7.091,2.034,15.055,1.607,22.594,1.387
	c18.483-0.542,34.852,5.276,46.956,18.771c11.023,12.287,19.779,26.61,29.523,40.043c3.214,4.432,6.604,8.756,9.54,13.369
	c3.95,6.206,7.034,13.027,11.474,18.831c2.616,3.421,7,5.612,10.851,7.921c2.239,1.342,5.565,1.188,7.392,2.832
	c3.261,2.934,7.22,6.426,7.98,10.261c0.404,2.033-4.872,6.667-8.325,7.739c-16.352,5.082-17.473,20.567-24.248,32.584
	c-9.487,16.828-19.264,34.127-32.237,48.154c-10.581,11.438-26.99,15.753-43.054,18.036c-6.105,0.869-12.116,3.216-17.868,5.613
	c-19.893,8.285-37.361,21.742-60.536,22.837c-25.903,1.225-44.179-27.733-38.286-48.478c2.803-9.868,7.509-19.293,9.412-29.289
	c1.903-9.992,1.794-20.447,1.789-30.698c-0.004-7.061-1.334-14.12-2.072-21.18C69.388,132.322,68.533,132.165,67.677,132.008z
	 M104.051,183.334c1.816,2.213,3.427,5.896,6.179,7.238c13.524,6.592,26.824,14.599,41.185,18.309
	c27.063,6.993,53.655,7.685,76.83-13.492c12.235-11.182,17.74-25.407,23.426-39.724c4.459-11.227,8.916-21.613,21.332-25.983
	c1.83-0.644,3.473-1.82,5.986-3.171c-2.011-1.366-2.964-2.339-4.118-2.748c-20.624-7.317-38.002-18.624-49.938-37.727
	c-5.083-8.135-15.274-9.904-24.703-6.448c-3.563,1.306-7.483,1.754-10.892,3.341c-11.783,5.485-26.631,7.218-30.812,22.679
	c-1.713,6.336-2.082,13.054-2.854,19.623c-1.825,15.53-2.006,32.165-17.309,41.506C127.75,173.216,115.913,177.691,104.051,183.334z
	 M149.106,43.354c-0.122-0.371-0.243-0.744-0.366-1.115c-4.093,0.652-8.473,0.582-12.234,2.073
	c-27.523,10.908-46.8,30.753-60.705,56.457c-1.037,1.918-4.75,3.809-6.877,3.481C57.54,102.494,54.18,92.682,49.997,83.943
	c-6.024-12.583-14.753-22.717-27.293-28.917c-1.835-0.908-7.401,1.327-8.007,3.17c-1.696,5.159-2.187,10.866-2.276,16.372
	c-0.299,18.327-0.088,36.662-0.318,54.99c-0.165,13.174-0.993,26.345-0.895,39.513c0.021,2.904,2.13,7.54,4.297,8.244
	c2.753,0.896,7.73-0.334,9.69-2.505c9.711-10.756,18.814-22.066,27.982-33.304c3.686-4.52,6.48-9.891,10.663-13.832
	c2.345-2.21,6.698-2.288,10.159-3.331c0.803,2.094,1.62,4.223,3.763,9.806c2.084-3.854,3.343-7.402,4.043-7.294
	c9.92,1.518,12.453-7.01,14.794-12.635c4.616-11.087,6.088-23.47,10.557-34.637c6.786-16.955,16.431-31.761,37.032-34.3
	C145.88,45.074,147.47,44.017,149.106,43.354z M151.954,235.148c-30.456-7.2-63.601-8.597-76.826-45.579
	c-3.637,9.668-7.025,19.256-8.812,29.133c-2.489,13.758,6.977,29.123,20.12,33.896C112.203,261.952,130.985,244.833,151.954,235.148
	z M215.781,73.201c-4.355-7.372-9.118-12.227-18.052-10.266c-8.022,1.762-16.401,2.198-24.212,4.57
	c-17.384,5.279-32.024,14.128-35.002,34.188c-1.118,7.528-1.373,15.242-1.351,22.868c0.033,11.868-3.36,21.912-14.015,28.168
	c-10.075,5.916-20.439,11.337-33.015,18.263c6.817,0.946,12.36,2.446,17.833,2.231c3.989-0.157,7.842-2.729,11.836-3.962
	c18.633-5.752,27.362-18.881,28.579-37.81c0.22-3.423,0.624-6.946,1.688-10.179c3.348-10.174,4.329-23.102,11.25-29.666
	c10.546-10.002,24.69-17.046,40.271-18.349C206.035,72.887,210.535,73.201,215.781,73.201z M77.335,83.759
	c11.229-25.53,24.741-49.556,52.743-62.152c-1.648-1.147-2.334-1.753-3.125-2.157c-14.122-7.211-28.96-6.374-43.572-2.7
	c-12.916,3.248-17.634,10.482-15.434,23.164C70.49,54.571,74.133,69.037,77.335,83.759z M78.804,163.318
	c-0.815,0.15-1.63,0.3-2.446,0.451c1.991,8.713,2.72,17.977,6.233,26.024c7.563,17.319,20.742,27.319,39.967,32.063
	c31.1,7.672,60.903,9.741,89.797-6.699c1.535-0.874,3.05-1.783,4.574-2.676C172.534,232.209,103.541,212.726,78.804,163.318z
	 M199.929,53.925c-2.867-1.271-7.119-4.996-10.333-4.25c-12.244,2.841-23.997,7.772-36.222,10.717
	c-17.937,4.321-25.628,17.26-30.253,33.264c-0.453,1.566-0.064,3.396,0.027,5.097c0.774,14.451-0.253,29.125-11,39.534
	c-8.192,7.935-19.139,13.025-29.863,20.036c3.333,0.934,7.899,3.126,12.505,3.212c3.532,0.067,7.228-2.292,10.655-3.973
	c13.453-6.597,25.694-14.148,25.035-31.954c-0.219-5.915,0.164-11.863,0.465-17.786c0.878-17.254,9.272-30.846,24.137-38.241
	C168.858,62.729,184.299,59.219,199.929,53.925z M94.546,62.426c9.055-5.79,19.375-12.821,30.104-19.162
	c23.643-13.971,61.786-18.333,82.29,9.643c7.927,10.817,16.413,21.239,24.936,31.601c6.174,7.508,12.827,14.622,19.266,21.912
	c0.761-2.576,0.263-4.185-0.627-5.538c-7.37-11.214-14.914-22.314-22.21-33.576c-10.394-16.045-23.267-29.641-39.025-40.503
	c-6.697-4.616-22.771-6.022-26.191-2.647c-1.508-1.166-2.939-3.237-4.384-3.247C127.127,20.696,109.799,41.832,94.546,62.426z
	 M185.019,45.631c-9.876-8.312-16.495-8.206-26.03-1.904c-5.166,3.416-11.324,5.324-17.026,7.934
	c-5.125,2.346-12.338,3.349-14.948,7.347c-6.987,10.701-14.554,22.137-17.185,34.301c-3.831,17.704-8.798,33.075-26.195,41.489
	c-4.896,2.368-7.95,6.08-4.819,11.139c0.892,1.441,5.96,1.005,8.88,0.368c15.958-3.486,28.283-18.978,27.446-35.156
	c-1.245-24.054,12.759-53.345,40.772-56.809C165.509,53.151,174.713,48.813,185.019,45.631z"/>
<path fill-rule="evenodd" clip-rule="evenodd" fill="#FFFFFF" d="M104.051,183.334c11.862-5.643,23.699-10.119,34.313-16.598
	c15.303-9.341,15.484-25.976,17.309-41.506c0.772-6.569,1.141-13.287,2.854-19.623c4.18-15.461,19.028-17.194,30.812-22.679
	c3.409-1.587,7.329-2.035,10.892-3.341c9.429-3.456,19.62-1.687,24.703,6.448c11.936,19.104,29.313,30.41,49.938,37.727
	c1.154,0.409,2.107,1.382,4.118,2.748c-2.513,1.352-4.156,2.527-5.986,3.171c-12.416,4.37-16.873,14.756-21.332,25.983
	c-5.686,14.316-11.191,28.542-23.426,39.724c-23.175,21.177-49.767,20.485-76.83,13.492c-14.36-3.71-27.66-11.717-41.185-18.309
	C107.478,189.231,105.867,185.547,104.051,183.334z M201.433,106.437c0.531,10.788,5.536,13.935,11.776,14.445
	c6.11,0.5,9.723-3.451,9.468-9.634c-0.304-7.362-4.189-13.202-11.822-12.296C206.926,99.419,203.562,104.632,201.433,106.437z"/>
<path fill-rule="evenodd" clip-rule="evenodd" fill="#FFFFFF" d="M149.106,43.354c-1.637,0.663-3.226,1.72-4.919,1.928
	c-20.601,2.539-30.246,17.346-37.032,34.3c-4.469,11.167-5.941,23.55-10.557,34.637c-2.342,5.625-4.874,14.152-14.794,12.635
	c-0.7-0.108-1.959,3.44-4.043,7.294c-2.143-5.583-2.959-7.712-3.763-9.806c-3.46,1.042-7.814,1.121-10.159,3.331
	c-4.183,3.941-6.977,9.312-10.663,13.832c-9.167,11.238-18.271,22.548-27.982,33.304c-1.96,2.17-6.937,3.401-9.69,2.505
	c-2.167-0.704-4.276-5.34-4.297-8.244c-0.099-13.168,0.729-26.339,0.895-39.513c0.23-18.328,0.019-36.663,0.318-54.99
	c0.089-5.506,0.581-11.213,2.276-16.372c0.606-1.843,6.171-4.078,8.007-3.17c12.54,6.2,21.269,16.333,27.293,28.917
	c4.184,8.739,7.543,18.551,18.929,20.307c2.126,0.328,5.84-1.563,6.877-3.481c13.904-25.704,33.182-45.549,60.705-56.457
	c3.761-1.491,8.141-1.42,12.234-2.073C148.863,42.61,148.984,42.983,149.106,43.354z"/>
<path fill-rule="evenodd" clip-rule="evenodd" fill="#FFFFFF" d="M151.954,235.148c-20.969,9.685-39.751,26.803-65.518,17.45
	c-13.143-4.772-22.608-20.137-20.12-33.896c1.787-9.877,5.175-19.465,8.812-29.133C88.353,226.551,121.498,227.948,151.954,235.148z
	"/>
<path fill-rule="evenodd" clip-rule="evenodd" fill="#FFFFFF" d="M215.781,73.201c-5.247,0-9.747-0.314-14.19,0.057
	c-15.581,1.303-29.726,8.347-40.271,18.349c-6.921,6.564-7.902,19.492-11.25,29.666c-1.064,3.232-1.468,6.756-1.688,10.179
	c-1.217,18.929-9.946,32.058-28.579,37.81c-3.994,1.233-7.847,3.805-11.836,3.962c-5.473,0.215-11.016-1.285-17.833-2.231
	c12.576-6.926,22.94-12.348,33.015-18.263c10.655-6.256,14.047-16.3,14.015-28.168c-0.021-7.626,0.233-15.34,1.351-22.868
	c2.978-20.059,17.619-28.909,35.002-34.188c7.811-2.372,16.189-2.808,24.212-4.57C206.663,60.974,211.426,65.829,215.781,73.201z"/>
<path fill-rule="evenodd" clip-rule="evenodd" fill="#FFFFFF" d="M77.335,83.759c-3.202-14.722-6.845-29.188-9.387-43.845
	c-2.201-12.681,2.518-19.916,15.434-23.164c14.612-3.674,29.45-4.512,43.572,2.7c0.79,0.404,1.476,1.009,3.125,2.157
	C102.076,34.203,88.564,58.229,77.335,83.759z"/>
<path fill-rule="evenodd" clip-rule="evenodd" fill="#FFFFFF" d="M78.804,163.318c24.736,49.408,93.73,68.891,138.126,49.164
	c-1.524,0.893-3.04,1.802-4.574,2.676c-28.894,16.44-58.698,14.371-89.797,6.699c-19.225-4.744-32.404-14.744-39.967-32.063
	c-3.513-8.047-4.242-17.312-6.233-26.024C77.174,163.618,77.989,163.468,78.804,163.318z"/>
<path fill-rule="evenodd" clip-rule="evenodd" fill="#FFFFFF" d="M199.929,53.925c-15.63,5.294-31.071,8.804-44.848,15.657
	c-14.865,7.395-23.259,20.987-24.137,38.241c-0.301,5.922-0.684,11.871-0.465,17.786c0.659,17.805-11.582,25.357-25.035,31.954
	c-3.427,1.681-7.123,4.04-10.655,3.973c-4.606-0.086-9.172-2.278-12.505-3.212c10.725-7.011,21.671-12.101,29.863-20.036
	c10.747-10.409,11.774-25.083,11-39.534c-0.091-1.702-0.479-3.531-0.027-5.097c4.625-16.004,12.316-28.943,30.253-33.264
	c12.226-2.944,23.979-7.875,36.222-10.717C192.811,48.929,197.062,52.654,199.929,53.925z"/>
<path fill-rule="evenodd" clip-rule="evenodd" fill="#FFFFFF" d="M94.546,62.426c15.252-20.595,32.581-41.73,64.158-41.517
	c1.444,0.009,2.876-1.489,4.384-0.324c3.42-3.375,19.494,1.602,26.191,6.218c15.758,10.863,28.631,24.458,39.025,40.503
	c7.296,11.262,14.84,22.362,22.21,33.576c0.89,1.353,1.388,2.962,0.627,5.538c-6.439-7.29-13.092-14.403-19.266-21.912
	c-8.522-10.362-17.008-20.784-24.936-31.601c-20.504-27.977-58.647-23.614-82.29-9.643C113.921,49.605,103.601,56.637,94.546,62.426
	z"/>
<path fill-rule="evenodd" clip-rule="evenodd" fill="#FFFFFF" d="M185.019,45.631c-10.306,3.183-19.51,7.521-29.105,8.707
	c-28.013,3.464-42.017,32.755-40.772,56.809c0.836,16.179-11.488,31.67-27.446,35.156c-2.92,0.637-7.989,1.074-8.88-0.368
	c-3.13-5.059-0.077-8.771,4.819-11.139c17.397-8.414,22.364-23.785,26.195-41.489c2.631-12.164,10.198-23.6,17.185-34.301
	c2.61-3.999,9.824-5.001,14.948-7.347c5.702-2.609,11.86-4.518,17.026-7.934C168.524,37.425,175.143,37.319,185.019,45.631z"/>
<path fill-rule="evenodd" clip-rule="evenodd" stroke="#000000" stroke-width="5" stroke-miterlimit="10" d="M202.437,107.171
	c1.785-3.868,4.489-7.752,8.417-8.219c7.633-0.906,11.518,4.934,11.822,12.296c0.255,6.183-3.357,10.134-9.468,9.634
	C206.969,120.372,202.968,117.959,202.437,107.171z M214.896,114.269c1.596-1.886,2.27-1.741,2.567-4.419
	c-1.935-4.463-3.16-3.526-5.949-3.867c-0.666-0.082-2.865,4.087-2.404,4.625C210.531,112.263,212.896,113.108,214.896,114.269z"/>
<path fill-rule="evenodd" clip-rule="evenodd" fill="#FFFFFF" d="M214.896,114.269c-2-1.161-4.365-2.005-5.786-3.662
	c-0.461-0.537,1.738-4.706,2.404-4.625c2.789,0.341,5.458,1.665,8.171,2.628C218.088,110.497,216.492,112.383,214.896,114.269z"/>
<path fill-rule="evenodd" clip-rule="evenodd" fill="none" stroke="#000000" stroke-width="5" stroke-miterlimit="10" d="
	M219.344,75.408c-9.597,1.151-19.29,1.786-28.77,3.555c-25.101,4.684-37.159,20.438-38.305,45.949
	c-0.628,14.006-1.058,30.06-14.912,38.205c-11.962,7.034-25.7,11.323-39.081,15.431c-2.579,0.792-8.087-4.201-10.578-7.709
	c-4.392-6.187-7.924-13.102-10.973-20.081c-1.571-3.595-0.959-8.083-2.008-11.986c-1.007-3.748-2.887-7.259-4.383-10.874
	c-1.153,0.085-2.306,0.17-3.459,0.254c-6.947,9.289-13.67,18.755-20.909,27.81c-6.196,7.749-12.621,15.396-19.713,22.3
	c-2.352,2.289-8.3,4.031-10.46,2.657c-3.514-2.237-7.414-7.25-7.406-11.083c0.043-22.265,1.391-44.522,1.867-66.792
	C10.52,90.578,9.832,78.095,9.846,65.62c0.003-3.071,0.523-6.383,1.758-9.162c2.397-5.396,6.462-8.176,12.547-5.224
	c14.965,7.265,23.545,20.077,30.685,34.456c2.632,5.302,6.797,9.987,10.886,14.373c2.995,3.212,5.236,2.793,7.617-2.082
	c4.329-8.862,8.613-18.662,15.645-25.079c11.603-10.588,24.443-20.777,38.516-27.419c12.487-5.893,27.265-7.344,41.228-9.471
	c4.864-0.743,10.676,1.588,15.427,3.841c14.388,6.823,24.213,18.921,34.067,30.925c9.853,12.003,18.878,24.985,30.282,35.314
	c7.658,6.938,18.832,9.988,28.414,14.813c2.529,1.273,4.991,2.681,7.484,4.027c-0.563,1.163-1.125,2.325-1.688,3.487
	c-4.042,1.907-9.083,2.877-11.918,5.911c-6.049,6.471-11.682,13.582-16.169,21.205c-8.05,13.678-14.924,28.043-22.718,41.88
	c-3.012,5.348-6.724,10.493-10.994,14.875c-3.021,3.099-7.614,4.617-11.341,7.09c-11.891,7.894-25.037,10.709-39.16,11.191
	c-4.666,0.158-9.511,3.068-13.779,5.565c-19.55,11.436-38.634,24.333-62.801,22.284c-20.976-1.778-35.59-26.606-29.328-44.81
	c3.397-9.874,7.249-19.59,10.895-29.379"/>
<path fill-rule="evenodd" clip-rule="evenodd" fill="none" stroke="#000000" stroke-width="5" stroke-miterlimit="10" d="
	M75.398,88.651c-0.959-1.728-2.382-3.35-2.803-5.199c-2.831-12.443-4.666-25.169-8.327-37.352
	c-4.964-16.515,3.055-30.786,20.351-33.403c14.361-2.172,29.085-4.934,42.523,2.96c11.929,7.008,24.354,1.913,36.366,2.296
	c25.973,0.828,43.211,14.808,57.422,33.951c11.443,15.414,21.791,31.656,32.238,47.781c1.804,2.783,1.683,6.814,2.449,10.269"/>
<path fill-rule="evenodd" clip-rule="evenodd" fill="none" stroke="#000000" stroke-width="5" stroke-miterlimit="10" d="
	M204.373,58.135c-9.788,1.919-19.825,3.021-29.318,5.909c-30.245,9.201-41.609,22.612-41.408,56.275
	c0.149,25.001-6.638,28.93-30.057,40.836c-2.905,1.477-6.056,2.604-9.219,3.379c-1.36,0.333-3.042-0.648-4.577-1.032"/>
<path fill-rule="evenodd" clip-rule="evenodd" fill="none" stroke="#000000" stroke-width="5" stroke-miterlimit="10" d="
	M189.403,44.892c-10.94,4.03-21.598,9.337-32.878,11.824c-23.086,5.087-32.932,19.682-37.18,40.035
	c-1.713,8.208,0.061,17.247-2.199,25.214c-5.083,17.923-20.377,28.966-38.869,30.021"/>
<path fill-rule="evenodd" clip-rule="evenodd" fill="none" stroke="#000000" stroke-width="5" stroke-miterlimit="10" d="
	M157.16,233.748c-11.516-2.976-22.911-6.59-34.573-8.787c-21.908-4.126-35.824-16.533-44.005-37.168
	c-4.011-10.115-5.43-19.417-1.456-29.472"/>
<path fill-rule="evenodd" clip-rule="evenodd" fill="none" stroke="#000000" stroke-width="5" stroke-miterlimit="10" d="
	M154.856,39.134c-3.455,3.071-6.64,8.388-10.409,8.839c-20.597,2.467-28.404,17.744-34.843,33.862
	c-3.781,9.467-4.762,20.013-7.835,29.811c-3.943,12.57-14.327,18.576-25.794,23.067"/>
<path fill-rule="evenodd" clip-rule="evenodd" fill="none" stroke="#000000" stroke-width="5" stroke-miterlimit="10" d="
	M134.128,20.133c-5.758,4.222-12.181,7.789-17.128,12.81c-8.958,9.092-17.247,18.876-25.311,28.783
	c-1.733,2.129-1.32,6.004-1.896,9.075"/>
<path fill-rule="evenodd" clip-rule="evenodd" fill="none" stroke="#000000" stroke-width="5" stroke-miterlimit="10" d="
	M97.854,179.624c4.806,13.493,16.678,19.489,28.308,24.542c29.176,12.678,59.078,18.392,89.765,4.331
	c1.428-0.654,3.417-0.083,5.144-0.083"/>
<path fill-rule="evenodd" clip-rule="evenodd" fill="none" stroke="#000000" stroke-width="5" stroke-miterlimit="10" d="
	M213.01,118.016c3.114-1.025,5.969-3.403,6.471-5.086c1.851-6.205-3.059-11.412-6.522-12.604
	C202.442,107.652,203.25,113.311,213.01,118.016"/>
</svg>
