<?xml version="1.0" encoding="utf-8"?>
<!-- Generator: Adobe Illustrator 16.0.0, SVG Export Plug-In . SVG Version: 6.00 Build 0)  -->
<!DOCTYPE svg PUBLIC "-//W3C//DTD SVG 1.1//EN" "http://www.w3.org/Graphics/SVG/1.1/DTD/svg11.dtd">
<svg version="1.1" id="Calque_1" xmlns="http://www.w3.org/2000/svg" xmlns:xlink="http://www.w3.org/1999/xlink" x="0px" y="0px"
	 width="220.166px" height="216.146px" viewBox="0 0 220.166 216.146" enable-background="new 0 0 220.166 216.146"
	 xml:space="preserve">
<path stroke="#FFFFFF" stroke-width="2" stroke-miterlimit="10" d="M219.109,76.352c-0.368-3.067-2.021-5.86-4.538-7.657
	c-2.569-1.831-5.824-2.497-8.936-1.831c-6.178,1.326-15.826,2.442-26.68,0.212c-19.509-4.006-32.802-2.069-41.862,2.393
	c2.386-5.69,4.691-11.791,6.281-19.394c2.346-11.221,0.85-20.824-4.445-28.551c-3.532-5.151-12.317-14.26-31.499-17.4
	c-3.047-0.501-6.191,0.318-8.613,2.233c-2.475,1.953-4.021,4.896-4.242,8.069c-0.449,6.307-2.06,15.883-7.218,25.685
	c-9.964,18.929-11.344,32.878-8.899,43.026c-0.201-0.149-0.401-0.295-0.607-0.446c-6.008-4.423-12.219-8.995-20.898-13.032
	c-10.396-4.836-20.091-5.56-28.81-2.159c-5.821,2.276-16.69,8.764-24.099,26.729c-1.175,2.862-1.098,6.103,0.217,8.9
	c1.342,2.851,3.858,5.025,6.897,5.963c6.042,1.868,14.996,5.609,23.376,12.864c12.076,10.452,23.612,16.356,34.4,17.622
	c-5.197,3.606-10.544,7.586-16.108,13.311c-7.994,8.223-11.875,17.137-11.532,26.492c0.228,6.241,2.771,18.641,17.287,31.56
	c2.025,1.8,4.651,2.786,7.333,2.786c0.381,0,0.76-0.019,1.142-0.059c3.137-0.327,6.015-1.983,7.905-4.547
	c3.753-5.086,10.241-12.314,19.848-17.827c16.309-9.369,24.953-19.04,29.089-27.954c1.543,6.311,3.35,12.903,6.812,20.369
	c4.82,10.402,11.755,17.215,20.611,20.249c2.553,0.873,6.327,1.752,11.179,1.752c6.394,0,14.664-1.531,24.479-6.612
	c2.743-1.423,4.777-3.952,5.581-6.934c0.816-3.047,0.3-6.333-1.419-9.008c-3.41-5.323-7.833-13.97-9.549-24.91
	c-2.499-15.932-7.687-27.261-14.252-34.935c3.433,0.346,7.01,0.6,10.887,0.6c2.152,0,4.391-0.076,6.75-0.257
	c11.428-0.868,20.24-4.973,26.182-12.206C215.122,106.621,221.43,95.645,219.109,76.352L219.109,76.352z M93.561,43.375
	c5.727-10.88,7.517-21.479,8.007-28.457c0.085-1.213,0.669-2.328,1.597-3.065c0.897-0.707,2.007-0.995,3.142-0.812
	c5.733,0.942,19.838,4.229,26.846,14.448c4.174,6.085,5.302,13.871,3.361,23.147c-1.82,8.688-4.721,15.444-7.524,21.983
	c-1.123,2.61-2.183,5.078-3.178,7.662c-0.018,0.045-0.032,0.093-0.045,0.138c-4.463,5.481-6.45,11.478-7.328,15.614
	c-0.059,0.278-0.081,0.55-0.072,0.819c-1.06-0.19-2.151-0.296-3.263-0.296c-0.751,0-1.491,0.05-2.222,0.138
	c-0.185-7.747,0.749-12.008,7.538-19.004c1.351-1.392,1.314-3.61-0.072-4.958c-1.39-1.348-3.608-1.314-4.957,0.073
	c-9.097,9.373-9.822,15.86-9.464,25.713c-5.849-7.425-7.84-15.269-6.081-23.931c0.388-1.895-0.837-3.747-2.738-4.132
	c-1.893-0.388-3.749,0.839-4.132,2.735c-2.072,10.201-0.024,19.43,6.252,28.089c-5.092-2.831-11.43-8.051-13.823-17.15
	C82.694,71.843,85.441,58.805,93.561,43.375L93.561,43.375z M115.104,124.468c-6.311,0-11.446-5.136-11.446-11.451
	c0-6.314,5.136-11.448,11.446-11.448c6.317,0,11.451,5.131,11.451,11.448C126.555,119.333,121.419,124.468,115.104,124.468
	L115.104,124.468z M13.226,102.395c-1.164-0.359-2.12-1.18-2.625-2.253c-0.487-1.033-0.512-2.183-0.077-3.241
	c2.217-5.375,8.618-18.363,20.164-22.873c6.87-2.679,14.712-2.013,23.307,1.983c8.045,3.742,13.968,8.102,19.699,12.322
	c3.593,2.641,6.985,5.142,10.794,7.434c3.853,4.987,8.51,8.144,11.929,9.973c0.014,0.005,0.031,0.011,0.043,0.018
	c-8.183,0.199-20.044-4.84-27.897-10.559c-1.563-1.139-3.758-0.797-4.896,0.771c-1.139,1.563-0.794,3.757,0.769,4.899
	c7.824,5.693,18.916,10.72,28.377,11.715c-7.252,3.464-17.98,4.892-26.104,4.413c-1.935-0.137-3.593,1.356-3.706,3.287
	c-0.12,1.929,1.355,3.593,3.286,3.708c1.184,0.072,2.413,0.108,3.683,0.108c8.965,0,19.708-1.804,27.398-5.973
	c0.226,0.799,0.507,1.572,0.837,2.314c-0.047,0.048-0.097,0.09-0.142,0.143c-7.19,7.627-14.646,11.608-22.795,12.172
	c-10.776,0.749-22.939-4.668-36.152-16.108C29.821,108.604,19.904,104.458,13.226,102.395L13.226,102.395z M118.954,156.847
	c-3.223,10.135-12.52,19.68-27.635,28.363c-10.666,6.126-17.85,14.126-22.001,19.748c-0.723,0.983-1.807,1.616-2.986,1.737
	c-1.137,0.115-2.236-0.235-3.085-0.991c-4.346-3.867-14.498-14.195-14.942-26.578c-0.269-7.375,2.943-14.558,9.549-21.352
	c6.187-6.366,12.256-10.519,18.131-14.54c1.648-1.127,3.354-2.3,5.007-3.478c0.388-0.272,0.706-0.623,0.94-1.008
	c7.213-1.83,14.033-6.006,20.364-12.458c0.342,0.332,0.697,0.658,1.064,0.958c-4.26,6.597-11.155,12.878-16.643,16.505
	c-1.615,1.069-2.055,3.243-0.988,4.858c0.67,1.02,1.787,1.572,2.923,1.572c0.665,0,1.337-0.189,1.931-0.582
	c7.481-4.948,14.621-12.159,18.941-18.99c0.239,0.077,0.482,0.144,0.726,0.214c0.181,8.367-1.17,16.417-3.764,22.278
	c-0.782,1.771,0.016,3.838,1.789,4.626c0.458,0.205,0.94,0.297,1.414,0.297c1.347,0,2.628-0.778,3.205-2.083
	c2.91-6.572,3.968-13.794,4.272-19.608C119.645,141.424,121.557,148.652,118.954,156.847L118.954,156.847z M185.233,186.936
	c0.659,1.026,0.859,2.269,0.551,3.415c-0.293,1.099-1.015,1.996-2.032,2.526c-5.163,2.675-18.438,8.459-30.161,4.447
	c-6.979-2.389-12.542-7.955-16.519-16.557c-3.735-8.054-5.445-15.206-7.095-22.125c-0.799-3.34-1.554-6.505-2.515-9.734
	c-0.072-0.246-0.176-0.478-0.3-0.702c-0.154-7.357-2.727-13.406-4.876-17.197c-0.156-0.287-0.359-0.535-0.578-0.758
	c1.433-0.555,2.786-1.281,4.022-2.151c3.378,5.93,6.683,13.71,6.66,21.474c-0.009,1.935,1.558,3.514,3.496,3.519h0.009
	c1.93,0,3.5-1.563,3.504-3.496c0.031-10.113-4.472-19.899-8.653-26.796c0.261-0.411,0.5-0.828,0.726-1.266
	c7.396,2.654,13.237,10.586,17.597,17.433c0.668,1.05,1.805,1.623,2.959,1.623c0.645,0,1.296-0.178,1.879-0.555
	c1.633-1.033,2.115-3.205,1.073-4.838c-4.223-6.625-9.741-14.155-17.028-18.348c10.464-0.148,30.777,4.648,36.712,42.48
	C176.57,171.477,181.465,181.049,185.233,186.936L185.233,186.936z M205.739,106.996c-4.678,5.699-11.848,8.952-21.295,9.669
	c-8.853,0.667-16.151-0.237-23.21-1.119c-0.9-0.111-1.795-0.223-2.682-0.325c-0.205-0.027-0.405-0.032-0.608-0.019
	c-7.811-4.809-16.497-6.132-24.598-5.027c-0.187-1.206-0.491-2.376-0.9-3.493c7.046-2.946,14.68-3.155,22.725-0.605
	c1.845,0.587,3.812-0.435,4.403-2.282c0.584-1.845-0.435-3.816-2.283-4.4c-9.61-3.047-18.792-2.791-27.333,0.732
	c4.652-6.202,13.28-12.772,21.526-14.273c1.905-0.343,3.166-2.168,2.821-4.076c-0.348-1.901-2.171-3.169-4.078-2.819
	c-9.696,1.764-18.968,8.532-24.679,15.438c1.382-5.609,4.691-12.833,12.506-17.51c9.127-5.461,22.414-6.451,39.494-2.941
	c12.046,2.472,22.723,1.243,29.559-0.228c1.191-0.257,2.422-0.005,3.388,0.686c0.931,0.658,1.518,1.65,1.653,2.788
	C212.841,82.964,213.608,97.421,205.739,106.996z"/>
</svg>
