<?xml version="1.0" encoding="utf-8"?>
<!-- Generator: Adobe Illustrator 16.0.0, SVG Export Plug-In . SVG Version: 6.00 Build 0)  -->
<!DOCTYPE svg PUBLIC "-//W3C//DTD SVG 1.1//EN" "http://www.w3.org/Graphics/SVG/1.1/DTD/svg11.dtd">
<svg version="1.1" id="Calque_1" xmlns="http://www.w3.org/2000/svg" xmlns:xlink="http://www.w3.org/1999/xlink" x="0px" y="0px"
	 width="317.086px" height="234.581px" viewBox="0 0 317.086 234.581" enable-background="new 0 0 317.086 234.581"
	 xml:space="preserve">
<path fill-rule="evenodd" clip-rule="evenodd" d="M310.613,5.273c-0.886,1.815-1.545,3.794-2.705,5.412
	c-2.329,3.248-4.105,6.826-7.088,9.73c-1.678,1.633-2.449,4.906-2.425,7.43c0.05,5.105-1.896,8.621-6.072,11.366
	c-1.077,0.706-1.749,2.463-2.032,3.854c-0.6,2.941-1.783,5.405-4.244,7.176c-1.323,0.952-2.698,1.832-3.991,2.822
	c-0.401,0.308-0.664,0.841-0.896,1.316c-1.335,2.747-2.327,5.723-4.033,8.211c-2.143,3.127-5.092,5.7-7.246,8.819
	c-1.303,1.887-2.007,4.299-2.549,6.578c-1.179,4.946-2.969,9.466-7.446,12.33c-2.668,1.706-5.519,3.124-8.218,4.783
	c-0.845,0.52-1.683,1.288-2.15,2.146c-2.505,4.589-4.852,9.263-7.349,13.855c-0.521,0.961-1.339,1.833-2.203,2.515
	c-1.084,0.857-2.283,1.66-3.56,2.163c-5.242,2.065-7.934,6.28-9.864,11.232c-2.009,5.15-5.606,9.134-10.293,11.772
	c-4.617,2.597-7.391,5.977-8.501,11.221c-1.336,6.309-4.021,12.134-8.978,16.527c-2.314,2.053-4.986,3.697-7.451,5.583
	c-4.544,3.475-6.756,8.438-8.619,13.622c-0.466,1.296-0.969,2.589-1.6,3.809c-0.23,0.443-0.886,0.668-1.687,1.229
	c0.937,1.758-0.527,3.371-1.554,5.176c-4.027,7.077-10.351,9.028-18.014,8.526c-5.538-0.364-11.109-0.203-16.652-0.521
	c-4.38-0.25-8.771-0.674-13.099-1.371c-6.65-1.068-13.205-0.756-19.606,1.14c-4.98,1.476-9.831,3.395-14.696,5.232
	c-0.76,0.287-1.454,1.095-1.895,1.831c-2.721,4.555-5.354,9.162-8.032,13.743c-0.659,1.126-1.249,2.33-2.109,3.283
	c-0.53,0.589-1.515,0.769-2.294,1.132c-0.151-0.217-0.303-0.434-0.453-0.649c0.62-1.295,1.137-2.651,1.876-3.874
	c3.585-5.92,7.116-11.878,10.887-17.679c3.137-4.826,6.549-9.477,9.896-14.163c4.727-6.623,9.532-13.189,14.239-19.826
	c0.83-1.171,1.197-2.671,2.033-3.837c0.97-1.351,2.293-2.441,3.333-3.748c2.986-3.76,5.824-7.64,8.879-11.341
	c2.384-2.888,5.103-5.498,7.49-8.382c2.18-2.632,3.979-5.582,6.187-8.188c4.583-5.407,9.229-10.769,14.04-15.974
	c2.794-3.021,5.959-5.697,8.958-8.529c-0.147-0.164-0.295-0.327-0.442-0.49c-1.37,1.277-2.709,2.593-4.119,3.824
	c-3.626,3.168-7.462,6.117-10.893,9.482c-6.615,6.485-13.156,13.063-19.439,19.867c-3.625,3.924-6.775,8.303-9.98,12.595
	c-4.619,6.183-8.626,12.894-13.753,18.608c-6.043,6.736-11.073,14.133-16.204,21.494c-1.262,1.811-2.023,3.973-2.733,6.05
	c-0.865,0.975-1.854,1.867-2.575,2.939c-2.873,4.264-5.677,8.575-8.476,12.89c-0.843,1.3-1.452,2.771-2.415,3.967
	c-0.868,1.076-2.072,1.882-3.127,2.808c-0.255-0.199-0.51-0.397-0.764-0.597c1.23-2.312,2.333-4.703,3.717-6.919
	c3.459-5.542,7.064-10.993,10.553-16.517c0.337-0.533,0.554-1.422,0.35-1.966c-0.686-1.819-1.717-3.51-2.376-5.337
	c-1.011-2.797-2.231-5.613-2.601-8.521c-0.371-2.92-0.889-5.515-2.729-7.933c-2.792-3.667-4.292-7.962-5.509-12.408
	c-1.069-3.904-2.685-7.656-3.931-11.518c-2.148-6.661-2.711-13.21,1.345-19.507c1.754-2.724,3.229-5.633,4.733-8.509
	c1.707-3.266,4.456-5.396,7.543-7.17c4.923-2.831,8.736-6.493,11.393-11.741c2.104-4.159,6.241-6.5,10.962-7.565
	c2.044-0.46,4.001-1.37,5.944-2.197c3.602-1.529,5.24-4.889,6.692-8.095c1.93-4.262,5.037-6.227,9.475-7.225
	c3.191-0.716,6.184-2.433,9.157-3.917c0.758-0.378,1.11-1.567,1.798-2.608c0.858-0.779,1.967-1.827,3.123-2.821
	c0.729-0.628,1.449-1.494,2.309-1.706c5.833-1.437,9.627-5.575,13.41-9.782c1.217-1.353,2.606-1.943,4.634-2.136
	c2.381-0.227,4.814-1.541,6.903-2.884c5.351-3.443,10.438-7.298,15.796-10.73c4.106-2.634,8.686-4.104,13.667-3.771
	c4.142,0.276,7.237-2.118,10.649-3.863c4.985-2.553,10.165-4.726,15.184-7.216c3.481-1.728,7.106-1.107,10.723-1.143
	c4.622-0.048,8.616-1.595,12.384-4.453c5.882-4.462,12.754-6.356,20.172-6.359c3.306-0.001,6.318-0.977,9.193-2.849
	c6.397-4.165,12.648-8.687,20.861-8.856c2.121-0.043,4.193-1.603,6.322-2.371c1.424-0.515,2.91-0.863,4.367-1.285
	C310.284,4.639,310.449,4.956,310.613,5.273z M97.856,204.314c0.167,0.151,0.332,0.304,0.498,0.455
	c0.368-0.146,0.745-0.274,1.104-0.442c9.415-4.437,19.107-6.902,29.659-5.073c5.782,1.003,11.674,1.399,17.526,1.963
	c2.272,0.219,4.573,0.163,6.86,0.197c3.83,0.059,7.691,0.397,11.482,0.034c3.041-0.293,6.188-1.1,8.244-3.8
	c3.958-5.204,6.313-11.239,8.848-17.184c1.273-2.986,2.472-6.04,5.205-8.128c2.52-1.926,4.984-3.923,7.447-5.923
	c1.455-1.18,3.032-2.272,4.25-3.67c3.841-4.412,5.898-9.849,7.258-15.344c1.16-4.682,3.59-7.668,7.715-9.737
	c5.022-2.521,8.406-6.662,10.521-11.756c2.142-5.163,5.033-9.425,10.488-11.604c2.665-1.064,4.831-2.883,6.185-5.602
	c1.84-3.695,4.229-7.157,5.713-10.979c1.395-3.59,4.268-4.986,7.244-6.458c3.749-1.854,7.549-3.627,9.155-7.896
	c0.948-2.522,1.649-5.138,2.606-7.655c0.744-1.955,1.433-4.026,2.638-5.69c2.51-3.466,5.468-6.605,7.991-10.064
	c1.16-1.592,1.943-3.554,2.497-5.464c0.47-1.621,1.172-2.728,2.673-3.537c3.338-1.798,5.816-4.154,6.554-8.275
	c0.419-2.341,1.651-4.592,4.147-6.058c1.653-0.972,3.229-2.928,3.769-4.759c1.001-3.399,1.097-7.056,1.835-10.549
	c0.222-1.046,1.188-2.065,2.053-2.819c3.168-2.758,5.758-5.863,7.209-10.385c-1.174,0.211-1.947,0.281-2.68,0.494
	c-2.659,0.771-5.29,1.635-7.956,2.372c-1.795,0.497-3.8,0.507-5.416,1.319c-3.642,1.834-7.226,3.842-10.596,6.13
	c-3.654,2.483-7.63,3.633-11.929,3.99c-7.042,0.586-13.821,1.631-19.4,6.751c-3.152,2.895-7.475,3.57-11.648,3.975
	c-2.502,0.243-5.086-0.199-7.56,0.172c-6,0.897-11.289,3.745-16.414,6.798c-4.811,2.864-9.521,5.601-15.46,5.404
	c-4.521-0.149-8.647,1.406-12.176,4.363c-2.626,2.2-5.132,4.595-7.974,6.474c-2.654,1.755-5.604,3.136-8.57,4.315
	c-1.848,0.733-3.069,2.791-5.438,2.413c-2.23-0.354-3.44,1.143-4.837,2.633c-2.096,2.238-4.406,4.343-6.896,6.125
	c-1.955,1.397-4.609,1.871-6.432,3.384c-2.547,2.111-4.609,4.808-6.878,7.253c-1.919-0.046-4.282-0.097-5.096,1.002
	c-1.447,1.951-3.313,2.623-5.288,2.994c-2.378,0.447-4.112,1.56-5.348,3.505c-1.693,2.672-2.938,5.402-5.467,7.778
	c-2.831,2.659-5.634,4.758-9.213,5.433c-5.432,1.024-9.154,4.207-11.415,8.799c-2.095,4.253-5.5,6.916-9.205,9.22
	c-3.972,2.469-7.523,5.164-9.728,9.375c-0.944,1.805-2.035,3.545-2.85,5.405c-0.999,2.288-2.169,4.604-2.576,7.024
	c-0.992,5.901,1.023,11.463,2.667,17.012c0.431,1.453,1.726,2.72,1.912,4.164c0.756,5.838,4.016,10.426,7.002,15.197
	c0.739,1.181,1.481,2.693,1.395,3.998c-0.379,5.71,2.34,10.24,5.1,15.029c2.144-3.381,4.222-6.563,6.193-9.808
	c0.897-1.476,1.997-2.578,1.605-4.931c-0.606-3.648,0.175-7.513,0.209-11.287c0.024-2.689,0.026-5.418-0.396-8.061
	c-0.409-2.561-1.174-5.111-2.131-7.527c-1.995-5.033-4.489-9.796-8.539-13.565c-0.895-0.832-1.675-1.788-2.508-2.687
	c0.131-0.191,0.26-0.382,0.391-0.572c0.845,0.327,1.771,0.525,2.52,1.003c3.941,2.515,6.233,6.37,8.262,10.414
	c3.737,7.453,5.084,15.495,5.685,23.692c0.125,1.711-0.248,3.459-0.392,5.189c1.288-0.672,2.057-1.497,2.748-2.381
	c2.4-3.073,4.745-6.188,7.175-9.239c0.798-1.001,2.291-1.711,2.591-2.796c0.784-2.846,1.5-5.828,1.473-8.749
	c-0.03-3.495-0.996-6.97-1.319-10.476c-0.797-8.61-3.954-16.203-9.407-22.887c-0.354-0.434-0.394-1.124-0.579-1.696
	c1.735,0.505,3.465,1.136,4.234,2.367c2.106,3.364,4.413,6.798,5.539,10.535c2.186,7.25,3.838,14.689,3.926,22.355
	c0.008,0.685,0.211,1.367,0.409,2.576c0.992-0.942,1.686-1.478,2.229-2.137c3.045-3.696,6.092-7.391,9.051-11.155
	c0.781-0.993,1.699-2.201,1.783-3.366c0.408-5.669,1.069-11.395,0.659-17.028c-0.493-6.771-0.939-13.7-4.305-19.928
	c-0.299-0.553-0.167-1.338-0.235-2.014c6.222,8.156,7.43,15.939,6.187,37.017c3.626-3.442,7.324-6.841,10.888-10.376
	c2.195-2.179,4.112-4.146,4.592-7.871c1.045-8.119,0.316-16.049-0.727-23.995c-0.543-4.138-1.892-8.171-2.876-12.252
	c0.258-0.038,0.516-0.077,0.773-0.115c5.515,12.06,6.304,24.743,4.085,38.339c2.873-2.753,5.343-5.09,7.777-7.463
	c1.636-1.596,3.664-3.003,4.718-4.931c1.372-2.51,2.124-5.41,2.81-8.225c0.412-1.698,0.215-3.55,0.246-5.334
	c0.071-4.126,0.568-8.315,0.021-12.36c-0.416-3.082-2.171-5.984-3.365-9.059c3.453,0.199,4.357,2.449,4.552,4.93
	c0.426,5.424,0.841,10.869,0.806,16.303c-0.022,3.544-0.842,7.082-1.09,8.983c1.681-1.242,4.586-3.433,7.54-5.556
	c1.861-1.338,3.676-2.833,5.729-3.781c2.086-0.962,2.173-3.797,4.556-4.335c0.209-0.046,0.282-0.856,0.351-1.32
	c0.103-0.706,0.026-1.456,0.231-2.125c2.702-8.797,3.215-17.755,2.025-26.84c-0.227-1.732-0.549-3.452-0.827-5.178
	c0.232-0.055,0.463-0.11,0.695-0.163c0.591,1.553,1.288,3.076,1.757,4.666c1.556,5.281,0.941,10.649,0.504,16.004
	c-0.321,3.928-0.649,7.854-0.999,12.064c0.739-0.32,1.136-0.428,1.463-0.642c4.563-2.979,9.138-5.942,13.654-8.99
	c0.707-0.477,1.412-1.27,1.659-2.06c1.448-4.628,3.393-9.225,3.96-13.975c0.72-6.039,0.28-12.215,0.351-18.333
	c0.008-0.569,0.09-1.139,0.137-1.708c0.267,0.02,0.534,0.039,0.8,0.058c2.546,10.89,0.813,21.62-1.774,32.408
	c1.938-1.192,3.619-2.466,5.243-3.808c2.868-2.37,5.517-5.066,8.607-7.091c2.672-1.751,4.967-3.66,6.194-6.577
	c2.446-5.823,4.151-11.852,4.729-18.184c0.176-1.928,0.814-3.813,1.242-5.718c1.08,9.002-1.243,17.364-4.748,26.039
	c1.025-0.549,1.456-0.757,1.863-1.003c3.902-2.351,7.715-4.865,11.717-7.031c8.206-4.44,14.512-10.722,19.087-18.818
	c1.122-1.985,2.425-3.867,3.645-5.797c0.232,0.154,0.466,0.309,0.698,0.463c-1.802,5.732-5.362,10.434-9.69,15.275
	c4.677-1.146,7.461-4.813,11.516-5.732c0.187,0.319,0.373,0.638,0.56,0.957c-7.685,5.012-15.369,10.022-23.055,15.033
	c3.674,0.063,7.146-0.282,10.58-0.859c9.149-1.539,11.654-0.557,17.747,2.537c-8.129-1.97-16.139-0.969-24.216,0.313
	c-8.172,1.295-20.819,6.096-22.062,9.185c9.353-0.492,18.445,0.189,27.106,4.176c-0.782,0.445-1.594,0.606-2.383,0.532
	c-3.662-0.343-7.039-2.401-10.808-1.992c-3.75,0.408-7.332-2.538-11.167-0.459c-0.393,0.213-1.158-0.383-1.762-0.416
	c-1.432-0.079-3.229-0.602-4.24,0.047c-3.08,1.977-5.867,4.411-8.751,6.688c-2.196,1.733-4.365,3.5-6.697,5.374
	c4.123-0.081,7.849-0.193,11.574-0.208c1.634-0.006,3.312,0.476,4.894,0.236c6.196-0.941,12.188,0.328,18.196,1.436
	c2.589,0.478,5.135,2.638,5.385,4.108c-1.365-0.477-2.781-1.209-4.275-1.454c-4.596-0.75-9.225-1.294-13.833-1.964
	c-1.258-0.183-2.505-0.783-3.737-0.73c-1.727,0.072-3.431,0.817-5.152,0.851c-4.405,0.084-8.813-0.11-13.221-0.087
	c-0.842,0.005-1.797,0.319-2.5,0.79c-3.998,2.669-7.965,5.387-11.866,8.192c-0.761,0.548-1.19,1.557-1.841,2.446
	c3.017-0.312,5.698-0.9,8.356-0.804c7.117,0.256,14.24,0.631,21.327,1.313c3.447,0.333,7.043,0.96,9.386,4.18
	c-0.742,0.083-1.413-0.075-2.089-0.209c-3.128-0.617-6.235-1.537-9.392-1.774c-6.608-0.496-13.241-0.658-19.866-0.909
	c-5.97-0.225-11.313,1.498-16.28,4.872c-3.874,2.633-6.554,6.762-11.072,8.57c-0.788,0.316-1.318,1.279-2.192,2.174
	c3.391-0.438,6.34-0.941,9.312-1.175c6.343-0.497,12.693-0.898,19.046-1.251c3.104-0.173,6.247-0.433,9.32-0.132
	c3.319,0.325,6.583,1.247,9.244,3.638c-0.971,0.098-1.888-0.117-2.815-0.186c-5.129-0.369-10.279-1.164-15.387-0.949
	c-9.113,0.384-18.207,1.332-27.297,2.175c-1.541,0.143-3.407,0.515-4.46,1.493c-3.41,3.169-6.526,6.654-9.714,10.059
	c-0.433,0.462-0.623,1.15-1.113,2.098c1.076-0.104,1.622-0.148,2.167-0.209c4.192-0.466,8.378-1.219,12.579-1.327
	c4.732-0.122,9.527-0.018,14.205,0.63c5.967,0.824,11.865,2.197,17.742,3.556c1.26,0.291,2.301,1.529,3.441,2.332
	c-0.145,0.23-0.289,0.461-0.434,0.691c-0.306-0.025-0.636,0.015-0.914-0.086c-12.322-4.411-25.138-4.512-37.971-4.222
	c-3.172,0.072-6.328,1.034-9.494,1.05c-2.588,0.013-4.479,0.918-6.213,2.618c-1.225,1.203-2.635,2.238-3.736,3.54
	c-2.215,2.619-4.276,5.368-6.4,8.063c0.148,0.241,0.298,0.481,0.446,0.722c16.188-2.762,32.249-2.896,48.171,2.114
	c-0.741,0.611-1.585,1.274-2.381,1.224c-2.426-0.156-4.826-0.683-7.25-0.894c-6.647-0.58-13.301-1.469-19.953-1.485
	c-6.289-0.015-12.589,0.818-18.858,1.517c-1.607,0.179-3.61,0.835-4.585,1.988c-4.4,5.21-8.496,10.676-12.607,15.929
	c3.568-0.471,7.185-1.26,10.822-1.37c9.494-0.287,19.002-0.459,28.495-0.264c2.445,0.051,4.857,1.629,7.285,2.505
	c-0.049,0.319-0.098,0.639-0.147,0.959c-0.784,0.104-1.576,0.342-2.352,0.291c-4.128-0.267-8.258-0.94-12.375-0.854
	c-9.546,0.199-19.1,0.537-28.614,1.283c-3.221,0.252-6.854,0.797-8.679,4.489c-0.709,1.435-1.979,2.585-2.939,3.903
	c-2.08,2.856-4.124,5.739-6.526,9.091c6.106-0.938,11.409-1.795,16.728-2.554c3.858-0.552,7.75-1.458,11.601-1.342
	c6.514,0.196,13.012,1.031,19.504,1.718c0.916,0.097,1.762,0.866,2.641,1.325c-0.962,0.375-1.908,0.799-2.893,1.102
	c-0.358,0.11-0.808-0.057-1.212-0.113c-3.061-0.423-6.108-1.094-9.182-1.233c-12.601-0.569-24.858,1.976-37.099,4.467
	c-1.188,0.242-2.418,1.254-3.218,2.241c-2.557,3.146-4.92,6.449-7.355,9.694C99.464,202.144,98.662,203.23,97.856,204.314z"/>
<path fill-rule="evenodd" clip-rule="evenodd" fill="#FFFFFF" stroke="#000000" stroke-width="3" stroke-linecap="round" stroke-linejoin="round" stroke-miterlimit="10" d="
	M97.856,204.314c0.806-1.084,1.607-2.171,2.417-3.251c2.436-3.245,4.799-6.548,7.355-9.694c0.8-0.987,2.029-1.999,3.218-2.241
	c12.24-2.491,24.498-5.036,37.099-4.467c3.073,0.14,6.121,0.811,9.182,1.233c0.404,0.057,0.854,0.224,1.212,0.113
	c0.984-0.303,1.931-0.727,2.893-1.102c-0.879-0.459-1.725-1.229-2.641-1.325c-6.492-0.687-12.99-1.521-19.504-1.718
	c-3.851-0.116-7.742,0.79-11.601,1.342c-5.318,0.759-10.621,1.616-16.728,2.554c2.402-3.352,4.446-6.234,6.526-9.091
	c0.96-1.318,2.23-2.469,2.939-3.903c1.824-3.692,5.458-4.237,8.679-4.489c9.515-0.746,19.068-1.084,28.614-1.283
	c4.117-0.086,8.247,0.588,12.375,0.854c0.775,0.051,1.567-0.187,2.352-0.291c0.05-0.32,0.099-0.64,0.147-0.959
	c-2.428-0.876-4.84-2.454-7.285-2.505c-9.493-0.195-19.001-0.023-28.495,0.264c-3.638,0.11-7.254,0.899-10.822,1.37
	c4.111-5.253,8.207-10.719,12.607-15.929c0.975-1.153,2.978-1.81,4.585-1.988c6.27-0.698,12.569-1.531,18.858-1.517
	c6.652,0.017,13.306,0.905,19.953,1.485c2.424,0.211,4.824,0.737,7.25,0.894c0.796,0.051,1.64-0.612,2.381-1.224
	c-15.922-5.011-31.982-4.876-48.171-2.114c-0.148-0.24-0.298-0.48-0.446-0.722c2.124-2.695,4.186-5.444,6.4-8.063
	c1.102-1.302,2.512-2.337,3.736-3.54c1.733-1.7,3.625-2.605,6.213-2.618c3.166-0.016,6.322-0.978,9.494-1.05
	c12.833-0.29,25.648-0.189,37.971,4.222c0.278,0.101,0.608,0.061,0.914,0.086c0.145-0.23,0.289-0.461,0.434-0.691
	c-1.141-0.803-2.182-2.041-3.441-2.332c-5.877-1.358-11.775-2.731-17.742-3.556c-4.678-0.647-9.473-0.752-14.205-0.63
	c-4.201,0.108-8.387,0.861-12.579,1.327c-0.545,0.061-1.091,0.105-2.167,0.209c0.49-0.947,0.681-1.636,1.113-2.098
	c3.188-3.404,6.304-6.89,9.714-10.059c1.053-0.979,2.919-1.351,4.46-1.493c9.09-0.843,18.184-1.791,27.297-2.175
	c5.107-0.215,10.258,0.58,15.387,0.949c0.928,0.068,1.845,0.283,2.815,0.186c-2.661-2.391-5.925-3.313-9.244-3.638
	c-3.073-0.301-6.217-0.041-9.32,0.132c-6.353,0.353-12.703,0.754-19.046,1.251c-2.972,0.233-5.921,0.737-9.312,1.175
	c0.874-0.895,1.404-1.857,2.192-2.174c4.519-1.809,7.198-5.938,11.072-8.57c4.967-3.374,10.311-5.097,16.28-4.872
	c6.625,0.251,13.258,0.413,19.866,0.909c3.156,0.237,6.264,1.157,9.392,1.774c0.676,0.134,1.347,0.292,2.089,0.209
	c-2.343-3.22-5.938-3.847-9.386-4.18c-7.087-0.683-14.21-1.058-21.327-1.313c-2.658-0.097-5.34,0.492-8.356,0.804
	c0.65-0.89,1.08-1.898,1.841-2.446c3.901-2.806,7.868-5.523,11.866-8.192c0.703-0.471,1.658-0.785,2.5-0.79
	c4.407-0.023,8.815,0.171,13.221,0.087c1.722-0.033,3.426-0.778,5.152-0.851c1.232-0.053,2.479,0.548,3.737,0.73
	c4.608,0.67,9.237,1.214,13.833,1.964c1.494,0.245,2.91,0.978,4.275,1.454c-0.25-1.471-2.796-3.631-5.385-4.108
	c-6.008-1.107-12-2.377-18.196-1.436c-1.582,0.239-3.26-0.242-4.894-0.236c-3.726,0.015-7.451,0.127-11.574,0.208
	c2.332-1.874,4.501-3.641,6.697-5.374c2.884-2.277,5.671-4.712,8.751-6.688c1.012-0.648,2.809-0.126,4.24-0.047
	c0.604,0.033,1.369,0.629,1.762,0.416c3.835-2.079,7.417,0.867,11.167,0.459c3.769-0.409,7.146,1.649,10.808,1.992
	c0.789,0.074,1.601-0.087,2.383-0.532c-8.661-3.986-17.754-4.668-27.106-4.176c1.242-3.089,13.89-7.89,22.062-9.185
	c8.077-1.281,16.087-2.282,24.216-0.313c-6.093-3.094-8.598-4.076-17.747-2.537c-3.434,0.577-6.906,0.922-10.58,0.859
	c7.686-5.011,15.37-10.021,23.055-15.033c-0.187-0.319-0.373-0.638-0.56-0.957c-4.055,0.92-6.839,4.586-11.516,5.732
	c4.328-4.842,7.889-9.543,9.69-15.275c-0.232-0.154-0.466-0.309-0.698-0.463c-1.22,1.93-2.522,3.812-3.645,5.797
	c-4.575,8.097-10.881,14.378-19.087,18.818c-4.002,2.166-7.814,4.681-11.717,7.031c-0.407,0.246-0.838,0.454-1.863,1.003
	c3.505-8.675,5.828-17.037,4.748-26.039c-0.428,1.905-1.066,3.79-1.242,5.718c-0.578,6.332-2.283,12.36-4.729,18.184
	c-1.228,2.917-3.522,4.826-6.194,6.577c-3.091,2.024-5.739,4.721-8.607,7.091c-1.624,1.342-3.305,2.615-5.243,3.808
	c2.588-10.788,4.32-21.519,1.774-32.408c-0.266-0.019-0.533-0.038-0.8-0.058c-0.047,0.569-0.129,1.139-0.137,1.708
	c-0.07,6.118,0.369,12.294-0.351,18.333c-0.567,4.75-2.512,9.347-3.96,13.975c-0.247,0.79-0.952,1.583-1.659,2.06
	c-4.517,3.048-9.091,6.012-13.654,8.99c-0.327,0.214-0.724,0.321-1.463,0.642c0.35-4.211,0.678-8.137,0.999-12.064
	c0.438-5.354,1.052-10.723-0.504-16.004c-0.469-1.59-1.166-3.113-1.757-4.666c-0.232,0.053-0.463,0.108-0.695,0.163
	c0.278,1.726,0.601,3.445,0.827,5.178c1.189,9.085,0.677,18.043-2.025,26.84c-0.205,0.669-0.129,1.419-0.231,2.125
	c-0.068,0.464-0.142,1.274-0.351,1.32c-2.383,0.538-2.47,3.373-4.556,4.335c-2.054,0.948-3.868,2.443-5.729,3.781
	c-2.954,2.123-5.859,4.313-7.54,5.556c0.248-1.901,1.067-5.439,1.09-8.983c0.035-5.434-0.38-10.879-0.806-16.303
	c-0.194-2.48-1.099-4.73-4.552-4.93c1.194,3.074,2.949,5.977,3.365,9.059c0.547,4.045,0.05,8.234-0.021,12.36
	c-0.031,1.784,0.166,3.636-0.246,5.334c-0.686,2.814-1.438,5.715-2.81,8.225c-1.054,1.928-3.082,3.335-4.718,4.931
	c-2.435,2.373-4.904,4.71-7.777,7.463c2.219-13.596,1.43-26.279-4.085-38.339c-0.258,0.038-0.516,0.077-0.773,0.115
	c0.984,4.081,2.333,8.114,2.876,12.252c1.043,7.946,1.771,15.876,0.727,23.995c-0.479,3.725-2.396,5.692-4.592,7.871
	c-3.563,3.535-7.262,6.934-10.888,10.376c1.243-21.077,0.035-28.86-6.187-37.017c0.068,0.676-0.063,1.461,0.235,2.014
	c3.365,6.228,3.812,13.156,4.305,19.928c0.41,5.634-0.251,11.359-0.659,17.028c-0.084,1.165-1.002,2.373-1.783,3.366
	c-2.959,3.765-6.006,7.459-9.051,11.155c-0.543,0.659-1.236,1.194-2.229,2.137c-0.198-1.209-0.401-1.892-0.409-2.576
	c-0.088-7.666-1.74-15.105-3.926-22.355c-1.126-3.737-3.433-7.171-5.539-10.535c-0.77-1.231-2.499-1.862-4.234-2.367
	c0.186,0.572,0.226,1.263,0.579,1.696c5.453,6.684,8.61,14.276,9.407,22.887c0.323,3.506,1.289,6.98,1.319,10.476
	c0.027,2.921-0.688,5.903-1.473,8.749c-0.3,1.085-1.793,1.795-2.591,2.796c-2.43,3.051-4.774,6.166-7.175,9.239
	c-0.691,0.884-1.46,1.709-2.748,2.381c0.144-1.73,0.517-3.479,0.392-5.189c-0.601-8.197-1.947-16.239-5.685-23.692
	c-2.028-4.044-4.32-7.899-8.262-10.414c-0.748-0.478-1.675-0.676-2.52-1.003c-0.131,0.19-0.26,0.381-0.391,0.572
	c0.833,0.898,1.613,1.854,2.508,2.687c4.05,3.77,6.544,8.532,8.539,13.565c0.957,2.416,1.722,4.967,2.131,7.527
	c0.422,2.643,0.42,5.371,0.396,8.061c-0.034,3.774-0.815,7.639-0.209,11.287c0.392,2.353-0.708,3.455-1.605,4.931
	c-1.972,3.245-4.05,6.427-6.193,9.808c-2.76-4.789-5.479-9.319-5.1-15.029c0.087-1.305-0.655-2.817-1.395-3.998
	c-2.986-4.771-6.246-9.359-7.002-15.197c-0.187-1.444-1.481-2.711-1.912-4.164c-1.644-5.549-3.659-11.11-2.667-17.012
	c0.407-2.42,1.577-4.736,2.576-7.024c0.814-1.86,1.905-3.601,2.85-5.405c2.204-4.211,5.756-6.906,9.728-9.375
	c3.705-2.304,7.11-4.967,9.205-9.22c2.261-4.592,5.983-7.774,11.415-8.799c3.579-0.675,6.382-2.773,9.213-5.433
	c2.529-2.376,3.773-5.106,5.467-7.778c1.235-1.945,2.97-3.058,5.348-3.505c1.975-0.371,3.841-1.043,5.288-2.994
	c0.813-1.099,3.177-1.048,5.096-1.002c2.269-2.445,4.331-5.142,6.878-7.253c1.822-1.513,4.477-1.986,6.432-3.384
	c2.49-1.782,4.801-3.887,6.896-6.125c1.396-1.49,2.606-2.987,4.837-2.633c2.368,0.378,3.59-1.68,5.438-2.413
	c2.966-1.18,5.916-2.561,8.57-4.315c2.842-1.879,5.348-4.273,7.974-6.474c3.528-2.957,7.654-4.513,12.176-4.363
	c5.938,0.196,10.649-2.54,15.46-5.404c5.125-3.053,10.414-5.9,16.414-6.798c2.474-0.371,5.058,0.071,7.56-0.172
	c4.174-0.404,8.496-1.08,11.648-3.975c5.579-5.12,12.358-6.165,19.4-6.751c4.299-0.357,8.274-1.507,11.929-3.99
	c3.37-2.288,6.954-4.296,10.596-6.13c1.616-0.813,3.621-0.822,5.416-1.319c2.666-0.737,5.297-1.602,7.956-2.372
	c0.732-0.213,1.506-0.283,2.68-0.494c-1.451,4.521-4.041,7.627-7.209,10.385c-0.865,0.754-1.831,1.773-2.053,2.819
	c-0.738,3.493-0.834,7.149-1.835,10.549c-0.539,1.831-2.115,3.787-3.769,4.759c-2.496,1.466-3.729,3.717-4.147,6.058
	c-0.737,4.121-3.216,6.478-6.554,8.275c-1.501,0.81-2.203,1.916-2.673,3.537c-0.554,1.91-1.337,3.872-2.497,5.464
	c-2.523,3.459-5.481,6.599-7.991,10.064c-1.205,1.664-1.894,3.735-2.638,5.69c-0.957,2.518-1.658,5.133-2.606,7.655
	c-1.606,4.27-5.406,6.042-9.155,7.896c-2.977,1.472-5.85,2.868-7.244,6.458c-1.484,3.822-3.873,7.284-5.713,10.979
	c-1.354,2.719-3.52,4.537-6.185,5.602c-5.455,2.18-8.347,6.441-10.488,11.604c-2.114,5.094-5.498,9.234-10.521,11.756
	c-4.125,2.069-6.555,5.056-7.715,9.737c-1.359,5.495-3.417,10.932-7.258,15.344c-1.218,1.397-2.795,2.49-4.25,3.67
	c-2.463,2-4.928,3.997-7.447,5.923c-2.733,2.088-3.932,5.142-5.205,8.128c-2.535,5.944-4.89,11.979-8.848,17.184
	c-2.056,2.7-5.203,3.507-8.244,3.8c-3.791,0.363-7.652,0.024-11.482-0.034c-2.287-0.034-4.588,0.021-6.86-0.197
	c-5.853-0.563-11.744-0.96-17.526-1.963c-10.552-1.829-20.244,0.637-29.659,5.073c-0.358,0.168-0.735,0.296-1.104,0.442
	C98.188,204.618,98.023,204.466,97.856,204.314z"/>
<path fill-rule="evenodd" clip-rule="evenodd" d="M22.276,46.322c0.631,0.999,1.414,1.934,1.862,3.007
	c0.901,2.155,2.137,4.137,2.666,6.51c0.298,1.336,1.69,2.724,2.953,3.485c2.555,1.54,3.709,3.587,3.793,6.507
	c0.021,0.752,0.689,1.625,1.295,2.192c1.279,1.2,2.142,2.545,2.269,4.313c0.067,0.95,0.083,1.904,0.18,2.851
	c0.029,0.294,0.215,0.589,0.379,0.85c0.958,1.506,2.134,2.912,2.849,4.524c0.898,2.025,1.274,4.281,2.166,6.309
	c0.539,1.229,1.523,2.318,2.49,3.287c2.101,2.104,3.8,4.38,3.852,7.485c0.031,1.851-0.139,3.702-0.141,5.556
	c0,0.58,0.126,1.231,0.407,1.728c1.517,2.653,3.121,5.254,4.641,7.904c0.317,0.555,0.501,1.229,0.576,1.868
	c0.093,0.801,0.125,1.645-0.015,2.434c-0.581,3.241,0.688,5.873,2.561,8.353c1.947,2.578,2.826,5.59,2.701,8.731
	c-0.124,3.092,0.707,5.51,2.976,7.671c2.729,2.599,4.802,5.722,5.469,9.534c0.312,1.781,0.311,3.614,0.492,5.418
	c0.336,3.326,2.126,5.949,4.134,8.466c0.502,0.63,0.992,1.276,1.404,1.964c0.149,0.25,0.061,0.645,0.094,1.216
	c1.162,0.073,1.516,1.296,2.099,2.36c2.285,4.174,1.317,7.918-1.282,11.577c-1.88,2.644-3.508,5.464-5.366,8.124
	c-1.467,2.104-3.025,4.156-4.699,6.097c-2.57,2.981-4.425,6.337-5.445,10.104c-0.793,2.931-1.327,5.932-1.903,8.915
	c-0.091,0.467,0.098,1.061,0.329,1.504c1.433,2.751,2.917,5.475,4.374,8.211c0.357,0.674,0.776,1.337,0.987,2.057
	c0.13,0.444-0.083,0.99-0.142,1.488c-0.153,0.009-0.309,0.019-0.462,0.026c-0.453-0.705-0.97-1.378-1.352-2.121
	c-1.847-3.599-3.728-7.183-5.456-10.839c-1.44-3.04-2.707-6.163-4.013-9.265c-1.844-4.384-3.639-8.788-5.496-13.164
	c-0.327-0.772-0.962-1.415-1.285-2.188c-0.374-0.896-0.512-1.891-0.842-2.809c-0.955-2.638-2.015-5.24-2.919-7.895
	c-0.706-2.071-1.172-4.225-1.874-6.297c-0.641-1.893-1.556-3.692-2.176-5.59c-1.284-3.937-2.527-7.892-3.642-11.883
	c-0.645-2.316-1.006-4.711-1.495-7.071c-0.127,0.022-0.254,0.046-0.38,0.068c0.215,1.074,0.459,2.144,0.639,3.222
	c0.465,2.777,0.756,5.59,1.377,8.328c1.198,5.279,2.464,10.551,3.923,15.763c0.84,3.007,2.052,5.917,3.204,8.83
	c1.66,4.193,3.771,8.245,5.041,12.548c1.498,5.072,3.636,9.842,5.725,14.652c0.514,1.184,1.355,2.226,2.172,3.215
	c0.218,0.73,0.359,1.496,0.672,2.184c1.239,2.736,2.525,5.454,3.813,8.169c0.389,0.818,0.935,1.573,1.233,2.419
	c0.269,0.761,0.302,1.606,0.438,2.416c-0.178,0.065-0.354,0.131-0.531,0.197c-0.773-1.321-1.625-2.604-2.303-3.972
	c-1.696-3.421-3.303-6.886-4.98-10.315c-0.162-0.33-0.538-0.711-0.871-0.776c-1.114-0.217-2.272-0.223-3.383-0.454
	c-1.702-0.354-3.478-0.612-5.038-1.319c-1.565-0.71-3.015-1.249-4.782-1.074c-2.681,0.264-5.279-0.308-7.862-1.064
	c-2.271-0.666-4.633-1.013-6.936-1.578c-3.974-0.973-7.404-2.702-9.293-6.65c-0.817-1.708-1.812-3.335-2.782-4.964
	c-1.1-1.852-1.316-3.872-1.253-5.952c0.103-3.317-0.552-6.337-2.349-9.268c-1.422-2.323-1.318-5.099-0.4-7.775
	c0.397-1.157,0.545-2.41,0.73-3.63c0.343-2.261-0.826-4.105-1.976-5.813c-1.528-2.267-1.553-4.414-0.688-6.929
	c0.622-1.808,0.686-3.822,0.859-5.756c0.044-0.493-0.439-1.034-0.747-1.694c-0.123-0.666-0.305-1.54-0.444-2.42
	c-0.09-0.557-0.3-1.18-0.141-1.671c1.073-3.343,0.178-6.499-0.756-9.673c-0.299-1.02-0.166-1.893,0.359-2.96
	c0.618-1.253,0.71-2.868,0.683-4.318c-0.073-3.719-0.43-7.431-0.494-11.149c-0.052-2.85,0.622-5.579,2.314-7.955
	c1.408-1.976,1.166-4.251,1.345-6.482c0.26-3.264,0.766-6.508,1.065-9.768c0.209-2.262,1.629-3.875,2.721-5.684
	c1.394-2.315,1.849-4.777,1.583-7.528c-0.417-4.294,0.748-8.293,3.021-11.985c1.014-1.645,1.451-3.443,1.403-5.447
	c-0.111-4.459-0.443-8.957,1.991-13.095c0.629-1.067,0.489-2.577,0.758-3.872c0.182-0.867,0.464-1.713,0.701-2.566
	C21.858,46.292,22.067,46.308,22.276,46.322z M56.053,213.209c0.126-0.036,0.252-0.071,0.378-0.107
	c0.041-0.229,0.092-0.456,0.118-0.686c0.681-6.044,2.426-11.622,6.571-16.31c2.272-2.569,4.276-5.38,6.351-8.118
	c0.807-1.063,1.484-2.225,2.203-3.354c1.205-1.887,2.557-3.703,3.539-5.701c0.785-1.603,1.351-3.416,0.637-5.266
	c-1.374-3.566-3.655-6.588-5.834-9.672c-1.096-1.549-2.248-3.082-2.449-5.083c-0.184-1.844-0.422-3.683-0.661-5.521
	c-0.142-1.087-0.201-2.206-0.523-3.24c-1.017-3.265-3.091-5.955-5.407-8.316c-1.974-2.013-2.714-4.137-2.479-6.824
	c0.286-3.271-0.736-6.226-2.622-8.84c-1.911-2.648-3.146-5.394-2.557-8.776c0.288-1.651,0.047-3.286-0.892-4.794
	c-1.273-2.049-2.262-4.299-3.709-6.209c-1.357-1.796-1.172-3.652-0.992-5.586c0.229-2.433,0.512-4.866-1.12-6.976
	c-0.964-1.245-2.049-2.396-3.009-3.645c-0.744-0.969-1.563-1.946-2.021-3.057c-0.955-2.312-1.609-4.746-2.558-7.062
	c-0.436-1.066-1.171-2.058-1.952-2.92c-0.662-0.73-0.997-1.419-0.94-2.413c0.131-2.211-0.281-4.167-2.106-5.799
	c-1.036-0.926-1.777-2.23-1.742-3.921c0.024-1.121-0.466-2.504-1.212-3.334c-1.384-1.54-3.173-2.709-4.685-4.148
	c-0.453-0.431-0.664-1.224-0.773-1.886c-0.399-2.421-1.15-4.662-2.954-6.771c-0.256,0.648-0.458,1.055-0.577,1.484
	c-0.432,1.56-0.809,3.134-1.26,4.686c-0.304,1.045-0.913,2.047-1.004,3.099c-0.206,2.374-0.306,4.773-0.199,7.152
	c0.113,2.579-0.534,4.908-1.675,7.157c-1.868,3.684-3.427,7.377-2.59,11.722c0.472,2.456-0.517,4.814-1.596,7.015
	c-0.646,1.319-1.659,2.469-2.233,3.813c-1.393,3.261-1.598,6.765-1.651,10.251c-0.05,3.271-0.133,6.454-2.053,9.349
	c-1.461,2.203-1.952,4.733-1.563,7.395c0.29,1.981,0.711,3.963,0.775,5.952c0.059,1.859-0.159,3.75-0.481,5.588
	c-0.201,1.145,0.447,2.383-0.467,3.445c-0.861,1.001-0.488,2.063-0.174,3.214c0.472,1.729,0.81,3.522,0.933,5.309
	c0.096,1.401-0.483,2.868-0.289,4.238c0.27,1.913,0.978,3.767,1.497,5.646c-0.609,0.94-1.36,2.102-1.063,2.842
	c0.526,1.318,0.288,2.453-0.133,3.549c-0.507,1.32-0.484,2.524,0.104,3.736c0.809,1.662,1.785,3.118,2.192,5.105
	c0.455,2.224,0.64,4.262-0.122,6.25c-1.157,3.015-0.715,5.842,0.877,8.376c1.474,2.346,1.754,4.857,1.764,7.407
	c0.01,2.732,0.262,5.326,1.681,7.715c0.608,1.022,1.139,2.099,1.814,3.075c0.832,1.197,1.626,2.491,2.705,3.436
	c2.632,2.305,6.018,3.006,9.282,3.891c0.855,0.23,1.882-0.024,2.657,0.326c3.136,1.414,6.419,1.198,9.707,1.175
	c0.814-0.004,1.796,0.091,2.418,0.533c2.725,1.94,5.813,1.978,9.041,2.072c-1.024-2.104-1.971-4.112-2.98-6.088
	c-0.46-0.899-0.671-1.784-1.961-2.312c-2.002-0.817-3.684-2.392-5.552-3.564c-1.331-0.838-2.687-1.676-4.13-2.276
	c-1.4-0.581-2.903-0.983-4.4-1.248c-3.113-0.551-6.249-0.771-9.365,0.088c-0.689,0.19-1.404,0.285-2.107,0.424
	c-0.055-0.124-0.109-0.246-0.165-0.37c0.423-0.319,0.806-0.719,1.272-0.945c2.459-1.189,5.081-1.148,7.715-0.917
	c4.854,0.427,9.269,2.223,13.531,4.438c0.889,0.462,1.643,1.184,2.461,1.786c0.06-0.848-0.113-1.483-0.342-2.098
	c-0.793-2.137-1.624-4.259-2.396-6.404c-0.252-0.702-0.147-1.663-0.596-2.145c-1.176-1.264-2.44-2.533-3.901-3.417
	c-1.748-1.056-3.772-1.642-5.616-2.556c-4.528-2.244-9.273-3.002-14.271-2.338c-0.323,0.043-0.68-0.149-1.021-0.232
	c0.783-0.709,1.628-1.376,2.478-1.38c2.317-0.017,4.734-0.111,6.938,0.475c4.277,1.136,8.486,2.595,12.326,4.902
	c0.343,0.207,0.745,0.313,1.407,0.586c-0.164-0.782-0.219-1.29-0.38-1.763c-0.905-2.648-1.809-5.299-2.773-7.924
	c-0.255-0.693-0.575-1.521-1.128-1.92c-2.695-1.941-5.342-4.025-8.271-5.55c-3.519-1.833-7.103-3.735-11.233-3.97
	c-0.366-0.021-0.717-0.328-1.075-0.502c5.967-0.592,10.21,1.193,20.313,8.275c-0.6-2.859-1.157-5.742-1.823-8.599
	c-0.41-1.761-0.801-3.316-2.507-4.7c-3.719-3.008-7.888-5.078-12.16-6.995c-2.225-0.999-4.645-1.565-6.978-2.327
	c0.06-0.139,0.121-0.28,0.181-0.42c7.689,0.954,14.241,4.451,20.325,9.725c-0.488-2.273-0.893-4.218-1.328-6.156
	c-0.292-1.304-0.369-2.744-1.005-3.859c-0.829-1.452-2.041-2.717-3.231-3.92c-0.718-0.727-1.699-1.196-2.578-1.759
	c-2.03-1.301-3.962-2.833-6.143-3.802c-1.66-0.737-3.643-0.754-5.538-1.104c1.158-1.656,2.555-1.416,3.849-0.753
	c2.828,1.452,5.665,2.915,8.357,4.599c1.757,1.098,3.265,2.592,4.135,3.297c-0.103-1.217-0.301-3.333-0.45-5.454
	c-0.096-1.336-0.283-2.698-0.126-4.011c0.162-1.332-1.222-2.244-0.758-3.594c0.039-0.119-0.341-0.404-0.551-0.581
	c-0.319-0.268-0.717-0.46-0.986-0.767c-3.547-4.042-7.847-7.044-12.729-9.238c-0.933-0.419-1.887-0.786-2.831-1.177
	c0.043-0.132,0.087-0.264,0.132-0.396c0.954,0.182,1.926,0.301,2.859,0.557c3.104,0.846,5.588,2.797,8.118,4.657
	c1.854,1.364,3.706,2.731,5.694,4.196c0.068-0.465,0.136-0.696,0.129-0.924c-0.081-3.184-0.153-6.369-0.284-9.551
	c-0.02-0.497-0.199-1.091-0.516-1.457c-1.859-2.14-3.548-4.516-5.737-6.255c-2.784-2.21-5.992-3.885-9.015-5.796
	c-0.28-0.179-0.539-0.396-0.807-0.593c0.092-0.128,0.183-0.255,0.273-0.38c6.199,2.072,11.005,6.226,15.579,10.821
	c0.001-1.33-0.117-2.557-0.286-3.776c-0.3-2.154-0.828-4.299-0.889-6.456c-0.051-1.866-0.297-3.594-1.372-5.101
	c-2.147-3.002-4.624-5.698-7.597-7.928c-0.904-0.679-1.646-1.575-2.463-2.372c4.81,2.224,8.257,5.944,11.498,10.347
	c0.041-0.678,0.071-0.955,0.073-1.234c0.027-2.661-0.056-5.328,0.095-7.984c0.308-5.443-0.884-10.508-3.508-15.268
	c-0.645-1.166-1.182-2.393-1.768-3.591c0.148-0.068,0.297-0.137,0.444-0.205c2.3,2.655,3.547,5.868,4.629,9.506
	c0.863-2.679-0.106-5.188,0.679-7.487c0.216,0.005,0.433,0.01,0.648,0.016c0.137,5.36,0.271,10.719,0.408,16.079
	c1.158-1.809,2.052-3.642,2.818-5.526c2.039-5.023,3.296-5.969,6.703-8.051c-3.473,3.439-5.43,7.732-7.271,12.143
	c-1.862,4.463-3.352,12.228-2.197,13.793c2.624-4.804,5.752-9.119,10.391-12.206c-0.018,0.526-0.187,0.979-0.465,1.35
	c-1.294,1.716-3.354,2.765-4.305,4.766c-0.948,1.991-3.513,2.869-3.653,5.415c-0.016,0.26-0.547,0.458-0.748,0.749
	c-0.479,0.688-1.29,1.421-1.277,2.124c0.039,2.139,0.396,4.271,0.645,6.404c0.188,1.624,0.401,3.244,0.619,4.98
	c1.224-2.076,2.311-3.964,3.446-5.822c0.497-0.814,1.253-1.502,1.617-2.362c1.432-3.371,3.902-5.963,6.296-8.612
	c1.03-1.143,2.887-1.746,3.694-1.418c-0.656,0.531-1.454,1.011-2.035,1.68c-1.782,2.057-3.471,4.192-5.219,6.279
	c-0.477,0.57-1.158,1.006-1.509,1.637c-0.493,0.88-0.645,1.957-1.157,2.823c-1.31,2.217-2.758,4.352-4.098,6.552
	c-0.256,0.419-0.392,0.99-0.374,1.485c0.101,2.807,0.237,5.614,0.438,8.415c0.039,0.547,0.408,1.069,0.653,1.666
	c0.768-1.597,1.299-3.11,2.162-4.404c2.31-3.461,4.681-6.889,7.193-10.207c1.223-1.613,2.637-3.209,4.958-3.388
	c-0.186,0.396-0.472,0.681-0.744,0.976c-1.267,1.367-2.678,2.63-3.764,4.129c-2.273,3.135-4.389,6.385-6.545,9.604
	c-1.943,2.901-2.725,6.089-2.568,9.594c0.122,2.734,1.354,5.335,0.868,8.137c-0.085,0.489,0.231,1.048,0.409,1.758
	c0.822-1.82,1.476-3.443,2.27-4.992c1.699-3.309,3.446-6.591,5.22-9.859c0.866-1.598,1.7-3.241,2.793-4.679
	c1.18-1.551,2.639-2.892,4.644-3.482c-0.248,0.513-0.637,0.903-0.955,1.344c-1.757,2.438-3.731,4.757-5.19,7.364
	c-2.604,4.65-4.921,9.467-7.289,14.246c-0.402,0.812-0.789,1.854-0.625,2.677c0.53,2.669,1.31,5.288,2.024,7.918
	c0.099,0.357,0.381,0.663,0.702,1.196c0.278-0.565,0.424-0.852,0.561-1.142c1.054-2.229,1.962-4.541,3.199-6.665
	c1.389-2.393,2.912-4.744,4.668-6.873c2.239-2.716,4.731-5.229,7.21-7.737c0.532-0.537,1.467-0.675,2.215-0.997
	c0.072,0.143,0.142,0.286,0.213,0.428c-0.106,0.145-0.189,0.32-0.324,0.429c-5.974,4.778-9.954,11.123-13.745,17.597
	c-0.936,1.599-1.425,3.465-2.39,5.044c-0.787,1.292-0.916,2.511-0.602,3.895c0.223,0.979,0.304,1.998,0.614,2.943
	c0.624,1.906,1.359,3.775,2.049,5.658c0.166-0.001,0.331-0.001,0.497-0.001c3.59-8.901,8.448-16.933,15.824-23.316
	c0.077,0.557,0.147,1.18-0.122,1.56c-0.821,1.159-1.819,2.192-2.667,3.333c-2.329,3.129-4.811,6.166-6.858,9.471
	c-1.937,3.124-3.454,6.516-5.029,9.848c-0.404,0.854-0.691,2.053-0.417,2.891c1.242,3.787,2.706,7.502,4.058,11.156
	c0.86-1.918,1.578-3.96,2.639-5.804c2.768-4.812,5.598-9.595,8.606-14.257c0.775-1.202,2.301-1.918,3.482-2.856
	c0.143,0.122,0.286,0.244,0.431,0.367c-0.188,0.422-0.314,0.89-0.577,1.26c-1.398,1.972-2.999,3.82-4.219,5.895
	c-2.829,4.811-5.591,9.667-8.138,14.628c-0.862,1.68-1.705,3.655-0.428,5.695c0.495,0.792,0.678,1.777,1.04,2.66
	c0.782,1.91,1.59,3.811,2.52,6.034c1.408-3.325,2.606-6.228,3.861-9.105c0.908-2.088,1.65-4.303,2.89-6.183
	c2.095-3.182,4.503-6.158,6.837-9.176c0.328-0.427,0.971-0.611,1.47-0.907c-0.11,0.593-0.189,1.194-0.341,1.776
	c-0.055,0.211-0.276,0.383-0.429,0.568c-1.147,1.393-2.417,2.703-3.429,4.189c-4.147,6.094-6.641,12.974-9.154,19.826
	c-0.245,0.666-0.118,1.587,0.127,2.288c0.782,2.237,1.7,4.426,2.567,6.632C55.465,211.744,55.76,212.477,56.053,213.209z"/>
<path fill-rule="evenodd" clip-rule="evenodd" fill="#FFFFFF" stroke="#000000" stroke-width="3" stroke-linecap="round" stroke-linejoin="round" stroke-miterlimit="10" d="
	M56.053,213.209c-0.293-0.732-0.588-1.465-0.878-2.199c-0.867-2.206-1.785-4.395-2.567-6.632c-0.245-0.701-0.372-1.622-0.127-2.288
	c2.514-6.853,5.007-13.732,9.154-19.826c1.012-1.486,2.281-2.797,3.429-4.189c0.152-0.186,0.374-0.357,0.429-0.568
	c0.151-0.582,0.23-1.184,0.341-1.776c-0.499,0.296-1.142,0.48-1.47,0.907c-2.334,3.018-4.742,5.994-6.837,9.176
	c-1.239,1.88-1.981,4.095-2.89,6.183c-1.255,2.878-2.453,5.78-3.861,9.105c-0.93-2.224-1.737-4.124-2.52-6.034
	c-0.362-0.883-0.545-1.868-1.04-2.66c-1.277-2.04-0.435-4.016,0.428-5.695c2.547-4.961,5.309-9.817,8.138-14.628
	c1.22-2.074,2.82-3.923,4.219-5.895c0.263-0.37,0.389-0.838,0.577-1.26c-0.145-0.123-0.288-0.245-0.431-0.367
	c-1.182,0.938-2.707,1.654-3.482,2.856c-3.009,4.662-5.839,9.445-8.606,14.257c-1.061,1.844-1.778,3.886-2.639,5.804
	c-1.352-3.654-2.815-7.369-4.058-11.156c-0.274-0.838,0.013-2.037,0.417-2.891c1.575-3.332,3.093-6.724,5.029-9.848
	c2.048-3.305,4.529-6.342,6.858-9.471c0.848-1.141,1.846-2.174,2.667-3.333c0.27-0.38,0.199-1.003,0.122-1.56
	c-7.376,6.384-12.234,14.415-15.824,23.316c-0.166,0-0.331,0-0.497,0.001c-0.689-1.883-1.425-3.752-2.049-5.658
	c-0.311-0.945-0.392-1.965-0.614-2.943c-0.314-1.384-0.186-2.603,0.602-3.895c0.965-1.579,1.454-3.445,2.39-5.044
	c3.791-6.474,7.771-12.818,13.745-17.597c0.135-0.108,0.218-0.284,0.324-0.429c-0.071-0.142-0.141-0.285-0.213-0.428
	c-0.748,0.322-1.683,0.46-2.215,0.997c-2.479,2.508-4.971,5.021-7.21,7.737c-1.756,2.129-3.279,4.48-4.668,6.873
	c-1.237,2.124-2.146,4.437-3.199,6.665c-0.137,0.29-0.282,0.576-0.561,1.142c-0.321-0.533-0.604-0.839-0.702-1.196
	c-0.715-2.63-1.494-5.249-2.024-7.918c-0.164-0.823,0.223-1.865,0.625-2.677c2.368-4.779,4.685-9.596,7.289-14.246
	c1.459-2.607,3.434-4.926,5.19-7.364c0.318-0.44,0.707-0.831,0.955-1.344c-2.005,0.591-3.464,1.932-4.644,3.482
	c-1.093,1.438-1.927,3.081-2.793,4.679c-1.773,3.269-3.521,6.551-5.22,9.859c-0.794,1.549-1.447,3.172-2.27,4.992
	c-0.178-0.71-0.494-1.269-0.409-1.758c0.485-2.802-0.746-5.402-0.868-8.137c-0.156-3.505,0.625-6.692,2.568-9.594
	c2.156-3.219,4.271-6.469,6.545-9.604c1.086-1.499,2.497-2.762,3.764-4.129c0.272-0.295,0.559-0.58,0.744-0.976
	c-2.321,0.179-3.735,1.774-4.958,3.388c-2.513,3.318-4.884,6.746-7.193,10.207c-0.863,1.294-1.395,2.808-2.162,4.404
	c-0.245-0.597-0.614-1.119-0.653-1.666c-0.2-2.801-0.337-5.608-0.438-8.415c-0.018-0.495,0.118-1.066,0.374-1.485
	c1.34-2.2,2.788-4.335,4.098-6.552c0.513-0.866,0.664-1.943,1.157-2.823c0.351-0.631,1.032-1.066,1.509-1.637
	c1.748-2.087,3.437-4.223,5.219-6.279c0.581-0.669,1.379-1.148,2.035-1.68c-0.808-0.328-2.664,0.275-3.694,1.418
	c-2.394,2.649-4.864,5.241-6.296,8.612c-0.364,0.86-1.12,1.548-1.617,2.362c-1.136,1.858-2.223,3.746-3.446,5.822
	c-0.218-1.736-0.431-3.356-0.619-4.98c-0.249-2.134-0.605-4.266-0.645-6.404c-0.013-0.703,0.799-1.436,1.277-2.124
	c0.201-0.291,0.732-0.489,0.748-0.749c0.141-2.546,2.705-3.424,3.653-5.415c0.95-2.001,3.011-3.05,4.305-4.766
	c0.278-0.37,0.447-0.823,0.465-1.35c-4.639,3.087-7.767,7.402-10.391,12.206c-1.154-1.565,0.335-9.33,2.197-13.793
	c1.841-4.41,3.798-8.703,7.271-12.143c-3.407,2.082-4.664,3.027-6.703,8.051c-0.767,1.885-1.66,3.718-2.818,5.526
	c-0.137-5.36-0.271-10.719-0.408-16.079c-0.216-0.006-0.433-0.011-0.648-0.016c-0.785,2.3,0.185,4.809-0.679,7.487
	c-1.082-3.638-2.329-6.851-4.629-9.506c-0.147,0.068-0.296,0.137-0.444,0.205c0.586,1.198,1.123,2.425,1.768,3.591
	c2.624,4.76,3.815,9.824,3.508,15.268c-0.15,2.656-0.067,5.323-0.095,7.984c-0.002,0.279-0.032,0.557-0.073,1.234
	c-3.241-4.402-6.688-8.123-11.498-10.347c0.817,0.797,1.559,1.693,2.463,2.372c2.973,2.229,5.449,4.926,7.597,7.928
	c1.075,1.507,1.321,3.234,1.372,5.101c0.061,2.157,0.589,4.302,0.889,6.456c0.169,1.22,0.287,2.446,0.286,3.776
	c-4.574-4.596-9.38-8.749-15.579-10.821c-0.091,0.125-0.182,0.252-0.273,0.38c0.268,0.197,0.526,0.414,0.807,0.593
	c3.022,1.911,6.23,3.586,9.015,5.796c2.189,1.739,3.878,4.115,5.737,6.255c0.316,0.366,0.496,0.96,0.516,1.457
	c0.131,3.182,0.203,6.367,0.284,9.551c0.007,0.228-0.061,0.459-0.129,0.924c-1.988-1.465-3.84-2.832-5.694-4.196
	c-2.53-1.86-5.014-3.812-8.118-4.657c-0.934-0.256-1.905-0.375-2.859-0.557c-0.045,0.132-0.089,0.264-0.132,0.396
	c0.944,0.391,1.898,0.758,2.831,1.177c4.883,2.194,9.183,5.196,12.729,9.238c0.27,0.307,0.667,0.499,0.986,0.767
	c0.21,0.177,0.59,0.462,0.551,0.581c-0.464,1.35,0.92,2.262,0.758,3.594c-0.157,1.313,0.03,2.675,0.126,4.011
	c0.149,2.121,0.348,4.237,0.45,5.454c-0.87-0.705-2.378-2.199-4.135-3.297c-2.692-1.684-5.529-3.146-8.357-4.599
	c-1.294-0.663-2.69-0.903-3.849,0.753c1.896,0.35,3.878,0.366,5.538,1.104c2.181,0.969,4.112,2.501,6.143,3.802
	c0.879,0.563,1.86,1.032,2.578,1.759c1.19,1.203,2.402,2.468,3.231,3.92c0.636,1.115,0.713,2.556,1.005,3.859
	c0.436,1.938,0.84,3.883,1.328,6.156c-6.084-5.273-12.636-8.771-20.325-9.725c-0.06,0.14-0.121,0.281-0.181,0.42
	c2.333,0.762,4.753,1.328,6.978,2.327c4.272,1.917,8.441,3.987,12.16,6.995c1.706,1.384,2.097,2.939,2.507,4.7
	c0.666,2.856,1.224,5.739,1.823,8.599c-10.104-7.082-14.347-8.867-20.313-8.275c0.358,0.174,0.709,0.481,1.075,0.502
	c4.131,0.234,7.715,2.137,11.233,3.97c2.929,1.524,5.575,3.608,8.271,5.55c0.553,0.399,0.873,1.227,1.128,1.92
	c0.965,2.625,1.868,5.275,2.773,7.924c0.161,0.473,0.216,0.98,0.38,1.763c-0.662-0.272-1.064-0.379-1.407-0.586
	c-3.84-2.308-8.049-3.767-12.326-4.902c-2.204-0.586-4.621-0.491-6.938-0.475c-0.85,0.004-1.694,0.671-2.478,1.38
	c0.342,0.083,0.698,0.275,1.021,0.232c4.998-0.664,9.743,0.094,14.271,2.338c1.844,0.914,3.868,1.5,5.616,2.556
	c1.461,0.884,2.726,2.153,3.901,3.417c0.448,0.481,0.344,1.442,0.596,2.145c0.772,2.146,1.604,4.268,2.396,6.404
	c0.229,0.614,0.401,1.25,0.342,2.098c-0.818-0.603-1.572-1.324-2.461-1.786c-4.263-2.216-8.678-4.012-13.531-4.438
	c-2.634-0.231-5.256-0.272-7.715,0.917c-0.467,0.227-0.85,0.626-1.272,0.945c0.056,0.124,0.11,0.246,0.165,0.37
	c0.703-0.139,1.418-0.233,2.107-0.424c3.116-0.859,6.252-0.639,9.365-0.088c1.497,0.265,3,0.667,4.4,1.248
	c1.443,0.601,2.799,1.438,4.13,2.276c1.868,1.173,3.55,2.747,5.552,3.564c1.29,0.527,1.501,1.412,1.961,2.312
	c1.01,1.976,1.956,3.984,2.98,6.088c-3.229-0.095-6.316-0.132-9.041-2.072c-0.622-0.442-1.604-0.537-2.418-0.533
	c-3.288,0.023-6.571,0.239-9.707-1.175c-0.775-0.351-1.802-0.096-2.657-0.326c-3.265-0.885-6.65-1.586-9.282-3.891
	c-1.079-0.944-1.873-2.238-2.705-3.436c-0.676-0.977-1.206-2.053-1.814-3.075c-1.419-2.389-1.671-4.982-1.681-7.715
	c-0.01-2.55-0.29-5.062-1.764-7.407c-1.592-2.534-2.034-5.361-0.877-8.376c0.762-1.988,0.577-4.026,0.122-6.25
	c-0.407-1.987-1.384-3.443-2.192-5.105c-0.589-1.212-0.611-2.416-0.104-3.736c0.421-1.096,0.659-2.23,0.133-3.549
	c-0.298-0.74,0.453-1.901,1.063-2.842c-0.52-1.879-1.228-3.732-1.497-5.646c-0.194-1.37,0.385-2.837,0.289-4.238
	c-0.123-1.786-0.461-3.58-0.933-5.309c-0.314-1.151-0.688-2.213,0.174-3.214c0.914-1.063,0.266-2.301,0.467-3.445
	c0.322-1.838,0.54-3.729,0.481-5.588c-0.064-1.989-0.485-3.971-0.775-5.952c-0.39-2.661,0.102-5.191,1.563-7.395
	c1.92-2.895,2.003-6.077,2.053-9.349c0.054-3.486,0.259-6.99,1.651-10.251c0.574-1.345,1.588-2.494,2.233-3.813
	c1.079-2.2,2.067-4.559,1.596-7.015c-0.837-4.345,0.722-8.038,2.59-11.722c1.141-2.249,1.788-4.578,1.675-7.157
	c-0.106-2.379-0.007-4.778,0.199-7.152c0.091-1.052,0.7-2.054,1.004-3.099c0.451-1.552,0.828-3.126,1.26-4.686
	c0.119-0.43,0.321-0.836,0.577-1.484c1.804,2.108,2.555,4.35,2.954,6.771c0.109,0.662,0.32,1.455,0.773,1.886
	c1.512,1.439,3.301,2.608,4.685,4.148c0.746,0.83,1.236,2.213,1.212,3.334c-0.035,1.69,0.706,2.995,1.742,3.921
	c1.825,1.632,2.237,3.588,2.106,5.799c-0.057,0.994,0.278,1.683,0.94,2.413c0.781,0.862,1.517,1.854,1.952,2.92
	c0.948,2.315,1.603,4.75,2.558,7.062c0.458,1.11,1.277,2.088,2.021,3.057c0.96,1.249,2.045,2.399,3.009,3.645
	c1.632,2.109,1.349,4.543,1.12,6.976c-0.18,1.934-0.365,3.79,0.992,5.586c1.447,1.91,2.436,4.16,3.709,6.209
	c0.938,1.508,1.18,3.143,0.892,4.794c-0.589,3.383,0.646,6.128,2.557,8.776c1.886,2.614,2.908,5.568,2.622,8.84
	c-0.235,2.688,0.505,4.812,2.479,6.824c2.316,2.361,4.391,5.052,5.407,8.316c0.322,1.034,0.382,2.153,0.523,3.24
	c0.239,1.838,0.478,3.677,0.661,5.521c0.201,2.001,1.354,3.534,2.449,5.083c2.179,3.084,4.46,6.105,5.834,9.672
	c0.714,1.85,0.148,3.663-0.637,5.266c-0.982,1.998-2.334,3.814-3.539,5.701c-0.719,1.129-1.396,2.29-2.203,3.354
	c-2.074,2.738-4.078,5.549-6.351,8.118c-4.146,4.688-5.891,10.266-6.571,16.31c-0.026,0.229-0.077,0.457-0.118,0.686
	C56.305,213.138,56.179,213.173,56.053,213.209z"/>
</svg>
