<?xml version="1.0" encoding="utf-8"?>
<!-- Generator: Adobe Illustrator 16.0.0, SVG Export Plug-In . SVG Version: 6.00 Build 0)  -->
<!DOCTYPE svg PUBLIC "-//W3C//DTD SVG 1.1//EN" "http://www.w3.org/Graphics/SVG/1.1/DTD/svg11.dtd">
<svg version="1.1" id="Calque_1" xmlns="http://www.w3.org/2000/svg" xmlns:xlink="http://www.w3.org/1999/xlink" x="0px" y="0px"
	 width="170.086px" height="324.142px" viewBox="0 0 170.086 324.142" enable-background="new 0 0 170.086 324.142"
	 xml:space="preserve">
<g>
	<g>
		<path d="M79.59,115.327c4.106,0,7.2-2.941,7.2-6.842c0-1.44-1.169-2.608-2.608-2.608c-1.44,0-2.607,1.167-2.607,2.608
			c0,1.508-1.52,1.625-1.984,1.625c-0.577,0-1.135-0.173-1.488-0.463c-0.207-0.17-0.479-0.472-0.479-1.162
			c0-1.44-1.168-2.608-2.608-2.608c-1.439,0-2.608,1.167-2.608,2.608c0,2.086,0.846,3.929,2.381,5.191
			C76.081,114.74,77.789,115.327,79.59,115.327z"/>
		<path d="M100.899,115.327c4.106,0,7.2-2.941,7.2-6.842c0-1.44-1.168-2.608-2.608-2.608s-2.608,1.167-2.608,2.608
			c0,1.508-1.518,1.625-1.983,1.625c-0.577,0-1.134-0.173-1.488-0.463c-0.207-0.17-0.479-0.472-0.479-1.162
			c0-1.44-1.169-2.608-2.609-2.608c-1.439,0-2.607,1.167-2.607,2.608c0,2.086,0.846,3.929,2.381,5.191
			C97.39,114.74,99.1,115.327,100.899,115.327z"/>
		<path d="M85.818,132.367c0-1.44-1.167-2.608-2.608-2.608c-1.439,0-2.607,1.168-2.607,2.608c0,2.721,1.13,5.113,3.188,6.74
			c1.735,1.374,4.028,2.13,6.453,2.13c4.789,0,9.641-3.047,9.641-8.87c0-1.44-1.17-2.608-2.61-2.608
			c-1.439,0-2.608,1.168-2.608,2.608c0,3.55-3.967,3.653-4.422,3.653C89.793,136.02,85.818,135.917,85.818,132.367z"/>
		<path d="M69.281,124.371c0.69,0.565,1.396,1.134,2.028,1.824c0.598,0.675,0.554,1.543,0.299,3.509
			c-0.129,1.02-0.278,2.173-0.201,3.391c0.214,2.946,1.132,5.859,2.653,8.427c3.155,5.278,8.76,8.662,14.988,9.053
			c0.404,0.024,0.808,0.038,1.209,0.038c5.825,0,11.317-2.634,14.887-7.197c1.811-2.333,3.062-5.082,3.61-7.941
			c0.347-1.751,0.156-3.49-0.013-5.024c-0.15-1.334-0.289-2.595-0.038-3.474c0.21-0.736,1.308-1.581,2.368-2.4
			c0.537-0.415,1.085-0.836,1.604-1.299c0.521-0.463,1.011-0.966,1.436-1.543c2.068-2.801,3.21-6.267,3.21-9.76
			c0-6.975-4.093-12.835-10.682-15.293c-5.733-2.144-11.901-1.118-16.385,2.561c-4.174-3.439-9.803-4.585-15.249-3.003
			c-6.233,1.82-10.697,6.914-11.645,13.306c-0.488,3.411,0.099,6.963,1.658,10.017C66.215,121.854,67.846,123.19,69.281,124.371z
			 M68.523,110.296c0.653-4.406,3.625-7.789,7.945-9.05c1.127-0.329,2.262-0.489,3.376-0.489c3.229,0,6.284,1.343,8.44,3.824
			c0.495,0.569,1.216,0.897,1.97,0.897c0.758,0,1.475-0.328,1.971-0.899c3.065-3.54,8.009-4.726,12.591-3.012
			c3.525,1.314,7.287,4.739,7.287,10.406c0,2.385-0.777,4.75-2.193,6.664c-0.418,0.566-1.198,1.17-2.024,1.809
			c-1.565,1.207-3.513,2.708-4.198,5.096c-0.529,1.871-0.319,3.788-0.133,5.479c0.14,1.274,0.275,2.478,0.082,3.451
			c-0.4,2.068-1.305,4.055-2.609,5.736c-2.747,3.514-7.057,5.435-11.652,5.158c-4.582-0.288-8.531-2.665-10.832-6.515
			c-1.106-1.87-1.775-3.99-1.932-6.114c-0.044-0.694,0.062-1.506,0.173-2.367c0.278-2.162,0.66-5.123-1.6-7.666
			c-0.87-0.956-1.787-1.707-2.595-2.369c-1.253-1.029-2.242-1.841-2.935-3.167C68.589,115.083,68.188,112.637,68.523,110.296z"/>
		<path d="M13.75,23.168c0.821,0.369,1.597,0.714,2.262,1.058l13.301,6.853v41.443c0,2.807-0.055,5.658-0.109,8.534
			c-0.234,12.268-0.479,24.953,3.349,36.667c1.23,3.77,2.901,7.301,4.515,10.714c1.827,3.858,3.553,7.502,4.693,11.477
			c1.995,6.698,2.68,13.968,2.041,21.605c-0.139,1.623-0.258,3.259-0.38,4.898c-0.404,5.401-0.818,10.988-1.835,16.229
			c-2.23,11.631-8.045,22.028-17.29,30.907c-9.317,8.995-15.508,17.575-15.431,30.217c0.079,12.832,6.872,24.074,18.641,30.843
			c3.398,1.952,6.81,3.889,10.223,5.831l5.285,3.007c0.155,1.859,0.306,3.719,0.447,5.579c0.354,4.538,0.722,9.228,1.237,13.841
			c0.988,8.837,7.463,15.432,17.763,18.092c0.727,0.189,1.389,0.268,1.987,0.268c1.481,0,2.567-0.479,3.291-0.96
			c2.8-1.866,3.336-5.638,3.767-8.669l0.119-0.839c0.931-6.154-1.855-8.091-4.946-9.501l-2.118-0.31
			c-2.894-1.345-2.387-1.917-2.125-3.989c0.309-2.443-0.031-4.88,0.348-7.315l0.572-3.672c0.628-4.204,1.083-9.09-1.492-13.858
			c-1.405-2.612-3.437-4.711-5.402-6.742c-0.419-0.433-0.824-0.861-1.226-1.289c-0.372-1.513-1.286-3.074-2.135-4.489
			c-0.329-0.55-0.635-1.046-0.825-1.451c-0.315-0.654-0.67-1.334-1.032-2.034c-2.438-4.693-3.848-7.96-1.352-10.507
			c0.984-1.022,2.75-1.53,4.459-2.023c0.477-0.137,0.94-0.271,1.382-0.411c0.501-0.158,1.01-0.333,1.522-0.51
			c1.732-0.598,3.372-1.158,4.789-0.985c4.425,0.513,5.971,6.513,7.404,13.713c0.281,1.408,0.547,2.728,0.832,3.867l7.522,29.782
			c0.769,3.052,1.56,6.208,3.798,9.009c0.109,0.138,0.217,0.266,0.326,0.401c0.37,1.725,0.711,3.468,1.046,5.221
			c0.73,3.798,1.481,7.724,2.602,11.477c1.06,3.611,4.144,6.034,7.679,6.034c0.005,0,0.009,0,0.011,0
			c3.481-0.007,6.406-2.332,7.449-5.93c0.018-0.063,0.033-0.122,0.051-0.178l0.458,0.221c2.527,1.183,5.254,0.943,8.118-0.724
			c6.915-3.966,2.846-12.845,0.417-18.152c-0.173-0.376-0.33-0.723-0.484-1.066c2.21-2.688,4.563-6.591,4.522-12.029
			c-0.026-1.639-0.119-3.297-0.213-4.948l-0.181-3.495c-0.47-9.716-0.94-19.465-1.372-29.232c-0.062-1.242-0.153-2.5-0.244-3.765
			c-0.182-2.513-0.364-5.112-0.319-7.812c-0.031-0.737,0.003-1.475,0.07-2.22c0.456-6.013,2.28-12.011,4.212-18.361
			c1.556-5.11,3.162-10.393,4.021-15.961l0.938-6.298c1.399,1.973,2.819,4.147,4.212,6.284c1.556,2.39,3.054,4.686,4.43,6.55
			c4.153,5.61,5.694,10.835,7.481,16.884c1.057,3.583,2.15,7.289,3.893,11.405c0.146,0.334,0.292,0.811,0.459,1.332
			c0.356,1.113,0.759,2.296,1.284,3.277c-0.517,0.799-1.096,1.582-1.74,2.383c-1.786,2.221-3.81,4.74-4.099,8.559
			c-0.205,2.704,0.513,4.699,2.129,5.931c0.863,0.655,1.84,0.985,2.866,1.093c-1.32,2.782-1.966,6.075,0.433,9.412
			c1.986,2.763,4.35,3.507,5.983,3.645c0.225,0.019,0.449,0.027,0.67,0.027c3.736,0,7.152-2.578,9.411-4.814
			c6.813-6.747,6.694-15.042,6.574-23.065c-0.012-1.056-0.029-2.119-0.029-3.186c0-0.111-0.05-0.204-0.063-0.312
			c-0.01-0.084,0.021-0.166,0.002-0.248c-0.132-0.608-0.255-1.227-0.381-1.843l-0.358-1.775c-0.678-3.31-1.314-6.642-1.95-9.979
			c-1.44-7.521-2.925-15.301-4.871-22.834c-2.846-11.005-7.214-21.659-12.99-31.67c-0.558-0.958-1.107-1.936-1.665-2.919
			c-2.34-4.151-4.758-8.442-8.006-12.04c-3.597-3.943-8.039-7.039-12.849-8.951c-1.625-0.65-3.328-1.249-5.079-1.637
			c1.812-2.815,3.431-5.9,4.79-9.307c0.548-1.462,1.06-2.929,1.467-4.36c0.076-0.233,0.151-0.465,0.219-0.7
			c0.319-0.054,0.696-0.074,1.114-0.098c1.046-0.056,2.343-0.125,3.782-0.79c4.195-1.975,7.016-6.489,7.016-11.229
			c0-5.783-3.972-10.846-9.439-12.042c-0.472-0.105-0.959-0.102-1.719-0.078c-0.01-0.065-0.021-0.127-0.031-0.189
			c-0.089-0.544-0.176-1.011-0.254-1.283c-0.721-2.395-1.546-4.446-2.497-6.231c-3.987-7.815-11.238-13.743-19.899-16.259
			c-11.145-3.26-22.976-1.146-31.728,5.235c-0.066-0.247-0.122-0.509-0.189-0.746c-0.148-0.542-0.298-1.065-0.4-1.558
			c-1.314-6.141-2.626-12.283-3.901-18.487c-0.249-1.135-0.551-2.299-0.861-3.481c-0.439-1.696-0.835-3.413-1.102-5.09
			c0.341,0.027,0.706,0.086,1.025,0.086c3.592,0,5.888-1.644,7.324-3.472c2.613,1.354,5.229,2.705,7.847,4.053l4.711,2.427
			c0.581,0.3,1.202,0.653,1.854,1.022c2.456,1.392,5.931,3.362,9.374,3.362c2.146,0,4.284-0.767,6.152-2.919
			c2.285-2.632,2.601-6.699,2.832-9.67l0.04-0.552c0.373-4.563-1.528-8.005-5.495-9.955c-5.79-2.842-11.892-5.244-17.79-7.566
			c-2.453-0.967-4.891-1.945-7.317-2.939c-0.639-5.791-5.527-8.021-9.336-9.703c-1.142-0.51-2.282-1.049-3.424-1.589
			c-2.262-1.072-4.602-2.181-7.023-3.07c-3.903-1.427-7.144-0.604-9.234,2.182L18.49,5.199l-0.93-0.474
			c-0.828-0.432-1.77-0.92-2.789-1.26C11.885,2.506,8.733,3.048,6.353,4.93C3.979,6.804,2.77,9.652,3.037,12.739
			C3.541,18.576,9.443,21.23,13.75,23.168z M73.545,41.993c-0.021-0.635-0.042-1.253-0.042-1.843v-4.557
			c1.76,0.708,3.511,1.425,5.282,2.122c5.801,2.284,11.799,4.648,17.396,7.398c2.045,1.003,2.799,2.408,2.599,4.85l-0.045,0.569
			c-0.174,2.245-0.411,5.32-1.567,6.653c-1.768,2.038-4.213,1.158-9.016-1.56c-0.714-0.406-1.396-0.792-2.035-1.121l-4.709-2.428
			c-2.71-1.395-5.414-2.792-8.117-4.19C73.658,45.902,73.605,43.859,73.545,41.993z M53.686,270.056
			c0.003-0.007,0.01-0.018,0.013-0.025c1.386,1.457,2.713,2.961,3.573,4.56c1.645,3.046,1.583,6.198,0.922,10.614l-0.562,3.632
			c-0.391,2.488-0.056,4.978-0.373,7.473c-0.733,5.807,3.347,7.885,6.55,9.374l0.704,0.322c3.276,1.497,2.276,1.853,1.956,3.978
			l-0.128,0.885c-0.225,1.569-0.639,4.492-1.495,5.063c-0.251,0.168-0.839,0.046-1.08-0.017
			c-4.752-1.228-12.876-4.631-13.884-13.623c-0.508-4.524-0.867-9.17-1.216-13.664c-0.162-2.076-0.327-4.15-0.503-6.222
			C49.995,278.272,51.827,274.174,53.686,270.056z M106.741,310.047c-0.007,0.004-0.014,0.007-0.021,0.011
			c-1.718,1.003-2.625,0.824-3.265,0.521l-0.532-0.256c-1.509-0.734-2.932-1.428-4.534-0.713c-1.698,0.756-2.225,2.585-2.69,4.193
			c-0.397,1.372-1.287,2.16-2.441,2.161c-0.005,0-0.005,0-0.005,0c-0.967,0-2.176-0.601-2.675-2.3
			c-1.02-3.405-1.732-7.081-2.419-10.649c0.115,0.04,0.228,0.08,0.339,0.117c0.263,0.127,0.503,0.216,0.643,0.245
			c0.441,0.153,0.88,0.297,1.235,0.367c0.011,0.003,0.022,0.003,0.032,0.005c0.014,0.004,0.029,0.011,0.044,0.013
			c0.099,0.023,0.202,0.032,0.302,0.053c2.611,0.615,5.363,0.524,8.006-0.31c1.623-0.534,3.111-1.324,4.704-2.572
			c0.012-0.007,0.023-0.017,0.036-0.025c0.032-0.023,0.067-0.039,0.1-0.062c0.055-0.035,0.105-0.073,0.156-0.112
			c0.451-0.341,0.906-0.723,1.406-1.153c0.071-0.063,0.143-0.128,0.214-0.192C107.501,304.103,109.177,308.653,106.741,310.047z
			 M159.478,240.208c0.112,7.565,0.208,14.099-5.026,19.282c-2.211,2.188-4.47,3.449-5.974,3.295
			c-0.511-0.042-1.292-0.243-2.185-1.49c-1.345-1.867-0.418-3.709,1.857-7.187c0.303-0.459,0.595-0.907,0.866-1.346
			c0.587-0.944,0.513-2.154-0.187-3.017c-0.7-0.864-1.868-1.188-2.91-0.813c-1.947,0.701-3,0.83-3.523,0.83
			c-0.376-0.002-0.451-0.056-0.445-0.042c0-0.004-0.203-0.34-0.122-1.421c0.167-2.207,1.399-3.741,2.962-5.686
			c0.748-0.93,1.479-1.932,2.161-3.011c0.2-0.006,0.397-0.014,0.576-0.023l11.942-0.02
			C159.475,239.774,159.475,239.993,159.478,240.208z M68.017,93.488c0.099-0.098,0.227-0.148,0.31-0.265
			c0.074-0.103,0.112-0.191,0.171-0.282c7.528-8.028,19.672-11.081,31.047-7.761c7.286,2.118,13.376,7.082,16.73,13.662
			c0.813,1.522,1.509,3.263,2.105,5.243c0.034,0.153,0.075,0.413,0.123,0.708c0.306,1.846,0.506,3.063,1.518,3.887
			c0.958,0.766,2.083,0.73,3.628,0.674c0.285-0.008,0.551-0.023,0.761-0.017c2.982,0.717,5.213,3.667,5.213,6.917
			c0,2.762-1.616,5.377-3.996,6.501c-0.517,0.235-1.107,0.268-1.862,0.308c-0.604,0.033-1.273,0.068-1.996,0.218
			c-0.185-0.033-0.371-0.065-0.568-0.087c-1.301-0.149-2.561,0.724-2.846,2.035c-0.17,0.774-0.374,1.513-0.632,2.325
			c-0.397,1.375-0.863,2.712-1.341,3.994c-1.958,4.893-4.45,9.141-7.293,12.497c-0.197,0.202-0.387,0.413-0.447,0.513
			c-1.594,1.867-3.38,3.536-5.307,4.962c-1.02,0.752-2.156,1.476-3.365,2.14c-14.595,7.884-26.329-4.903-29.57-9.002
			c-2.371-3.028-4.426-6.569-5.943-10.239c-0.783-1.916-1.393-3.643-1.861-5.308l-0.2-0.708c-0.323-1.165-0.739-2.291-1.969-2.792
			c-0.02-0.007-0.036-0.017-0.056-0.025c-0.372-0.142-0.828-0.219-1.367-0.233c-0.053-0.001-0.08-0.022-0.134-0.022
			c-0.126,0-0.259,0.005-0.397,0.013c-0.207,0.012-0.477,0.029-0.818,0.029c-2.884,0-5.512-1.982-6.405-4.842
			c-0.785-2.448-0.242-5.232,1.378-7.08c0.979-1.099,2.211-1.841,3.617-2.157c0.133-0.022,0.283-0.021,0.436-0.025
			c0.499-0.021,1.117-0.046,1.749-0.25l0.598-0.171c1.667-0.45,2.408-1.255,2.724-2.97c0.051-0.269,0.119-0.654,0.266-1.206
			C63.16,100.365,65.192,96.624,68.017,93.488z M104.143,180.646l-1.285,7.472c-1.724,8.116-4.499,15.43-8.252,21.747
			c-4.643,7.89-9.762,12.647-15.223,14.141c-3.702,1.036-6.884,0.555-9.725-1.475c-6.766-4.842-10.451-17.961-11.015-28.096
			c-0.569-10.738,1.077-21.917,4.766-32.326c1.666-4.667,3.708-8.907,6.046-12.667c6.336,6.478,13.714,9.897,21.088,9.897
			c4.035-0.002,8.067-1.018,11.922-3.099c0.276-0.152,0.501-0.333,0.77-0.49c0.039,0.124,0.095,0.274,0.12,0.384
			c0.585,2.549,0.9,5.146,1.111,7.106C105.014,168.714,104.9,174.592,104.143,180.646z M45.937,38.087
			c0.068-0.743,0.173-1.505,0.273-2.255c0.001-0.004-0.001-0.009-0.001-0.013c0.005-0.031,0.007-0.059,0.011-0.089l0.265-2.329
			c0.064-0.757,0.105-1.639,0.153-2.591c0.137-2.856,0.306-6.414,1.216-8.737c0.707-1.809,1.468-2.516,3.946-1.613
			c2.195,0.805,4.327,1.817,6.586,2.887c1.18,0.557,2.354,1.114,3.695,1.71c4.314,1.905,6.205,3.059,6.205,6.105v0.507
			c-0.001,0.049-0.001,0.095,0,0.143v8.338c0,0.644,0.021,1.32,0.044,2.014c0.072,2.185,0.147,4.443-0.519,6.057
			c-0.011,0.029-0.024,0.057-0.034,0.086c-0.074,0.199-0.14,0.299-0.238,0.456c-0.965,1.591-2.414,2.878-6.46,1.709
			c-0.104-0.05-0.215-0.093-0.325-0.128c-2.327-0.725-4.817-2.031-7.015-3.184c-0.75-0.392-1.464-0.767-2.079-1.071l-1.297-0.632
			c-0.507-0.248-1.017-0.497-1.495-0.801c-0.031-0.019-0.059-0.032-0.089-0.052c-0.123-0.08-0.22-0.156-0.333-0.234
			c-0.364-0.228-0.676-0.465-0.929-0.718c-0.081-0.072-0.182-0.147-0.251-0.216c-0.01-0.012-0.021-0.024-0.032-0.037
			c-0.186-0.194-0.33-0.366-0.438-0.533c-0.058-0.086-0.173-0.198-0.236-0.28c-0.045-0.133-0.1-0.263-0.16-0.387
			c-0.027-0.055-0.055-0.108-0.083-0.163c-0.03-0.102-0.063-0.203-0.104-0.301c-0.194-0.454-0.299-0.921-0.327-1.496
			C45.84,39.569,45.869,38.844,45.937,38.087z M42.433,45.741c0.315,0.531,0.707,1.005,1.145,1.392
			c0.69,0.733,1.501,1.364,2.378,1.856c0.679,0.441,1.399,0.799,2.105,1.147l1.23,0.598c0.632,0.313,1.311,0.669,2.023,1.044
			c1.016,0.534,2.098,1.088,3.211,1.626c0.362,0.176,0.728,0.322,1.098,0.49c0.575,0.261,1.139,0.539,1.727,0.771
			c0.184,2.645,0.866,5.258,1.525,7.787c0.289,1.109,0.576,2.203,0.801,3.242c1.273,6.192,2.593,12.344,3.903,18.48
			c0.118,0.581,0.295,1.224,0.482,1.891c0.278,0.99,0.622,2.222,0.591,2.892c-0.006,0.105-0.071,0.377-0.272,0.734
			c-0.46,0.498-0.855,1.045-1.281,1.571c-0.366,0.451-0.762,0.878-1.101,1.348c-0.419,0.581-0.773,1.208-1.152,1.819
			c-0.308,0.497-0.648,0.97-0.931,1.486c-0.37,0.677-0.671,1.401-0.993,2.111c-0.225,0.492-0.483,0.96-0.685,1.468
			c-0.49,1.236-0.915,2.517-1.267,3.841c-0.068,0.26-0.123,0.491-0.175,0.707c-0.105,0.008-0.217,0.008-0.329,0.013
			c-0.418,0.017-0.939,0.038-1.409,0.16c-2.433,0.545-4.623,1.849-6.341,3.784c-2.816,3.21-3.77,7.97-2.443,12.106
			c1.55,4.976,6.199,8.456,11.316,8.485c0.514,1.822,1.184,3.724,2.043,5.819c0.415,1.004,0.869,1.999,1.353,2.979
			c0.13,0.265,0.278,0.519,0.414,0.781c0.367,0.71,0.734,1.418,1.133,2.108c0.187,0.323,0.389,0.63,0.582,0.948
			c0.37,0.609,0.739,1.217,1.131,1.806c0.237,0.355,0.489,0.692,0.733,1.039c0.299,0.42,0.585,0.854,0.893,1.261
			c0,0,0,0.001,0,0.003l-0.237,0.354c-2.799,4.312-5.2,9.247-7.139,14.673c-3.917,11.055-5.669,22.934-5.062,34.358
			c0.604,10.865,4.419,25.779,13.188,32.054c4.147,2.972,8.912,3.724,14.153,2.262c6.803-1.863,12.971-7.421,18.32-16.515
			c4.038-6.798,7.021-14.644,8.875-23.359l1.339-7.802c0.814-6.506,0.931-12.776,0.346-18.651c-0.228-2.123-0.569-4.921-1.199-7.647
			c-0.064-0.34-0.25-0.938-0.476-1.607c-0.067-0.2-0.156-0.472-0.244-0.745c0.447-0.363,0.862-0.769,1.294-1.155
			c0.295-0.264,0.597-0.516,0.885-0.79c0.938-0.894,1.845-1.826,2.691-2.819c0.048-0.056,0.259-0.289,0.304-0.348
			c0.021-0.027,0.043-0.05,0.068-0.076c0.124,0.003,0.281,0.01,0.484,0.015c1.847,0.063,4.038,0.846,6.138,1.685
			c4.082,1.624,7.859,4.259,10.92,7.612c2.846,3.157,5.12,7.193,7.321,11.096c0.567,1.003,1.131,2.001,1.695,2.972
			c5.537,9.595,9.728,19.81,12.451,30.359c1.906,7.374,3.377,15.068,4.8,22.51c0.643,3.357,1.28,6.711,1.967,10.074l0.101,0.494
			H148.1c-0.291,0-0.585,0.016-0.873,0.033c-0.084,0.005-0.167,0.012-0.234,0.022c-0.287-0.573-0.638-1.662-0.843-2.301
			c-0.229-0.719-0.446-1.374-0.637-1.804c-1.614-3.811-2.663-7.372-3.68-10.814c-1.844-6.254-3.59-12.163-8.29-18.509
			c-1.322-1.79-2.759-4-4.253-6.295c-2.745-4.21-5.58-8.564-8.398-11.566c-0.688-0.73-1.727-1.005-2.678-0.707
			c-0.954,0.297-1.653,1.112-1.804,2.101l-1.837,12.521c-0.761,4.917-2.313,10.018-3.814,14.953
			c-1.929,6.343-3.927,12.899-4.422,19.446c-0.085,0.933-0.126,1.908-0.085,2.794c-0.051,2.697,0.143,5.416,0.329,8.044
			c0.089,1.228,0.177,2.45,0.238,3.639c0.431,9.759,0.903,19.515,1.372,29.237l0.184,3.539c0.088,1.581,0.181,3.165,0.203,4.714
			c0.028,3.529-1.25,6.44-4.266,9.732c-0.55,0.569-1.131,1.172-1.841,1.828c-0.255,0.265-0.54,0.528-0.747,0.716
			c-0.359,0.308-0.721,0.614-1.08,0.887c-0.037,0.028-0.078,0.055-0.115,0.083c-2.711,1.987-5.954,2.736-8.957,2.038
			c-0.262-0.054-0.495-0.141-0.785-0.225c-0.014-0.007-0.026-0.013-0.037-0.021c-0.142-0.076-0.291-0.14-0.447-0.19
			c-0.322-0.103-0.866-0.278-1.261-0.548l-0.33-0.2c-0.227-0.14-0.465-0.28-0.899-0.579c-0.108-0.063-0.35-0.282-0.639-0.537
			c-0.203-0.159-0.41-0.343-0.699-0.638c-0.278-0.26-0.52-0.586-0.784-0.922c-1.546-1.934-2.141-4.299-2.826-7.04l-7.523-29.789
			c-0.271-1.063-0.513-2.293-0.774-3.608c-1.338-6.723-3.362-16.885-11.905-17.874c-2.601-0.328-4.998,0.504-7.108,1.233
			c-0.465,0.161-0.926,0.319-1.389,0.464c-0.407,0.13-0.828,0.25-1.257,0.374c-2.146,0.619-4.818,1.387-6.755,3.4
			c-5.316,5.42-1.842,12.117,0.462,16.548c0.338,0.652,0.669,1.287,0.95,1.871c0.235,0.5,0.626,1.165,1.063,1.894
			c0.489,0.817,1.508,2.516,1.586,2.976c-0.058,0.326-0.528,1.204-0.757,1.626c-0.2,0.373-0.383,0.713-0.52,1.011
			c-1.557,3.445-3.088,6.864-4.616,10.298l-4.015-2.284c-3.407-1.936-6.81-3.871-10.199-5.816
			c-10.119-5.82-15.96-15.425-16.024-26.352c-0.065-10.789,5.481-18.37,13.83-26.428c10.037-9.638,16.36-20.971,18.796-33.677
			c1.073-5.536,1.501-11.277,1.912-16.831c0.122-1.622,0.241-3.239,0.377-4.849c0.696-8.29-0.059-16.206-2.232-23.506
			c-1.253-4.357-3.147-8.367-4.982-12.244c-1.617-3.416-3.145-6.645-4.272-10.101c-3.552-10.876-3.317-23.114-3.093-34.949
			c0.058-2.909,0.11-5.795,0.11-8.634V33.754l1.717,0.878c0.428,0.228,1.15,0.522,1.982,0.853c0.683,0.27,1.905,0.752,2.626,1.075
			c-0.026,0.217-0.038,0.444-0.061,0.666c-0.027,0.258-0.049,0.501-0.069,0.762c-0.066,0.853-0.104,1.708-0.043,2.548
			c0.043,1.064,0.269,2.098,0.658,3.072c0.01,0.03,0.021,0.063,0.034,0.093l-0.01,0.004c0.051,0.154,0.143,0.442,0.332,0.768
			c0.002,0.004,0.004,0.006,0.007,0.01c0.242,0.609,0.549,1.029,0.681,1.173C42.401,45.679,42.416,45.719,42.433,45.741z
			 M9.586,9.023c0.991-0.785,2.31-1.014,3.542-0.606c0.692,0.229,1.362,0.59,2.025,0.937l27.139,13.183
			c-0.601,2.634-0.748,5.556-0.864,8.025c-0.011,0.205-0.021,0.39-0.03,0.587c-0.407-0.17-0.803-0.338-1.251-0.515
			c-0.604-0.24-1.138-0.44-1.494-0.629l-5.55-2.84c-0.002-0.001-0.005,0-0.007-0.001c-0.003-0.001-0.005-0.004-0.007-0.005
			l-14.686-7.569c-0.741-0.38-1.6-0.768-2.513-1.179c-3.307-1.486-7.416-3.335-7.657-6.121C8.078,10.5,9.015,9.473,9.586,9.023z"/>
	</g>
</g>
</svg>
