<?xml version="1.0" encoding="utf-8"?>
<!-- Generator: Adobe Illustrator 16.0.0, SVG Export Plug-In . SVG Version: 6.00 Build 0)  -->
<!DOCTYPE svg PUBLIC "-//W3C//DTD SVG 1.1//EN" "http://www.w3.org/Graphics/SVG/1.1/DTD/svg11.dtd">
<svg version="1.1" id="Calque_1" xmlns="http://www.w3.org/2000/svg" xmlns:xlink="http://www.w3.org/1999/xlink" x="0px" y="0px"
	 width="237.128px" height="263.08px" viewBox="0 0 237.128 263.08" enable-background="new 0 0 237.128 263.08"
	 xml:space="preserve">
<g>
	<path fill-rule="evenodd" clip-rule="evenodd" stroke="#F2F2F2" stroke-width="2" stroke-miterlimit="10" d="M96.472,13.118
		c7.215-2.313,14.168-4.689,21.22-6.727c2.542-0.733,5.333-0.973,7.988-0.871c5.337,0.204,10.653,1.012,15.99,1.183
		c9.698,0.311,15.607,7.307,22.256,12.698c2.657,2.155,0.268,6.07-3.726,6.799c-11.233,2.051-22.552,3.433-32.592,9.869
		c-12.46,7.987-21.611,18.399-26.085,32.554c-1.61,5.094,3.224,7.498,5.892,10.412c6.69,7.308,15.305,12.051,25.122,12.225
		c8.431,0.148,17.049-1.346,25.315-3.271c9.033-2.105,17.72-5.662,26.629-8.35c5.349-1.614,7.548-0.082,7.045,5.329
		c-0.317,3.418-1.82,6.824-3.283,10.01c-1.347,2.932-3.527,5.468-5.032,8.341c-4.5,8.594-10.983,15.056-20.072,18.546
		c-8.553,3.283-17.287,6.096-25.825,9.415c-1.227,0.477-2.65,2.697-2.545,3.994c0.774,9.554,1.768,19.098,3.102,28.588
		c0.19,1.357,2.525,3.369,3.958,3.447c16.603,0.919,31.677,7.333,44.97,16.056c10.782,7.075,18.607,18.503,28.506,27.126
		c8.603,7.492,12.843,16.941,15.772,27.395c1.398,4.987,2.814,9.982,3.867,15.049c0.851,4.094-1.858,7.02-6.118,7.012
		c-24.879-0.05-49.87,1.268-74.596-0.713c-15.486-1.239-30.826,0.404-46.229-0.922c-8.891-0.766-17.978,1.155-26.972,1.09
		c-14.307-0.105-28.61-1.207-42.915-1.212c-8.954-0.004-17.922,1.093-26.859,1.954c-6.414,0.617-8.337-0.867-6.932-7.117
		c0.974-4.334,2.782-8.571,4.799-12.557c2.478-4.893,5.405-9.581,8.432-14.164c2.488-3.768,5.1-7.543,8.195-10.804
		c8.004-8.437,17.207-15.895,24.259-25.032c8.655-11.215,21.793-14.488,32.981-21.034c5.254-3.074,12.571-2.939,19.021-3.57
		c8.759-0.856,9.542-1.432,9.782-10.242c0.181-6.676,0.738-13.345,0.785-20.02c0.024-3.533-2.029-5.115-5.61-6.657
		c-9.306-4.006-19.669-6.539-25.491-16.473c-2.429-4.146-8.029-6.732-9.638-10.991c-2.781-7.36-4.243-15.4-5.076-23.28
		c-2.619-24.752,7.611-44.059,26.282-59.616C94.892,17.047,95.746,14.319,96.472,13.118z M226.22,250.707
		c-0.844-16.379-9.821-27.204-19.015-37.657c-4.603-5.233-10.242-9.696-15.913-13.816c-8.562-6.221-16.889-13.586-26.535-17.302
		c-14.674-5.652-30.485-7.665-46.426-8.151c-14.574-0.445-28.423,2.128-41.595,7.971c-4.756,2.11-8.871,5.745-13.118,8.899
		c-3.63,2.697-7.385,5.371-10.46,8.642c-6.087,6.475-11.986,13.161-17.509,20.122c-5.688,7.17-11.094,14.601-16.112,22.252
		c-2.527,3.854,0.436,8.816,4.433,8.613c6.659-0.337,13.322-0.843,19.982-0.832c24.854,0.043,49.707,0.254,74.562,0.43
		c13.008,0.093,26.018,0.117,39.022,0.399c19.336,0.421,38.667,1.113,58.004,1.515C219.052,251.864,222.581,251.098,226.22,250.707z
		 M181.089,90.881c-1.992,0.975-3.888,2.346-5.994,2.858c-9.626,2.345-19.362,4.247-28.963,6.688
		c-14.18,3.604-27.157,2.149-39.063-7.141C94.861,83.76,89.745,71.186,96.045,57.567c3.558-7.69,8.818-14.646,13.783-21.597
		c1.417-1.982,4.43-2.892,6.803-4.114c8.522-4.39,17.083-8.703,25.63-13.045c-7.338-0.811-14.808-0.467-22.274-0.064
		c-18.182,0.981-28.813,13.084-37.793,26.73c-7.673,11.658-6.837,25.419-6.966,38.703c-0.062,6.333,1.229,12.23,7.782,15.466
		c1.042,0.514,1.58,2.066,2.328,3.154c7.571,11.02,18.147,16.344,31.405,16.84c3.766,0.141,7.502,0.942,11.265,1.308
		c3.895,0.378,8.21,1.794,11.626,0.639c7.727-2.614,14.867-6.915,22.515-9.821C172.137,107.971,175.664,98.678,181.089,90.881z
		 M123.34,132.09c-0.561,0.146-1.122,0.29-1.683,0.436c0,2.496-0.115,4.998,0.023,7.486c0.313,5.659,0.78,11.31,1.123,16.967
		c0.126,2.083-0.474,4.412,0.283,6.193c0.616,1.451,2.761,2.253,4.229,3.343c0.715-1.436,2.189-2.968,2.021-4.292
		c-1.095-8.625-2.479-17.216-3.944-25.788C125.132,134.914,124.045,133.535,123.34,132.09z"/>
	<path display="none" fill-rule="evenodd" clip-rule="evenodd" fill="#FFFFFF" d="M226.22,250.707
		c-3.639,0.391-7.167,1.157-10.679,1.084c-19.337-0.401-38.668-1.094-58.004-1.515c-13.005-0.282-26.015-0.307-39.022-0.399
		c-24.854-0.176-49.708-0.387-74.562-0.43c-6.661-0.011-13.324,0.495-19.982,0.832c-3.997,0.203-6.96-4.76-4.433-8.613
		c5.019-7.651,10.424-15.082,16.112-22.252c5.522-6.961,11.422-13.647,17.509-20.122c3.075-3.271,6.83-5.944,10.46-8.642
		c4.248-3.154,8.362-6.789,13.118-8.899c13.172-5.843,27.021-8.416,41.595-7.971c15.941,0.486,31.751,2.499,46.426,8.151
		c9.646,3.716,17.973,11.081,26.535,17.302c5.671,4.12,11.311,8.583,15.913,13.816C216.399,223.503,225.376,234.328,226.22,250.707z
		"/>
	<path display="none" fill-rule="evenodd" clip-rule="evenodd" fill="#FFFFFF" d="M181.089,90.881
		c-5.426,7.797-8.953,17.09-18.941,20.885c-7.648,2.906-14.789,7.207-22.515,9.821c-3.416,1.155-7.731-0.261-11.626-0.639
		c-3.763-0.365-7.499-1.167-11.265-1.308c-13.258-0.496-23.834-5.82-31.405-16.84c-0.748-1.088-1.286-2.641-2.328-3.154
		c-6.553-3.235-7.844-9.133-7.782-15.466c0.129-13.284-0.707-27.045,6.966-38.703c8.981-13.646,19.611-25.749,37.793-26.73
		c7.466-0.402,14.936-0.746,22.274,0.064c-8.547,4.342-17.108,8.655-25.63,13.045c-2.373,1.223-5.386,2.132-6.803,4.114
		c-4.964,6.95-10.225,13.906-13.783,21.597c-6.3,13.618-1.184,26.192,11.025,35.719c11.905,9.29,24.883,10.745,39.063,7.141
		c9.601-2.44,19.337-4.343,28.963-6.688C177.201,93.227,179.097,91.855,181.089,90.881z"/>
	<path display="none" fill-rule="evenodd" clip-rule="evenodd" fill="#FFFFFF" d="M123.34,132.09
		c0.705,1.445,1.792,2.824,2.052,4.345c1.466,8.572,2.85,17.163,3.944,25.788c0.167,1.324-1.307,2.856-2.021,4.292
		c-1.467-1.09-3.612-1.892-4.229-3.343c-0.757-1.781-0.157-4.11-0.283-6.193c-0.342-5.657-0.81-11.308-1.123-16.967
		c-0.138-2.488-0.023-4.99-0.023-7.486C122.218,132.38,122.779,132.235,123.34,132.09z"/>
</g>
</svg>
