<?xml version="1.0" encoding="utf-8"?>
<!-- Generator: Adobe Illustrator 16.0.0, SVG Export Plug-In . SVG Version: 6.00 Build 0)  -->
<!DOCTYPE svg PUBLIC "-//W3C//DTD SVG 1.1//EN" "http://www.w3.org/Graphics/SVG/1.1/DTD/svg11.dtd">
<svg version="1.1" id="Calque_1" xmlns="http://www.w3.org/2000/svg" xmlns:xlink="http://www.w3.org/1999/xlink" x="0px" y="0px"
	 width="255.805px" height="322px" viewBox="0 0 255.805 322" enable-background="new 0 0 255.805 322" xml:space="preserve">
<g>
	<path display="none" fill-rule="evenodd" clip-rule="evenodd" fill="#FFFFFF" d="M300.294,367.133c-126.493,0-252.987,0-379.48,0
		c0-136.157,0-272.313,0-408.47c126.493,0,252.987,0,379.48,0C300.294,94.819,300.294,230.976,300.294,367.133z M146.072,148.724
		l-0.03-0.06c-1.4,2.586-2.616,5.293-4.239,7.729c-3.428,5.146-7.086,10.142-10.59,15.24c-0.255,0.371-0.241,1.314,0.034,1.562
		c0.313,0.28,1.274,0.32,1.582,0.047c1.432-1.27,2.838-2.597,4.06-4.063c2.76-3.313,5.404-6.718,8.474-10.56
		c0.271,3.125-1.313,4.705-2.545,5.804c-0.192,1.559,0.023,2.851-0.515,3.604c-1.73,2.42-3.47,4.964-5.72,6.845
		c-1.999,1.671-2.602,3.467-2.707,6.338c1.122-0.771,1.927-1.215,2.601-1.807c2.101-1.845,3.855-4.433,6.284-5.482
		c4.972-2.146,5.816-6.471,7.016-10.779c0.882-3.174,1.958-6.32,2.492-9.554c0.72-4.354,1.938-8.927,1.269-13.14
		c-1.29-8.109-4.05-15.966-9.915-22.1c-1.906-1.995-4.693-3.148-7.016-4.646c-0.15,2.198-0.428,3.749-0.332,5.277
		c0.43,6.84-1.803,12.814-5.493,18.443c-1.301,1.981-2.707,4.195-1.473,7.136c3.422-2.775,5.554-5.978,7.016-9.705
		c0.416-1.062,0.221-2.858,2.328-2.58c0.173,0.022,0.706-1.178,0.691-1.8c-0.01-0.399-0.757-0.751-1.105-1.18
		c-0.34-0.421-0.592-0.911-1.146-1.787c4.475,1.387,2.796-2.537,3.987-3.541c3.359,2.16,2.369,4.526,0.755,7.325
		c-3.772,6.542-7.256,13.251-10.929,20.023c1.698,0.982,3.206,1.046,4.233-0.785c3.414-6.088,8.084-11.521,9.721-18.54
		c0.419,0.546,1.058,1.035,1.213,1.646c0.447,1.77,2.303,3.226,0.68,5.464c-3.955,5.454-7.721,11.047-11.465,16.647
		c-0.826,1.236-1.249,2.742-1.858,4.124c0.179,0.15,0.357,0.302,0.536,0.453c0.749-0.349,1.686-0.521,2.215-1.077
		c2.682-2.826,5.246-5.764,7.878-8.637C144.678,149.933,145.398,149.35,146.072,148.724z M180.208,42.809
		c-0.377,0.343-1.135,0.785-1.075,1.013c1.004,3.823,2.111,7.621,3.194,11.424c0.234-0.056,0.468-0.111,0.7-0.167
		c-0.944-4.096-1.888-8.19-2.832-12.285c1.632,5.433,3.263,10.866,5.096,16.969c0.599-1.229,1.112-1.775,1.061-2.262
		c-0.354-3.365-0.534-6.788-1.331-10.055c-0.992-4.064-2.392-8.046-3.864-11.97c-1.131-3.013,1.65-2.724,2.842-3.712
		c1.318-1.097,1.711,0.088,2.526,1.024c1.571,1.803,0.872,3.827,1.128,5.745c0.605,4.538,1.101,9.09,1.726,13.624
		c0.096,0.704,0.64,1.347,0.976,2.018c0.184-0.078,0.368-0.155,0.551-0.234c0.049-0.732,0.098-1.466,0.17-2.571
		c0.414,0.884,0.676,1.444,0.939,2.004c0.271-0.046,0.544-0.093,0.816-0.139c0.059-8.195,0.561-16.428-3.02-24.178
		c3.534-1.938,4.146-1.685,5.367,1.717c0.391,1.084,1.021,2.081,1.542,3.115c-1.915,5.601,0.099,11.802-0.761,18.009
		c1.296-0.781,2.69-1.644,3.189-2.871c0.607-1.494,0.521-3.291,0.629-4.964c0.253-3.952,0.584-7.908,0.586-11.863
		c0.002-1.61-1.027-3.215-1.064-4.835c-0.016-0.707,1.217-1.542,2.035-2.092c0.181-0.121,1.385,0.645,1.478,1.126
		c1.02,5.278,0.979,10.543-0.085,15.853c-0.418,2.093-0.068,4.342-0.068,6.521c0.252,0.074,0.502,0.15,0.753,0.226
		c0.587-0.784,1.701-1.591,1.669-2.35c-0.155-3.649,3.377-6.085,2.869-9.907c-0.479-3.596-0.315-7.276-0.422-10.919
		c-0.026-0.89-0.004-1.78-0.004-3.329c1.498,1.95,2.652,3.06,3.306,4.412c0.653,1.354,1.206,2.98,1.094,4.432
		c-0.21,2.716-0.932,5.391-1.56,8.709c2.654-1.718,4.355-3.082,3.49-5.907c0.292,0.55,0.584,1.101,0.802,1.511
		c0.864-0.926,1.638-1.754,2.71-2.904c-0.084-0.23-0.372-1.025-0.662-1.822c0.152-0.063,0.304-0.123,0.455-0.185
		c0.695,1.191,1.391,2.383,2.086,3.575c0.361-3.352,1.137-6.574-1.205-9.454c-1.223-1.501-2.042-3.345-2.951-5.082
		c-1.751-3.345-5.909-4.198-8.909-1.874c-0.382,0.295-1.451,0.267-1.795-0.052c-1.309-1.212-1.943-0.514-3.019,0.437
		c-1.333,1.177-3.075,1.89-4.545,2.747c-0.791-0.699-1.339-1.183-1.391-1.229c-2.707,1.382-5.019,2.562-7.039,3.593
		c-1.043-0.973-1.76-1.641-2.681-2.499c-1.031,4.544-4.468,6.796-8.929,6.798c-1.103,1.188-1.789,2.061-2.605,2.787
		c-4.098,3.648-9.449,5.712-12.838,10.318c-0.68,0.924-2.323,1.117-3.492,1.709c-0.787,0.397-1.52,0.905-2.275,1.363
		c0.173,0.234,0.348,0.47,0.521,0.705c0.43-0.219,0.86-0.438,1.891-0.963c-1.859,2.839-3.503,5.014-4.79,7.381
		c-3.064,5.636-6.035,11.326-8.867,17.082c-0.623,1.265-0.939,3-0.602,4.313c0.254,0.984,1.687,1.924,2.794,2.31
		c0.479,0.167,1.815-0.969,2.143-1.767c0.711-1.736,1.024-3.636,1.501-5.468c0.274,0.017,0.547,0.032,0.821,0.049
		c0.767,1.809,1.064,4.544,2.404,5.222c2.421,1.226,1.679,3.401,2.583,4.992c0.251,0.44,0.048,1.673-0.285,1.832
		c-3.304,1.573-2.905,4.594-3.309,8.202c2.35-0.731,4.27-1.331,6.61-2.06c0.712,3.434,1.376,6.642,2.041,9.849
		c0.171-0.029,0.341-0.059,0.512-0.088c0-0.763,0-1.526,0-2.289c0.102-0.01,0.204-0.021,0.305-0.029
		c0.267,0.757,0.533,1.513,0.8,2.27c0.331-0.055,0.661-0.107,0.992-0.162c-0.215-3.716-0.429-7.433-0.643-11.149
		c0.292-0.034,0.583-0.068,0.876-0.102c1.582,5.392,3.164,10.783,4.746,16.175c0.347,0.015,0.693,0.029,1.04,0.044
		c0.391-1.68,1.29-3.431,1.074-5.029c-0.61-4.51-1.734-8.948-2.507-13.44c-0.115-0.672,0.509-1.53,0.965-2.18
		c0.074-0.105,1.418,0.294,1.574,0.693c1.878,4.816,3.574,9.683,2.661,15.011c-0.457,2.67-0.881,5.349-1.206,8.037
		c-0.303,2.501-1.674,3.589-4.127,2.712c-2.871-1.028-5.688-2.254-8.427-3.603c-2.429-1.196-5.915-0.517-6.734,1.757
		c-1.099-1.381-2.131-2.68-3.163-3.978c-0.316,0.054-0.634,0.108-0.95,0.163c-0.079,1.352-0.409,2.746-0.187,4.046
		c0.513,2.992,1.275,5.942,1.973,8.9c1.316,5.599,2.597,11.204,4.037,16.77c0.271,1.042,1.218,1.91,1.853,2.858
		c0.241-0.104,0.481-0.205,0.723-0.309c1.046-9.111-1.826-17.727-3.488-25.904c0.864,0.385,2.173,0.841,3.341,1.534
		c0.701,0.417,1.641,1.166,1.693,1.826c0.393,4.94,0.418,9.914,0.936,14.837c0.205,1.948,1.309,3.821,2.126,5.676
		c0.532,1.211,1.27,2.334,1.945,3.479c0.275,0.468,0.632,0.888,0.951,1.33c0.398-0.39,1.131-0.771,1.139-1.168
		c0.039-2.056,0.382-4.289-0.28-6.139c-1.973-5.508-1.053-11.124-1.615-17.105c2.637,0.966,4.779,1.752,6.405,2.349
		c-0.163,3.555-0.319,6.489-0.428,9.425c-0.222,6.005-0.414,12.011-0.629,18.016c-0.028,0.775-0.117,1.547-0.179,2.321
		c0.795-0.426,1.661-0.763,2.359-1.312c0.424-0.333,0.769-0.974,0.837-1.517c0.687-5.354,1.366-10.713,1.925-16.082
		c0.297-2.847,0.352-5.719,0.52-8.68c3.086,0.472,5.649,1.706,6.404,4.555c0.52,1.958,0.233,4.324-0.319,6.335
		c-1.569,5.714-3.526,11.319-5.175,17.013c-0.354,1.221-0.053,2.633-0.053,3.956c0.316,0.058,0.634,0.116,0.95,0.173
		c1.096-2.034,2.294-4.021,3.264-6.112c1.216-2.626,2.346-5.301,3.323-8.023c0.799-2.229,1.303-4.563,1.973-6.839
		c0.184-0.626,0.491-1.216,0.743-1.822c0.663,0.282,1.411,0.448,1.976,0.863c2.813,2.069,1.879,5.216,1.18,7.49
		c-2.041,6.656-4.814,13.084-7.168,19.649c-0.635,1.77-0.795,3.709-1.172,5.57c0.293,0.085,0.587,0.17,0.881,0.256
		c0.475-0.686,1.055-1.321,1.408-2.065c2.514-5.291,4.948-10.62,7.487-15.899c0.593-1.234,1.487-2.324,2.243-3.48
		c0.357,0.113,0.716,0.228,1.073,0.342c-0.136,1.558,0.003,3.203-0.459,4.657c-1.154,3.645-2.356,7.308-3.972,10.762
		c-1.217,2.604-3.086,4.907-4.696,7.324c-1.31,1.968-3.998,3.191-3.389,6.649c4.561-0.938,6.67-4.464,8.788-7.704
		c2.161-3.308,3.836-6.934,5.828-10.612c0.286,2.579,0.588,5.305,0.804,7.252c-0.675,0.736-1.241,1.089-1.409,1.578
		c-1.899,5.5-3.765,11.013-5.572,16.543c-0.483,1.479-0.742,3.031-1.104,4.55c0.37,0.14,0.74,0.279,1.11,0.42
		c1.304-1.994,2.606-3.989,4.217-6.453c-0.104,1.575-0.17,2.558-0.234,3.539c0.247,0.046,0.495,0.094,0.743,0.142
		c2.08-3.876,3.771-7.858,4.555-12.306c0.365-2.076,1.73-3.979,2.667-5.949c0.474-1,1.354-1.945,1.435-2.964
		c0.226-2.878,0.322-5.791,0.131-8.669c-0.821-12.377-8.037-21.335-16.187-29.746c-1.427-1.472-3.024-2.779-4.148-3.803
		c0.924-1.934,1.877-3.305,2.255-4.819c2.403-9.628,2.311-19.457,2.105-29.282c-0.022-1.079-0.304-2.152-0.452-3.142
		c2.655-0.479,4.943-0.894,6.955-1.257c3.32,10.022,0.914,20.041,0.78,30.138c1.955-0.396,3.227-1.729,3.485-3.798
		c0.787-6.289,1.46-12.593,2.143-18.895c0.054-0.5-0.139-1.034-0.26-1.542c-0.538-2.231-1.093-4.459-1.667-6.793
		c2.063,0.144,3.979,0.229,5.884,0.423c1.63,0.166,2.563,1.033,2.417,2.8c-0.18,2.169-0.747,4.402-0.427,6.497
		c0.896,5.871-1.589,10.986-3.086,16.343c-0.277,0.995-0.252,2.074-0.407,3.481c3.214-0.874,4.197-3.233,5.018-5.285
		c2.907-7.271,3.746-14.927,3.404-23.592c1.761,1.131,3.915,1.726,4.292,2.895c1.32,4.094,0.527,8.275-0.877,12.285
		c-0.749,2.137-1.79,4.176-2.47,6.33c-0.216,0.68,0.313,1.595,0.503,2.401c0.637-0.321,1.486-0.484,1.869-0.995
		c0.984-1.322,2.03-2.701,2.575-4.229c1.624-4.547,3.019-9.175,4.552-13.922c0.275,0.291,1.147,0.791,1.333,1.477
		c0.766,2.842,1.915,5.764,1.796,8.609c-0.126,3.043-1.581,6.018-2.342,9.051c-0.496,1.98-0.787,4.014-1.172,6.021
		c0.314,0.057,0.628,0.112,0.941,0.167c4.897-6.467,8.947-13.171,5.863-22.215c1.718,0.71,4.055,1.759,3.982,2.606
		c-0.399,4.752-1.271,9.477-2.197,14.168c-0.652,3.302-1.665,6.531-2.447,9.81c-0.063,0.268,0.41,0.664,0.807,1.258
		c4.234-7.438,9.104-14.336,6.726-23.536c0.669,0.184,0.954,0.188,1.146,0.325c2.465,1.771,4.718,9.522,3.706,12.318
		c-1.247,3.443-2.424,6.914-3.51,10.411c-0.258,0.83-0.038,1.809-0.038,2.721c4.767-4.102,5.771-9.762,7.726-15.992
		c1.104,1.598,2.55,2.74,2.476,3.771c-0.188,2.56-1.122,5.056-1.646,7.601c-0.232,1.121-0.2,2.298-0.288,3.449
		c0.228,0.026,0.454,0.054,0.681,0.081c1.195-2.388,2.525-4.719,3.539-7.18c0.654-1.584,0.47-3.586,1.325-4.998
		c1.375-2.274,0.322-3.7-0.983-5.27c-2.771-3.329-5.807-6.479-8.223-10.048c-2.333-3.445-5.805-4.831-9.24-6.461
		c-3.301-1.567-6.689-2.966-9.915-4.673c-6.808-3.603-13.881-5.684-21.686-4.805c-2.034,0.229-4.145-0.269-6.191-0.094
		c-3.193,0.272-6.057,3.066-9.563,1.271c-0.127-0.064-0.485,0.485-0.788,0.579c-3.232,1.003-6.461,2.023-9.727,2.91
		c-0.744,0.201-1.808-0.432-2.409-0.104c-2.318,1.266-4.509,2.766-6.772,4.193c1.854-8.119-3.749-14.839-4.089-22.588
		c0.767,0.73,1.52,1.496,1.799,2.406c1.398,4.562,2.648,9.169,4.035,13.734c0.128,0.422,0.839,0.908,1.291,0.92
		c0.411,0.01,0.993-0.503,1.221-0.934c0.359-0.674,0.703-1.481,0.671-2.217c-0.23-5.357-1.874-10.327-4.151-15.152
		c-0.791-1.674-1.418-3.589-1.431-5.398c-0.007-0.924,1.434-1.954,2.393-2.722c0.255-0.204,1.504,0.229,1.679,0.636
		c0.666,1.543,1.153,3.178,1.571,4.813c0.92,3.599,1.731,7.226,2.648,10.825c0.22,0.862,0.676,1.664,1.022,2.494
		c0.294-0.09,0.587-0.179,0.879-0.269c-0.954-3.596-1.909-7.192-2.865-10.789c0.146-0.045,0.291-0.09,0.436-0.134
		c1.086,3.419,2.17,6.839,3.268,10.3c0.72-0.714,0.298-0.771,0.725-3.886c0.926-6.759-4.086-12.054-3.988-18.517
		c0.826-0.597,1.69-1.363,2.678-1.9c1.508-0.819,2.724-0.827,3.515,1.176C178.252,40.351,179.354,41.531,180.208,42.809z
		 M15.18,314.939c0.917,0.703,1.68,1.785,2.386,1.748c3.986-0.209,8.021-0.388,11.913-1.193c2.115-0.438,4.209-1.818,5.913-3.25
		c5.546-4.661,10.886-9.566,16.355-14.32c1.318-1.145,2.695-2.441,4.282-3.019c6.399-2.331,12.824-4.657,19.381-6.468
		c3.042-0.839,6.484-1.003,9.612-0.553c3.759,0.543,7.41,1.965,11.047,3.189c4.608,1.553,8.843,0.839,13.185-1.174
		c3.614-1.675,7.424-3.291,11.311-3.92c4.982-0.807,10.127-0.635,15.205-0.803c1.119-0.037,2.389-0.016,3.354,0.459
		c4.842,2.38,9.651,4.713,13.311,9.023c1.97,2.321,4.648,4.629,7.458,5.525c6.127,1.955,12.56,2.939,18.836,4.449
		c3.337,0.803,6.517,1.944,8.639,5.021c0.863,1.252,2.039,2.823,3.342,3.143c5.242,1.282,10.56,2.693,16,0.812
		c1.482-0.514,2.972-1.193,4.503-1.349c7.735-0.788,15.187-0.199,21.671,4.843c0.663,0.516,2.239,0.727,2.77,0.302
		c0.553-0.443,0.532-1.847,0.423-2.79c-0.069-0.604-0.675-1.221-1.175-1.688c-5.508-5.135-12.189-7.227-19.529-6.678
		c-4.162,0.311-8.231,1.713-12.379,2.411c-3.866,0.651-7.721,0.646-11.035-1.978c-3.196-2.529-5.996-5.524-10.25-6.568
		c-5.501-1.352-10.85-3.32-16.35-4.672c-3.172-0.78-6.358-1.277-8.843-3.611c-2.427-2.279-4.942-4.481-7.207-6.913
		c-2.381-2.557-5.261-4.259-8.595-4.677c-4.491-0.563-9.052-0.568-13.583-0.807c-1.491-0.079-3.412,0.561-3.712-1.768
		c-0.27-2.097-0.3-4.227-0.389-6.344c-0.283-6.729-0.467-13.465-0.838-20.189c-0.432-7.873-1.391-15.734-1.452-23.604
		c-0.091-11.438-1.423-22.844-0.019-34.344c0.828-6.794-0.314-13.804,0.056-20.684c0.531-9.869,1.622-19.71,2.516-29.559
		c0.06-0.662,0.401-1.327,0.722-1.934c0.586-1.105,1.411-2.105,1.857-3.258c2.491-6.427,4.877-12.896,7.351-19.33
		c0.563-1.465,1.437-2.814,1.969-4.29c1.239-3.424,2.371-6.888,3.519-10.345c0.627-1.887,1.788-2.597,3.809-2.196
		c2.371,0.47,4.273-0.421,5.669-2.441c2.408-3.486,1.571-6.908-0.033-10.393c-1.669-3.624-6.174-5.81-9.844-4.297
		c-1.423,0.586-3.108,1.926-3.527,3.278c-0.949,3.066-1.852,6.35,0.5,9.436c0.378,0.497,0.015,1.997-0.494,2.653
		c-1.821,2.349-3.821,4.563-5.825,6.762c-0.499,0.549-1.264,0.856-1.904,1.276c-0.395,0.259-0.785,0.521-1.178,0.782
		c0.326,0.35,0.674,0.682,0.968,1.059c0.079,0.101-0.007,0.33-0.021,0.616c-0.556,0.198-1.142,0.407-1.244,0.443
		c-0.202,1.366-0.224,2.324-0.503,3.201c-0.369,1.159-1.01,2.229-1.41,3.381c-1.099,3.164-2.065,3.675-5.648,2.706
		c0.22-0.56,0.338-1.166,0.66-1.631c1.932-2.786,3.892-5.554,5.882-8.298c0.955-1.315,1.419-2.628-0.399-3.445
		c-1.479-0.667-3.191-2.581-4.638,0.095c-1.698,3.141-2.845,6.742-5.123,9.37c-3.894,4.493-5.139,9.94-6.433,15.292
		c-1.634,6.76-2.376,13.731-3.66,20.582c-0.29,1.539-1.374,2.913-1.834,4.441c-0.338,1.123-0.409,2.387-0.31,3.563
		c0.097,1.134,0.894,2.26,0.817,3.35c-0.522,7.461-1.725,14.858-1.658,22.383c0.034,3.78-0.883,7.562-1.05,11.355
		c-0.101,2.287,0.468,4.597,0.636,6.904c0.174,2.412,0.229,4.834,0.335,7.252c-0.21,0.573,0.589,1.12,0.656,1.748
		c0.269,2.465,0.346,4.955,0.427,7.438c0.245,7.356-1.738,14.483-0.723,22.09c1.242,9.306,2.013,18.694,3.729,27.958
		c0.539,2.906,0.768,5.881,1.48,8.74c0.989,3.973-2.073,7.872-6.089,7.093c-3.86-0.75-7.747-1.676-11.404-3.086
		c-4.546-1.754-9.035-1.995-13.651-0.854c-3.918,0.97-7.816,2.036-11.673,3.222c-2.415,0.741-4.9,1.5-7.072,2.744
		c-6.995,4.004-13.644,8.551-19.334,14.314c-5.117,5.184-11.139,8.164-18.491,7.904c-2.655-0.094-5.711-0.059-7.08-3.014
		c-0.906-1.955-2.413-1.133-3.571-1.05c-0.561,0.039-1.367,1.438-1.472,2.292C6.497,312.751,11.273,316.061,15.18,314.939z
		 M101.492,21.456c-3.826,3.627-7.611,6.85-10.947,10.485c-3.313,3.609-7.175,6.844-8.896,11.752
		c-0.626,1.785-0.567,5.228,0.868,6.332c2.243,1.726,3.017-0.62,4.201-1.658c3.272-2.867,6.229-6.196,9.816-8.582
		c4.785-3.182,10.111-5.538,15.074-8.47c2.183-1.289,3.143-0.68,3.898,1.484c-0.361,0.313-0.65,0.657-1.016,0.863
		c-4.176,2.351-8.544,4.413-12.5,7.087c-4.387,2.965-8.449,6.448-10.808,11.41c-0.765,1.608,0.475,5.576,2.427,6.363
		c0.994,0.399,2.691-0.692,3.964-1.325c0.827-0.412,1.464-1.209,2.183-1.838c1.992-1.743,3.757-3.915,6.033-5.121
		c2.715-1.438,5.857-2.084,8.836-3.009c1.818-0.563,4.454-0.418,5.356-1.618c2.054-2.735,2.681-1.116,4.036,0.706
		c-2.028,0.304-3.883,0.215-5.416,0.873c-6.92,2.973-13.932,5.874-19.627,10.98c-1.268,1.135-1.965,3.006-2.629,4.656
		c-0.211,0.523,0.373,1.629,0.916,2.088c0.3,0.254,1.4-0.102,1.906-0.488c1.57-1.203,2.873-2.82,4.559-3.8
		c6.318-3.673,12.79-7.026,19.91-8.996c3.338-0.922,3.696-0.905,4.625,2.108c-5.67,2.098-11.358,4.066-16.935,6.314
		c-3.452,1.39-6.778,3.125-10.056,4.898c-0.596,0.322-1.167,1.847-0.894,2.34c0.407,0.73,1.56,1.372,2.433,1.426
		c0.832,0.051,1.702-0.731,2.578-1.092c1.664-0.683,3.345-1.325,5.62-2.222c-1.482,2.514-2.278,4.372-3.539,5.828
		c-0.884,1.02-1.504,3.063-3.677,2.147c-2.931-1.236-5.938-2.301-8.805-3.665c-6.334-3.017-13.25-4.076-19.985-5.114
		c-7.007-1.078-14.284-0.795-21.419-0.494c-5.119,0.215-10.305,1.023-15.261,2.328c-4.783,1.258-9.328,3.442-13.938,5.316
		c-2.558,1.039-5.125,2.113-7.52,3.47c-2.173,1.23-2.187,2.521-0.827,4.583c0.669,1.016,0.791,2.405,1.498,3.382
		c0.855,1.186-0.552,3.628,2.297,3.856c1.101-2.828,2.188-5.62,3.438-8.833c1.318,2.589,2.263,4.444,3.216,6.316
		c2.626-1.688,2.933-4.651,0.617-7.986c2.573-0.537,4.918-1.026,7.746-1.616c-1.07,4.888-3.06,9.163,0.298,13.113
		c1.586-4.328,2.885-8.636,3.911-13.008c0.708-3.018,4.788-4.766,7.491-2.988c-2.429,5.243-3.694,10.749-3.513,16.457
		c0.036,1.123,0.725,2.31,1.376,3.291c0.28,0.42,1.334,0.663,1.856,0.478c0.417-0.148,0.808-1.075,0.787-1.641
		c-0.222-6.054,1.254-11.73,3.675-17.208c1.289-2.922,6.244-4.299,8.843-2.684c-1.979,5.835-4.051,11.574-5.845,17.399
		c-0.784,2.545-1.447,5.322,0.573,7.729c0.422,0.503,1.153,0.746,1.743,1.109c0.261-0.571,0.662-1.121,0.754-1.718
		c0.184-1.206-0.023-2.506,0.321-3.649c1.539-5.101,3.074-10.213,4.909-15.211c0.843-2.296,1.555-5.255,4.402-5.798
		c2.553-0.488,5.271-0.104,8.574-0.104c-2.354,3.887-4.487,6.804-5.984,10.018c-2.536,5.447-4.77,11.045-6.93,16.656
		c-0.896,2.33-1.449,4.836-1.795,7.313c-0.109,0.791,0.952,1.746,1.479,2.626c0.639-0.655,1.488-1.207,1.868-1.988
		c0.606-1.245,0.799-2.686,1.349-3.966c1.813-4.223,3.767-8.385,5.536-12.626c0.595-1.426,0.609-3.099,1.229-4.509
		c0.831-1.89,1.876-3.713,3.042-5.42c1.428-2.09,2.795-5.328,4.69-5.736c2.986-0.643,6.394,0.662,9.622,1.143
		c-0.022,0.28-0.044,0.559-0.064,0.839c-6.516,3.218-10.623,8.694-13.93,14.855c-1.477,2.755-2.469,5.776-4.004,8.495
		c-1.43,2.535-1.689,6.362,0.1,8.634c0.405,0.513,1.494,0.671,2.253,0.635c0.319-0.016,0.972-1.115,0.829-1.451
		c-1.078-2.558-0.229-4.667,1.008-6.924c1.42-2.591,1.963-5.787,3.756-8.021c3.769-4.697,8.041-9.001,12.27-13.307
		c0.775-0.788,2.389-1.251,3.5-1.087c1.455,0.214,2.796,1.2,4.244,1.882c-2.445,2.288-4.685,4.606-7.154,6.644
		c-4.487,3.701-7.441,8.559-10.394,13.407c-0.634,1.043-0.848,2.531-0.741,3.771c0.073,0.841,1.043,1.604,1.611,2.402
		c0.645-0.584,1.418-1.076,1.911-1.769c2.747-3.856,5.205-7.942,8.197-11.593c2.351-2.866,5.332-5.217,8.035-7.795
		c3.29-3.137,4.112-3.224,8.332-0.77c-0.548,0.58-1.015,1.2-1.599,1.676c-3.514,2.856-7.207,5.512-10.534,8.567
		c-2.614,2.401-5.011,5.188-4.919,9.129c0.018,0.8,0.494,1.589,0.76,2.384c0.883-0.491,1.971-0.805,2.595-1.521
		c0.716-0.822,0.779-2.258,1.546-2.982c3.604-3.399,7.358-6.637,11.041-9.953c1.22-1.099,2.679-2.082,3.502-3.438
		c0.987-1.623,1.896-1.824,3.357-0.882c0.738,0.475,1.465,1.073,2.283,1.287c0.952,0.249,2.67,0.501,2.877,0.116
		c0.588-1.09,1.226-3.071,0.685-3.691c-2.299-2.637-4.6-5.447-8.383-6.221c-1.052-0.217-2.003-0.925-3-1.408
		c-0.011-0.294-0.022-0.589-0.033-0.884c4.003-1.646,6.805-4.899,10.469-7.154c2.879-1.771,5.71-1.771,8.577-2.521
		c1.113-0.291,2.212-0.641,3.457-1.004c0.109,0.557,0.329,1.398,0.43,2.253c0.443,3.798,0.066,4.076-3.719,4.898
		c-2.878,0.626-5.658,1.703-8.905,2.712c1.217,1.559,1.897,2.429,2.368,3.03c3.131-0.568,5.916-1.074,8.858-1.607
		c0.167-0.398,0.442-1.056,0.6-1.43c1.843,1.166,3.544,2.242,5.679,3.594c0.17-2.541,0.42-4.441,0.402-6.34
		c-0.067-7.06,0.265-14.201-3.183-20.737c-1.261-2.387-2.654-4.703-3.965-7.063c-1.946-3.503-3.647-7.166-5.866-10.484
		c-2.408-3.601-5.063-7.098-8.037-10.236c-2.44-2.577-4.704-5.653-8.506-6.522C98.932,14.408,91.855,8.1,82.607,6.955
		c-4.616-0.571-8.736,0.623-10.191,5.221c-0.156,0.496-0.068,1.069-0.094,1.606c0.528-0.12,1.072-0.194,1.582-0.368
		c1.628-0.559,3.244-1.154,4.864-1.735c-0.724,2.569-1.882,4.343-2.516,6.287c-0.343,1.056-0.231,3.005,0.444,3.501
		c1.707,1.253,1.649-1.053,2.392-1.771c0.552-0.533,0.881-1.287,1.361-1.901c2.735-3.493,3.632-3.697,7.844-2.31
		c1.785,0.589,1.735,1.294,0.688,2.614c-2.589,3.266-5.072,6.617-7.609,9.925c-1.699,2.218-2.111,4.692-1.391,8.254
		c1.598-1.896,2.857-3.329,4.049-4.817c2.677-3.343,5.182-6.839,8.051-10.006c1.043-1.151,2.957-2.192,4.412-2.116
		C98.265,19.433,99.969,20.76,101.492,21.456z M63.977,170.016c0.23-0.155,0.461-0.312,0.692-0.467
		c-0.37-5.196-0.651-10.401-1.136-15.586c-0.537-5.729,0.461-11.184,2.951-16.288c1.06-2.173,2.853-3.988,4.313-5.967
		c0.235,0.118,0.472,0.236,0.708,0.354c-0.119,1.88-0.297,3.759-0.346,5.642c-0.141,5.411-0.328,10.824-0.251,16.235
		c0.015,1.055,1.137,2.096,1.748,3.143c0.541-0.987,1.438-1.934,1.562-2.972c0.549-4.646,0.84-9.321,1.295-13.979
		c0.408-4.184,0.768-8.381,1.408-12.531c0.715-4.632,5.119-5.8,8.316-9.1c-1.559,7.724-3.092,14.524-4.248,21.388
		c-0.609,3.603-0.632,7.313-0.75,10.981c-0.023,0.705,0.736,1.435,1.135,2.153c0.484-0.604,1.254-1.146,1.405-1.824
		c0.721-3.239,1.148-6.546,1.911-9.775c1.891-8.003,3.903-15.978,5.875-23.962c0.768-3.106,2.949-4.892,5.703-5.102
		c-1.574,5.19-3.486,10.494-4.766,15.947c-1.912,8.165-1.469,13.729,0.854,16.587c0.492-4.129,0.493-8.209,1.538-12
		c1.868-6.773,3.358-13.783,8.071-19.437c0.971-1.166,2.177-2.756-1.147-3.795c1.995-0.617,3.253-1.007,5.062-1.565
		c-0.846,2.469-1.49,4.342-2.129,6.216c-2.943,8.629-5.623,17.322-6.26,26.493c-0.034,0.485,0.335,0.999,0.518,1.499
		c0.399-0.374,0.989-0.676,1.168-1.137c1.01-2.606,1.974-5.234,2.854-7.888c1.538-4.635,3.152-9.254,4.456-13.957
		c1.079-3.894,4.041-7.099,3.899-11.502c-0.025-0.832,2.087-1.945,3.388-2.554c1.777-0.83,4.51,0.56,5.256-2.661
		c1.01,0.549,1.731,1.049,2.528,1.356c4.846,1.876,11.088-0.054,11.142-6.407c0.034-3.993-1.344-7.24-4.99-9.459
		c-3.201-1.946-6.696-1.44-8.369,1.875c-0.827,1.638-1.244,3.54-1.545,5.371c-0.528,3.232-1.422,3.732-4.703,2.646
		c-0.965-0.32-2.301-0.334-3.191,0.09c-2.676,1.275-5.387,2.43-7.764,4.403c-2.015,1.671-4.795,2.384-7.109,3.735
		c-3.47,2.026-6.814,4.265-10.238,6.369c-2.777,1.708-5.729,3.167-8.35,5.086c-1.927,1.41-3.689,3.205-5.092,5.143
		c-3.548,4.898-8.384,8.646-11.046,14.439c-2.97,6.467-7.685,12.123-8.685,19.503c-0.136,1.002-0.968,1.897-1.173,2.903
		c-0.17,0.84-0.113,1.869,0.232,2.641c0.772,1.726,1.763,3.357,2.714,4.999c0.814,1.409,1.7,2.778,2.554,4.166
		c0.458-0.086,0.915-0.172,1.372-0.257c-1.809-6.966-2.35-13.792,1.602-20.779c0.208,1.383,0.312,2.2,0.455,3.01
		c0.791,4.467,1.484,8.955,2.462,13.38C62.094,167.987,63.24,168.956,63.977,170.016z M130.707,84.244
		c2.066-1.95,3.798-3.584,5.604-5.289c-0.898-0.786-1.365-1.323-1.943-1.675c-1.261-0.763-3.639,0.527-3.656,1.945
		C130.693,80.633,130.707,82.041,130.707,84.244z M211.113,100.003c0.594-0.185,1.181-0.368,1.767-0.551
		c-0.029-0.269-0.06-0.538-0.088-0.807c-0.854,0.044-1.708,0.089-2.562,0.134c0.083,0.962,0.166,1.926,0.249,2.889
		c0.317-0.055,0.634-0.11,0.951-0.166C211.324,101.003,211.219,100.504,211.113,100.003z"/>
	<path fill-rule="evenodd" clip-rule="evenodd" d="M180.208,42.809c-0.854-1.277-1.956-2.458-2.508-3.855
		c-0.791-2.003-2.007-1.995-3.515-1.176c-0.987,0.537-1.852,1.304-2.678,1.9c-0.098,6.463,4.914,11.758,3.988,18.517
		c-0.427,3.115-0.005,3.172-0.725,3.886c-1.098-3.461-2.182-6.881-3.268-10.3c-0.145,0.044-0.289,0.089-0.436,0.134
		c0.956,3.597,1.911,7.193,2.865,10.789c-0.292,0.09-0.585,0.179-0.879,0.269c-0.347-0.83-0.803-1.632-1.022-2.494
		c-0.917-3.6-1.729-7.227-2.648-10.825c-0.418-1.635-0.905-3.27-1.571-4.813c-0.175-0.407-1.424-0.84-1.679-0.636
		c-0.959,0.768-2.399,1.798-2.393,2.722c0.013,1.81,0.64,3.725,1.431,5.398c2.277,4.825,3.921,9.795,4.151,15.152
		c0.032,0.735-0.312,1.543-0.671,2.217c-0.228,0.431-0.81,0.943-1.221,0.934c-0.452-0.012-1.163-0.498-1.291-0.92
		c-1.387-4.565-2.637-9.173-4.035-13.734c-0.279-0.91-1.032-1.676-1.799-2.406c0.34,7.749,5.942,14.469,4.089,22.588
		c2.264-1.428,4.454-2.928,6.772-4.193c0.602-0.328,1.665,0.305,2.409,0.104c3.266-0.887,6.494-1.907,9.727-2.91
		c0.303-0.094,0.661-0.644,0.788-0.579c3.507,1.796,6.37-0.998,9.563-1.271c2.047-0.175,4.157,0.322,6.191,0.094
		c7.805-0.879,14.878,1.202,21.686,4.805c3.226,1.707,6.614,3.105,9.915,4.673c3.436,1.63,6.907,3.016,9.24,6.461
		c2.416,3.569,5.452,6.719,8.223,10.048c1.306,1.569,2.358,2.995,0.983,5.27c-0.855,1.412-0.671,3.414-1.325,4.998
		c-1.014,2.461-2.344,4.792-3.539,7.18c-0.227-0.027-0.453-0.055-0.681-0.081c0.088-1.151,0.056-2.328,0.288-3.449
		c0.524-2.545,1.459-5.041,1.646-7.601c0.074-1.031-1.372-2.174-2.476-3.771c-1.955,6.23-2.959,11.891-7.726,15.992
		c0-0.912-0.22-1.891,0.038-2.721c1.086-3.497,2.263-6.968,3.51-10.411c1.012-2.796-1.241-10.548-3.706-12.318
		c-0.191-0.138-0.477-0.142-1.146-0.325c2.379,9.2-2.491,16.099-6.726,23.536c-0.396-0.594-0.87-0.99-0.807-1.258
		c0.782-3.278,1.795-6.508,2.447-9.81c0.926-4.691,1.798-9.416,2.197-14.168c0.072-0.848-2.265-1.896-3.982-2.606
		c3.084,9.044-0.966,15.748-5.863,22.215c-0.313-0.055-0.627-0.11-0.941-0.167c0.385-2.008,0.676-4.041,1.172-6.021
		c0.761-3.033,2.216-6.008,2.342-9.051c0.119-2.846-1.03-5.768-1.796-8.609c-0.186-0.686-1.058-1.186-1.333-1.477
		c-1.533,4.747-2.928,9.375-4.552,13.922c-0.545,1.527-1.591,2.906-2.575,4.229c-0.383,0.511-1.232,0.674-1.869,0.995
		c-0.189-0.807-0.719-1.722-0.503-2.401c0.68-2.154,1.721-4.193,2.47-6.33c1.404-4.01,2.197-8.191,0.877-12.285
		c-0.377-1.169-2.531-1.764-4.292-2.895c0.342,8.665-0.497,16.32-3.404,23.592c-0.82,2.052-1.804,4.411-5.018,5.285
		c0.155-1.407,0.13-2.486,0.407-3.481c1.497-5.356,3.981-10.472,3.086-16.343c-0.32-2.095,0.247-4.328,0.427-6.497
		c0.146-1.767-0.787-2.634-2.417-2.8c-1.905-0.194-3.821-0.279-5.884-0.423c0.574,2.334,1.129,4.562,1.667,6.793
		c0.121,0.508,0.313,1.042,0.26,1.542c-0.683,6.302-1.355,12.605-2.143,18.895c-0.259,2.068-1.53,3.401-3.485,3.798
		c0.134-10.097,2.54-20.115-0.78-30.138c-2.012,0.363-4.3,0.777-6.955,1.257c0.148,0.989,0.43,2.063,0.452,3.142
		c0.205,9.825,0.298,19.654-2.105,29.282c-0.378,1.515-1.331,2.886-2.255,4.819c1.124,1.023,2.722,2.331,4.148,3.803
		c8.149,8.411,15.365,17.369,16.187,29.746c0.191,2.878,0.095,5.791-0.131,8.669c-0.08,1.019-0.961,1.964-1.435,2.964
		c-0.937,1.97-2.302,3.873-2.667,5.949c-0.783,4.447-2.475,8.43-4.555,12.306c-0.248-0.048-0.496-0.096-0.743-0.142
		c0.064-0.981,0.13-1.964,0.234-3.539c-1.61,2.464-2.913,4.459-4.217,6.453c-0.37-0.141-0.74-0.28-1.11-0.42
		c0.362-1.519,0.621-3.07,1.104-4.55c1.808-5.53,3.673-11.043,5.572-16.543c0.168-0.489,0.734-0.842,1.409-1.578
		c-0.216-1.947-0.518-4.673-0.804-7.252c-1.992,3.679-3.667,7.305-5.828,10.612c-2.118,3.24-4.228,6.766-8.788,7.704
		c-0.609-3.458,2.079-4.682,3.389-6.649c1.61-2.417,3.479-4.72,4.696-7.324c1.615-3.454,2.817-7.117,3.972-10.762
		c0.462-1.454,0.323-3.1,0.459-4.657c-0.357-0.114-0.716-0.229-1.073-0.342c-0.756,1.156-1.65,2.246-2.243,3.48
		c-2.539,5.279-4.974,10.608-7.487,15.899c-0.354,0.744-0.934,1.38-1.408,2.065c-0.294-0.086-0.588-0.171-0.881-0.256
		c0.377-1.861,0.537-3.801,1.172-5.57c2.354-6.565,5.127-12.993,7.168-19.649c0.699-2.274,1.634-5.421-1.18-7.49
		c-0.564-0.415-1.313-0.581-1.976-0.863c-0.252,0.606-0.56,1.196-0.743,1.822c-0.67,2.276-1.174,4.61-1.973,6.839
		c-0.978,2.723-2.107,5.397-3.323,8.023c-0.97,2.092-2.168,4.078-3.264,6.112c-0.316-0.057-0.634-0.115-0.95-0.173
		c0-1.323-0.301-2.735,0.053-3.956c1.648-5.693,3.605-11.299,5.175-17.013c0.553-2.011,0.839-4.377,0.319-6.335
		c-0.755-2.849-3.318-4.083-6.404-4.555c-0.168,2.961-0.223,5.833-0.52,8.68c-0.559,5.369-1.238,10.728-1.925,16.082
		c-0.068,0.543-0.413,1.184-0.837,1.517c-0.698,0.549-1.564,0.886-2.359,1.312c0.062-0.774,0.15-1.546,0.179-2.321
		c0.215-6.005,0.407-12.011,0.629-18.016c0.108-2.936,0.265-5.87,0.428-9.425c-1.626-0.597-3.769-1.383-6.405-2.349
		c0.563,5.981-0.357,11.598,1.615,17.105c0.662,1.85,0.319,4.083,0.28,6.139c-0.008,0.396-0.74,0.778-1.139,1.168
		c-0.319-0.442-0.676-0.862-0.951-1.33c-0.676-1.145-1.413-2.268-1.945-3.479c-0.817-1.854-1.921-3.728-2.126-5.676
		c-0.518-4.923-0.543-9.896-0.936-14.837c-0.053-0.66-0.992-1.409-1.693-1.826c-1.168-0.693-2.477-1.149-3.341-1.534
		c1.662,8.178,4.534,16.793,3.488,25.904c-0.241,0.104-0.481,0.205-0.723,0.309c-0.635-0.948-1.582-1.816-1.853-2.858
		c-1.44-5.565-2.721-11.171-4.037-16.77c-0.697-2.958-1.46-5.908-1.973-8.9c-0.223-1.3,0.107-2.694,0.187-4.046
		c0.316-0.055,0.634-0.109,0.95-0.163c1.032,1.298,2.064,2.597,3.163,3.978c0.819-2.273,4.306-2.953,6.734-1.757
		c2.738,1.349,5.556,2.574,8.427,3.603c2.453,0.877,3.824-0.211,4.127-2.712c0.325-2.688,0.749-5.367,1.206-8.037
		c0.913-5.328-0.783-10.194-2.661-15.011c-0.156-0.399-1.5-0.799-1.574-0.693c-0.456,0.649-1.08,1.508-0.965,2.18
		c0.772,4.492,1.896,8.931,2.507,13.44c0.216,1.599-0.684,3.35-1.074,5.029c-0.347-0.015-0.693-0.029-1.04-0.044
		c-1.582-5.392-3.164-10.783-4.746-16.175c-0.293,0.033-0.584,0.067-0.876,0.102c0.214,3.717,0.428,7.434,0.643,11.149
		c-0.331,0.055-0.661,0.107-0.992,0.162c-0.267-0.757-0.533-1.513-0.8-2.27c-0.101,0.009-0.203,0.02-0.305,0.029
		c0,0.763,0,1.526,0,2.289c-0.171,0.029-0.341,0.059-0.512,0.088c-0.665-3.207-1.329-6.415-2.041-9.849
		c-2.341,0.729-4.261,1.328-6.61,2.06c0.403-3.608,0.005-6.629,3.309-8.202c0.333-0.159,0.536-1.392,0.285-1.832
		c-0.904-1.591-0.162-3.767-2.583-4.992c-1.34-0.678-1.638-3.413-2.404-5.222c-0.274-0.017-0.547-0.032-0.821-0.049
		c-0.477,1.832-0.79,3.731-1.501,5.468c-0.327,0.798-1.664,1.934-2.143,1.767c-1.107-0.386-2.54-1.325-2.794-2.31
		c-0.338-1.313-0.021-3.048,0.602-4.313c2.832-5.756,5.803-11.446,8.867-17.082c1.287-2.367,2.931-4.542,4.79-7.381
		c-1.03,0.524-1.461,0.744-1.891,0.963c-0.174-0.235-0.349-0.471-0.521-0.705c0.756-0.458,1.488-0.966,2.275-1.363
		c1.169-0.592,2.813-0.785,3.492-1.709c3.389-4.606,8.74-6.67,12.838-10.318c0.816-0.727,1.503-1.599,2.605-2.787
		c4.461-0.002,7.897-2.254,8.929-6.798c0.921,0.858,1.638,1.526,2.681,2.499c2.021-1.031,4.332-2.211,7.039-3.593
		c0.052,0.046,0.6,0.529,1.391,1.229c1.47-0.857,3.212-1.57,4.545-2.747c1.075-0.95,1.71-1.648,3.019-0.437
		c0.344,0.318,1.413,0.347,1.795,0.052c3-2.324,7.158-1.471,8.909,1.874c0.909,1.737,1.729,3.581,2.951,5.082
		c2.342,2.88,1.566,6.103,1.205,9.454c-0.695-1.192-1.391-2.384-2.086-3.575c-0.151,0.062-0.303,0.122-0.455,0.185
		c0.29,0.797,0.578,1.592,0.662,1.822c-1.072,1.15-1.846,1.979-2.71,2.904c-0.218-0.41-0.51-0.961-0.802-1.511
		c0.865,2.825-0.836,4.189-3.49,5.907c0.628-3.318,1.35-5.993,1.56-8.709c0.112-1.451-0.44-3.078-1.094-4.432
		c-0.653-1.353-1.808-2.462-3.306-4.412c0,1.549-0.022,2.439,0.004,3.329c0.106,3.643-0.057,7.323,0.422,10.919
		c0.508,3.822-3.024,6.258-2.869,9.907c0.032,0.759-1.082,1.565-1.669,2.35c-0.251-0.075-0.501-0.151-0.753-0.226
		c0-2.179-0.35-4.428,0.068-6.521c1.063-5.31,1.104-10.574,0.085-15.853c-0.093-0.481-1.297-1.247-1.478-1.126
		c-0.818,0.55-2.051,1.385-2.035,2.092c0.037,1.62,1.066,3.225,1.064,4.835c-0.002,3.955-0.333,7.911-0.586,11.863
		c-0.107,1.673-0.021,3.47-0.629,4.964c-0.499,1.228-1.894,2.09-3.189,2.871c0.859-6.207-1.154-12.408,0.761-18.009
		c-0.521-1.034-1.151-2.031-1.542-3.115c-1.222-3.401-1.833-3.654-5.367-1.717c3.58,7.75,3.078,15.982,3.02,24.178
		c-0.272,0.046-0.545,0.093-0.816,0.139c-0.264-0.56-0.525-1.12-0.939-2.004c-0.072,1.105-0.121,1.839-0.17,2.571
		c-0.183,0.079-0.367,0.156-0.551,0.234c-0.336-0.671-0.88-1.313-0.976-2.018c-0.625-4.534-1.12-9.086-1.726-13.624
		c-0.256-1.918,0.443-3.942-1.128-5.745c-0.815-0.937-1.208-2.121-2.526-1.024c-1.191,0.988-3.973,0.699-2.842,3.712
		c1.473,3.924,2.872,7.905,3.864,11.97c0.797,3.267,0.978,6.689,1.331,10.055c0.052,0.486-0.462,1.033-1.061,2.262
		c-1.833-6.103-3.464-11.536-5.096-16.968C180.196,42.795,180.208,42.809,180.208,42.809z M183.075,83.656
		c-0.114-0.005-0.229-0.01-0.346-0.016c0.05-0.783,0.147-1.568,0.14-2.352c-0.054-4.777-0.875-5.34-5.422-4.041
		c-2.123,0.606-2.936,1.542-1.867,3.758c3.043,6.316,1.871,12.89,0.827,19.386c-0.185,1.141-1.525,2.055-2.128,3.181
		c-0.36,0.676-0.539,1.594-0.432,2.351c0.476,3.329,3.773,3.424,5.877,4.857c1.363,0.93,2.021,0.207,2.07-1.378
		c0.055-1.718,0.395-3.425,0.471-5.143C182.564,97.393,182.81,90.523,183.075,83.656z M154.737,64.364
		c1.214,4.203,2.368,7.888,3.312,11.626c0.364,1.444,0.907,2.115,2.305,1.418c0.869-0.432,2.301-1.181,2.267-1.709
		c-0.107-1.652-0.639-3.329-1.286-4.879c-1.001-2.399-3.198-4.737-3.111-7.034c0.095-2.54-1.639-3.3-2.237-5.045
		c-2.448,1.532-1.21,2.8,0.182,4.12C155.496,63.567,154.928,64.165,154.737,64.364z"/>
	<path fill-rule="evenodd" clip-rule="evenodd" d="M15.18,314.939c-3.906,1.121-8.683-2.188-8.2-6.131
		c0.104-0.854,0.911-2.253,1.472-2.292c1.158-0.083,2.665-0.905,3.571,1.05c1.369,2.955,4.425,2.92,7.08,3.014
		c7.353,0.26,13.374-2.721,18.491-7.904c5.69-5.764,12.339-10.311,19.334-14.314c2.172-1.244,4.657-2.003,7.072-2.744
		c3.856-1.186,7.755-2.252,11.673-3.222c4.616-1.142,9.105-0.9,13.651,0.854c3.657,1.41,7.544,2.336,11.404,3.086
		c4.016,0.779,7.078-3.12,6.089-7.093c-0.713-2.859-0.941-5.834-1.48-8.74c-1.717-9.264-2.487-18.652-3.729-27.958
		c-1.016-7.606,0.968-14.733,0.723-22.09c-0.081-2.483-0.158-4.974-0.427-7.438c-0.067-0.628-0.866-1.175-0.656-1.748
		c-0.106-2.418-0.161-4.84-0.335-7.252c-0.168-2.308-0.736-4.617-0.636-6.904c0.167-3.794,1.084-7.575,1.05-11.355
		c-0.066-7.524,1.136-14.922,1.658-22.383c0.076-1.09-0.721-2.216-0.817-3.35c-0.1-1.176-0.028-2.439,0.31-3.563
		c0.46-1.528,1.544-2.902,1.834-4.441c1.284-6.851,2.026-13.822,3.66-20.582c1.294-5.352,2.539-10.799,6.433-15.292
		c2.278-2.628,3.425-6.229,5.123-9.37c1.446-2.676,3.159-0.762,4.638-0.095c1.818,0.817,1.354,2.13,0.399,3.445
		c-1.99,2.744-3.95,5.512-5.882,8.298c-0.322,0.465-0.44,1.071-0.66,1.631c3.583,0.969,4.55,0.458,5.648-2.706
		c0.4-1.151,1.041-2.222,1.41-3.381c0.279-0.877,0.301-1.835,0.503-3.201c0.103-0.036,0.688-0.245,1.244-0.443
		c0.015-0.286,0.101-0.516,0.021-0.616c-0.294-0.377-0.642-0.709-0.968-1.059c0.393-0.261,0.783-0.523,1.178-0.782
		c0.641-0.42,1.405-0.728,1.904-1.276c2.004-2.199,4.004-4.413,5.825-6.762c0.509-0.656,0.872-2.156,0.494-2.653
		c-2.352-3.086-1.449-6.369-0.5-9.436c0.419-1.353,2.104-2.692,3.527-3.278c3.67-1.513,8.175,0.673,9.844,4.297
		c1.604,3.484,2.441,6.906,0.033,10.393c-1.396,2.021-3.298,2.911-5.669,2.441c-2.021-0.4-3.182,0.31-3.809,2.196
		c-1.147,3.457-2.279,6.921-3.519,10.345c-0.532,1.476-1.406,2.825-1.969,4.29c-2.474,6.435-4.859,12.903-7.351,19.33
		c-0.446,1.152-1.271,2.152-1.857,3.258c-0.32,0.606-0.662,1.271-0.722,1.934c-0.894,9.849-1.984,19.689-2.516,29.559
		c-0.37,6.88,0.772,13.89-0.056,20.684c-1.404,11.5-0.072,22.905,0.019,34.344c0.062,7.87,1.021,15.731,1.452,23.604
		c0.371,6.725,0.555,13.46,0.838,20.189c0.089,2.117,0.119,4.247,0.389,6.344c0.3,2.328,2.221,1.688,3.712,1.768
		c4.531,0.238,9.092,0.243,13.583,0.807c3.334,0.418,6.214,2.12,8.595,4.677c2.265,2.432,4.78,4.634,7.207,6.913
		c2.484,2.334,5.671,2.831,8.843,3.611c5.5,1.352,10.849,3.32,16.35,4.672c4.254,1.044,7.054,4.039,10.25,6.568
		c3.314,2.623,7.169,2.629,11.035,1.978c4.147-0.698,8.217-2.101,12.379-2.411c7.34-0.549,14.021,1.543,19.529,6.678
		c0.5,0.467,1.105,1.084,1.175,1.688c0.109,0.943,0.13,2.347-0.423,2.79c-0.53,0.425-2.106,0.214-2.77-0.302
		c-6.484-5.042-13.936-5.631-21.671-4.843c-1.531,0.155-3.021,0.835-4.503,1.349c-5.44,1.882-10.758,0.471-16-0.812
		c-1.303-0.319-2.479-1.891-3.342-3.143c-2.122-3.076-5.302-4.218-8.639-5.021c-6.276-1.51-12.709-2.494-18.836-4.449
		c-2.81-0.896-5.488-3.204-7.458-5.525c-3.659-4.311-8.469-6.644-13.311-9.023c-0.966-0.475-2.235-0.496-3.354-0.459
		c-5.078,0.168-10.223-0.004-15.205,0.803c-3.887,0.629-7.696,2.245-11.311,3.92c-4.342,2.013-8.576,2.727-13.185,1.174
		c-3.637-1.225-7.288-2.646-11.047-3.189c-3.128-0.45-6.57-0.286-9.612,0.553c-6.557,1.811-12.981,4.137-19.381,6.468
		c-1.587,0.577-2.964,1.874-4.282,3.019c-5.47,4.754-10.81,9.659-16.355,14.32c-1.704,1.432-3.798,2.813-5.913,3.25
		c-3.893,0.806-7.927,0.984-11.913,1.193C16.859,316.725,16.097,315.643,15.18,314.939z M107.441,197.544
		c5.914,0.036,7.246-0.911,7.137-5.044c-0.078-2.965-0.358-5.926-0.568-8.888c-0.109-1.553-0.238-3.116-2.504-2.685
		c-2.032,0.388-5.072-0.684-4.942,2.998C106.72,188.422,107.13,192.91,107.441,197.544z M116.503,254.098
		c-0.407-4.056-0.807-8.023-1.203-11.968c-1.305-0.112-2.165-0.254-3.024-0.247c-3.808,0.031-4.654,0.88-4.385,4.606
		c0.131,1.82,0.516,3.622,0.771,5.435c0.476,3.391,1.233,3.94,4.602,3.189C114.265,254.889,115.231,254.501,116.503,254.098z
		 M107.891,225.212c0.048,0,0.096,0,0.145,0.001c0,2.884,0.056,5.77-0.023,8.65c-0.043,1.557,0.736,2.005,2.083,1.977
		c0.964-0.021,1.997,0.174,2.867-0.119c0.707-0.238,1.78-1.121,1.728-1.613c-0.434-4.061-0.938-8.131-1.813-12.112
		c-0.178-0.81-2.002-1.694-3.076-1.705c-0.628-0.007-1.428,1.583-1.856,2.58C107.659,223.535,107.891,224.424,107.891,225.212z
		 M114.547,165.689c-0.054-0.004-0.108-0.007-0.162-0.011c0.024-0.437,0.013-0.881,0.082-1.312c0.243-1.539,0.108-3.212-1.805-2.975
		c-1.541,0.19-4.202-0.931-4.295,2.387c-0.086,3.054-0.538,6.097-0.643,9.15c-0.066,1.928,1.572,3.087,3.141,2.146
		c1.697-1.015,3.693-2.005,3.448-4.68C114.172,168.848,114.455,167.26,114.547,165.689z M107.349,209.211
		c0,1.303-0.136,2.285,0.026,3.215c0.48,2.752,2.915,1.96,4.596,2.242c1.756,0.296,1.789-1.205,1.794-2.475
		c0.007-1.643-0.097-3.293,0.042-4.922c0.357-4.188-0.847-5.259-4.721-3.682c-0.898,0.366-1.589,1.79-1.908,2.865
		C106.901,207.385,107.287,208.511,107.349,209.211z M120.986,127.069c-0.249-0.257-0.498-0.513-0.748-0.769
		c-1.807,0.715-4.422,0.932-5.236,2.257c-1.353,2.2-1.709,5.089-2.102,7.744c-0.085,0.566,1.371,1.732,2.29,1.976
		c1.024,0.272,3.114,0.064,3.244-0.376C119.484,134.35,120.182,130.693,120.986,127.069z M117.32,144.164
		c-2.43,0.146-5.681-0.206-5.899,0.451c-0.896,2.691-0.909,5.688-1.147,8.58c-0.053,0.645,0.3,1.322,0.629,2.639
		c1.201-0.478,3.65-0.705,4.091-1.767C116.17,151.229,116.486,148.035,117.32,144.164z M114.418,269.927
		c0.594-0.931,1.288-1.686,1.584-2.572c0.326-0.975,0.251-2.075,0.408-3.112c0.242-1.593,0.477-3.025-1.965-2.916
		c-3.501,0.156-4.499,0.744-4.207,3.178c0.215,1.801,0.351,3.902,1.363,5.221c0.72,0.936,2.846,0.787,4.344,1.122
		c0.047-0.219,0.095-0.437,0.143-0.655C115.621,270.117,115.154,270.043,114.418,269.927z M112.767,280.605
		c1.91-1.123,5.228,1.23,5.792-2.25c0.318-1.959-2.624-4.273-4.462-3.857C109.928,275.443,112.815,278.302,112.767,280.605z"/>
	<path fill-rule="evenodd" clip-rule="evenodd" d="M101.492,21.456c-1.523-0.696-3.228-2.023-4.998-2.117
		c-1.455-0.076-3.369,0.965-4.412,2.116c-2.869,3.167-5.374,6.663-8.051,10.006c-1.191,1.488-2.451,2.921-4.049,4.817
		c-0.721-3.562-0.309-6.036,1.391-8.254c2.537-3.308,5.021-6.659,7.609-9.925c1.047-1.32,1.097-2.025-0.688-2.614
		c-4.212-1.388-5.108-1.184-7.844,2.31c-0.48,0.614-0.81,1.368-1.361,1.901c-0.742,0.718-0.685,3.023-2.392,1.771
		c-0.676-0.496-0.787-2.445-0.444-3.501c0.634-1.944,1.792-3.718,2.516-6.287c-1.62,0.581-3.236,1.177-4.864,1.735
		c-0.51,0.174-1.054,0.248-1.582,0.368c0.025-0.537-0.063-1.11,0.094-1.606c1.455-4.598,5.575-5.792,10.191-5.221
		c9.248,1.145,16.324,7.453,25.104,9.461c3.802,0.869,6.065,3.945,8.506,6.522c2.974,3.139,5.629,6.636,8.037,10.236
		c2.219,3.318,3.92,6.981,5.866,10.484c1.311,2.36,2.704,4.677,3.965,7.063c3.447,6.536,3.115,13.678,3.183,20.737
		c0.018,1.898-0.232,3.799-0.402,6.34c-2.135-1.352-3.836-2.428-5.679-3.594c-0.157,0.374-0.433,1.031-0.6,1.43
		c-2.942,0.533-5.728,1.039-8.858,1.607c-0.471-0.602-1.151-1.472-2.368-3.03c3.247-1.009,6.027-2.086,8.905-2.712
		c3.785-0.822,4.162-1.101,3.719-4.898c-0.101-0.854-0.32-1.696-0.43-2.253c-1.245,0.363-2.344,0.713-3.457,1.004
		c-2.867,0.749-5.698,0.749-8.577,2.521c-3.664,2.255-6.466,5.508-10.469,7.154c0.011,0.295,0.022,0.59,0.033,0.884
		c0.997,0.483,1.948,1.191,3,1.408c3.783,0.773,6.084,3.584,8.383,6.221c0.541,0.62-0.097,2.602-0.685,3.691
		c-0.207,0.385-1.925,0.133-2.877-0.116c-0.818-0.214-1.545-0.813-2.283-1.287c-1.461-0.942-2.37-0.741-3.357,0.882
		c-0.823,1.355-2.282,2.339-3.502,3.438c-3.683,3.316-7.438,6.554-11.041,9.953c-0.767,0.725-0.83,2.16-1.546,2.982
		c-0.624,0.717-1.712,1.03-2.595,1.521c-0.266-0.795-0.742-1.584-0.76-2.384c-0.092-3.94,2.305-6.728,4.919-9.129
		c3.327-3.056,7.021-5.711,10.534-8.567c0.584-0.476,1.051-1.096,1.599-1.676c-4.22-2.454-5.042-2.367-8.332,0.77
		c-2.703,2.578-5.685,4.929-8.035,7.795c-2.992,3.65-5.45,7.736-8.197,11.593c-0.493,0.692-1.267,1.185-1.911,1.769
		c-0.568-0.798-1.538-1.562-1.611-2.402c-0.106-1.239,0.107-2.728,0.741-3.771c2.952-4.849,5.906-9.706,10.394-13.407
		c2.47-2.037,4.709-4.355,7.154-6.644c-1.448-0.682-2.789-1.668-4.244-1.882c-1.111-0.164-2.725,0.299-3.5,1.087
		c-4.229,4.306-8.501,8.609-12.27,13.307c-1.793,2.234-2.336,5.431-3.756,8.021c-1.237,2.257-2.086,4.366-1.008,6.924
		c0.143,0.336-0.51,1.436-0.829,1.451c-0.759,0.036-1.848-0.122-2.253-0.635c-1.789-2.271-1.529-6.099-0.1-8.634
		c1.535-2.719,2.527-5.74,4.004-8.495c3.307-6.161,7.414-11.638,13.93-14.855c0.021-0.28,0.042-0.559,0.064-0.839
		c-3.229-0.48-6.636-1.785-9.622-1.143c-1.896,0.408-3.263,3.646-4.69,5.736c-1.166,1.707-2.211,3.53-3.042,5.42
		c-0.619,1.41-0.634,3.083-1.229,4.509c-1.77,4.241-3.724,8.403-5.536,12.626c-0.55,1.28-0.742,2.721-1.349,3.966
		c-0.38,0.781-1.229,1.333-1.868,1.988c-0.526-0.88-1.588-1.835-1.479-2.626c0.346-2.477,0.898-4.982,1.795-7.313
		c2.16-5.611,4.394-11.209,6.93-16.656c1.497-3.214,3.631-6.131,5.984-10.018c-3.303,0-6.021-0.385-8.574,0.104
		c-2.848,0.543-3.56,3.502-4.402,5.798c-1.835,4.998-3.37,10.11-4.909,15.211c-0.345,1.144-0.138,2.443-0.321,3.649
		c-0.092,0.597-0.493,1.146-0.754,1.718c-0.59-0.363-1.321-0.606-1.743-1.109c-2.021-2.406-1.357-5.184-0.573-7.729
		c1.794-5.825,3.865-11.564,5.845-17.399c-2.599-1.615-7.554-0.238-8.843,2.684c-2.421,5.478-3.896,11.154-3.675,17.208
		c0.021,0.565-0.37,1.492-0.787,1.641c-0.522,0.186-1.576-0.058-1.856-0.478c-0.651-0.981-1.34-2.168-1.376-3.291
		c-0.182-5.708,1.084-11.214,3.513-16.457c-2.703-1.777-6.783-0.029-7.491,2.988c-1.026,4.372-2.325,8.68-3.911,13.008
		c-3.357-3.95-1.368-8.226-0.298-13.113c-2.828,0.59-5.173,1.079-7.746,1.616c2.315,3.335,2.009,6.298-0.617,7.986
		c-0.953-1.872-1.897-3.728-3.216-6.316c-1.25,3.213-2.337,6.005-3.438,8.833c-2.849-0.229-1.441-2.671-2.297-3.856
		c-0.707-0.977-0.829-2.366-1.498-3.382c-1.359-2.062-1.346-3.353,0.827-4.583c2.395-1.356,4.962-2.431,7.52-3.47
		c4.609-1.874,9.154-4.059,13.938-5.316c4.956-1.305,10.142-2.113,15.261-2.328c7.135-0.301,14.412-0.584,21.419,0.494
		c6.735,1.038,13.651,2.098,19.985,5.114c2.866,1.364,5.874,2.429,8.805,3.665c2.173,0.916,2.793-1.128,3.677-2.147
		c1.261-1.456,2.057-3.314,3.539-5.828c-2.275,0.896-3.956,1.539-5.62,2.222c-0.876,0.36-1.746,1.143-2.578,1.092
		c-0.873-0.054-2.025-0.695-2.433-1.426c-0.273-0.493,0.298-2.018,0.894-2.34c3.277-1.773,6.604-3.509,10.056-4.898
		c5.576-2.248,11.265-4.217,16.935-6.314c-0.929-3.014-1.287-3.03-4.625-2.108c-7.12,1.97-13.592,5.323-19.91,8.996
		c-1.686,0.979-2.988,2.597-4.559,3.8c-0.506,0.387-1.606,0.742-1.906,0.488c-0.543-0.459-1.127-1.564-0.916-2.088
		c0.664-1.65,1.361-3.521,2.629-4.656c5.695-5.106,12.707-8.008,19.627-10.98c1.533-0.658,3.388-0.569,5.416-0.873
		c-1.355-1.822-1.982-3.441-4.036-0.706c-0.902,1.2-3.538,1.055-5.356,1.618c-2.979,0.925-6.121,1.57-8.836,3.009
		c-2.276,1.206-4.041,3.378-6.033,5.121c-0.719,0.629-1.355,1.426-2.183,1.838c-1.272,0.633-2.97,1.725-3.964,1.325
		c-1.952-0.787-3.191-4.755-2.427-6.363c2.358-4.962,6.421-8.445,10.808-11.41c3.956-2.674,8.324-4.736,12.5-7.087
		c0.365-0.206,0.654-0.551,1.016-0.863c-0.756-2.164-1.716-2.773-3.898-1.484c-4.963,2.932-10.289,5.288-15.074,8.47
		c-3.588,2.386-6.544,5.715-9.816,8.582c-1.185,1.038-1.958,3.384-4.201,1.658c-1.436-1.104-1.494-4.547-0.868-6.332
		c1.721-4.908,5.582-8.143,8.896-11.752C93.881,28.306,97.666,25.083,101.492,21.456z M121.514,41.473
		c-0.721-3.027-1.182-3.488-3.678-3.563c-3.838-0.114-5.867,3.16-8.905,4.605c2.876-0.191,5.727-0.382,8.255-1.385
		C118.86,40.467,120.056,39.665,121.514,41.473z M109.64,26.632c-1.747-1.416-3.101-1.718-4.785-0.288
		c-1.982,1.682-4.255,3.02-6.307,4.627c-1.378,1.078-2.591,2.365-3.878,3.559c0.088,0.112,0.176,0.225,0.264,0.337
		C99.741,32.174,104.549,29.481,109.64,26.632z M121.777,60.761c0.102,0.193,0.203,0.386,0.306,0.577
		c2.897-0.765,5.796-1.529,8.694-2.295c-0.094-0.285-0.187-0.569-0.279-0.854C127.592,59.046,124.685,59.903,121.777,60.761z"/>
	<path fill-rule="evenodd" clip-rule="evenodd" d="M63.977,170.016c-0.736-1.06-1.883-2.028-2.14-3.194
		c-0.978-4.425-1.671-8.913-2.462-13.38c-0.144-0.81-0.247-1.627-0.455-3.01c-3.951,6.987-3.41,13.813-1.602,20.779
		c-0.457,0.085-0.914,0.171-1.372,0.257c-0.854-1.388-1.739-2.757-2.554-4.166c-0.951-1.642-1.941-3.273-2.714-4.999
		c-0.346-0.771-0.402-1.801-0.232-2.641c0.205-1.006,1.037-1.901,1.173-2.903c1-7.38,5.715-13.036,8.685-19.503
		c2.662-5.794,7.498-9.541,11.046-14.439c1.402-1.938,3.165-3.732,5.092-5.143c2.62-1.919,5.572-3.378,8.35-5.086
		c3.424-2.104,6.769-4.343,10.238-6.369c2.314-1.352,5.095-2.064,7.109-3.735c2.377-1.974,5.088-3.128,7.764-4.403
		c0.891-0.424,2.227-0.41,3.191-0.09c3.281,1.086,4.175,0.586,4.703-2.646c0.301-1.831,0.718-3.733,1.545-5.371
		c1.673-3.315,5.168-3.821,8.369-1.875c3.646,2.219,5.024,5.466,4.99,9.459c-0.054,6.354-6.296,8.283-11.142,6.407
		c-0.797-0.308-1.519-0.808-2.528-1.356c-0.746,3.221-3.479,1.831-5.256,2.661c-1.301,0.608-3.413,1.722-3.388,2.554
		c0.142,4.403-2.82,7.608-3.899,11.502c-1.304,4.703-2.918,9.322-4.456,13.957c-0.881,2.653-1.845,5.281-2.854,7.888
		c-0.179,0.461-0.769,0.763-1.168,1.137c-0.183-0.5-0.552-1.014-0.518-1.499c0.637-9.171,3.316-17.864,6.26-26.493
		c0.639-1.874,1.283-3.747,2.129-6.216c-1.809,0.559-3.066,0.948-5.062,1.565c3.324,1.039,2.118,2.629,1.147,3.795
		c-4.713,5.653-6.203,12.663-8.071,19.437c-1.045,3.791-1.046,7.871-1.538,12c-2.322-2.857-2.766-8.422-0.854-16.587
		c1.279-5.453,3.191-10.757,4.766-15.947c-2.754,0.21-4.936,1.995-5.703,5.102c-1.972,7.984-3.984,15.959-5.875,23.962
		c-0.763,3.229-1.19,6.536-1.911,9.775c-0.151,0.679-0.921,1.22-1.405,1.824c-0.398-0.719-1.158-1.448-1.135-2.153
		c0.118-3.668,0.141-7.379,0.75-10.981c1.156-6.863,2.689-13.664,4.248-21.388c-3.197,3.3-7.602,4.468-8.316,9.1
		c-0.641,4.15-1,8.348-1.408,12.531c-0.455,4.657-0.746,9.333-1.295,13.979c-0.123,1.038-1.021,1.984-1.562,2.972
		c-0.611-1.047-1.733-2.088-1.748-3.143c-0.077-5.411,0.11-10.824,0.251-16.235c0.049-1.883,0.227-3.762,0.346-5.642
		c-0.236-0.118-0.473-0.236-0.708-0.354c-1.461,1.979-3.254,3.794-4.313,5.967c-2.49,5.104-3.488,10.56-2.951,16.288
		c0.484,5.185,0.766,10.39,1.136,15.586C64.438,169.704,64.207,169.86,63.977,170.016z"/>
	<path fill-rule="evenodd" clip-rule="evenodd" d="M146.072,148.724c-0.674,0.626-1.395,1.209-2.015,1.886
		c-2.632,2.873-5.196,5.811-7.878,8.637c-0.529,0.557-1.466,0.729-2.215,1.077c-0.179-0.151-0.357-0.303-0.536-0.453
		c0.609-1.382,1.032-2.888,1.858-4.124c3.744-5.601,7.51-11.193,11.465-16.647c1.623-2.238-0.232-3.694-0.68-5.464
		c-0.155-0.611-0.794-1.101-1.211-1.646c-1.639,7.02-6.309,12.452-9.723,18.54c-1.027,1.831-2.535,1.768-4.233,0.785
		c3.673-6.772,7.156-13.481,10.929-20.023c1.614-2.799,2.604-5.165-0.755-7.325c-1.191,1.004,0.487,4.928-3.987,3.541
		c0.555,0.876,0.807,1.366,1.146,1.787c0.349,0.429,1.096,0.78,1.105,1.18c0.015,0.622-0.519,1.822-0.691,1.8
		c-2.107-0.278-1.912,1.519-2.328,2.58c-1.462,3.728-3.594,6.93-7.016,9.705c-1.234-2.94,0.172-5.154,1.473-7.136
		c3.69-5.629,5.923-11.604,5.493-18.443c-0.096-1.528,0.182-3.079,0.332-5.277c2.322,1.498,5.109,2.651,7.016,4.646
		c5.865,6.134,8.625,13.99,9.915,22.1c0.67,4.213-0.549,8.786-1.269,13.14c-0.534,3.233-1.61,6.38-2.492,9.554
		c-1.199,4.309-2.044,8.633-7.016,10.779c-2.429,1.05-4.184,3.638-6.284,5.482c-0.674,0.592-1.479,1.036-2.601,1.807
		c0.105-2.871,0.708-4.667,2.707-6.338c2.25-1.881,3.989-4.425,5.72-6.845c0.538-0.753,0.322-2.045,0.515-3.604
		c1.232-1.099,2.816-2.679,2.545-5.804c-3.069,3.842-5.714,7.247-8.474,10.56c-1.222,1.467-2.628,2.794-4.06,4.063
		c-0.308,0.273-1.269,0.233-1.582-0.047c-0.275-0.247-0.289-1.19-0.034-1.562c3.504-5.099,7.162-10.094,10.59-15.24
		c1.623-2.437,2.839-5.144,4.232-7.741c0.381,0.025,0.77,0.064,1.159,0.104c-0.145,0.556-0.291,1.111-0.436,1.667
		c0.277,0.07,0.555,0.141,0.832,0.211c0.538-1.994,1.077-3.987,1.615-5.982c-0.374-0.16-0.747-0.32-1.12-0.48
		C147.415,145.689,146.743,147.206,146.072,148.724z"/>
	<path fill-rule="evenodd" clip-rule="evenodd" d="M130.707,84.244c0-2.203-0.014-3.611,0.004-5.019
		c0.018-1.418,2.396-2.708,3.656-1.945c0.578,0.352,1.045,0.889,1.943,1.675C134.505,80.66,132.773,82.294,130.707,84.244z"/>
	<path fill-rule="evenodd" clip-rule="evenodd" d="M180.208,42.809c0,0-0.012-0.014-0.013-0.015
		c0.944,4.094,1.888,8.188,2.832,12.284c-0.232,0.056-0.466,0.111-0.7,0.167c-1.083-3.803-2.19-7.601-3.194-11.424
		C179.073,43.594,179.831,43.151,180.208,42.809z"/>
	<path fill-rule="evenodd" clip-rule="evenodd" d="M211.113,100.003c0.105,0.501,0.211,1,0.317,1.499
		c-0.317,0.056-0.634,0.111-0.951,0.166c-0.083-0.963-0.166-1.927-0.247-2.889c0.852-0.045,1.705-0.09,2.56-0.134
		c0.028,0.269,0.059,0.538,0.088,0.807C212.294,99.635,211.707,99.818,211.113,100.003z"/>
	<path fill-rule="evenodd" clip-rule="evenodd" fill="#FFFFFF" d="M183.075,83.656c-0.266,6.867-0.511,13.736-0.81,20.604
		c-0.076,1.718-0.416,3.425-0.471,5.143c-0.049,1.585-0.707,2.308-2.07,1.378c-2.104-1.434-5.401-1.528-5.877-4.857
		c-0.107-0.757,0.071-1.675,0.432-2.351c0.603-1.126,1.943-2.04,2.128-3.181c1.044-6.496,2.216-13.069-0.827-19.386
		c-1.068-2.216-0.256-3.151,1.867-3.758c4.547-1.299,5.368-0.736,5.422,4.041c0.008,0.783-0.09,1.568-0.14,2.352
		C182.846,83.646,182.961,83.651,183.075,83.656z"/>
	<path fill-rule="evenodd" clip-rule="evenodd" fill="#FFFFFF" d="M154.737,64.364c0.19-0.199,0.759-0.797,1.43-1.503
		c-1.392-1.32-2.63-2.588-0.182-4.12c0.599,1.745,2.332,2.505,2.237,5.045c-0.087,2.297,2.11,4.635,3.111,7.034
		c0.647,1.55,1.179,3.227,1.286,4.879c0.034,0.528-1.397,1.277-2.267,1.709c-1.397,0.697-1.94,0.026-2.305-1.418
		C157.105,72.252,155.951,68.567,154.737,64.364z"/>
	<path fill-rule="evenodd" clip-rule="evenodd" fill="#FFFFFF" d="M107.441,197.544c-0.312-4.634-0.722-9.122-0.878-13.618
		c-0.13-3.682,2.91-2.61,4.942-2.998c2.266-0.432,2.395,1.132,2.504,2.685c0.21,2.962,0.49,5.923,0.568,8.888
		C114.688,196.633,113.355,197.58,107.441,197.544z"/>
	<path fill-rule="evenodd" clip-rule="evenodd" fill="#FFFFFF" d="M116.503,254.098c-1.271,0.403-2.238,0.791-3.24,1.016
		c-3.368,0.751-4.126,0.201-4.602-3.189c-0.255-1.813-0.64-3.614-0.771-5.435c-0.27-3.727,0.577-4.575,4.385-4.606
		c0.859-0.007,1.72,0.135,3.024,0.247C115.696,246.074,116.096,250.042,116.503,254.098z"/>
	<path fill-rule="evenodd" clip-rule="evenodd" fill="#FFFFFF" d="M107.891,225.212c0-0.788-0.231-1.677,0.054-2.342
		c0.429-0.997,1.229-2.587,1.856-2.58c1.074,0.011,2.898,0.896,3.076,1.705c0.874,3.981,1.379,8.052,1.813,12.112
		c0.053,0.492-1.021,1.375-1.728,1.613c-0.87,0.293-1.903,0.099-2.867,0.119c-1.347,0.028-2.126-0.42-2.083-1.977
		c0.079-2.881,0.023-5.767,0.023-8.65C107.986,225.212,107.938,225.212,107.891,225.212z"/>
	<path fill-rule="evenodd" clip-rule="evenodd" fill="#FFFFFF" d="M114.547,165.689c-0.092,1.57-0.375,3.158-0.233,4.707
		c0.245,2.675-1.751,3.665-3.448,4.68c-1.568,0.94-3.207-0.219-3.141-2.146c0.104-3.054,0.557-6.097,0.643-9.15
		c0.093-3.317,2.754-2.196,4.295-2.387c1.913-0.237,2.048,1.436,1.805,2.975c-0.069,0.431-0.058,0.875-0.082,1.312
		C114.438,165.683,114.493,165.686,114.547,165.689z"/>
	<path fill-rule="evenodd" clip-rule="evenodd" fill="#FFFFFF" d="M107.349,209.211c-0.062-0.7-0.447-1.826-0.171-2.756
		c0.319-1.075,1.01-2.499,1.908-2.865c3.874-1.577,5.078-0.507,4.721,3.682c-0.139,1.629-0.035,3.279-0.042,4.922
		c-0.005,1.27-0.038,2.771-1.794,2.475c-1.681-0.282-4.115,0.51-4.596-2.242C107.213,211.496,107.349,210.514,107.349,209.211z"/>
	<path fill-rule="evenodd" clip-rule="evenodd" fill="#FFFFFF" d="M120.986,127.069c-0.805,3.624-1.502,7.28-2.552,10.832
		c-0.13,0.44-2.22,0.648-3.244,0.376c-0.919-0.243-2.375-1.409-2.29-1.976c0.393-2.655,0.749-5.544,2.102-7.744
		c0.814-1.325,3.43-1.542,5.236-2.257C120.488,126.557,120.737,126.813,120.986,127.069z"/>
	<path fill-rule="evenodd" clip-rule="evenodd" fill="#FFFFFF" d="M117.32,144.164c-0.834,3.871-1.15,7.065-2.327,9.903
		c-0.44,1.062-2.89,1.289-4.091,1.767c-0.329-1.316-0.682-1.994-0.629-2.639c0.238-2.893,0.252-5.889,1.147-8.58
		C111.64,143.958,114.891,144.311,117.32,144.164z"/>
	<path fill-rule="evenodd" clip-rule="evenodd" fill="#FFFFFF" d="M114.418,269.927c0.736,0.116,1.203,0.19,1.67,0.265
		c-0.048,0.219-0.096,0.437-0.143,0.655c-1.498-0.335-3.624-0.187-4.344-1.122c-1.013-1.318-1.148-3.42-1.363-5.221
		c-0.292-2.434,0.706-3.021,4.207-3.178c2.441-0.109,2.207,1.323,1.965,2.916c-0.157,1.037-0.082,2.138-0.408,3.112
		C115.706,268.241,115.012,268.996,114.418,269.927z"/>
	<path fill-rule="evenodd" clip-rule="evenodd" fill="#FFFFFF" d="M112.767,280.605c0.049-2.304-2.839-5.162,1.33-6.107
		c1.838-0.416,4.78,1.898,4.462,3.857C117.994,281.836,114.677,279.482,112.767,280.605z"/>
	<path fill-rule="evenodd" clip-rule="evenodd" fill="#FFFFFF" d="M121.514,41.473c-1.458-1.808-2.653-1.006-4.328-0.342
		c-2.528,1.003-5.379,1.193-8.255,1.385c3.038-1.445,5.067-4.72,8.905-4.605C120.332,37.984,120.793,38.445,121.514,41.473z"/>
	<path fill-rule="evenodd" clip-rule="evenodd" fill="#FFFFFF" d="M109.64,26.632c-5.091,2.85-9.898,5.542-14.706,8.234
		c-0.088-0.112-0.176-0.225-0.264-0.337c1.287-1.193,2.5-2.48,3.878-3.559c2.052-1.607,4.324-2.945,6.307-4.627
		C106.539,24.914,107.893,25.216,109.64,26.632z"/>
	<path fill-rule="evenodd" clip-rule="evenodd" fill="#FFFFFF" d="M121.777,60.761c2.907-0.857,5.814-1.715,8.721-2.572
		c0.093,0.285,0.186,0.569,0.279,0.854c-2.898,0.766-5.797,1.53-8.694,2.295C121.98,61.146,121.879,60.954,121.777,60.761z"/>
	<path fill-rule="evenodd" clip-rule="evenodd" fill="#FFFFFF" d="M146.072,148.724c0.671-1.518,1.343-3.034,2.014-4.553
		c0.373,0.16,0.746,0.32,1.12,0.48c-0.538,1.995-1.077,3.988-1.615,5.982c-0.277-0.07-0.555-0.141-0.832-0.211
		c0.145-0.556,0.291-1.111,0.436-1.667c-0.39-0.039-0.778-0.078-1.159-0.104C146.042,148.664,146.072,148.724,146.072,148.724z"/>
</g>
</svg>
