<?xml version="1.0" encoding="utf-8"?>
<!-- Generator: Adobe Illustrator 16.0.0, SVG Export Plug-In . SVG Version: 6.00 Build 0)  -->
<!DOCTYPE svg PUBLIC "-//W3C//DTD SVG 1.1//EN" "http://www.w3.org/Graphics/SVG/1.1/DTD/svg11.dtd">
<svg version="1.1" id="Calque_1" xmlns="http://www.w3.org/2000/svg" xmlns:xlink="http://www.w3.org/1999/xlink" x="0px" y="0px"
	 width="219.573px" height="272.284px" viewBox="0 0 219.573 272.284" enable-background="new 0 0 219.573 272.284"
	 xml:space="preserve">
<g>
	<g>
		<path fill-rule="evenodd" clip-rule="evenodd" d="M213.881,75.803c-0.258-7.392,0.891-14.781-0.729-22.204
			c-0.521-2.388-0.572-4.735-2.211-6.509c-0.564,0.088-1.15,0.147-1.775,0.147c-0.121,0-0.232-0.014-0.352-0.018
			c-0.506,0.577-0.977,1.14-0.604,1.883c1.453,2.901,0.198,5.832,0.396,8.73c0.342,5.033,1.344,10.25,0.827,15.044
			c-0.509,4.726,0.318,9.275-0.078,13.898c-0.466,5.434-0.778,10.907-0.676,16.354c0.107,5.716-2.228,11.135-1.776,16.799
			c0.21,2.641-1.189,3.97-3.1,4.169c-2.006,0.209-3.869,0.757-5.79,1.185c-4.475,0.998-8.715-0.029-12.957-1.698
			c-1.403-5.125-2.169-10.646-3.499-16.013c-1.09-4.397-3.806-8.381-7.154-11.388c-4.641-4.169-9.611-8.123-14.951-11.313
			c-4.115-2.457-9.076-3.824-14.019-2.6c-2.659,0.659-5.271,0.771-7.937,0.972c-8.51,0.637-16.936-1.021-25.442-0.753
			c-8.116,0.255-16.259,0.307-24.364-0.085c-3.579-0.173-7.039-0.655-10.713-0.27c-11.279,1.183-22.647,0.185-33.975,0.88
			c-8.72,0.536-16.818,1.957-22.701,9.331c-2.484,3.114-5.271,5.923-7.403,9.385c-2.367,3.845-3.135,8.283-5.376,12.159
			c-1.238,2.141-2.706,4.448-2.633,7.143c0.089,3.302-0.707,6.556-0.687,9.804c0.038,5.988-1.522,12.073,0.654,17.964
			c1.356,3.67,2.23,7.746,4.458,10.814c3.424,4.719,6.773,9.62,11.445,13.374c3.484,2.8,7.113,5.419,11.451,6.374
			c5.094,1.121,9.881,3.197,14.951,4.287c3.303,0.709,6.707,1.357,10.062,0.807c5.349-0.876,10.681-2.082,14.874-5.883
			c2.335-2.117,5.606-2.877,7.533-5.662c0.726-1.049,0.132-2.236,1.403-3.314c3.229-2.738,6.753-5.074,10.003-7.771
			c2.608-2.163,5.611-2.184,8.933-1.501c4.476,0.919,6.585,4.335,9.136,7.395c5.508,6.606,11.56,12.382,20.587,13.728
			c0.759,0.113,1.483,0.529,2.196,0.862c3.104,1.449,6.691,2.17,9.775,2.07c3.665-0.119,7.505-0.335,11.214-1.026
			c5.908-1.101,11.432-3.242,16.044-7.059c5.89-4.874,8.92-11.776,11.677-18.658c0.929-2.318,2.326-4.714,2.539-7.077
			c0.56-6.229,3.429-12.077,2.871-18.44c-0.131-1.501,0.621-2.036,1.929-1.925c5.963,0.505,11.889,0.105,17.945-0.792
			c0.589,1.93,0.264,3.518,0.064,5.071c-0.351,2.729-1.323,5.74-0.935,8.139c1.064,6.583,0.92,12.976-0.254,19.453
			c-0.172,0.949-0.098,1.963,0.399,2.914c0.473,0.905,0.464,1.942,0.243,2.926c-1.384,6.182-1.035,12.47-1.063,18.72
			c-0.043,9.447,1.347,18.855,0.685,28.341c-0.267,3.813-1.997,7.222-2.257,10.996c-0.435,6.317-2.416,12.155-5.922,17.438
			c-1.734,2.616-3.718,5.077-5.329,7.763c-2.199,3.665-3.887,7.163-8.92,8.44c-7.384,1.873-14.641,3.989-22.31,4.34
			c-4.166,0.19-8.268-0.274-12.353-0.892c-4.931-0.746-9.899,0.047-14.844-0.621c-4.463-0.604-8.506-2.548-12.832-3.585
			c-2.101-0.504-4.237-0.516-6.406-1.335c-8.432-3.188-12.852-9.604-15.868-17.515c-1.4-3.675-1.586-7.569-2.305-11.369
			c-1.48-7.829-1.743-15.766-2.061-23.689c-0.164-4.106,0.876-5.241,5.026-6.233c3.423-0.818,6.156-3.065,9.308-4.46
			c1.881-0.833,3.519-2.567,3.835-4.964c0.124-0.942,0.082-1.85-0.942-2.273c-0.907-0.375-1.677-0.202-2.377,0.618
			c-5.521,6.464-14.255,7.242-21.75,4.88c-2.669-0.841-4.307-3.025-6.772-4.064c-1.429-0.603-2.506-1.213-3.58,0.349
			c-1.128,1.643-0.241,2.77,0.967,3.808c3.857,3.32,8.482,5.172,13.317,6.888c0.031,0.658,0.115,1.339,0.088,2.015
			c-0.654,16.27-1.706,32.539,6.755,47.588c2.663,4.736,5.467,9.065,10.465,11.491c8.259,4.009,17.19,5.676,26.151,7.031
			c4.49,0.679,9.136-0.075,13.633,0.25c12.504,0.904,24.666,0.449,36.798-3.488c7.47-2.424,11.174-8.143,15.441-13.604
			c4.151-5.312,5.132-12.1,6.971-18.258c2.144-7.173,2.312-14.971,3.023-22.527c0.786-8.35-0.713-16.67-0.739-25.034
			c-0.031-9.662,1.422-19.258,0.975-28.91c-0.435-9.366,0.225-18.675,0.885-28.004c0.698-9.871,1.125-19.743,2.462-29.577
			C214.574,90.978,214.145,83.373,213.881,75.803z M181.729,132.163c-0.181,1.938-0.495,3.773-0.988,5.679
			c-0.653,2.525-3.525,12.764-3.544,13.09c-0.301,5.109-3.47,8.361-5.31,12.793c-1.09,2.627-2.365,5.915-4.969,8.171
			c-3.124,2.708-6.341,4.708-10.357,5.746c-4.695,1.214-9.409,2.137-14.24,1.856c-5.181-0.3-10.17-1.436-14.992-3.594
			c-2.487-1.113-5.065-1.802-7.354-3.517c-2.893-2.167-5.078-4.87-7.496-7.459c-2.549-2.728-4.033-6.552-7.879-8.1
			c-0.771-0.311-1.373-1.048-2.112-1.858c-0.486-0.124-0.952-0.276-1.389-0.464c-0.853,0.327-1.788,0.12-2.677,0.23
			c-3.326,0.415-6.604-1.042-9.961,2.393c-3.349,3.429-7.215,6.567-10.76,9.96c-2.258,2.162-3.453,5.204-6.429,6.8
			c-3.37,1.808-6.415,4.217-10.241,5.123c-2.365,0.561-4.567,0.236-6.718-0.645c-0.789,0.185-1.637,0.294-2.554,0.294
			c-1.531,0-2.876-0.286-4.049-0.775c-0.061,0.058-0.122,0.115-0.183,0.18c-1.035,1.123-2.226,0.485-2.576-0.57
			c-0.097-0.291-0.216-0.524-0.342-0.736c-0.932-0.028-1.786-0.171-2.579-0.392c-1.264-0.072-2.398-0.334-3.4-0.758
			c-3.435-0.427-7.46-2.056-9.76-4.021c-0.989-0.844-2.506-0.687-3.709-1.551c-3.436-2.466-5.757-5.955-8.694-8.865
			c-0.411-0.406-0.746-0.82-0.9-1.248c-0.464-0.521-0.872-1.099-1.206-1.739c-1.428-2.73-2.875-5.943-4.059-9.366
			c-0.402-0.53-0.804-1.085-1.246-1.654c0.215-0.137,0.397-0.282,0.566-0.431c-1.978-6.5-2.83-13.543-0.711-19.414
			c-0.801-0.688-0.367-2.872,0.068-4.26c1.415-4.516,3.461-8.787,5.53-13.026c1.238-2.536,2.525-5.144,4.296-7.306
			c4.115-5.026,7.757-11.204,15.278-11.266c6.906-0.057,13.475-2.183,20.331-2.44c6.965-0.262,13.92-0.803,20.896-0.93
			c6.642-0.12,13.311,0.792,19.876,0.324c6.25-0.445,12.476-0.535,18.719-0.663c6.314-0.131,12.631,1.085,18.927,0.172
			c6.479-0.94,12.986,0.083,19.49-0.595c3.316-0.346,6.177,2.147,8.846,4.029c5.351,3.773,10.417,8.011,14.057,13.476
			c2.182,3.277,3.021,7.333,3.668,11.278c0.612,3.728,1.249,7.461,1.606,11.218C180.664,129.04,181.897,130.353,181.729,132.163z"/>
		<g>
			<path d="M213.881,75.803c-0.007-1.218-0.063-2.436-0.029-3.654c0.014-1.218,0.037-2.437,0.074-3.654l0.084-3.653
				c-0.01-1.218,0.028-2.437-0.033-3.653l-0.076-1.825c-0.038-0.607-0.115-1.212-0.171-1.818c-0.063-0.605-0.106-1.213-0.23-1.81
				l-0.316-1.798l-0.34-1.796c-0.109-0.6-0.215-1.199-0.357-1.79c-0.139-0.592-0.329-1.169-0.575-1.724
				c-0.127-0.274-0.293-0.529-0.438-0.795l-0.558-0.715l0.033,0.011l-1.066,0.09l-0.533,0.045c-0.178,0.025-0.356,0.004-0.533-0.002
				l0.03-0.014c-0.325,0.381-0.694,0.785-0.722,1.29c-0.008,0.252,0.096,0.47,0.192,0.718l0.281,0.715
				c0.307,0.981,0.42,2.028,0.349,3.051c-0.036,1.027-0.191,2.043-0.257,3.062c-0.102,1.02-0.008,2.037,0.08,3.058
				c0.352,4.073,1.014,8.145,0.84,12.258c-0.078,1.026-0.135,2.042-0.177,3.067c-0.048,1.023-0.12,2.046-0.061,3.067
				c0.04,2.041,0.145,4.09,0.168,6.14l-0.092,3.079l-0.201,3.063c-0.112,2.044-0.322,4.086-0.354,6.132l-0.086,6.138l-0.073,3.075
				c-0.107,1.021-0.184,2.056-0.367,3.064c-0.307,2.03-0.744,4.033-1.033,6.055l-0.204,1.518l-0.107,1.524
				c-0.073,1.022,0.03,2.02,0.02,3.064c0.024,1.016-0.266,2.16-1.057,2.898c-0.372,0.39-0.873,0.622-1.371,0.792
				c-0.525,0.131-1.026,0.199-1.525,0.292c-1.005,0.192-2.027,0.317-3.014,0.581c-0.989,0.225-1.989,0.504-3.004,0.647
				c-2.034,0.334-4.141,0.263-6.163-0.105c-2.031-0.365-3.999-1.004-5.913-1.75l-0.082-0.032l-0.018-0.08l-1.795-7.948l-1.701-7.948
				c-0.645-2.629-1.859-5.049-3.418-7.248c-0.775-1.1-1.663-2.115-2.599-3.081c-0.953-0.947-1.984-1.82-3.013-2.709
				c-4.1-3.535-8.415-6.838-13.036-9.625c-2.341-1.38-4.851-2.356-7.507-2.77c-0.331-0.046-0.66-0.112-0.992-0.143l-1-0.047
				c-0.668-0.065-1.333,0.013-1.998,0.052c-0.67,0.004-1.314,0.209-1.973,0.307l-1.998,0.404
				c-5.418,0.812-10.863,0.989-16.305,0.649c-5.427-0.309-10.813-0.855-16.225-0.634l-8.135,0.161
				c-1.356,0.014-2.71,0.083-4.069,0.051l-4.076-0.082c-2.718-0.068-5.433-0.079-8.156-0.195c-2.709-0.147-5.417-0.412-8.077-0.292
				c-2.681,0.142-5.405,0.351-8.105,0.523l-2.029,0.136l-2.042,0.035l-4.085,0.054c-5.443,0.093-10.857-0.042-16.256,0.234
				c-5.389,0.136-10.838,0.549-15.831,2.347c-2.479,0.916-4.81,2.214-6.781,3.954c-1.01,0.841-1.892,1.825-2.735,2.833l-2.604,3.135
				c-1.79,2.052-3.433,4.185-4.845,6.362c-0.691,1.207-1.252,2.331-1.738,3.574c-0.507,1.228-0.951,2.51-1.43,3.786
				c-0.491,1.278-0.991,2.569-1.643,3.815c-0.629,1.283-1.375,2.379-1.936,3.56c-0.57,1.164-0.984,2.364-1.047,3.572l-0.06,2.005
				l-0.026,1.017l-0.096,1.041l-0.399,4.067l-0.083,1.968l-0.046,2.046c-0.091,2.763-0.385,5.468-0.418,8.12
				c-0.036,2.648,0.196,5.276,1.085,7.693c0.948,2.564,1.654,5.234,2.707,7.608c0.507,1.224,1.147,2.282,1.91,3.352l2.396,3.279
				c1.604,2.167,3.257,4.274,5.08,6.2c1.811,1.932,3.84,3.613,6.005,5.203c2.134,1.578,4.401,2.93,6.822,3.773
				c0.599,0.23,1.228,0.346,1.839,0.528l2.005,0.518l1.97,0.518l1.974,0.611c2.646,0.8,5.166,1.669,7.756,2.268
				c2.581,0.653,5.24,1.173,7.795,1.266c0.644,0.033,1.275-0.005,1.909-0.035c0.638-0.079,1.217-0.136,1.906-0.272
				c1.351-0.236,2.629-0.482,3.91-0.806c2.558-0.63,5.021-1.517,7.18-2.875c0.539-0.339,1.081-0.674,1.555-1.098l1.565-1.27
				c0.494-0.409,1.254-0.901,1.813-1.236l1.75-1.04c1.131-0.667,2.096-1.394,2.808-2.296l0.272-0.333
				c0.084-0.124-0.035,0.08-0.002,0.015l0.061-0.112l0.12-0.224c0.009-0.089,0.002-0.066,0.032-0.178l0.078-0.433
				c0.025-0.167,0.055-0.348,0.108-0.573c0.035-0.202,0.118-0.439,0.211-0.672c0.185-0.463,0.5-0.911,0.847-1.234l0.129-0.13
				c0.041-0.043,0.143-0.125,0.145-0.126l0.199-0.157l0.399-0.314l0.8-0.629l1.599-1.257l3.198-2.504l3.198-2.487l0.399-0.311
				l0.481-0.357c0.294-0.199,0.507-0.395,0.868-0.596c0.368-0.2,0.744-0.398,1.119-0.579l1.117-0.381
				c1.52-0.413,3.064-0.421,4.511-0.266c0.361,0.042,0.729,0.075,1.076,0.146l0.528,0.094l0.265,0.047l0.132,0.023l0.223,0.06
				l0.978,0.282l0.489,0.143l0.555,0.25c3.005,1.296,4.849,3.65,6.549,5.751c0.425,0.52,0.849,1.055,1.261,1.537l1.329,1.539
				c0.882,1.046,1.804,1.939,2.702,2.918l1.44,1.352l0.721,0.677c0.248,0.213,0.508,0.411,0.762,0.617l1.528,1.227
				c0.53,0.375,1.082,0.714,1.621,1.074c1.052,0.775,2.259,1.244,3.391,1.858c0.584,0.268,1.204,0.444,1.804,0.673
				c0.608,0.203,1.195,0.478,1.836,0.572l1.883,0.406l1.066,0.237c0.271,0.051,0.928,0.303,1.197,0.436l0.859,0.409l0.946,0.372
				l0.946,0.373l0.474,0.186l0.449,0.116l1.793,0.474l1.889,0.287c0.63,0.135,1.261,0.07,1.891,0.116
				c0.313,0.006,0.634,0.031,0.942,0.023l1.017-0.043c2.718-0.099,5.337-0.293,7.966-0.672l1.923-0.302l1.99-0.422
				c1.268-0.314,2.505-0.649,3.752-1.079c2.472-0.847,4.84-1.958,7.01-3.367c0.545-0.35,1.089-0.699,1.589-1.109l0.77-0.589
				l0.192-0.147c0.007-0.003,0.119-0.097,0.041-0.026l0.093-0.086l0.373-0.346l1.494-1.381c0.45-0.469,0.834-0.946,1.258-1.416
				c1.638-1.935,3.107-4.146,4.303-6.491c1.237-2.33,2.3-4.777,3.307-7.277c0.48-1.214,1.064-2.577,1.614-3.78
				c0.539-1.213,1.02-2.393,1.211-3.512l0.266-1.951l0.134-1.009l0.205-1.053c0.26-1.429,0.598-2.735,0.907-4.066
				c0.647-2.638,1.268-5.204,1.416-7.748c0.083-0.639,0.046-1.265,0.027-1.893l-0.022-0.942l-0.015-0.613
				c-0.007-0.054,0.007-0.228,0.028-0.395c0.021-0.163,0.049-0.325,0.082-0.485c0.109-0.32,0.202-0.629,0.436-0.932
				c0.115-0.15,0.236-0.299,0.369-0.429c0.144-0.114,0.297-0.223,0.454-0.32c0.624-0.347,1.228-0.417,1.698-0.411l1.09,0.042
				l1.016,0.048c2.751,0.185,5.315,0.104,7.971-0.035c1.328-0.116,2.657-0.186,3.984-0.338l3.979-0.51l1.369-0.175l0.249,1.199
				l0.336,1.616c0.032,0.537,0.053,1.083,0.053,1.614c-0.045,0.496-0.078,1.035-0.139,1.496l-0.193,1.406
				c-0.278,1.901-0.744,3.723-0.886,5.37c-0.057,0.424-0.031,0.803-0.044,1.198l0.133,1.26l0.325,2.749
				c0.289,1.792,0.236,3.775,0.321,5.678c0.062,0.966-0.021,1.905-0.072,2.851l-0.168,2.835c-0.082,0.942-0.251,1.873-0.373,2.81
				l-0.201,1.403l-0.101,0.702l-0.05,0.351c0.025-0.178,0.002,0,0.005-0.017l-0.01,0.086l-0.02,0.172l-0.038,0.344
				c-0.01,0.109,0.014,0.137,0.014,0.209c0.013,0.123-0.006,0.24,0.045,0.396c0.043,0.143,0.033,0.304,0.112,0.434l0.246,0.605
				c0.082,0.229,0.164,0.403,0.247,0.675c0.084,0.361,0.148,0.734,0.191,1.102l-0.019,0.908c-0.026,0.293-0.083,0.569-0.128,0.853
				c-0.152,0.867-0.362,1.815-0.495,2.689c-0.098,0.876-0.258,1.711-0.312,2.62c-0.326,3.574-0.287,7.224-0.271,10.922
				c0.005,0.91-0.011,1.898,0.011,2.744l0.067,2.767c0.056,1.842,0.061,3.697,0.185,5.521l0.296,5.493l0.211,5.576l0.052,1.394
				l-0.031,1.407l-0.069,2.814l-0.07,2.814l-0.005,0.176c0.005-0.025-0.008,0.133-0.012,0.148l-0.01,0.086l-0.04,0.344l-0.08,0.687
				c-0.048,0.453-0.175,0.99-0.262,1.481c-0.409,1.931-0.988,3.681-1.39,5.403c-0.199,0.858-0.36,1.703-0.438,2.537l-0.287,2.764
				c-0.534,3.883-1.634,7.544-3.283,11.026c-0.395,0.874-0.888,1.698-1.329,2.547c-0.509,0.816-0.983,1.629-1.535,2.437
				c-1.048,1.507-2.161,3.019-3.156,4.521c-1.013,1.511-2.033,2.97-2.967,4.603c-0.971,1.588-2.042,3.304-3.629,4.683
				c-1.556,1.405-3.595,2.233-5.475,2.729l-5.366,1.367l-5.43,1.288l-5.531,1.02l-5.638,0.556c-1.025,0.053-1.874,0.027-2.819,0.044
				c-0.914,0.022-1.902-0.083-2.851-0.121c-0.968-0.035-1.888-0.159-2.824-0.253c-0.938-0.087-1.862-0.212-2.784-0.348l-1.386-0.195
				l-0.174-0.024c0.123,0.015-0.016,0-0.01,0.001l-0.087-0.008l-0.345-0.03l-0.688-0.06c-0.916-0.071-1.847-0.181-2.75-0.219
				l-5.438-0.027c-0.932,0.002-1.863,0.005-2.827-0.092l-1.432-0.108l-0.717-0.055l-0.357-0.027l-0.179-0.014l-0.249-0.048
				l-2.711-0.557c-0.906-0.196-1.845-0.531-2.765-0.792c-0.946-0.276-1.796-0.569-2.673-0.858c-0.876-0.297-1.747-0.579-2.605-0.81
				l-1.292-0.371l-0.646-0.186l-0.631-0.123c-0.924-0.2-1.77-0.297-2.689-0.458l-1.434-0.273l-1.458-0.435l-0.182-0.056
				l-0.091-0.028c-0.063-0.023,0.013,0.012-0.164-0.059l-0.315-0.144l-0.629-0.287l-1.26-0.573
				c-0.836-0.319-1.692-0.937-2.535-1.436c-0.414-0.271-0.864-0.506-1.244-0.811l-1.128-0.922l-1.126-0.925l-1.002-1.052
				l-0.999-1.055c-0.324-0.358-0.59-0.762-0.888-1.141c-0.578-0.771-1.182-1.525-1.645-2.364c-0.48-0.826-1.035-1.618-1.424-2.484
				c-0.407-0.856-0.877-1.691-1.23-2.567l-0.539-1.31l-0.27-0.655l-0.135-0.327l-0.066-0.164c-0.008-0.011-0.066-0.191-0.053-0.154
				l-0.025-0.083l-0.797-2.65l-0.56-2.867c-0.28-1.857-0.543-3.678-0.837-5.457l-0.829-5.505c-0.263-1.829-0.371-3.721-0.563-5.577
				c-0.293-3.721-0.457-7.415-0.592-11.107l-0.054-1.384l-0.026-0.713l-0.013-0.692c0.004-1.013,0.061-2.038,0.497-3.144
				c0.232-0.539,0.572-1.075,1.016-1.487c0.439-0.401,0.926-0.729,1.407-0.948c0.966-0.467,1.91-0.714,2.837-0.94l1.283-0.371
				l1.159-0.46c0.797-0.365,1.588-0.77,2.382-1.214c0.796-0.443,1.595-0.909,2.429-1.355c0.418-0.223,0.831-0.45,1.273-0.651
				l0.652-0.31l0.57-0.289c1.316-0.738,2.446-2.068,2.699-3.598c0.045-0.208,0.081-0.342,0.1-0.592
				c0.016-0.194,0.014-0.323,0.003-0.475c-0.041-0.287-0.085-0.324-0.241-0.439c-0.032-0.014-0.143-0.07-0.104-0.063l-0.315-0.107
				c-0.075-0.006-0.181-0.03-0.285-0.016c-0.184,0.019-0.38,0.118-0.61,0.352c-0.614,0.637-1.216,1.337-2.007,1.993
				c-0.368,0.348-0.764,0.629-1.157,0.917c-0.385,0.301-0.793,0.565-1.216,0.809c-1.664,1.013-3.492,1.74-5.372,2.186
				c-3.771,0.892-7.704,0.708-11.391-0.225c-0.465-0.107-0.917-0.257-1.376-0.384c-0.138-0.042-0.175-0.046-0.396-0.12l-0.322-0.127
				l-0.646-0.258c-0.976-0.481-1.78-1.021-2.531-1.585c-0.753-0.548-1.463-1.122-2.194-1.55c-0.362-0.25-0.737-0.386-1.118-0.589
				c-0.422-0.176-0.851-0.38-1.189-0.472c-0.352-0.086-0.589-0.129-0.753-0.017c-0.099,0.047-0.201,0.132-0.313,0.235
				c-0.086,0.123-0.261,0.29-0.287,0.365l-0.17,0.301l-0.085,0.151c-0.02,0.043-0.012,0.063-0.02,0.095
				c-0.022,0.111-0.077,0.215-0.06,0.354c-0.028,0.257,0.082,0.515,0.275,0.807c0.409,0.595,1.112,1.124,1.844,1.707
				c0.358,0.303,0.722,0.563,1.085,0.802c0.368,0.244,0.712,0.509,1.1,0.738c3.048,1.906,6.454,3.246,9.908,4.487l0.506,0.182
				l0.008,0.509c0.013,0.911,0.127,1.863,0.053,2.74l-0.118,2.672l-0.211,5.338c-0.114,3.555-0.162,7.108-0.041,10.65
				c0.22,7.074,1.209,14.157,3.659,20.778c1.216,3.321,2.749,6.464,4.616,9.505c0.887,1.52,1.913,2.949,3.008,4.301
				c1.14,1.312,2.396,2.52,3.829,3.484c0.335,0.277,0.74,0.443,1.106,0.669c0.378,0.2,0.745,0.453,1.132,0.611l2.438,1.1
				c0.813,0.367,1.641,0.641,2.461,0.966c0.813,0.329,1.653,0.606,2.499,0.87c3.361,1.113,6.816,1.946,10.304,2.626
				c1.738,0.366,3.496,0.646,5.249,0.95l2.637,0.422l2.636,0.236c0.894,0.112,1.765,0.059,2.645,0.066
				c0.877-0.002,1.754-0.001,2.653-0.029c0.895-0.013,1.783-0.056,2.682-0.044l2.702,0.073c7.117,0.515,14.228,0.643,21.308-0.104
				c3.539-0.328,7.039-0.979,10.499-1.775c1.731-0.396,3.422-0.951,5.136-1.418c0.8-0.286,1.649-0.646,2.472-0.966
				c0.808-0.359,1.532-0.84,2.305-1.252c2.993-1.869,5.427-4.519,7.625-7.303c1.089-1.399,2.209-2.814,3.259-4.224
				c0.484-0.744,1.062-1.446,1.471-2.223c0.395-0.787,0.883-1.518,1.197-2.353c1.451-3.235,2.312-6.705,3.232-10.149
				c0.458-1.73,0.971-3.433,1.409-5.161c0.434-1.728,0.771-3.461,1.03-5.225c0.534-3.518,0.814-7.073,1.102-10.627
				c0.261-3.554,0.705-7.109,0.622-10.663c-0.044-3.559-0.319-7.115-0.562-10.674c-0.234-3.557-0.48-7.132-0.303-10.704
				c0.059-1.783,0.09-3.566,0.172-5.348l0.333-5.344c0.12-1.782,0.193-3.561,0.291-5.341c0.093-1.78,0.211-3.56,0.165-5.342
				l-0.02-5.347l-0.098-5.349c-0.07-1.783,0.043-3.568,0.07-5.352c0.041-1.785,0.082-3.569,0.2-5.349
				c0.177-3.564,0.415-7.124,0.673-10.681l0.728-10.676l0.369-5.338l0.454-5.332c0.277-3.557,0.821-7.089,1.147-10.639
				C214.493,90.083,214.123,82.925,213.881,75.803z M213.881,75.803c0.261,7.119,0.649,14.281-0.18,21.379
				c-0.318,3.555-0.853,7.083-1.12,10.641l-0.44,5.332l-0.355,5.338l-0.699,10.678c-0.249,3.558-0.478,7.117-0.645,10.679
				c-0.114,1.78-0.15,3.562-0.188,5.343c-0.021,1.782-0.131,3.562-0.056,5.346l0.112,5.349l0.033,5.354
				c0.05,1.787-0.063,3.568-0.151,5.351c-0.093,1.781-0.162,3.567-0.277,5.344l-0.319,5.337c-0.077,1.781-0.104,3.565-0.157,5.348
				c-0.168,3.56,0.086,7.12,0.33,10.676c0.251,3.557,0.536,7.116,0.59,10.692c0.092,3.59-0.345,7.136-0.596,10.694
				c-0.278,3.555-0.549,7.119-1.077,10.657c-0.254,1.765-0.596,3.54-1.025,5.27c-0.435,1.731-0.946,3.446-1.396,5.166
				c-0.91,3.441-1.766,6.935-3.229,10.224c-1.402,3.373-3.81,6.065-5.957,8.914c-2.19,2.812-4.641,5.527-7.709,7.472
				c-0.795,0.434-1.568,0.944-2.385,1.313c-0.837,0.332-1.628,0.677-2.503,0.997c-1.724,0.483-3.426,1.053-5.168,1.464
				c-3.482,0.826-7.008,1.505-10.572,1.86c-7.111,0.802-14.325,0.717-21.434,0.249l-2.646-0.054
				c-0.884-0.005-1.777,0.043-2.666,0.062c-0.884,0.033-1.791,0.04-2.697,0.047c-0.902-0.002-1.818,0.053-2.699-0.052
				c-0.901-0.077-1.751-0.127-2.694-0.225l-2.649-0.406c-1.763-0.294-3.53-0.563-5.285-0.92c-3.518-0.661-7.018-1.48-10.438-2.587
				c-0.858-0.262-1.714-0.538-2.557-0.872c-0.84-0.326-1.71-0.611-2.524-0.973l-2.446-1.083c-0.44-0.181-0.815-0.435-1.226-0.649
				c-0.394-0.238-0.825-0.417-1.185-0.707c-1.538-1.019-2.88-2.294-4.086-3.665c-1.158-1.409-2.226-2.88-3.148-4.437
				c-1.887-3.024-3.525-6.312-4.779-9.68c-2.555-6.769-3.608-14.001-3.878-21.163c-0.146-3.587-0.122-7.172-0.03-10.747l0.176-5.355
				l0.1-2.673c0.07-0.905-0.054-1.735-0.069-2.605l0.513,0.691c-3.489-1.23-7.011-2.577-10.248-4.57
				c-0.409-0.238-0.802-0.532-1.203-0.796c-0.409-0.268-0.796-0.545-1.145-0.836c-0.701-0.567-1.529-1.126-2.189-2.052
				c-0.171-0.217-0.302-0.521-0.424-0.798c-0.082-0.317-0.184-0.633-0.15-0.969c-0.018-0.331,0.077-0.666,0.193-0.995
				c0.057-0.187,0.115-0.295,0.17-0.385l0.169-0.303c0.182-0.337,0.362-0.484,0.552-0.73c0.215-0.21,0.479-0.434,0.79-0.582
				c0.166-0.069,0.338-0.132,0.508-0.187c0.173-0.023,0.35-0.037,0.524-0.045c0.326,0.004,0.655,0.06,0.909,0.141
				c0.553,0.156,0.957,0.36,1.388,0.532c0.437,0.222,0.933,0.417,1.335,0.689c0.863,0.503,1.596,1.093,2.338,1.623
				c0.724,0.544,1.474,1.008,2.149,1.354l0.64,0.251l0.322,0.125c0,0,0.186,0.051,0.269,0.073c0.432,0.116,0.856,0.255,1.292,0.352
				c3.461,0.854,7.119,0.985,10.537,0.151c1.705-0.417,3.342-1.083,4.823-1.998c0.377-0.219,0.741-0.458,1.081-0.73
				c0.351-0.259,0.707-0.514,1.007-0.806c0.638-0.52,1.243-1.221,1.903-1.918c0.402-0.427,1.032-0.851,1.774-0.927
				c0.355-0.041,0.712-0.002,1.086,0.096l0.34,0.112c0.25,0.101,0.338,0.164,0.511,0.255c0.308,0.19,0.598,0.473,0.805,0.814
				c0.094,0.167,0.164,0.346,0.229,0.521c0.039,0.166,0.084,0.344,0.104,0.505c0.035,0.308,0.029,0.641,0.006,0.907
				c-0.013,0.211-0.068,0.53-0.122,0.772c-0.193,1.049-0.64,2.065-1.296,2.905c-0.639,0.841-1.467,1.554-2.411,2.081l-0.663,0.338
				l-0.595,0.289c-0.398,0.183-0.793,0.402-1.188,0.617c-0.79,0.429-1.582,0.898-2.396,1.358c-0.813,0.462-1.661,0.906-2.54,1.314
				c-0.461,0.195-0.944,0.384-1.413,0.564l-1.373,0.404c-1.729,0.427-3.406,0.983-3.811,2.179c-0.248,0.617-0.329,1.471-0.319,2.295
				l0.018,0.692l0.03,0.67l0.063,1.381c0.159,3.683,0.349,7.364,0.658,10.999c0.201,1.812,0.309,3.611,0.582,5.433l0.854,5.438
				c0.321,1.86,0.598,3.691,0.879,5.48l0.507,2.565l0.814,2.646l0.025,0.083c0.031,0.091-0.015-0.032,0.003,0.009l0.065,0.156
				l0.131,0.312l0.262,0.623l0.522,1.247c0.342,0.835,0.79,1.608,1.178,2.416c0.371,0.82,0.893,1.54,1.342,2.307
				c0.435,0.781,0.995,1.462,1.528,2.165c0.273,0.344,0.519,0.716,0.815,1.039l0.912,0.947l0.911,0.949l1.021,0.822l1.019,0.825
				c0.34,0.272,0.722,0.456,1.078,0.69c0.749,0.429,1.379,0.938,2.277,1.28l1.264,0.564l0.632,0.283l0.316,0.141
				c-0.123-0.053,0.009-0.002,0-0.009l0.075,0.021l0.149,0.043l1.197,0.35l1.286,0.239c0.898,0.154,1.887,0.275,2.769,0.465
				l0.728,0.142l0.685,0.194l1.369,0.388c0.925,0.249,1.81,0.532,2.682,0.827c0.877,0.286,1.772,0.59,2.6,0.828
				c0.855,0.239,1.657,0.541,2.554,0.733l2.713,0.55l0.085,0.017c-0.007,0,0.135,0.025,0.006,0.004l0.166,0.012l0.332,0.023
				l0.664,0.047l1.328,0.096c0.875,0.09,1.789,0.085,2.703,0.08l5.633,0.022c0.938,0.039,1.844,0.145,2.768,0.214l0.689,0.058
				l0.346,0.029l0.248,0.024l0.169,0.023l1.355,0.187c0.904,0.131,1.808,0.25,2.709,0.332c0.899,0.087,1.811,0.208,2.688,0.234
				c0.896,0.031,1.746,0.134,2.679,0.11c0.898-0.019,1.898,0,2.714-0.048l5.379-0.545l5.354-1.002l5.34-1.281l5.358-1.38
				c1.672-0.463,3.125-1.062,4.341-2.146c1.22-1.054,2.152-2.508,3.09-4.061c0.895-1.577,1.979-3.152,3.018-4.708
				c1.04-1.577,2.113-3.04,3.168-4.565c0.487-0.717,0.941-1.5,1.409-2.25c0.403-0.79,0.862-1.553,1.224-2.362
				c1.512-3.188,2.53-6.683,2.998-10.113l0.278-2.743c0.091-1.005,0.275-1.976,0.491-2.916c0.437-1.873,1.009-3.638,1.357-5.32
				c0.069-0.418,0.172-0.778,0.221-1.243l0.078-0.688l0.04-0.344l0.01-0.086c0.005-0.042-0.006,0.059-0.001-0.024l0.004-0.17
				l0.059-2.72l0.061-2.72l0.028-1.36l-0.056-1.372l-0.221-5.487l-0.313-5.563c-0.13-1.859-0.14-3.697-0.199-5.543l-0.075-2.767
				c-0.025-0.999-0.011-1.857-0.019-2.792c-0.023-3.679-0.079-7.423,0.255-11.206c0.053-0.935,0.228-1.919,0.339-2.876
				c0.145-0.949,0.335-1.805,0.501-2.755c0.021-0.171,0.063-0.349,0.077-0.514c-0.001-0.159,0.004-0.319,0.012-0.475
				c-0.027-0.088-0.033-0.171-0.02-0.267c-0.045-0.168-0.155-0.417-0.229-0.622l-0.031-0.081c0.131,0.284,0.009,0.018,0.026,0.053
				l-0.093-0.215l-0.177-0.434c-0.135-0.285-0.167-0.598-0.239-0.9c-0.077-0.292-0.085-0.639-0.093-0.977
				c-0.002-0.158-0.01-0.361,0.002-0.481l0.038-0.344l0.379-2.788c0.113-0.893,0.275-1.781,0.351-2.676l0.153-2.691
				c0.051-0.896,0.135-1.798,0.076-2.678c-0.083-1.782,0.004-3.505-0.287-5.368l-0.318-2.75l-0.072-0.662l-0.075-0.832
				c0.008-0.525-0.008-1.074,0.058-1.566c0.192-2.033,0.666-3.798,0.92-5.549l0.188-1.335c0.06-0.454,0.078-0.837,0.122-1.259
				l-0.032-1.151c-0.083-0.364-0.157-0.728-0.224-1.095l1.618,1.023l-4.093,0.514c-1.368,0.153-2.749,0.224-4.123,0.339
				c-2.757,0.144-5.627,0.205-8.288,0.016l-1.959-0.091c-0.204-0.011-0.292,0.042-0.26,0.021c0.039-0.044,0.131-0.113,0.086-0.092
				c-0.045-0.079,0.001,0.955,0.014,1.622c0.02,0.728,0.052,1.458-0.038,2.169c-0.18,2.879-0.864,5.613-1.511,8.234
				c-0.311,1.309-0.649,2.631-0.878,3.871l-0.191,0.942l-0.136,1.006l-0.291,2.079c-0.28,1.559-0.863,2.904-1.421,4.164
				c-0.578,1.263-1.068,2.392-1.591,3.697c-1.026,2.528-2.131,5.063-3.443,7.521c-1.281,2.48-2.824,4.825-4.694,7.019
				c-0.484,0.537-0.966,1.108-1.458,1.611l-1.497,1.377l-0.374,0.344l-0.094,0.086c-0.145,0.124-0.101,0.081-0.16,0.129
				l-0.212,0.162l-0.847,0.646c-0.554,0.447-1.15,0.832-1.748,1.213c-2.384,1.539-4.966,2.738-7.625,3.641
				c-1.319,0.453-2.701,0.824-4.067,1.155l-1.991,0.417l-2.096,0.327c-2.739,0.39-5.54,0.586-8.241,0.677l-1.016,0.04
				c-0.369,0.009-0.728-0.016-1.091-0.023c-0.722-0.048-1.461,0.007-2.164-0.139l-2.132-0.332l-2.137-0.578l-0.533-0.148
				l-0.473-0.188l-0.945-0.375l-0.945-0.375l-0.979-0.462c-0.156-0.079-0.254-0.112-0.34-0.147c-0.085-0.039-0.17-0.086-0.364-0.124
				l-0.247-0.06c0.006-0.001-0.188-0.041-0.018-0.009l-0.131-0.028l-0.523-0.113l-2.092-0.457c-0.708-0.115-1.364-0.412-2.04-0.641
				c-0.666-0.254-1.355-0.459-2.001-0.757c-1.253-0.671-2.589-1.214-3.732-2.053c-0.588-0.393-1.19-0.77-1.764-1.179l-1.643-1.322
				c-0.271-0.222-0.552-0.437-0.816-0.666l-0.762-0.718l-1.521-1.437c-0.936-1.019-1.954-2.027-2.817-3.058l-1.325-1.542
				c-0.469-0.55-0.885-1.081-1.316-1.611c-0.842-1.063-1.674-2.063-2.561-2.953c-0.223-0.219-0.462-0.406-0.691-0.612
				c-0.227-0.209-0.462-0.404-0.717-0.557l-0.742-0.503l-0.736-0.351l-0.364-0.187l-0.486-0.143l-0.977-0.284
				c0.005,0-0.182-0.049-0.021-0.01l-0.118-0.021l-0.236-0.042l-0.473-0.085c-0.316-0.066-0.626-0.091-0.938-0.129
				c-1.242-0.138-2.455-0.118-3.562,0.179l-0.81,0.272c-0.23,0.12-0.457,0.237-0.692,0.345c-0.238,0.113-0.542,0.37-0.81,0.548
				l-0.207,0.147c-0.002,0-0.143,0.104-0.031,0.018l-0.102,0.078l-0.404,0.311l-3.24,2.487l-3.225,2.491l-1.607,1.247l-0.804,0.624
				l-0.401,0.312l-0.201,0.156c-0.064,0.05-0.03,0.022-0.046,0.043l-0.047,0.052c-0.29,0.281-0.359,0.46-0.478,1.141l-0.107,0.567
				c-0.048,0.217-0.168,0.562-0.269,0.792l-0.122,0.223l-0.061,0.112c-0.002,0.013-0.174,0.283-0.146,0.223l-0.37,0.455
				c-0.979,1.223-2.25,2.124-3.452,2.823l-1.754,1.027c-0.297,0.168-0.55,0.333-0.79,0.495c-0.247,0.159-0.494,0.311-0.766,0.543
				l-1.602,1.282c-0.548,0.476-1.16,0.854-1.771,1.233c-2.45,1.519-5.167,2.461-7.87,3.108c-1.35,0.332-2.739,0.588-4.062,0.81
				c-0.643,0.124-1.412,0.209-2.121,0.286c-0.722,0.032-1.444,0.066-2.156,0.027c-1.426-0.057-2.829-0.233-4.192-0.486
				c-1.375-0.259-2.69-0.517-4.037-0.894c-2.694-0.642-5.304-1.563-7.844-2.347l-1.907-0.607l-1.961-0.529l-1.93-0.514
				c-0.688-0.203-1.399-0.347-2.065-0.605c-2.703-0.961-5.131-2.452-7.342-4.106c-2.195-1.633-4.349-3.438-6.235-5.48
				c-1.894-2.027-3.579-4.209-5.187-6.411l-2.383-3.307c-0.807-1.139-1.565-2.421-2.085-3.712c-1.124-2.602-1.781-5.208-2.699-7.734
				c-0.975-2.705-1.195-5.575-1.14-8.332c0.057-2.773,0.368-5.469,0.473-8.126l0.059-2.021l0.102-2.096l0.424-4.027l0.1-0.984
				l0.033-1.016l0.076-2.061c0.089-1.507,0.605-2.915,1.232-4.175c0.614-1.267,1.406-2.42,1.974-3.573
				c0.614-1.154,1.105-2.395,1.595-3.644c0.482-1.259,0.935-2.54,1.471-3.815c0.246-0.636,0.557-1.279,0.86-1.92
				c0.298-0.652,0.655-1.199,0.979-1.804c1.547-2.371,3.25-4.519,5.036-6.546l2.616-3.106c0.9-1.064,1.845-2.101,2.926-2.992
				c2.114-1.84,4.609-3.206,7.221-4.149c2.614-0.955,5.346-1.462,8.063-1.809c2.728-0.333,5.445-0.459,8.168-0.509
				c5.443-0.242,10.881-0.07,16.285-0.127l4.05-0.026l2.026-0.021l2.03-0.122c2.714-0.155,5.399-0.345,8.137-0.471
				c2.762-0.104,5.47,0.182,8.171,0.346c2.695,0.133,5.406,0.161,8.109,0.247l4.059,0.109c1.352,0.042,2.711-0.019,4.065-0.024
				l8.136-0.107c5.445-0.186,10.881,0.399,16.275,0.742c5.38,0.376,10.842,0.227,16.154-0.532l1.992-0.389
				c0.682-0.098,1.351-0.303,2.043-0.304c0.688-0.036,1.377-0.11,2.064-0.04l1.031,0.056c0.342,0.034,0.68,0.103,1.02,0.153
				c2.704,0.431,5.326,1.487,7.65,2.862c4.67,2.831,8.985,6.159,13.089,9.713c4.238,3.356,7.813,7.903,9.12,13.264l1.685,7.969
				l1.769,7.929l-0.1-0.111c1.898,0.746,3.846,1.383,5.847,1.748c2.003,0.368,4.046,0.444,6.056,0.12
				c1.017-0.141,1.994-0.413,3.002-0.639c0.995-0.263,2.013-0.383,3.02-0.573c0.507-0.092,1.025-0.165,1.49-0.281
				c0.463-0.158,0.923-0.368,1.261-0.723c0.721-0.684,0.995-1.69,0.978-2.695c0.016-1.003-0.088-2.057-0.012-3.077l0.113-1.54
				l0.21-1.527c0.295-2.032,0.738-4.036,1.049-6.055c0.186-1.008,0.262-2.021,0.372-3.034l0.081-3.067l0.102-6.15
				c0.037-2.05,0.252-4.088,0.37-6.133l0.209-3.067l0.1-3.063c-0.019-2.044-0.117-4.089-0.152-6.144
				c-0.058-1.027,0.019-2.049,0.068-3.072c0.045-1.021,0.105-2.05,0.185-3.066c0.185-4.091-0.466-8.161-0.808-12.241
				c-0.085-1.016-0.178-2.051-0.072-3.075c0.068-1.024,0.226-2.039,0.264-3.059c0.073-1.021-0.035-2.045-0.334-3.014l-0.279-0.715
				c-0.087-0.227-0.209-0.486-0.195-0.752c0.033-0.55,0.421-0.958,0.745-1.34l0.013-0.014l0.019,0
				c0.178,0.007,0.354,0.028,0.53,0.003l0.53-0.043l1.06-0.086l0.023-0.002l0.01,0.014l0.564,0.726
				c0.146,0.269,0.313,0.528,0.441,0.805c0.247,0.561,0.438,1.143,0.575,1.738c0.142,0.594,0.246,1.195,0.354,1.794l0.335,1.795
				l0.312,1.802c0.123,0.598,0.166,1.207,0.227,1.813c0.054,0.607,0.13,1.212,0.166,1.821l0.072,1.826
				c0.059,1.218,0.018,2.437,0.023,3.655l-0.093,3.653c-0.041,1.218-0.068,2.436-0.085,3.654
				C213.823,73.367,213.877,74.585,213.881,75.803z"/>
			<path d="M181.729,132.163c-0.221,2.447-0.721,4.863-1.388,7.226l-1.935,7.109l-0.957,3.557c-0.082,0.298-0.149,0.59-0.217,0.889
				l-0.086,0.917c-0.086,0.611-0.205,1.216-0.363,1.812c-0.648,2.39-1.939,4.523-3.132,6.659c-0.599,1.071-1.174,2.156-1.648,3.285
				c-0.475,1.131-0.922,2.278-1.458,3.387c-0.532,1.11-1.144,2.188-1.89,3.176c-0.371,0.496-0.786,0.957-1.225,1.396
				c-0.446,0.434-0.929,0.816-1.395,1.214c-1.896,1.578-3.991,2.926-6.258,3.92c-0.563,0.256-1.152,0.45-1.729,0.672
				c-0.594,0.172-1.182,0.371-1.78,0.521c-1.187,0.309-2.385,0.601-3.59,0.859c-2.408,0.517-4.857,0.884-7.329,1.002
				c-2.482,0.118-4.942-0.068-7.398-0.414c-2.447-0.354-4.869-0.917-7.224-1.695l-1.753-0.622l-1.722-0.704
				c-1.125-0.484-2.256-0.896-3.412-1.357c-1.15-0.461-2.303-0.979-3.381-1.657l-0.803-0.543l-0.727-0.566
				c-0.485-0.366-0.962-0.81-1.435-1.217c-1.842-1.687-3.476-3.55-5.146-5.326c-1.788-1.8-3.03-4.015-4.617-5.74
				c-0.787-0.874-1.686-1.6-2.688-2.121c-0.272-0.136-0.468-0.209-0.816-0.372l-0.208-0.098l-0.269-0.162
				c-0.188-0.115-0.304-0.22-0.45-0.333c-0.531-0.458-0.94-0.937-1.353-1.376l0.357,0.215c-0.504-0.129-1.005-0.289-1.501-0.488
				l0.559,0.011c-0.721,0.271-1.426,0.258-1.991,0.26c-0.285,0.001-0.553,0.004-0.785,0.032c-0.314,0.027-0.567,0.066-0.893,0.081
				c-1.27,0.072-2.416-0.022-3.527,0.006c-1.098,0.036-2.138,0.187-3.049,0.644c-0.461,0.212-0.89,0.5-1.292,0.829
				c-0.211,0.149-0.39,0.351-0.584,0.528l-0.62,0.608c-0.831,0.814-1.635,1.644-2.49,2.446l-2.582,2.392
				c-1.727,1.558-3.42,3.134-5.085,4.721c-0.162,0.161-0.418,0.414-0.571,0.593c-0.168,0.186-0.342,0.393-0.517,0.609
				c-0.346,0.432-0.682,0.882-1.023,1.351c-0.685,0.933-1.398,1.923-2.3,2.825c-0.455,0.444-0.938,0.88-1.488,1.243
				c-0.564,0.384-1.095,0.654-1.573,0.935c-0.967,0.563-1.95,1.185-2.952,1.795c-1.998,1.22-4.166,2.428-6.621,3.051
				c-0.398,0.097-0.602,0.126-0.911,0.192c-0.29,0.057-0.666,0.088-0.995,0.127c-0.666,0.053-1.308,0.045-1.96-0.008
				c-1.296-0.117-2.551-0.457-3.718-0.924l0.765,0.061c-0.607,0.136-1.224,0.253-1.847,0.295c-0.311,0.037-0.622,0.031-0.934,0.046
				l-0.059,0.002l-0.113-0.003l-0.105-0.004l-0.209-0.009l-0.42-0.018c-0.147-0.01-0.266-0.002-0.436-0.027l-0.491-0.065
				c-0.325-0.046-0.661-0.083-0.96-0.168c-0.306-0.08-0.617-0.137-0.918-0.24l-0.898-0.318l1.399-0.262l-0.396,0.389
				c-0.281,0.242-0.544,0.418-0.859,0.546c-0.629,0.288-1.497,0.269-2.132-0.058c-0.637-0.32-1.072-0.82-1.343-1.362
				c-0.074-0.134-0.122-0.277-0.178-0.418l-0.002-0.006l-0.001-0.002c0.056,0.152,0.016,0.042,0.027,0.075l-0.001-0.002
				l-0.003-0.008l-0.006-0.016l-0.013-0.032l-0.026-0.063l-0.052-0.126c-0.034-0.088-0.07-0.176-0.091-0.192
				c-0.023-0.036-0.044-0.072-0.063-0.11l1.097,0.645c-0.975-0.025-1.955-0.168-2.898-0.426l0.283,0.047l-0.973-0.089
				c-0.323-0.046-0.647-0.109-0.972-0.166c-0.322-0.072-0.643-0.166-0.963-0.25c-0.317-0.104-0.631-0.225-0.946-0.339l0.361,0.097
				c-2.57-0.332-4.988-1.098-7.285-2.228c-0.575-0.28-1.137-0.602-1.69-0.947c-0.275-0.178-0.551-0.357-0.818-0.557
				c-0.136-0.095-0.27-0.196-0.4-0.304l-0.198-0.159l-0.099-0.08l-0.013-0.01l-0.006-0.005c-0.015-0.012,0.104,0.084,0.051,0.042
				l-0.022-0.017l-0.045-0.034c-0.204-0.169-0.566-0.294-1.146-0.442c-0.56-0.152-1.283-0.313-2.021-0.731
				c-0.189-0.106-0.346-0.207-0.553-0.363l-0.354-0.276l-0.709-0.552c-0.478-0.402-0.981-0.865-1.452-1.299
				c-0.892-0.879-1.74-1.786-2.538-2.694c-0.808-0.907-1.577-1.811-2.367-2.668c-0.389-0.443-0.796-0.836-1.193-1.255l-0.335-0.347
				l-0.157-0.164l-0.208-0.247c-0.274-0.326-0.513-0.707-0.713-1.2l0.284,0.477c-0.393-0.449-0.758-0.928-1.076-1.442
				c-0.149-0.257-0.313-0.53-0.436-0.784l-0.347-0.688c-0.469-0.903-0.919-1.853-1.358-2.825c-0.462-0.959-0.832-1.934-1.246-2.901
				c-0.396-0.973-0.742-1.968-1.114-2.951l0.222,0.413l-1.238-1.637l-0.952-1.258l1.327-0.916c0.122-0.083,0.249-0.177,0.381-0.292
				l-0.441,1.553c-0.989-3.229-1.703-6.575-1.929-10.01c-0.112-1.716-0.098-3.454,0.094-5.191c0.097-0.868,0.242-1.734,0.43-2.596
				c0.194-0.86,0.446-1.71,0.739-2.549l0.425,1.614c-0.603-0.542-0.772-1.146-0.871-1.59c-0.086-0.456-0.09-0.843-0.079-1.213
				c0.033-0.73,0.154-1.375,0.303-2.005c0.144-0.623,0.363-1.264,0.541-1.789c0.18-0.548,0.367-1.102,0.586-1.673
				c0.83-2.262,1.77-4.414,2.764-6.549c1.002-2.135,2.006-4.208,3.088-6.317c0.541-1.054,1.132-2.108,1.788-3.139
				c0.321-0.518,0.682-1.022,1.046-1.522l0.576-0.737l0.545-0.67c1.435-1.771,2.844-3.671,4.494-5.448
				c1.643-1.769,3.59-3.451,5.966-4.484c1.179-0.518,2.442-0.856,3.717-1.007c0.317-0.041,0.637-0.06,0.955-0.083l0.891-0.027
				l1.742-0.064c1.167-0.043,2.229-0.175,3.366-0.288c1.135-0.152,2.269-0.292,3.413-0.48c2.28-0.351,4.591-0.747,6.935-1.033
				c2.343-0.313,4.758-0.383,7.052-0.469l13.944-0.549c2.32-0.045,4.689-0.129,7.008-0.078c2.361,0.067,4.692,0.195,7.009,0.332
				c2.317,0.122,4.628,0.258,6.927,0.246c1.153,0.026,2.295-0.052,3.442-0.086l3.491-0.17c4.659-0.2,9.327-0.261,13.972-0.306
				c4.686-0.157,9.35,0.465,13.956,0.604c2.317,0.079,4.593-0.028,6.909-0.332c2.296-0.299,4.686-0.292,7.001-0.287
				c2.33,0.038,4.651,0.127,6.972,0.131c1.157-0.035,2.319-0.014,3.471-0.12c1.132-0.056,2.352-0.262,3.525,0.048
				c2.35,0.555,4.239,2.064,6.104,3.417c1.881,1.362,3.771,2.727,5.558,4.225c3.6,2.946,6.879,6.332,9.432,10.233
				c1.247,1.98,2.008,4.217,2.563,6.471c0.551,2.263,0.878,4.569,1.257,6.862c0.366,2.296,0.725,4.594,0.986,6.905
				c0.166,1.146,0.136,2.339,0.592,3.422C181.302,129.885,181.851,130.979,181.729,132.163z M181.729,132.163
				c0.117-1.184-0.435-2.273-0.853-3.342c-0.461-1.084-0.436-2.28-0.605-3.424c-0.271-2.309-0.638-4.605-1.012-6.899
				c-0.388-2.292-0.725-4.596-1.283-6.852c-0.563-2.248-1.33-4.472-2.575-6.433c-2.549-3.886-5.857-7.228-9.48-10.12
				c-1.795-1.471-3.693-2.81-5.593-4.154c-1.88-1.337-3.772-2.795-6.011-3.292c-1.105-0.282-2.239-0.074-3.415-0.001
				c-1.164,0.119-2.331,0.112-3.496,0.16l-6.979-0.011c-2.33,0.04-4.605,0.069-6.92,0.413c-2.29,0.345-4.671,0.505-7.003,0.466
				c-4.689-0.057-9.295-0.587-13.918-0.344c-4.653,0.131-9.285,0.279-13.914,0.564L95.2,89.128
				c-1.176,0.057-2.354,0.159-3.527,0.154c-2.353,0.056-4.689-0.038-7.017-0.117c-2.328-0.094-4.643-0.176-6.931-0.199
				c-2.333-0.008-4.61,0.119-6.938,0.207l-13.922,0.809c-2.35,0.133-4.589,0.237-6.853,0.582c-2.268,0.32-4.534,0.752-6.843,1.151
				c-1.146,0.211-2.318,0.378-3.484,0.556c-1.173,0.142-2.42,0.308-3.576,0.371l-1.741,0.085l-0.853,0.036
				c-0.261,0.022-0.522,0.04-0.78,0.077c-1.034,0.135-2.035,0.416-2.981,0.843c-1.899,0.85-3.553,2.275-5.044,3.919
				c-1.499,1.648-2.848,3.502-4.317,5.362l-0.547,0.688l-0.491,0.643c-0.313,0.444-0.627,0.888-0.912,1.362
				c-0.583,0.937-1.12,1.919-1.63,2.938c-1.012,2.043-2.029,4.158-2.996,6.236c-0.962,2.083-1.872,4.202-2.637,6.309
				c-0.195,0.515-0.38,1.063-0.561,1.62c-0.191,0.577-0.349,1.038-0.465,1.549c-0.118,0.5-0.202,1.005-0.219,1.438
				c-0.006,0.21,0.005,0.407,0.027,0.524c0.02,0.119,0.067,0.088-0.093-0.063l0.425,1.615c-0.245,0.717-0.459,1.446-0.626,2.193
				c-0.159,0.749-0.284,1.507-0.366,2.275c-0.164,1.537-0.173,3.103-0.064,4.671c0.221,3.138,0.895,6.274,1.813,9.341l0.277,0.926
				l-0.719,0.627c-0.227,0.198-0.479,0.389-0.752,0.569l0.376-2.173l1.253,1.67l0.132,0.176l0.09,0.238
				c0.354,0.94,0.679,1.891,1.054,2.823c0.393,0.924,0.749,1.875,1.178,2.77c0.403,0.903,0.828,1.814,1.304,2.739l0.344,0.69
				c0.1,0.21,0.206,0.376,0.311,0.565c0.223,0.361,0.481,0.703,0.763,1.03l0.284,0.477c0.034,0.057,0.097,0.2,0.212,0.329l0.076,0.1
				l0.153,0.161l0.286,0.3c0.426,0.45,0.877,0.893,1.276,1.351c0.828,0.907,1.607,1.829,2.389,2.712
				c0.778,0.894,1.564,1.736,2.373,2.542c0.41,0.376,0.782,0.73,1.216,1.103l0.706,0.554l0.354,0.277
				c0.031,0.023,0.125,0.09,0.197,0.128c0.305,0.182,0.758,0.315,1.35,0.475c0.567,0.159,1.391,0.369,2.133,0.951l0.369,0.298
				c0.099,0.084,0.202,0.165,0.312,0.242c0.21,0.161,0.435,0.311,0.66,0.46c0.459,0.292,0.934,0.573,1.432,0.822
				c1.981,1.009,4.186,1.727,6.361,2.028l0.149,0.021l0.212,0.076c0.233,0.084,0.463,0.178,0.698,0.259
				c0.243,0.063,0.482,0.139,0.728,0.197c0.251,0.043,0.499,0.097,0.752,0.137l0.77,0.08l0.186,0.019l0.098,0.028
				c0.736,0.209,1.492,0.329,2.26,0.358l0.771,0.03l0.326,0.616l0.195,0.37c0.073,0.141,0.104,0.222,0.135,0.303l0.127,0.327
				c0.016,0.026,0.017,0.06,0.035,0.083c0.048,0.111,0.127,0.172,0.142,0.182c0.02-0.004-0.061,0.006-0.021-0.002
				c0.024-0.003,0.062-0.041,0.063-0.025l0.387-0.371l0.582-0.56l0.817,0.298l0.684,0.249c0.229,0.083,0.471,0.125,0.705,0.191
				c0.24,0.074,0.465,0.094,0.692,0.131l0.341,0.056c0.106,0.023,0.271,0.019,0.403,0.03l0.419,0.022l0.21,0.011l0.105,0.006
				l0.026,0.001l0.013,0.001h0.007l0.003,0c-0.026,0,0.062,0.001-0.06-0.001h0.002l0.047-0.001c0.248-0.011,0.498,0,0.744-0.029
				c0.497-0.026,0.985-0.118,1.473-0.214l0.425-0.083l0.341,0.144c0.981,0.414,1.99,0.702,3.008,0.813
				c0.506,0.051,1.027,0.065,1.521,0.036c0.246-0.03,0.452-0.027,0.734-0.076c0.259-0.05,0.632-0.11,0.797-0.151
				c2.078-0.482,4.055-1.51,6.032-2.671c0.993-0.58,1.985-1.183,3.038-1.77c0.529-0.295,1.039-0.55,1.439-0.814
				c0.428-0.268,0.817-0.608,1.2-0.966c0.759-0.729,1.433-1.614,2.138-2.542c0.351-0.463,0.719-0.938,1.108-1.406
				c0.194-0.232,0.397-0.467,0.625-0.707c0.233-0.254,0.396-0.405,0.649-0.65c1.729-1.587,3.467-3.146,5.219-4.668l2.576-2.297
				c0.854-0.771,1.685-1.596,2.527-2.392l0.636-0.601c0.237-0.211,0.454-0.44,0.721-0.626c0.502-0.396,1.054-0.751,1.652-1.014
				c1.189-0.566,2.515-0.722,3.728-0.735c1.212-0.005,2.389,0.104,3.441,0.063c0.256-0.003,0.58-0.044,0.845-0.061
				c0.345-0.034,0.66-0.028,0.955-0.024c0.59,0.015,1.072,0.004,1.451-0.129l0.289-0.102l0.27,0.113
				c0.409,0.172,0.835,0.318,1.275,0.44l0.221,0.061l0.138,0.154c0.417,0.465,0.806,0.925,1.201,1.276
				c0.094,0.075,0.208,0.176,0.283,0.221l0.121,0.084l0.206,0.102c0.205,0.104,0.58,0.262,0.853,0.408
				c1.168,0.633,2.187,1.503,3.024,2.468c1.698,1.935,2.842,4.096,4.504,5.819c1.659,1.832,3.237,3.697,4.99,5.362
				c0.45,0.402,0.863,0.808,1.352,1.191l0.716,0.58l0.715,0.5c0.991,0.649,2.077,1.166,3.197,1.638
				c1.115,0.47,2.285,0.921,3.407,1.43l1.675,0.721l1.708,0.642c2.296,0.806,4.665,1.404,7.071,1.798
				c2.398,0.383,4.855,0.616,7.282,0.543c2.438-0.065,4.866-0.418,7.265-0.9c2.386-0.526,4.82-0.984,7.056-1.952
				c2.243-0.955,4.334-2.266,6.229-3.809c1.996-1.446,3.46-3.462,4.521-5.67c0.542-1.098,1.009-2.233,1.485-3.366
				c0.482-1.134,1.064-2.22,1.667-3.291c1.203-2.134,2.495-4.253,3.148-6.626c0.16-0.592,0.28-1.191,0.368-1.796l0.089-0.917
				c0.068-0.3,0.141-0.606,0.223-0.9l0.97-3.554l1.963-7.102C180.99,137.021,181.498,134.61,181.729,132.163z"/>
		</g>
	</g>
	<g>
		<path fill-rule="evenodd" clip-rule="evenodd" d="M125.063,20.749c-0.523-6.707-4.292-11.58-9.707-15.044
			c-2.771-1.773-5.934-2.791-9.592-1.214c-1.063,0.458-2.303,0.94-3.745,1.109c-0.732,0.96-1.654,1.783-2.768,2.398
			C98.988,8.438,98.61,8.819,98.25,9.21c-3.725,4.039-5.428,8.708-5.223,14.296c0.297,8.03,7.252,13.617,13.648,14.37
			c6.176,0.727,10.655-2.833,14.353-6.963C123.435,28.224,125.372,24.715,125.063,20.749z M109.456,32.655
			c-2.738,0.182-6.322,0.4-7.798-3.436c-0.396-1.028-1.488-1.792-2.272-2.667c-3.065-3.413-3.329-4.486-1.332-8.346
			c1.905-3.686,4.162-7.102,8.485-8.438c1.058-0.326,2.077-0.678,3.873-0.618c3.283,0.792,6.391,3.015,8.348,6.431
			C123.333,23.574,116.514,32.186,109.456,32.655z"/>
		<g>
			<path d="M125.063,20.749l-0.305-2.016c-0.082-0.677-0.347-1.312-0.511-1.968c-0.151-0.664-0.459-1.273-0.726-1.895
				c-0.139-0.309-0.267-0.624-0.413-0.928l-0.536-0.863l-0.537-0.86c-0.179-0.286-0.416-0.532-0.621-0.8
				c-0.436-0.516-0.817-1.074-1.324-1.525c-0.494-0.458-0.929-0.977-1.469-1.383c-0.534-0.412-1.056-0.834-1.595-1.232l-1.694-1.088
				c-0.546-0.316-1.184-0.695-1.768-0.918c-0.582-0.271-1.214-0.456-1.83-0.62l-0.938-0.178l-0.942-0.051
				c-0.313-0.032-0.624,0.044-0.934,0.058c-0.311,0.01-0.614,0.077-0.915,0.162c-0.61,0.109-1.183,0.375-1.757,0.608
				c-0.316,0.129-0.618,0.285-0.929,0.426l-1.018,0.414l-1.057,0.335l-1.103,0.231l0.722-0.412l-0.638,0.81l-0.723,0.746l-0.8,0.67
				l-0.868,0.585l0.453-0.438c-0.479,0.779-1.049,1.352-1.385,1.805c-0.407,0.538-0.93,1.093-1.223,1.615
				c-0.334,0.533-0.704,1.025-0.978,1.62c-0.304,0.567-0.597,1.137-0.814,1.739l-0.367,0.884l-0.271,0.919
				c-0.209,0.604-0.32,1.236-0.433,1.867c-0.236,1.259-0.292,2.554-0.301,3.854l-0.009,0.487v0.03
				c-0.002-0.03,0.004,0.088-0.005-0.063l0.001,0.016l0.005,0.065l0.011,0.129l0.021,0.259l0.087,1.032
				c0.129,0.574,0.182,1.137,0.393,1.742c0.337,1.195,0.853,2.345,1.521,3.414c0.652,1.079,1.473,2.069,2.415,2.936
				c0.923,0.887,1.955,1.687,3.09,2.313c1.13,0.631,2.332,1.151,3.588,1.494c1.252,0.321,2.604,0.473,3.876,0.403
				c2.626-0.118,5.195-1.203,7.398-2.811c1.107-0.798,2.158-1.697,3.128-2.679c0.982-0.971,1.896-2.014,2.691-3.136
				c0.803-1.126,1.383-2.396,1.827-3.703C124.973,23.527,125.111,22.136,125.063,20.749z M125.063,20.749
				c0.073,1.385-0.04,2.784-0.436,4.123c-0.411,1.33-1.015,2.594-1.744,3.783c-0.749,1.182-1.615,2.281-2.555,3.311
				c-0.94,1.029-1.911,2.042-2.991,2.951c-2.139,1.814-4.752,3.272-7.679,3.69c-1.487,0.216-2.934,0.188-4.401-0.04
				c-1.458-0.247-2.874-0.707-4.215-1.332c-1.349-0.612-2.604-1.428-3.759-2.374c-1.151-0.951-2.181-2.067-3.033-3.318
				c-0.456-0.606-0.802-1.287-1.175-1.951c-0.311-0.697-0.628-1.394-0.832-2.134c-0.257-0.707-0.384-1.526-0.541-2.309l-0.105-1.04
				l-0.025-0.259l-0.013-0.129l-0.007-0.065l-0.007-0.146l-0.002-0.553c-0.04-1.472,0.083-2.962,0.375-4.425
				c0.144-0.733,0.291-1.465,0.544-2.173l0.341-1.07l0.445-1.031c0.275-0.699,0.661-1.34,1.043-1.98
				c0.347-0.652,0.833-1.259,1.276-1.874c0.446-0.656,0.916-1.087,1.374-1.632c0.539-0.625,0.981-1.011,1.271-1.394l0.242-0.319
				l0.211-0.119l0.695-0.392l0.652-0.464l0.606-0.533l0.553-0.597l0.335-0.362l0.388-0.049l0.905-0.115l0.912-0.196l0.903-0.27
				c0.32-0.111,0.639-0.238,0.962-0.336c0.709-0.218,1.404-0.456,2.15-0.524c0.364-0.064,0.729-0.106,1.103-0.087
				c0.369,0.014,0.739-0.029,1.103,0.038l1.084,0.165l1.044,0.301c0.675,0.248,1.334,0.513,1.955,0.875
				c0.655,0.339,1.168,0.696,1.765,1.11l1.646,1.251c0.521,0.452,1.021,0.927,1.529,1.387c0.512,0.458,0.942,1,1.416,1.495
				c0.489,0.482,0.852,1.073,1.265,1.618c0.193,0.282,0.419,0.542,0.586,0.841l0.498,0.897l0.499,0.893
				c0.143,0.31,0.266,0.628,0.399,0.942c0.258,0.631,0.555,1.247,0.696,1.918c0.153,0.663,0.406,1.305,0.477,1.982L125.063,20.749z"
				/>
			<path d="M109.456,32.655c-1.589,0.108-3.23,0.22-4.782-0.287c-0.768-0.252-1.5-0.673-2.068-1.278
				c-0.587-0.581-0.946-1.382-1.297-2.07c-0.381-0.617-1.016-1.112-1.621-1.642c-0.634-0.55-1.172-1.132-1.744-1.732
				c-0.554-0.606-1.115-1.248-1.513-2.09c-0.418-0.834-0.512-1.906-0.317-2.798c0.172-0.904,0.483-1.702,0.799-2.474
				c0.342-0.816,0.66-1.472,1.035-2.232l0.592-1.124l0.662-1.09c0.213-0.368,0.499-0.701,0.758-1.049
				c0.258-0.349,0.527-0.691,0.845-1.004c0.579-0.669,1.277-1.238,1.988-1.798c0.771-0.469,1.536-0.985,2.395-1.283l0.633-0.249
				c0.111-0.042,0.2-0.082,0.329-0.124l0.287-0.089c0.357-0.12,0.809-0.237,1.267-0.348c0.452-0.107,0.927-0.143,1.388-0.207
				l1.372-0.021l0.15-0.002l0.148,0.043c0.761,0.22,1.515,0.459,2.226,0.799c0.365,0.146,0.711,0.331,1.046,0.536
				c0.336,0.201,0.684,0.382,0.99,0.625c0.313,0.231,0.635,0.453,0.937,0.695l0.866,0.776c0.541,0.548,1.09,1.098,1.517,1.738
				c0.218,0.316,0.456,0.616,0.651,0.943l0.566,0.992l0.174,0.315l0.102,0.244l0.203,0.489c0.127,0.341,0.279,0.622,0.382,1.015
				c0.199,0.777,0.438,1.545,0.466,2.303c0.117,0.754,0.052,1.516,0.015,2.265c-0.028,0.374-0.126,0.741-0.188,1.108l-0.104,0.548
				l-0.175,0.529c-0.124,0.349-0.217,0.707-0.367,1.042l-0.465,0.996c-0.147,0.333-0.373,0.627-0.555,0.939
				c-0.185,0.313-0.384,0.614-0.621,0.889c-0.229,0.28-0.441,0.57-0.68,0.838l-0.744,0.776c-0.237,0.268-0.538,0.471-0.804,0.708
				c-0.269,0.234-0.545,0.458-0.851,0.645c-0.299,0.192-0.583,0.407-0.894,0.578l-0.938,0.5c-0.311,0.171-0.653,0.271-0.978,0.41
				c-0.324,0.144-0.661,0.246-1.006,0.329C110.86,32.5,110.154,32.563,109.456,32.655z M109.456,32.655
				c0.698-0.102,1.401-0.173,2.07-0.404c0.343-0.084,0.676-0.196,0.992-0.354c0.317-0.151,0.653-0.263,0.954-0.444l0.906-0.537
				c0.293-0.191,0.558-0.425,0.837-0.634c0.284-0.204,0.538-0.443,0.784-0.692c0.241-0.251,0.518-0.467,0.729-0.745l0.662-0.803
				c0.211-0.274,0.376-0.583,0.564-0.871c0.195-0.285,0.351-0.592,0.491-0.906c0.137-0.315,0.317-0.608,0.418-0.935l0.325-0.966
				c0.104-0.322,0.136-0.664,0.208-0.991l0.094-0.493l0.024-0.502c0.009-0.333,0.055-0.663,0.034-0.993
				c-0.062-0.661-0.087-1.314-0.279-1.944c-0.109-0.655-0.395-1.208-0.604-1.779c-0.103-0.282-0.33-0.606-0.487-0.909l-0.257-0.463
				l-0.129-0.231l-0.004-0.007c0.07,0.133,0.017,0.034,0.031,0.062l-0.009-0.012l-0.019-0.025l-0.036-0.049l-0.073-0.099
				l-0.576-0.788c-0.195-0.258-0.43-0.486-0.641-0.729c-0.205-0.249-0.438-0.471-0.681-0.682c-0.239-0.212-0.449-0.457-0.709-0.644
				l-0.755-0.583c-0.263-0.178-0.538-0.336-0.804-0.505c-0.26-0.181-0.554-0.301-0.833-0.442c-0.281-0.139-0.557-0.288-0.854-0.386
				c-0.572-0.256-1.177-0.399-1.771-0.573l0.299,0.041l-1.033,0.029c-0.33,0.057-0.659,0.083-0.988,0.158
				c-0.322,0.076-0.649,0.148-1.056,0.277l-0.288,0.085l-0.233,0.089l-0.487,0.188c-0.676,0.196-1.259,0.58-1.874,0.907
				l-0.861,0.609c-0.295,0.194-0.535,0.471-0.81,0.702c-0.276,0.229-0.522,0.5-0.763,0.781c-0.24,0.279-0.502,0.537-0.718,0.849
				l-0.694,0.896l-0.641,0.942c-0.416,0.634-0.865,1.387-1.236,2.008c-0.387,0.667-0.747,1.337-0.965,1.991
				c-0.229,0.658-0.261,1.265-0.054,1.917c0.198,0.652,0.614,1.313,1.063,1.951c0.455,0.629,0.95,1.279,1.469,1.845
				c0.531,0.589,1.141,1.163,1.531,1.964c0.32,0.762,0.573,1.472,1.093,2.079c0.494,0.603,1.154,1.074,1.896,1.356
				C106.213,32.83,107.868,32.753,109.456,32.655z"/>
		</g>
	</g>
	<g>
		<path fill-rule="evenodd" clip-rule="evenodd" d="M79.567,55.419c-0.249,2.738,0.321,5.477-1.57,8.174
			c-3.974,5.668-10.181,6.707-15.721,2.554c-2.933-2.198-4.577-5-5.878-8.206c-0.149-0.367-0.268-0.792-0.532-1.06
			c-3.735-3.777-0.64-7.363,0.281-11.009c0.177-0.703,0.823-0.735,1.333-1.02c3.846-2.146,8.048-3.017,12.337-2.767
			c2.584,0.151,4.328,2.53,6.269,4.078C78.953,48.45,80.247,51.618,79.567,55.419z M71.087,62.534
			c1.919,0.1,2.479-0.457,3.527-2.011c2.076-3.077,0.196-9.076-2.036-11.253c-2.427-2.367-8.92-1.979-10.941,0.693
			c-1.824,2.413-0.973,9.416,1.418,11.179c0.616,0.455,1.457,1.008,2.121,0.925C67.206,61.813,69.11,62.513,71.087,62.534z"/>
		<g>
			<path d="M79.567,55.419c0,0-0.018,0.321-0.05,0.924c-0.014,0.604-0.034,1.489-0.06,2.615c-0.051,1.118-0.196,2.523-0.918,3.956
				c-0.745,1.416-1.881,2.814-3.415,4.093c-0.369,0.337-0.821,0.581-1.248,0.881c-0.465,0.235-0.923,0.521-1.441,0.698
				c-1.006,0.429-2.14,0.691-3.323,0.732c-2.375,0.132-4.902-0.658-7.072-2.047l-0.413-0.258l-0.403-0.3l-0.738-0.549
				c-0.503-0.451-1.058-0.9-1.495-1.395c-0.939-0.963-1.723-2.084-2.41-3.242c-0.356-0.578-0.652-1.176-0.964-1.775l-0.411-0.913
				c-0.137-0.294-0.281-0.663-0.368-0.865c-0.032-0.056-0.073-0.131-0.043-0.069c-0.022-0.043-0.192-0.216-0.281-0.318l-0.321-0.36
				c-0.103-0.108-0.246-0.329-0.364-0.492c-0.53-0.707-0.822-1.44-1.065-2.26c-0.392-1.661-0.077-3.31,0.389-4.606
				c0.457-1.333,1.02-2.475,1.428-3.563c0.057-0.138,0.099-0.271,0.142-0.403l0.182-0.55l0.045-0.109l0.022-0.055
				c0.002-0.007,0.017-0.041,0.052-0.109c0.107-0.208,0.28-0.465,0.411-0.58c0.267-0.269,0.569-0.437,0.776-0.526
				c0.23-0.107,0.384-0.151,0.493-0.195l0.123-0.048l0.024-0.009l0.094-0.046l0.106-0.05l0.848-0.394
				c0.537-0.264,1.222-0.484,1.827-0.716c0.621-0.226,1.238-0.369,1.847-0.552c2.465-0.61,4.92-0.734,7.188-0.573
				c0.284,0.023,0.565,0.047,0.845,0.07l0.209,0.018l0.114,0.013l0.05,0.012l0.1,0.022l0.396,0.09
				c0.132,0.032,0.259,0.054,0.395,0.095l0.431,0.179c0.284,0.122,0.571,0.237,0.79,0.4c0.972,0.568,1.697,1.314,2.387,1.996
				c1.302,1.433,2.771,2.452,3.658,3.827c0.915,1.31,1.314,2.67,1.487,3.777c0.039,0.279,0.075,0.544,0.11,0.793
				c0.002,0.251,0.004,0.487,0.006,0.706c0.001,0.219,0.003,0.422,0.004,0.607c-0.021,0.184-0.041,0.352-0.059,0.501
				C79.606,55.1,79.567,55.419,79.567,55.419z M79.567,55.419c0,0,0.036-0.32,0.103-0.92c0.016-0.15,0.033-0.317,0.053-0.501
				c-0.004-0.185-0.008-0.388-0.012-0.606c-0.004-0.219-0.009-0.454-0.014-0.704c-0.041-0.247-0.084-0.51-0.131-0.787
				c-0.205-1.093-0.644-2.433-1.634-3.641c-0.914-1.236-2.446-2.22-3.898-3.49c-0.742-0.604-1.514-1.242-2.396-1.64
				c-0.217-0.127-0.434-0.172-0.644-0.24l-0.314-0.104c-0.123-0.022-0.264-0.031-0.396-0.046l-0.403-0.043l-0.101-0.011
				l-0.051-0.005c-0.022-0.003,0.103,0.012,0.038,0.006l-0.025,0.001l-0.199,0.007c-0.266,0.01-0.534,0.019-0.804,0.028
				c-2.153,0.096-4.39,0.507-6.554,1.29c-0.528,0.221-1.087,0.409-1.597,0.656c-0.516,0.265-1.001,0.453-1.553,0.793L58.22,45.92
				l-0.193,0.106c-0.104,0.055-0.227,0.119-0.303,0.15c-0.178,0.082-0.323,0.139-0.372,0.173c-0.08,0.039-0.044,0.046,0,0
				c0.011-0.012,0.118-0.12,0.129-0.203c0.011-0.037,0.008-0.036-0.001-0.005l-0.02,0.056l-0.037,0.112l-0.01,0.028
				c-0.014,0.041,0.082-0.26,0.038-0.118l-0.017,0.064l-0.032,0.128l-0.065,0.257c-0.043,0.172-0.087,0.343-0.14,0.503
				c-0.39,1.32-0.91,2.501-1.25,3.608c-0.357,1.117-0.484,2.112-0.275,2.976c0.123,0.409,0.306,0.898,0.557,1.22
				c0.071,0.097,0.08,0.164,0.197,0.292l0.316,0.363c0.117,0.144,0.178,0.196,0.342,0.415c0.246,0.304,0.332,0.527,0.442,0.757
				c0.483,1.264,0.904,2.319,1.455,3.396c0.532,1.062,1.155,2.047,1.878,2.933c0.343,0.477,0.726,0.838,1.089,1.255l0.677,0.615
				c0.097,0.089,0.262,0.233,0.301,0.277l0.335,0.255c1.75,1.4,3.797,2.339,5.864,2.466c2.063,0.183,4.072-0.474,5.623-1.516
				c1.567-1.021,2.774-2.385,3.579-3.688c0.806-1.333,0.995-2.732,1.079-3.843c0.08-1.123,0.065-2.011,0.101-2.613
				C79.547,55.74,79.567,55.419,79.567,55.419z"/>
			<path d="M71.087,62.534c0,0,0.19,0,0.546,0c0.348-0.025,0.902-0.024,1.471-0.377c0.569-0.338,1.037-1.035,1.484-1.817
				c0.461-0.814,0.644-1.812,0.588-2.923c-0.048-1.102-0.324-2.279-0.795-3.439c-0.473-1.15-1.133-2.322-1.966-3.258
				c-0.203-0.24-0.425-0.436-0.64-0.625c0.136,0.123,0.029,0.029,0.056,0.054l-0.014-0.01l-0.028-0.02l-0.056-0.039l-0.112-0.078
				l-0.226-0.156c-0.157-0.113-0.234-0.095-0.346-0.155c-0.453-0.183-1.083-0.379-1.706-0.442c-1.254-0.16-2.635-0.097-3.885,0.215
				c-0.638,0.128-1.217,0.373-1.728,0.631c-0.265,0.128-0.467,0.289-0.677,0.44c-0.081,0.085-0.164,0.165-0.253,0.244l-0.034,0.029
				c0.029-0.043-0.076,0.106,0.063-0.095l-0.01,0.015l-0.02,0.029l-0.08,0.116l-0.158,0.232c-0.121,0.169-0.091,0.203-0.156,0.306
				c-0.051,0.062-0.102,0.222-0.152,0.358c-0.118,0.266-0.171,0.588-0.262,0.888c-0.128,0.632-0.234,1.288-0.25,1.951
				c-0.072,1.322,0.033,2.646,0.334,3.834c0.143,0.599,0.356,1.152,0.625,1.641c0.143,0.239,0.297,0.46,0.48,0.638
				c0.163,0.193,0.427,0.384,0.624,0.544c0.429,0.327,0.891,0.608,1.325,0.605c0.525,0.017,1.024,0.033,1.493,0.048
				c0.935,0.138,1.735,0.259,2.388,0.383c0.653,0.134,1.177,0.146,1.531,0.186C70.897,62.517,71.087,62.534,71.087,62.534z
				 M71.087,62.534c0,0-0.189-0.013-0.545-0.038c-0.355-0.028-0.88-0.047-1.538-0.145c-0.66-0.088-1.465-0.167-2.373-0.207
				c-0.458,0.038-0.945,0.078-1.458,0.121c-0.622,0.067-1.188-0.182-1.714-0.451c-0.275-0.156-0.516-0.267-0.785-0.481
				c-0.283-0.195-0.52-0.434-0.74-0.692c-0.439-0.514-0.811-1.104-1.105-1.735c-0.598-1.264-1.031-2.677-1.223-4.203
				c-0.107-0.761-0.124-1.557-0.094-2.382c0.047-0.42,0.078-0.835,0.192-1.276c0.055-0.376,0.308-1.027,0.505-1.41l0.137-0.246
				l0.068-0.123l0.017-0.031l0.009-0.016l0.085-0.122l0.061-0.075c0.164-0.199,0.33-0.401,0.507-0.591
				c0.37-0.33,0.756-0.646,1.16-0.879c0.807-0.482,1.656-0.807,2.505-1.004c1.704-0.39,3.437-0.415,5.118-0.011
				c0.852,0.192,1.64,0.509,2.467,1.032c0.195,0.14,0.459,0.308,0.578,0.433l0.463,0.444c0.281,0.338,0.541,0.676,0.747,1.022
				c0.831,1.384,1.243,2.796,1.517,4.143c0.241,1.354,0.306,2.652,0.172,3.83c-0.137,1.162-0.5,2.253-1.033,3.009
				c-0.55,0.76-1.048,1.43-1.655,1.751c-0.598,0.327-1.146,0.329-1.497,0.343C71.277,62.537,71.087,62.534,71.087,62.534z"/>
		</g>
	</g>
	<g display="none">
		<path display="inline" fill-rule="evenodd" clip-rule="evenodd" fill="#FFFFFF" d="M101.708,154.165
			c-0.999,0.803-2.181,0.432-3.286,0.57c-3.326,0.415-6.604-1.042-9.961,2.393c-3.349,3.429-7.215,6.567-10.76,9.96
			c-2.258,2.162-3.453,5.204-6.429,6.8c-3.37,1.808-6.415,4.217-10.241,5.123c-2.798,0.663-5.37,0.097-7.894-1.177
			c-1.86-0.939-3.768-1.765-5.609,0.231c-1.035,1.123-2.226,0.485-2.576-0.57c-0.639-1.923-1.961-2.022-3.511-1.832
			c-3.731,0.458-9.598-1.535-12.57-4.075c-0.989-0.844-2.506-0.687-3.709-1.551c-3.436-2.466-5.757-5.955-8.694-8.865
			c-1.04-1.03-1.618-2.106,0.078-3.354c-2.266-1.38-4.298-2.601-3.136-5.651c0.472-1.242-1.265-1.238-1.893-1.894
			c-0.877-0.915-1.589-1.987-2.461-3.108c2.497-1.584,1.73-4.078,1.643-6.236c-0.098-2.37-0.257-4.683-0.057-7.086
			c0.176-2.129,0.861-4.627-1.684-6.469c-0.875-0.634-0.423-2.895,0.021-4.314c1.415-4.516,3.461-8.787,5.53-13.026
			c1.238-2.536,2.525-5.144,4.296-7.306c4.115-5.026,7.757-11.204,15.278-11.266c6.906-0.057,13.475-2.183,20.331-2.44
			c6.965-0.262,13.92-0.803,20.896-0.93c6.642-0.12,13.311,0.792,19.876,0.324c6.25-0.445,12.476-0.535,18.719-0.663
			c6.314-0.131,12.631,1.085,18.927,0.172c6.479-0.94,12.986,0.083,19.49-0.595c3.316-0.346,6.177,2.147,8.846,4.029
			c5.351,3.773,10.417,8.011,14.057,13.476c2.182,3.277,3.021,7.333,3.668,11.278c0.612,3.728,1.249,7.461,1.606,11.218
			c0.163,1.707,1.396,3.019,1.228,4.829c-0.181,1.938-0.495,3.773-0.988,5.679c-0.653,2.525-1.836,5.081-0.955,7.985
			c0.437,1.44,0.219,3.444-1.9,4.191c-0.308,0.109-0.67,0.587-0.688,0.914c-0.301,5.109-4.386,8.44-6.226,12.872
			c-1.09,2.627-1.449,5.836-4.053,8.092c-3.124,2.708-6.341,4.708-10.357,5.746c-4.695,1.214-9.409,2.137-14.24,1.856
			c-5.181-0.3-10.17-1.436-14.992-3.594c-2.487-1.113-5.065-1.802-7.354-3.517c-2.893-2.167-5.078-4.87-7.496-7.459
			c-2.549-2.728-4.033-6.552-7.879-8.1C103.576,156.415,102.854,155.253,101.708,154.165z"/>
		<path display="inline" d="M101.708,154.165c-0.427,0.354-0.984,0.52-1.534,0.553c-0.551,0.041-1.104-0.005-1.646,0.059
			c-1.092,0.15-2.211,0.117-3.306,0.102c-1.096-0.01-2.199,0.009-3.24,0.305c-1.041,0.281-2.001,0.814-2.799,1.538l-4.745,4.577
			c-1.577,1.536-3.212,3.009-4.815,4.518c-0.807,0.771-1.625,1.455-2.35,2.291c-0.689,0.812-1.313,1.69-1.979,2.589
			c-0.672,0.882-1.369,1.787-2.263,2.525c-0.414,0.405-0.926,0.692-1.41,1.015l-1.424,0.832c-1.857,1.114-3.714,2.359-5.752,3.33
			c-2.035,0.974-4.274,1.677-6.673,1.496c-1.172-0.072-2.309-0.375-3.39-0.768c-1.084-0.375-2.108-0.99-3.016-1.294
			c-0.948-0.331-1.813-0.338-2.535,0.135c-0.196,0.075-0.349,0.277-0.522,0.419l-0.641,0.57c-0.688,0.564-1.784,0.623-2.475,0.106
			c-0.338-0.243-0.605-0.546-0.79-0.886l-0.201-0.437l-0.163-0.379l-0.082-0.189l-0.08-0.096l-0.142-0.199
			c-0.133-0.113-0.252-0.238-0.413-0.298c-0.31-0.144-0.73-0.194-1.218-0.161c-0.119,0.005-0.249,0.024-0.373,0.036l-0.188,0.019
			l-0.268,0.015l-0.824,0.039c-2.379,0.032-4.645-0.528-6.778-1.298c-0.541-0.185-1.071-0.397-1.587-0.652
			c-0.521-0.237-1.044-0.472-1.539-0.779c-0.502-0.288-1.009-0.564-1.476-0.937l-0.714-0.526c-0.08-0.045-0.463-0.338-0.538-0.322
			c-0.65-0.314-2.02-0.406-3.192-1.21l-1.34-1.038c-0.434-0.389-0.885-0.775-1.3-1.172c-1.639-1.578-3.061-3.295-4.522-4.897
			c-0.365-0.401-0.729-0.803-1.107-1.178l-0.561-0.574c-0.257-0.28-0.368-0.353-0.631-0.7c-0.232-0.286-0.435-0.617-0.58-1.025
			c-0.151-0.413-0.178-0.943-0.055-1.404c0.281-0.979,0.895-1.387,1.394-1.836l0.075,1.733c-0.507-0.305-1.033-0.618-1.563-0.987
			c-0.526-0.372-1.07-0.8-1.544-1.394c-0.236-0.297-0.441-0.64-0.603-1.013c-0.148-0.379-0.25-0.782-0.281-1.181
			c-0.034-0.4-0.005-0.785,0.051-1.154c0.064-0.365,0.155-0.712,0.272-1.037l0.041-0.125l0.01-0.031l0.003-0.008
			c0.027-0.083-0.036,0.109-0.029,0.088l0.001-0.003l0.004-0.013l0.015-0.053c0.015-0.05,0.061-0.208,0.021-0.101
			c-0.016,0.119-0.01,0.188,0.046,0.285c0.107,0.153,0.021,0.024-0.199-0.06c-0.217-0.101-0.513-0.204-0.877-0.397
			c-0.178-0.095-0.392-0.228-0.609-0.437l-0.04-0.037l-0.064-0.071l-0.035-0.042l-0.072-0.084l-0.144-0.169
			c-0.38-0.458-0.771-0.891-1.142-1.37l-1.106-1.446l-0.703-0.919l0.992-0.745c0.584-0.438,0.989-0.902,1.151-1.55
			c0.184-0.646,0.098-1.509,0.017-2.439c-0.045-0.446-0.088-0.999-0.111-1.481l-0.066-1.421c-0.039-0.951-0.113-1.879-0.071-2.881
			c0.024-0.988,0.013-1.967,0.073-2.964l0.133-1.402c0.025-0.427,0.044-0.85,0.009-1.221c-0.073-0.752-0.293-1.344-0.726-1.857
			c-0.111-0.128-0.268-0.233-0.395-0.355l-0.198-0.181c-0.32-0.285-0.15-0.103-0.44-0.422c-0.101-0.122-0.23-0.307-0.27-0.399
			l-0.142-0.312c-0.063-0.188-0.126-0.391-0.149-0.558c-0.069-0.358-0.072-0.66-0.074-0.963c0.045-1.185,0.27-2.118,0.595-3.185
			l0.934-2.688c0.288-0.893,0.715-1.803,1.066-2.704c0.361-0.913,0.748-1.796,1.152-2.661c0.782-1.761,1.61-3.457,2.444-5.193
			c0.836-1.681,1.676-3.454,2.751-5.132c0.488-0.847,1.166-1.663,1.727-2.447l1.751-2.221c1.171-1.498,2.37-3.031,3.762-4.464
			c1.396-1.422,3.015-2.745,4.912-3.669c0.465-0.245,0.974-0.408,1.46-0.611c0.506-0.152,1.016-0.306,1.529-0.423
			c0.521-0.079,1.04-0.203,1.563-0.236l1.493-0.088c0.936-0.057,1.922-0.054,2.814-0.16c0.906-0.104,1.791-0.165,2.724-0.317
			c1.847-0.25,3.694-0.582,5.576-0.899c1.873-0.322,3.779-0.624,5.712-0.84c0.961-0.126,1.95-0.156,2.924-0.237l2.84-0.152
			c3.792-0.189,7.57-0.411,11.383-0.553l5.707-0.239c0.494-0.017,0.912-0.047,1.468-0.052l1.423,0.015l2.845,0.031
			c1.903,0.044,3.832,0.156,5.74,0.227c1.871,0.034,3.764,0.162,5.615,0.13l2.774-0.066l1.422-0.038l1.422-0.065l5.686-0.261
			c3.788-0.183,7.616-0.186,11.422-0.287c1.019,0.008,1.902-0.006,2.891,0.029c0.973,0.042,1.965,0.071,2.906,0.137
			c1.913,0.11,3.789,0.248,5.655,0.321c0.935,0.047,1.853,0.035,2.779,0.056c0.913-0.042,1.837-0.037,2.739-0.125l2.791-0.292
			l1.414-0.153l1.482-0.083c3.938-0.199,7.723,0.058,11.45-0.003c0.926-0.029,1.86-0.023,2.772-0.11l1.374-0.099l0.086-0.006
			l0.224-0.009l0.178,0h0.356c0.248,0.007,0.448-0.017,0.736,0.016c1.281,0.161,2.337,0.508,3.266,0.982
			c0.481,0.226,0.937,0.475,1.359,0.749c0.445,0.259,0.85,0.541,1.255,0.821c0.813,0.561,1.569,1.13,2.324,1.67l2.315,1.689
			c1.546,1.177,3.065,2.367,4.509,3.666c2.906,2.595,5.574,5.409,7.77,8.806c0.241,0.418,0.489,0.789,0.725,1.247
			c0.228,0.472,0.475,0.95,0.679,1.42l0.548,1.404l0.457,1.421c0.55,1.904,0.914,3.819,1.22,5.711l0.869,5.637l0.692,5.719
			l0.021,0.179l0.011,0.089c-0.019-0.137,0.003,0.012,0.003,0.004l0.058,0.351c0.031,0.272,0.098,0.358,0.137,0.533
			c0.112,0.351,0.293,0.794,0.473,1.25c0.177,0.478,0.371,0.991,0.463,1.588c0.056,0.294,0.088,0.595,0.071,0.91
			c-0.005,0.171,0.003,0.275-0.018,0.501l-0.049,0.353c-0.145,0.944-0.23,1.867-0.423,2.83c-0.222,0.97-0.41,1.94-0.666,2.906
			c-0.541,1.875-1.162,3.599-1.185,5.251c0.047,0.403,0.004,0.823,0.121,1.212l0.125,0.595c0.082,0.372,0.119,0.461,0.167,0.792
			c0.079,0.664,0.086,1.247-0.082,1.859c-0.129,0.608-0.457,1.202-0.885,1.689c-0.201,0.257-0.48,0.422-0.727,0.625
			c-0.254,0.191-0.541,0.284-0.813,0.422l-0.208,0.093c0.301-0.138,0.039-0.012,0.087-0.031l-0.076,0.046
			c-0.172,0.087-0.008,0.059-0.016,0.036c0.021-0.042-0.015,0.043-0.034,0.051c-0.016,0.018,0.021-0.022,0.016-0.037
			c0.001-0.01,0-0.021-0.004-0.032c-0.003-0.035-0.017,0.084-0.016,0.081c-0.063,0.882-0.307,2.066-0.636,2.995
			c-0.688,1.941-1.78,3.62-2.843,5.195c-1.067,1.581-2.121,3.101-2.836,4.732c-0.158,0.362-0.348,0.868-0.498,1.284l-0.443,1.316
			c-0.292,0.904-0.647,1.842-1.072,2.757c-0.471,0.902-1.017,1.804-1.763,2.546l-0.558,0.555c-0.242,0.222-0.388,0.314-0.586,0.478
			l-1.118,0.88c-0.708,0.609-1.578,1.123-2.405,1.659c-0.813,0.575-1.708,0.979-2.595,1.401c-0.447,0.2-0.872,0.454-1.339,0.607
			l-1.4,0.457l-1.415,0.452l-1.387,0.321c-1.826,0.465-3.746,0.763-5.646,1.088c-3.806,0.521-7.78,0.389-11.503-0.178
			c-3.829-0.628-7.508-1.798-11.009-3.324c-1.736-0.78-3.506-1.406-5.234-2.304c-0.445-0.185-0.831-0.502-1.246-0.751l-0.612-0.397
			c-0.106-0.072-0.192-0.119-0.316-0.212l-0.271-0.231c-0.71-0.634-1.468-1.194-2.138-1.889c-1.383-1.349-2.638-2.776-3.901-4.188
			c-0.629-0.697-1.273-1.418-1.868-2.157c-0.589-0.753-1.141-1.542-1.68-2.316c-1.083-1.543-2.229-3.081-3.796-4.141
			c-0.375-0.284-0.819-0.456-1.228-0.69l-0.632-0.333c-0.199-0.139-0.399-0.279-0.569-0.447
			C102.952,155.595,102.392,154.825,101.708,154.165z M101.708,154.165c0.702,0.639,1.291,1.396,1.999,2.019
			c0.174,0.161,0.368,0.288,0.561,0.415l0.637,0.311c0.419,0.225,0.879,0.388,1.269,0.666c1.63,1.031,2.847,2.568,3.978,4.082
			c0.568,0.766,1.127,1.516,1.728,2.239c0.62,0.72,1.258,1.397,1.914,2.097c1.298,1.387,2.583,2.78,3.945,4.053
			c0.66,0.659,1.448,1.217,2.166,1.831l0.275,0.225l0.28,0.174l0.591,0.363c0.402,0.228,0.763,0.519,1.203,0.689
			c1.66,0.819,3.489,1.428,5.231,2.162c3.49,1.431,7.107,2.482,10.79,3.008c3.792,0.483,7.457,0.511,11.175-0.068
			c1.832-0.355,3.656-0.684,5.503-1.183l1.382-0.34l1.288-0.437l1.3-0.441c0.433-0.147,0.825-0.394,1.24-0.585
			c0.821-0.406,1.654-0.791,2.388-1.33c0.757-0.507,1.527-0.958,2.255-1.598l1.105-0.896c0.165-0.14,0.411-0.32,0.511-0.426
			l0.442-0.458c0.597-0.604,1.033-1.354,1.431-2.131c0.36-0.812,0.672-1.652,0.95-2.558l0.447-1.386
			c0.168-0.477,0.303-0.865,0.514-1.375c0.788-1.862,1.898-3.489,2.927-5.063c1.036-1.575,1.997-3.133,2.557-4.788
			c0.272-0.871,0.429-1.552,0.501-2.565c0.005-0.063,0.001-0.002,0.016-0.094l0.043-0.204c0.034-0.126,0.077-0.291,0.126-0.373
			c0.114-0.188,0.166-0.333,0.356-0.541c0.162-0.187,0.458-0.425,0.508-0.438l0.076-0.047c0.098-0.048-0.114,0.043,0.24-0.121
			l0.113-0.06c0.325-0.135,0.586-0.316,0.786-0.537c0.184-0.23,0.345-0.485,0.4-0.81c0.096-0.302,0.064-0.69,0.043-0.963
			c-0.007-0.14-0.115-0.506-0.128-0.598l-0.184-0.794c-0.15-0.526-0.126-1.074-0.18-1.611c0.014-2.172,0.718-4.076,1.187-5.841
			c0.216-0.871,0.377-1.767,0.572-2.647c0.17-0.899,0.25-1.871,0.38-2.802l0.044-0.353c-0.005-0.01-0.007-0.145-0.008-0.21
			c0.014-0.161-0.009-0.331-0.047-0.503c-0.052-0.341-0.196-0.723-0.354-1.13c-0.171-0.424-0.362-0.855-0.547-1.405
			c-0.083-0.283-0.199-0.641-0.221-0.842l-0.063-0.35l-0.061-0.432l-0.752-5.571l-0.941-5.6c-0.639-3.694-1.401-7.292-3.354-10.293
			c-1.943-2.975-4.535-5.732-7.299-8.162c-1.383-1.234-2.859-2.378-4.336-3.493l-4.594-3.295c-0.376-0.258-0.752-0.517-1.129-0.732
			c-0.375-0.242-0.754-0.445-1.133-0.619c-0.377-0.213-0.759-0.319-1.137-0.458c-0.199-0.085-0.365-0.112-0.521-0.135
			c-0.161-0.03-0.321-0.066-0.481-0.109c-0.181-0.031-0.459-0.006-0.684-0.013l-0.579,0.005l-1.463,0.112
			c-0.979,0.095-1.942,0.094-2.912,0.129c-3.859,0.076-7.666-0.155-11.311,0.048l-1.358,0.079l-1.414,0.159l-2.868,0.313
			c-0.984,0.099-1.963,0.099-2.943,0.147c-0.97-0.016-1.95-0.001-2.91-0.044c-1.927-0.067-3.835-0.199-5.711-0.298
			c-0.951-0.061-1.855-0.082-2.778-0.12c-0.908-0.031-1.923-0.011-2.801-0.017c-3.778,0.118-7.542,0.136-11.333,0.335l-5.684,0.287
			l-1.422,0.071l-1.422,0.045l-2.914,0.083c-1.941,0.046-3.84-0.094-5.762-0.139c-1.883-0.078-3.743-0.197-5.632-0.25l-2.846-0.044
			l-1.423-0.022l-1.376,0.045l-5.666,0.212c-3.771,0.124-7.57,0.33-11.358,0.501l-2.844,0.14c-0.916,0.075-1.827,0.094-2.748,0.211
			c-1.84,0.198-3.684,0.48-5.551,0.792c-1.861,0.305-3.75,0.636-5.665,0.887c-0.941,0.15-1.951,0.221-2.931,0.324
			c-0.993,0.106-1.908,0.096-2.866,0.15l-1.349,0.071c-0.424,0.022-0.832,0.127-1.25,0.182c-0.408,0.093-0.811,0.215-1.213,0.329
			c-0.387,0.167-0.791,0.285-1.165,0.483c-1.523,0.733-2.901,1.827-4.164,3.102c-1.261,1.284-2.414,2.737-3.584,4.223l-1.783,2.241
			l-0.805,1.084c-0.268,0.353-0.531,0.71-0.756,1.109c-0.982,1.514-1.782,3.174-2.642,4.885c-0.815,1.68-1.66,3.391-2.426,5.094
			c-0.403,0.853-0.781,1.705-1.121,2.556c-0.341,0.865-0.735,1.671-1.035,2.584l-0.945,2.684c-0.234,0.742-0.447,1.675-0.465,2.389
			c0.001,0.17,0.004,0.346,0.028,0.454c0.007,0.069,0.025,0.09,0.029,0.129c0.006,0.003,0.008,0.007,0.007,0.013
			c0.005,0.018-0.041-0.079-0.078-0.101c-0.16-0.122,0.214,0.197,0.063,0.077l0.334,0.292c0.217,0.202,0.448,0.382,0.646,0.61
			c0.822,0.934,1.253,2.205,1.319,3.339c0.042,0.576,0.009,1.101-0.03,1.621l-0.154,1.428c-0.064,0.896-0.063,1.816-0.101,2.724
			c-0.056,0.895,0.006,1.862,0.031,2.807l0.047,1.422c0.02,0.465,0.043,0.859,0.085,1.357c0.057,0.948,0.202,2.017-0.12,3.221
			c-0.303,1.221-1.201,2.254-2.175,2.895l0.289-1.664l1.031,1.392c0.348,0.464,0.745,0.917,1.115,1.375l0.221,0.27
			c-0.003-0.005,0.028,0.031,0.113,0.074c0.156,0.09,0.418,0.192,0.738,0.341c0.305,0.167,0.776,0.329,1.191,1
			c0.185,0.362,0.26,0.731,0.192,1.145c-0.039,0.258-0.054,0.238-0.076,0.332l-0.089,0.277c-0.089,0.232-0.148,0.457-0.191,0.676
			c-0.033,0.216-0.053,0.424-0.039,0.615c0.012,0.192,0.058,0.368,0.118,0.542c0.074,0.171,0.167,0.342,0.298,0.512
			c0.529,0.688,1.512,1.294,2.509,1.911l1.247,0.771l-1.172,0.962c-0.313,0.257-0.644,0.567-0.637,0.693
			c-0.013,0.068-0.022,0.106,0.011,0.213c0.037,0.104,0.113,0.263,0.228,0.401c0.051,0.108,0.355,0.403,0.466,0.533l0.585,0.614
			c0.397,0.406,0.767,0.825,1.138,1.243c1.48,1.67,2.852,3.367,4.367,4.865c0.376,0.368,0.758,0.703,1.136,1.058l1.256,1.002
			c0.325,0.222,0.728,0.392,1.215,0.536c0.501,0.153,1.039,0.25,1.739,0.581c0.442,0.215,0.485,0.285,0.858,0.55l0.61,0.46
			c0.389,0.326,0.848,0.581,1.297,0.847c0.438,0.283,0.917,0.505,1.395,0.729c0.469,0.242,0.957,0.444,1.457,0.622
			c1.981,0.749,4.063,1.273,6.093,1.279l0.825-0.028l0.103-0.004l0.052-0.001l0.026-0.001c-0.02,0.002,0.078-0.005-0.036,0.004
			l0.223-0.02c0.15-0.012,0.294-0.031,0.449-0.036c0.606-0.03,1.319,0.013,2.005,0.343c0.353,0.158,0.634,0.414,0.899,0.683
			c0.123,0.145,0.226,0.313,0.332,0.475l0.151,0.246l0.079,0.191l0.295,0.697c0.076,0.146,0.181,0.256,0.286,0.345
			c0.218,0.161,0.415,0.102,0.61,0.013l0.6-0.52c0.249-0.205,0.453-0.446,0.771-0.592c0.299-0.158,0.577-0.35,0.926-0.411
			l0.501-0.125c0.167-0.024,0.337-0.017,0.506-0.023c0.682-0.029,1.3,0.161,1.87,0.355c1.166,0.44,2.026,1.01,3.02,1.375
			c0.975,0.378,1.982,0.671,3.011,0.756c1.035,0.09,2.023,0.021,3.08-0.207c1.021-0.262,2.031-0.59,3.006-1.042
			c1.962-0.88,3.802-2.053,5.742-3.161l1.444-0.801c0.436-0.281,0.899-0.52,1.283-0.883c0.824-0.646,1.505-1.486,2.182-2.335
			c0.664-0.854,1.335-1.76,2.093-2.607c0.737-0.815,1.624-1.533,2.426-2.264c1.637-1.473,3.305-2.911,4.916-4.412l4.876-4.471
			c0.855-0.731,1.888-1.266,2.981-1.525c1.094-0.275,2.22-0.258,3.318-0.216c1.104,0.047,2.192,0.114,3.29-0.003
			c0.557-0.048,1.106,0.015,1.653-0.01C100.717,154.651,101.268,154.508,101.708,154.165z"/>
	</g>
	<g>
		<path fill-rule="evenodd" clip-rule="evenodd" fill="#FFFFFF" d="M110.412,9.152c3.283,0.792,6.391,3.015,8.348,6.431
			c4.573,7.991-2.246,16.603-9.304,17.072c-2.738,0.182-6.322,0.4-7.798-3.436c-0.396-1.028-1.488-1.792-2.272-2.667
			c-3.065-3.413-3.329-4.486-1.332-8.346c1.905-3.686,4.162-7.102,8.485-8.438C107.597,9.443,108.616,9.092,110.412,9.152z"/>
		<path d="M110.412,9.152c0,0,0.271,0.079,0.78,0.227c0.257,0.065,0.567,0.166,0.919,0.323c0.356,0.145,0.771,0.302,1.204,0.544
			c0.904,0.414,1.889,1.121,2.966,1.998c1.048,0.923,2.064,2.123,2.974,3.626c0.201,0.375,0.427,0.74,0.619,1.146
			c0.165,0.437,0.333,0.881,0.504,1.333c0.145,0.46,0.228,0.938,0.345,1.425c0.114,0.487,0.104,0.998,0.159,1.513
			c0.075,2.064-0.434,4.307-1.577,6.307c-1.142,1.997-2.845,3.79-5.003,5.021c-0.519,0.341-1.122,0.547-1.689,0.823
			c-0.605,0.188-1.21,0.406-1.848,0.516c-0.638,0.104-1.312,0.21-1.85,0.226c-0.589,0.04-1.198,0.061-1.83,0.046
			c-1.247-0.049-2.661-0.25-3.939-1.014c-1.302-0.735-2.211-2.018-2.667-3.253l-0.136-0.331l-0.083-0.191l-0.049-0.071
			c-0.021-0.037-0.048-0.095-0.124-0.189c-0.06-0.082-0.118-0.166-0.199-0.255c-0.293-0.354-0.686-0.724-1.086-1.167
			c-0.439-0.5-0.715-0.872-1.076-1.343c-0.348-0.451-0.671-0.922-0.981-1.424c-0.302-0.515-0.582-1.074-0.746-1.712
			c-0.16-0.643-0.16-1.329-0.041-1.928c0.245-1.21,0.785-2.11,1.271-2.98c1.012-1.691,2.045-3.263,3.178-4.574
			c1.122-1.318,2.382-2.319,3.594-2.996c0.309-0.161,0.607-0.316,0.896-0.466c0.296-0.13,0.6-0.215,0.877-0.326
			c0.559-0.221,1.082-0.38,1.561-0.505c0.963-0.235,1.737-0.35,2.268-0.338C110.13,9.156,110.412,9.152,110.412,9.152z
			 M110.412,9.152c0,0-0.282,0.008-0.812,0.022c-0.266-0.006-0.59,0.029-0.969,0.094c-0.383,0.037-0.809,0.156-1.284,0.284
			c-0.475,0.143-0.991,0.322-1.534,0.562c-0.272,0.116-0.563,0.223-0.844,0.373c-0.271,0.167-0.553,0.341-0.843,0.521
			c-1.127,0.754-2.297,1.783-3.209,3.187c-0.949,1.366-1.753,2.994-2.497,4.765c-0.354,0.871-0.708,1.796-0.745,2.617
			c-0.02,0.41,0.039,0.773,0.18,1.13c0.153,0.356,0.391,0.721,0.666,1.092c0.292,0.369,0.618,0.748,0.973,1.112
			c0.333,0.35,0.767,0.8,1.085,1.083c0.369,0.33,0.797,0.69,1.251,1.149c0.111,0.107,0.226,0.239,0.34,0.373
			c0.106,0.114,0.234,0.284,0.362,0.481l0.177,0.278l0.097,0.184l0.213,0.426c0.397,0.805,0.903,1.417,1.592,1.776
			c0.679,0.375,1.573,0.546,2.57,0.568c0.498,0.018,1.02,0.009,1.558-0.021c0.592-0.017,1.033-0.094,1.51-0.142
			c0.475-0.057,0.939-0.217,1.408-0.331c0.449-0.191,0.934-0.299,1.363-0.546c1.764-0.87,3.338-2.178,4.496-3.738
			c1.164-1.559,1.874-3.386,2.049-5.2c0.008-0.452,0.086-0.909,0.041-1.353c-0.05-0.44-0.062-0.893-0.138-1.317
			c-0.104-0.419-0.208-0.831-0.309-1.234c-0.139-0.409-0.327-0.808-0.483-1.2c-0.66-1.499-1.615-2.754-2.562-3.729
			c-0.979-0.948-1.94-1.686-2.823-2.128c-0.421-0.263-0.834-0.418-1.188-0.568c-0.349-0.161-0.658-0.266-0.914-0.334
			C110.683,9.234,110.412,9.152,110.412,9.152z"/>
	</g>
	<g>
		<path fill-rule="evenodd" clip-rule="evenodd" fill="#FFFFFF" d="M71.087,62.534c-1.977-0.021-3.881-0.721-5.911-0.467
			c-0.664,0.083-1.505-0.471-2.121-0.925c-2.391-1.763-3.242-8.766-1.418-11.179c2.021-2.673,8.515-3.06,10.941-0.693
			c2.232,2.177,4.112,8.176,2.036,11.253C73.565,62.077,73.006,62.634,71.087,62.534z"/>
		<path d="M71.087,62.534c0,0-0.189-0.013-0.545-0.038c-0.355-0.028-0.878-0.047-1.537-0.145c-0.66-0.088-1.467-0.169-2.384-0.208
			c-0.46,0.038-0.95,0.078-1.466,0.121c-0.233,0.046-0.61-0.024-0.876-0.101c-0.278-0.094-0.557-0.21-0.818-0.353
			c-1.109-0.498-2.058-1.65-2.626-2.907c-0.598-1.264-1.028-2.676-1.222-4.2c-0.156-1.527-0.277-3.157,0.563-5l0.197-0.346
			l0.103-0.172l0.026-0.043l0.013-0.021l0.088-0.107l0.045-0.055l0.362-0.438c0.204-0.191,0.418-0.376,0.637-0.555
			c0.22-0.178,0.402-0.272,0.607-0.41c0.804-0.486,1.656-0.807,2.503-1.007c1.703-0.393,3.436-0.42,5.119-0.016
			c0.84,0.179,1.67,0.528,2.44,1.011c0.405,0.258,0.696,0.521,1.115,0.941l0.332,0.43c0.114,0.151,0.246,0.359,0.362,0.536
			c0.854,1.411,1.25,2.807,1.527,4.16c0.24,1.354,0.303,2.653,0.169,3.832c-0.144,1.175-0.491,2.231-1.039,3.014
			c-0.543,0.749-1.048,1.428-1.653,1.746c-0.598,0.327-1.146,0.329-1.496,0.343C71.277,62.537,71.087,62.534,71.087,62.534z
			 M71.087,62.534c0,0,0.19,0,0.546,0c0.347-0.025,0.902-0.024,1.471-0.377c0.571-0.341,1.032-1.03,1.486-1.823
			c0.446-0.788,0.645-1.82,0.582-2.918c-0.048-1.101-0.326-2.278-0.798-3.437c-0.469-1.144-1.146-2.333-1.956-3.242
			c-0.102-0.104-0.17-0.195-0.293-0.313l-0.399-0.368c0.083,0.086,0.017,0.02,0.032,0.038l-0.01-0.006l-0.021-0.013l-0.041-0.025
			l-0.083-0.051l-0.16-0.104c-0.102-0.073-0.249-0.116-0.367-0.177c-0.511-0.222-1.098-0.387-1.732-0.462
			c-1.253-0.161-2.634-0.1-3.884,0.209c-0.639,0.125-1.217,0.374-1.729,0.627c-0.112,0.068-0.273,0.14-0.349,0.2
			c-0.075,0.058-0.155,0.109-0.245,0.154l-0.396,0.396l-0.05,0.05c0.031-0.038-0.086,0.101,0.065-0.081l-0.005,0.009l-0.012,0.017
			l-0.045,0.067l-0.098,0.132c-0.53,0.846-0.811,2.275-0.862,3.571c-0.074,1.324,0.035,2.647,0.336,3.836
			c0.141,0.596,0.362,1.161,0.622,1.634l0.201,0.326c0.084,0.111,0.201,0.221,0.298,0.33c0.146,0.177,0.412,0.373,0.613,0.534
			c0.449,0.33,0.854,0.604,1.345,0.603c0.523,0.017,1.019,0.033,1.485,0.048c0.926,0.138,1.724,0.257,2.377,0.382
			c0.653,0.133,1.178,0.145,1.532,0.185C70.897,62.517,71.087,62.534,71.087,62.534z"/>
	</g>
</g>
</svg>
