<?xml version="1.0" encoding="utf-8"?>
<!-- Generator: Adobe Illustrator 16.0.0, SVG Export Plug-In . SVG Version: 6.00 Build 0)  -->
<!DOCTYPE svg PUBLIC "-//W3C//DTD SVG 1.1//EN" "http://www.w3.org/Graphics/SVG/1.1/DTD/svg11.dtd">
<svg version="1.1" id="Calque_1" xmlns="http://www.w3.org/2000/svg" xmlns:xlink="http://www.w3.org/1999/xlink" x="0px" y="0px"
	 width="311px" height="329px" viewBox="0 0 311 329" enable-background="new 0 0 311 329" xml:space="preserve">
<g display="none">
	<path display="inline" fill-rule="evenodd" clip-rule="evenodd" fill="#FFFFFF" d="M203.683,96.727c139.095,0,278.189,0,417.283,0
		c0,147.276,0,294.553,0,441.829c-139.094,0-278.188,0-417.283,0C203.683,391.279,203.683,244.003,203.683,96.727z M316.876,492.918
		c1.958-1.711,4.219-3.705,6.503-5.674c0.784-0.674,1.571-1.37,2.45-1.903c6.346-3.855,12.675-7.74,19.091-11.478
		c5.477-3.19,11.022-6.268,16.618-9.244c1.873-0.996,3.792-0.54,4.705,1.55c2.223,5.092,4.411,10.204,6.385,15.396
		c1.439,3.784,2.556,7.694,3.747,11.569c1.967,6.397,3.567,12.933,5.955,19.167c1.075,2.807,3.266,5.687,5.757,7.24
		c1.254,0.782,4.803-0.765,6.46-2.227c5.188-4.578,10.141-9.456,14.859-14.521c4.658-5,9.003-10.301,13.33-15.597
		c4.21-5.153,8.273-10.431,12.298-15.731c1.498-1.973,2.917-4.067,3.961-6.299c0.525-1.121,2.19-2.969-0.483-4.043
		c-0.086-0.034,0.544-1.854,0.84-2.842c0.272,0.08,0.544,0.16,0.816,0.24c0.074,0.65,0.147,1.301,0.286,2.527
		c1.135-1.311,2.002-2.084,2.593-3.031c3.666-5.871,7.357-11.729,10.86-17.695c2.048-3.49,4.11-7.046,5.525-10.813
		c1.324-3.524,4.269-7.107,1.305-11.229c-0.026-0.037,0.29-0.32,0.516-0.563c0.619,0.446,1.219,0.878,1.226,0.884
		c1.044-1.785,1.984-3.292,2.824-4.852c1.196-2.223,2.637-4.383,3.384-6.756c0.742-2.355,0.745-4.943,1.09-7.426
		c0.371-2.663,1.532-2.914,3.849-1.664c1.712,0.924,3.853,1.639,5.75,1.531c8.797-0.501,14.983-5.625,19.943-12.339
		c2.811-3.806,5.069-4.51,8.41-1.232c1.965,1.927,3.221,4.555,5.025,6.671c3.262,3.824,6.301,7.985,10.152,11.125
		c5.491,4.476,12.375,4,19.085,3.778c5.381-0.178,8.759-3.477,12.419-6.73c3.296-2.931,5.481-6.146,5.815-10.665
		c0.276-3.732-0.526-4.577-4.33-3.924c0.234,1.24,1.038,2.744,0.6,3.645c-2.224,4.575-5.23,8.335-10.258,10.44
		c-4.479,1.876-8.862,0.743-13.083,0.181c-6.627-0.883-12.059-4.365-15.64-10.387c-1.993-3.352-4.115-6.699-6.655-9.639
		c-3.688-4.267-7.008-4.784-11.602-1.444c-3.83,2.784-7.18,6.278-10.51,9.685c-2.79,2.854-6.076,4.28-9.923,4.042
		c-1.68-0.104-3.602-0.851-4.797-1.967c-0.473-0.441,0.734-2.681,1.24-4.307c-1.468-1.528-1.566-2.951,0.842-4.407
		c1.015-0.613,1.698-2.092,2.042-3.314c0.11-0.394-1.346-1.229-2.085-1.861c3.277-2.854,10.229-25.836,8.817-29.155
		c0.592-0.534,1.292-0.989,1.759-1.616c3.387-4.548,3.386-4.478,9.182-5.44c7.986-1.327,15.055-4.483,20.669-10.556
		c2.715-2.938,5.749-2.228,7.537,1.297c1.829,3.605,3.768,7.191,6.047,10.521c1.617,2.361,3.638,4.595,5.901,6.335
		c5.375,4.133,11.767,3.723,18.122,3.596c4.185-0.082,6.21-3.076,8.958-5.333c4.567-3.752,8.884-7.568,9.33-13.953
		c0.106-1.519-0.453-3.083-0.852-5.521c-1.168,1.326-1.744,1.684-1.856,2.153c-0.849,3.547-3.231,5.623-6.24,7.458
		c-2.334,1.423-4.226,3.564-6.344,5.353c-1.174,0.991-2.285,2.401-3.645,2.744c-1.943,0.489-4.095,0.288-6.147,0.178
		c-6.004-0.319-10.566-2.813-12.987-8.644c-1.606-3.868-3.383-7.669-5.198-11.444c-1.32-2.745-7.7-5.694-9.781-4.35
		c-3.377,2.182-6.965,4.311-9.662,7.208c-4.58,4.922-10.365,5.663-16.401,6.103c-2.344,0.17-3.467-0.878-2.963-3.408
		c1.444-7.247,2.464-14.599,4.31-21.739c1.708-6.605,2.093-6.477,8.775-8.676c1.252-0.412,2.352-1.652,3.574-1.733
		c8.679-0.578,14.029-5.878,17.833-12.885c1.462-2.694,3.112-3.771,5.899-3.878c2.705-0.105,4.19,1.189,5.329,3.6
		c2.474,5.235,5.151,10.38,7.892,15.482c4.209,7.836,16.058,11.306,22.673,6.1c4.849-3.815,10.217-7.3,12.868-13.521
		c1.75-4.107,1.516-5.604-3.077-7.271c-3.819,8.063-4.791,9.227-10.021,12.413c-2.265,1.381-5.188,1.648-7.759,2.569
		c-2.709,0.97-5.266,0.735-6.931-1.597c-2.414-3.381-4.583-6.966-6.551-10.628c-1.701-3.165-2.783-6.663-4.479-9.831
		c-2.973-5.551-8.894-6.888-14.298-3.619c-0.996,0.602-2.445,0.405-3.554,0.883c-2.507,1.081-5.211,1.997-7.312,3.646
		c-2.092,1.643-3.525,4.119-5.303,6.18c-0.253,0.293-0.818,0.377-1.256,0.443c-2.96,0.441-5.925,0.852-9.805,1.402
		c-1.607-0.797-2.078-2.801-1.122-5.556c0.429-1.235,0.049-2.751,0.047-4.14c-0.004-2.792-0.001-5.585-0.001-9.084
		c1.114,1.173,1.563,1.646,2.021,2.129c0.237-4.488,1.067-8.82,0.555-12.987c-0.942-7.664-1.278-15.234-0.082-22.876
		c0.339-2.163,0.507-4.402,0.362-6.581c-0.34-5.1-0.752-10.205-1.438-15.269c-1.045-7.72-2.287-15.414-3.552-23.103
		c-2.138-12.994-4.3-25.97-8.387-38.563c-1.519-4.678-2.072-9.668-3.085-14.512c-0.142-0.677-0.333-1.358-0.613-1.988
		c-1.281-2.876-2.756-3.173-4.907-0.988c-1.713,1.739-3.201,3.764-5.122,5.225c-4.816,3.666-9.876,7.01-14.735,10.621
		c-4.646,3.453-9.589,6.581-13.028,11.446c-0.411,0.582-1.517,0.687-2.312,0.981c-0.879,0.326-1.771,0.617-3.27,1.136
		c1.183,0.732,1.68,1.04,2.091,1.294c-1.84,1.907-3.528,3.866-5.432,5.585c-3.628,3.275-7.415,6.373-11.073,9.615
		c-6.976,6.183-14.801,11.592-18.876,20.458c-0.141,0.308-0.372,0.648-0.654,0.806c-5.844,3.24-9.745,8.475-14.001,13.39
		c-5.179,5.981-10.984,11.456-15.815,17.694c-8.333,10.759-16.142,21.925-24.123,32.956c-1.343,1.856-2.043,4.378-3.726,5.751
		c-5.047,4.121-11.902,5.167-16.95-1.063c-2.769-3.416-4.879-7.358-7.453-10.943c-1.047-1.459-2.394-2.803-3.856-3.845
		c-3.614-2.575-7.251-0.97-10.846,0.28c-5.96,2.073-10.693,5.866-15.024,10.348c-4.359,4.51-9.412,8.15-15.93,8.292
		c-2.439,0.053-5.829-0.677-7.197-2.349c-4.012-4.906-8.135-10.029-8.318-16.93c-0.031-1.163-0.015-2.339-0.191-3.482
		c-0.338-2.207-1.512-3.18-3.911-2.831c-2.246,0.327-3.522,1.31-3.225,3.606c0.789,6.098,1.017,12.34,5.182,17.5
		c2.118,2.625,3.751,5.635,5.786,8.335c1.882,2.496,4.207,4.29,7.69,3.896c3.385-0.382,6.891-0.13,10.171-0.896
		c4.594-1.072,8.915-3.102,12.409-6.421c4.853-4.608,8.609-10.424,15.549-12.626c3.089-0.979,5.051-0.575,6.924,1.985
		c3.563,4.872,7.261,9.646,10.943,14.429c2.002,2.603,4.614,3.765,7.949,3.241c2.015-0.316,4.058-0.448,6.346-0.689
		c-0.147,1.179-0.069,2.156-0.401,2.964c-2.262,5.509-4.659,10.962-6.915,16.473c-1.887,4.61-3.813,9.216-5.398,13.934
		c-1.24,3.69-3.527,5.46-6.452,3.114c-5.263-4.221-10.158-9.07-14.442-14.285c-3.434-4.18-6.778-6.114-11.994-4.418
		c-2.433,0.792-5.016,1.488-7.119,2.859c-4.53,2.955-8.851,6.244-13.146,9.543c-2.408,1.849-4.453,4.187-6.922,5.936
		c-1.891,1.339-4.274,1.956-6.291,3.146c-4.525,2.67-12.436,0.64-14.058-4.373c-1.399-4.323-3.936-8.62-2.403-13.634
		c0.4-1.311,0.19-3.617-0.674-4.328c-1.64-1.349-3.957-1.873-5.993-2.74c-0.461,1.134-1.47,2.363-1.293,3.387
		c1.029,5.955,2.383,11.854,3.541,17.789c2.059,10.555,10.504,12.585,18.748,11.699c7.472-0.802,13.489-4.795,18.929-9.729
		c3.018-2.736,5.716-5.935,9.057-8.185c8.856-5.966,12.877-6.973,19.644,3.088c3.398,5.054,6.61,10.827,13.951,11.249
		c0.646,0.036,1.498,0.406,1.846,0.905c0.708,1.016,1.604,2.224,1.609,3.355c0.04,9.251-5.087,17.437-5.558,26.728
		c-0.146,2.87-2.145,5.894-1.83,9.231c0.061,0.648-0.74,1.368-1.114,2.07c-0.617,1.16-1.209,2.333-1.864,3.601
		c1.122,0.247,1.773,0.39,2.761,0.607c-4.257,2.443-7.359,1.25-10.983-0.999c-6.069-3.767-8.301-10.138-11.82-15.585
		c-1.846-2.858-3.909-4.25-7.031-4.08c-2.187,0.118-4.514,0.357-6.489,1.211c-8.301,3.587-14.709,9.657-20.741,16.229
		c-2.001,2.18-3.584,5.875-7.829,3.59c-0.378-0.203-1.212,0.648-1.854,0.688c-2.929,0.178-6.282,1.182-8.693,0.109
		c-3.106-1.38-6.132-3.814-7.183-7.666c-0.789-2.887-1.929-5.684-2.627-8.589c-1.022-4.251-3.522-5.612-7.942-3.638
		c1.411,5.069,2.929,10.179,4.249,15.34c2.198,8.6,12.681,13.263,19.658,12.778c8.381-0.582,15.987-3.653,21.3-11.115
		c3.627-5.095,7.854-9.872,14.14-12.051c2.577-0.894,4.971-1.448,6.605,1.589c1.282,2.384,2.348,4.979,4.065,7.013
		c4.871,5.769,8.569,13.291,17.849,13.134c0.285-0.006,0.576,0.317,0.777,0.436c0,3.871,0,7.598,0,11.839
		c0.128,0.348,0.994,1.477,0.792,2.363c-0.939,4.128-1.875,8.224-2.04,12.489c-0.261,6.761-0.69,13.516-1.051,20.272
		c-0.006,0.116-0.054,0.229-0.06,0.345c-0.464,9.125-1.781,18.309-1.154,27.358c0.672,9.714,1.589,19.36,0.059,28.991
		C312.482,486.906,312.346,490.177,316.876,492.918z"/>
	<path display="inline" fill-rule="evenodd" clip-rule="evenodd" d="M316.876,492.918c-4.531-2.741-4.394-6.012-3.768-9.951
		c1.531-9.631,0.614-19.277-0.059-28.991c-0.626-9.05,0.69-18.233,1.154-27.358c0.006-0.115,0.054-0.229,0.06-0.345
		c0.36-6.757,0.79-13.512,1.051-20.272c0.165-4.266,1.101-8.361,2.04-12.489c0.202-0.887-0.664-2.016-0.792-2.363
		c0-4.241,0-7.968,0-11.839c-0.201-0.118-0.492-0.441-0.777-0.436c-9.28,0.157-12.978-7.365-17.849-13.134
		c-1.717-2.033-2.783-4.629-4.065-7.013c-1.634-3.037-4.029-2.482-6.605-1.589c-6.286,2.179-10.513,6.956-14.14,12.051
		c-5.313,7.462-12.919,10.533-21.3,11.115c-6.977,0.484-17.459-4.179-19.658-12.778c-1.319-5.161-2.837-10.271-4.249-15.34
		c4.42-1.975,6.92-0.613,7.942,3.638c0.699,2.905,1.839,5.702,2.627,8.589c1.051,3.852,4.076,6.286,7.183,7.666
		c2.411,1.072,5.764,0.068,8.693-0.109c0.642-0.039,1.476-0.891,1.854-0.688c4.244,2.285,5.828-1.41,7.829-3.59
		c6.032-6.571,12.44-12.642,20.741-16.229c1.976-0.854,4.302-1.093,6.489-1.211c3.122-0.17,5.186,1.222,7.031,4.08
		c3.519,5.447,5.75,11.818,11.82,15.585c3.624,2.249,6.726,3.442,10.983,0.999c-0.987-0.218-1.639-0.36-2.761-0.607
		c0.654-1.268,1.247-2.44,1.864-3.601c0.374-0.702,1.175-1.422,1.114-2.07c-0.315-3.338,1.685-6.361,1.83-9.231
		c0.471-9.291,5.598-17.477,5.558-26.728c-0.005-1.132-0.9-2.34-1.609-3.355c-0.348-0.499-1.2-0.869-1.846-0.905
		c-7.341-0.422-10.553-6.195-13.951-11.249c-6.767-10.061-10.788-9.054-19.644-3.088c-3.341,2.25-6.04,5.448-9.057,8.185
		c-5.44,4.934-11.457,8.927-18.929,9.729c-8.244,0.886-16.689-1.145-18.748-11.699c-1.158-5.935-2.511-11.834-3.541-17.789
		c-0.177-1.023,0.833-2.253,1.293-3.387c2.036,0.867,4.353,1.392,5.993,2.74c0.865,0.711,1.075,3.018,0.674,4.328
		c-1.532,5.014,1.004,9.311,2.403,13.634c1.622,5.013,9.533,7.043,14.058,4.373c2.017-1.189,4.4-1.807,6.291-3.146
		c2.47-1.749,4.515-4.087,6.922-5.936c4.295-3.299,8.615-6.588,13.146-9.543c2.103-1.371,4.686-2.067,7.119-2.859
		c5.215-1.696,8.56,0.238,11.994,4.418c4.284,5.215,9.18,10.064,14.442,14.285c2.925,2.346,5.212,0.576,6.452-3.114
		c1.585-4.718,3.511-9.323,5.398-13.934c2.256-5.511,4.653-10.964,6.915-16.473c0.332-0.808,0.254-1.785,0.401-2.964
		c-2.288,0.241-4.331,0.373-6.346,0.689c-3.335,0.523-5.947-0.639-7.949-3.241c-3.682-4.783-7.38-9.557-10.943-14.429
		c-1.873-2.561-3.835-2.965-6.924-1.985c-6.94,2.202-10.696,8.018-15.549,12.626c-3.494,3.319-7.815,5.349-12.409,6.421
		c-3.28,0.766-6.786,0.514-10.171,0.896c-3.483,0.395-5.809-1.399-7.69-3.896c-2.035-2.7-3.668-5.71-5.786-8.335
		c-4.166-5.16-4.393-11.402-5.182-17.5c-0.298-2.297,0.979-3.279,3.225-3.606c2.399-0.349,3.573,0.624,3.911,2.831
		c0.176,1.144,0.16,2.319,0.191,3.482c0.183,6.9,4.306,12.023,8.318,16.93c1.368,1.672,4.757,2.401,7.197,2.349
		c6.518-0.142,11.571-3.782,15.93-8.292c4.331-4.481,9.064-8.274,15.024-10.348c3.595-1.25,7.232-2.855,10.846-0.28
		c1.462,1.042,2.809,2.386,3.856,3.845c2.574,3.585,4.685,7.527,7.453,10.943c5.048,6.229,11.903,5.184,16.95,1.063
		c1.683-1.373,2.383-3.895,3.726-5.751c7.98-11.031,15.79-22.197,24.123-32.956c4.832-6.238,10.637-11.713,15.815-17.694
		c4.256-4.915,8.157-10.149,14.001-13.39c0.282-0.157,0.513-0.498,0.654-0.806c4.075-8.866,11.9-14.275,18.876-20.458
		c3.658-3.242,7.444-6.34,11.073-9.615c1.904-1.719,3.592-3.678,5.432-5.585c-0.411-0.254-0.908-0.562-2.091-1.294
		c1.499-0.519,2.391-0.81,3.27-1.136c0.795-0.295,1.9-0.399,2.312-0.981c3.439-4.865,8.383-7.993,13.028-11.446
		c4.859-3.611,9.918-6.955,14.735-10.621c1.92-1.461,3.409-3.485,5.122-5.225c2.151-2.185,3.625-1.888,4.907,0.988
		c0.28,0.63,0.471,1.312,0.613,1.988c1.013,4.844,1.566,9.834,3.085,14.512c4.087,12.593,6.249,25.568,8.387,38.563
		c1.265,7.688,2.506,15.383,3.552,23.103c0.686,5.063,1.097,10.169,1.438,15.269c0.145,2.179-0.023,4.418-0.362,6.581
		c-1.197,7.642-0.86,15.212,0.082,22.876c0.513,4.167-0.318,8.499-0.555,12.987c-0.459-0.483-0.908-0.956-2.021-2.129
		c0,3.499-0.003,6.292,0.001,9.084c0.002,1.389,0.382,2.904-0.047,4.14c-0.957,2.755-0.486,4.759,1.122,5.556
		c3.879-0.551,6.844-0.961,9.805-1.402c0.438-0.066,1.003-0.15,1.256-0.443c1.778-2.061,3.211-4.537,5.303-6.18
		c2.101-1.649,4.804-2.565,7.312-3.646c1.108-0.478,2.558-0.281,3.554-0.883c5.405-3.269,11.325-1.932,14.298,3.619
		c1.697,3.168,2.779,6.666,4.479,9.831c1.968,3.662,4.137,7.247,6.551,10.628c1.665,2.332,4.222,2.566,6.931,1.597
		c2.571-0.921,5.494-1.188,7.759-2.569c5.23-3.187,6.202-4.35,10.021-12.413c4.592,1.667,4.827,3.163,3.077,7.271
		c-2.651,6.222-8.019,9.706-12.868,13.521c-6.616,5.206-18.464,1.736-22.673-6.1c-2.741-5.103-5.418-10.247-7.892-15.482
		c-1.139-2.41-2.625-3.705-5.329-3.6c-2.787,0.107-4.437,1.184-5.899,3.878c-3.803,7.007-9.153,12.307-17.833,12.885
		c-1.222,0.081-2.322,1.321-3.574,1.733c-6.682,2.199-7.068,2.07-8.775,8.676c-1.846,7.141-2.866,14.492-4.31,21.739
		c-0.504,2.53,0.62,3.578,2.963,3.408c6.036-0.439,11.821-1.181,16.401-6.103c2.696-2.897,6.285-5.026,9.662-7.208
		c2.082-1.345,8.461,1.604,9.781,4.35c1.815,3.775,3.592,7.576,5.198,11.444c2.421,5.83,6.982,8.324,12.987,8.644
		c2.052,0.11,4.204,0.312,6.147-0.178c1.36-0.343,2.471-1.753,3.645-2.744c2.118-1.788,4.009-3.93,6.344-5.353
		c3.009-1.835,5.391-3.911,6.24-7.458c0.112-0.47,0.688-0.827,1.856-2.153c0.399,2.438,0.958,4.002,0.852,5.521
		c-0.445,6.385-4.763,10.201-9.33,13.953c-2.748,2.257-4.772,5.251-8.958,5.333c-6.355,0.127-12.747,0.537-18.122-3.596
		c-2.264-1.74-4.285-3.974-5.901-6.335c-2.28-3.329-4.219-6.915-6.047-10.521c-1.788-3.524-4.822-4.234-7.537-1.297
		c-5.614,6.072-12.683,9.229-20.669,10.556c-5.796,0.963-5.795,0.893-9.182,5.44c-0.467,0.627-1.167,1.082-1.758,1.617
		c1.411,3.318-5.541,26.3-8.818,29.154c0.739,0.633,2.195,1.468,2.085,1.861c-0.344,1.223-1.028,2.701-2.042,3.314
		c-2.408,1.456-2.31,2.879-0.842,4.407c-0.506,1.626-1.713,3.865-1.24,4.307c1.195,1.116,3.118,1.862,4.797,1.967
		c3.847,0.238,7.133-1.188,9.923-4.042c3.331-3.406,6.681-6.9,10.51-9.685c4.594-3.34,7.914-2.822,11.602,1.444
		c2.54,2.939,4.662,6.287,6.655,9.639c3.581,6.021,9.013,9.504,15.64,10.387c4.221,0.563,8.604,1.695,13.083-0.181
		c5.028-2.105,8.034-5.865,10.258-10.44c0.438-0.9-0.365-2.404-0.6-3.645c3.804-0.653,4.606,0.191,4.33,3.924
		c-0.334,4.52-2.519,7.734-5.815,10.665c-3.66,3.254-7.038,6.553-12.419,6.73c-6.709,0.222-13.594,0.697-19.085-3.778
		c-3.851-3.14-6.89-7.301-10.152-11.125c-1.804-2.116-3.061-4.744-5.025-6.671c-3.341-3.277-5.599-2.573-8.41,1.232
		c-4.96,6.714-11.146,11.838-19.943,12.339c-1.898,0.107-4.039-0.607-5.75-1.531c-2.317-1.25-3.479-0.999-3.849,1.664
		c-0.345,2.482-0.348,5.07-1.09,7.426c-0.747,2.373-2.188,4.533-3.384,6.756c-0.84,1.56-1.78,3.066-2.824,4.852
		c-0.007-0.006-0.607-0.438-1.226-0.884c-0.226,0.242-0.542,0.525-0.516,0.563c2.964,4.122,0.019,7.705-1.305,11.229
		c-1.415,3.767-3.477,7.322-5.525,10.813c-3.502,5.967-7.194,11.824-10.86,17.695c-0.591,0.947-1.458,1.721-2.593,3.031
		c-0.139-1.227-0.212-1.877-0.286-2.527c-0.272-0.08-0.544-0.16-0.816-0.24c-0.296,0.988-0.927,2.808-0.84,2.842
		c2.673,1.074,1.008,2.922,0.483,4.043c-1.044,2.231-2.463,4.326-3.961,6.299c-4.025,5.301-8.088,10.578-12.298,15.731
		c-4.327,5.296-8.672,10.597-13.33,15.597c-4.718,5.065-9.671,9.943-14.859,14.521c-1.657,1.462-5.206,3.009-6.46,2.227
		c-2.491-1.554-4.682-4.434-5.757-7.24c-2.388-6.234-3.988-12.77-5.955-19.167c-1.191-3.875-2.308-7.785-3.747-11.569
		c-1.975-5.191-4.163-10.304-6.385-15.396c-0.913-2.09-2.832-2.546-4.705-1.55c-5.595,2.977-11.141,6.054-16.618,9.244
		c-6.416,3.737-12.745,7.622-19.091,11.478c-0.878,0.533-1.666,1.229-2.45,1.903C321.095,489.213,318.834,491.207,316.876,492.918z
		 M462.283,395.173c1.056-5.073,2.046-10.162,3.219-15.208c0.249-1.068,0.943-2.501,1.813-2.871c3.054-1.3,3.079-3.982,3.57-6.543
		c0.602-3.139,1.054-6.326,1.943-9.385c1.499-5.154,4.604-10.21,4.651-15.329c0.069-7.577,5.42-14.022,3.733-21.733
		c-0.129-0.589,0.838-1.341,1-2.082c0.606-2.773,1.121-5.567,1.6-8.366c0.174-1.019,0.024-2.099,0.237-3.104
		c1.139-5.364,2.499-10.685,3.493-16.074c1.305-7.077,2.491-14.184,3.443-21.316c0.703-5.262,0.996-10.582,1.379-15.884
		c0.133-1.837-0.117-3.7-0.012-5.542c0.36-6.294,1.328-12.604,1.078-18.87c-0.327-8.202-1.419-16.39-2.493-24.544
		c-1.472-11.183-3.163-22.338-4.919-33.48c-0.489-3.102-1.537-6.116-2.354-9.271c-1.062,0.612-1.47,0.848-2.149,1.238
		c1.673-6.095-0.427-11.133-2.416-16.326c-1.101,0.917-1.762,1.831-2.156,2.849c-3.817,9.838-7.663,19.665-11.352,29.551
		c-3.774,10.114-7.442,20.27-11.041,30.447c-2.243,6.347-4.188,12.798-6.416,19.149c-3.231,9.214-6.7,18.346-9.876,27.578
		c-2.742,7.971-5.026,16.102-7.864,24.036c-3.312,9.262-7.133,18.342-10.498,27.586c-3.372,9.262-6.368,18.66-9.683,27.944
		c-3.972,11.125-8.417,22.091-12.079,33.313c-3.323,10.186-6.805,20.27-11.161,30.066c-1.325,2.979-1.842,6.312-2.838,9.447
		c-0.768,2.42-1.625,4.819-2.584,7.17c-2.526,6.194-5.315,12.288-7.639,18.557c-1.596,4.306-2.715,8.806-3.785,13.281
		c-0.382,1.6-0.61,3.762,0.157,5.015c2.467,4.034,5.606,7.653,8.129,11.658c1.254,1.989,2.562,4.532,2.4,6.717
		c-0.466,6.3,1.909,11.907,3.593,17.635c1.659,5.644,4.144,11.045,6.333,16.728c2.569-2.419,5.779-4.928,8.357-7.971
		c6.315-7.452,12.435-15.076,18.454-22.771c6.363-8.134,12.985-16.125,18.632-24.743c5.345-8.157,9.692-16.983,14.25-25.636
		c3.333-6.328,6.663-12.706,9.292-19.341c1.63-4.112,4.349-8.218,3.027-13.108C462.599,395.484,462.441,395.328,462.283,395.173z
		 M353.229,458.129c4.951-1.1,9.501-3.49,11.433-10.143c2.743-9.439,6.325-18.644,9.765-27.867
		c3.09-8.286,6.583-16.422,9.697-24.699c3.97-10.557,7.748-21.186,11.589-31.79c3.044-8.403,6.117-16.797,9.07-25.232
		c3.039-8.677,5.797-17.455,8.957-26.087c3.435-9.381,7.381-18.577,10.757-27.979c3.69-10.279,6.877-20.739,10.471-31.056
		c7.435-21.346,14.939-42.668,22.526-63.96c3.088-8.668,6.493-17.224,9.7-25.85c1.681-4.521,3.247-9.086,5.192-14.551
		c-1.642,0.975-2.478,1.338-3.157,1.895c-5.444,4.463-10.938,8.867-16.252,13.479c-3.865,3.354-7.57,6.906-11.188,10.528
		c-9.516,9.527-18.943,19.143-28.41,28.718c-2.374,2.401-4.714,4.837-7.155,7.169c-5.916,5.652-9.418,13.518-16.649,17.996
		c-1.42,0.88-2.451,2.461-3.508,3.836c-1.72,2.237-3.264,4.609-4.968,6.859c-5.738,7.578-11.688,15.004-17.216,22.732
		c-3.895,5.445-7.31,11.242-10.787,16.975c-1.618,2.666-3.162,5.446-4.237,8.359c-3.11,8.432-5.971,16.954-8.908,25.449
		c-0.216,0.623-0.601,1.637-0.333,1.911c2.698,2.769,1.093,4.671-0.973,6.802c-0.999,1.029-1.657,2.564-2.039,3.986
		c-1.532,5.704-3.345,11.386-4.218,17.201c-1.347,8.975-4.6,17.592-4.683,26.815c-0.023,2.513-1.901,4.969-2.152,7.526
		c-1.15,11.766-2.133,23.551-2.968,35.345c-0.727,10.27-1.629,20.561-1.619,30.841c0.011,10.768,1.018,21.533,1.577,32.06
		c4.459,1.995,6.279-1.964,9.048-3.462c6.597-3.568,13.066-7.374,19.542-11.162C351.821,460.373,352.206,459.453,353.229,458.129z"
		/>
</g>
<path fill-rule="evenodd" clip-rule="evenodd" fill="none" stroke="#000000" stroke-width="7" stroke-linecap="round" stroke-linejoin="round" stroke-miterlimit="10" d="
	M124.87,285.601L130.976,323c0,0,138.644-103.01,95.14-315.947c0,0-154.292,122.09-135.975,302.972L124.87,285.601z"/>
<line fill-rule="evenodd" clip-rule="evenodd" fill="none" stroke="#000000" stroke-width="7" stroke-linecap="round" stroke-linejoin="round" stroke-miterlimit="10" x1="124.87" y1="285.601" x2="226.116" y2="7.053"/>
<path fill-rule="evenodd" clip-rule="evenodd" fill="none" stroke="#000000" stroke-width="7" stroke-linecap="round" stroke-linejoin="round" stroke-miterlimit="10" d="
	M30.35,132.222c0,0,11.325,34.312,32.055,12.212c0,0,12.593-20.607,25.186-3.435c0,0,8.014,13.737,17.172,5.724"/>
<path fill-rule="evenodd" clip-rule="evenodd" fill="none" stroke="#000000" stroke-width="7" stroke-linecap="round" stroke-linejoin="round" stroke-miterlimit="10" d="
	M300.911,148.249c0,0-13.85,20.192-27.476,3.435c0,0-10.035-18.734-22.896-1.145c0,0-8.128,9.888-14.883,1.145"/>
<path fill-rule="evenodd" clip-rule="evenodd" fill="none" stroke="#000000" stroke-width="7" stroke-linecap="round" stroke-linejoin="round" stroke-miterlimit="10" d="
	M284.883,223.048c0,0-17.285,19.047-27.476,3.435c0,0-8.508-22.551-22.896-1.145c0,0-8.128,7.979-14.883,1.145"/>
<path fill-rule="evenodd" clip-rule="evenodd" fill="none" stroke="#000000" stroke-width="7" stroke-linecap="round" stroke-linejoin="round" stroke-miterlimit="10" d="
	M294.805,184.122c0,0-14.232,21.337-27.476,3.435c0,0-9.271-21.787-22.896-1.145c0,0-8.128,7.217-14.882,1.145"/>
<path fill-rule="evenodd" clip-rule="evenodd" fill="none" stroke="#000000" stroke-width="7" stroke-linecap="round" stroke-linejoin="round" stroke-miterlimit="10" d="
	M5.162,205.494c0,0,8.654,28.205,30.529,9.922c0,0,12.592-20.607,25.186-3.435c0,0,8.014,13.737,17.172,5.725"/>
<path fill-rule="evenodd" clip-rule="evenodd" fill="none" stroke="#000000" stroke-width="7" stroke-linecap="round" stroke-linejoin="round" stroke-miterlimit="10" d="
	M17.374,166.568c0,0,7.891,33.548,31.292,11.448c0,0,12.593-20.607,25.186-3.435c0,0,8.014,13.738,17.172,5.725"/>
</svg>
