<?xml version="1.0" encoding="utf-8"?>
<!-- Generator: Adobe Illustrator 16.0.0, SVG Export Plug-In . SVG Version: 6.00 Build 0)  -->
<!DOCTYPE svg PUBLIC "-//W3C//DTD SVG 1.1//EN" "http://www.w3.org/Graphics/SVG/1.1/DTD/svg11.dtd">
<svg version="1.1" id="Calque_1" xmlns="http://www.w3.org/2000/svg" xmlns:xlink="http://www.w3.org/1999/xlink" x="0px" y="0px"
	 width="146.669px" height="259.111px" viewBox="0 0 146.669 259.111" enable-background="new 0 0 146.669 259.111"
	 xml:space="preserve">
<g>
	<path fill-rule="evenodd" clip-rule="evenodd" stroke="#000000" stroke-width="2" stroke-miterlimit="10" d="M5.988,170.487
		c2.087,0.664,3.758,1.195,5.153,1.639c0-8.012,0.391-15.556-0.118-23.039c-0.445-6.542-2.472-12.986-2.789-19.524
		c-0.579-11.908-0.6-23.854-0.497-35.783c0.091-10.515,0.697-21.026,0.988-31.54c0.033-1.197-0.502-2.408-0.655-3.086
		c0.481-2.324,0.891-4.258,1.282-6.194c1.511-7.487,2.982-14.982,4.586-22.449c0.126-0.588,1.191-0.941,1.75-1.476
		c3.748-3.585,7.261-7.46,11.298-10.68c2.225-1.774,5.303-2.495,8.024-3.625c4.462-1.853,8.97-3.598,13.404-5.513
		c1.065-0.46,1.92-1.407,2.688-1.991c3.224-0.399,6.622-0.783,10.009-1.247c14.314-1.958,28.655-0.792,42.434,2.547
		c10.606,2.57,21.265,7.703,28.108,16.497c5.826,7.485,11.213,15.838,9.168,27.073c-1.651,9.07-0.672,18.613-0.935,27.943
		c-0.199,7.029-0.605,14.053-0.696,21.081c-0.016,1.188,0.876,2.593,1.739,3.542c1.525,1.676,1.542,2.73-0.518,3.916
		c-0.827,0.476-1.806,1.594-1.818,2.433c-0.101,7.06,0.175,14.125,0.005,21.182c-0.168,6.952-0.872,13.89-1.055,20.841
		c-0.109,4.131,0.266,8.281,0.599,12.407c0.052,0.648,1.02,1.72,1.599,1.744c3.422,0.144,2.93,2.218,2.995,4.669
		c0.133,4.946,0.918,9.871,1.295,14.815c0.258,3.389,1.813,7.164-4.946,5.626c-4.761-1.083-10.137,0.692-15.251,0.968
		c-5.47,0.295-10.956,0.311-16.433,0.495c-0.92,0.031-1.832,0.295-3.581,0.593c3.82,7.234,7.124,14.001,10.91,20.486
		c2.771,4.748,6.361,9.012,9.245,13.702c2.678,4.354,5.019,8.932,7.241,13.54c0.51,1.057-0.077,2.642-0.159,3.983
		c-0.958-0.519-2.241-0.806-2.81-1.603c-1.383-1.938-2.752-4-3.544-6.22c-1.204-3.374-2.761-5.193-6.824-4.679
		c-10.544,1.332-21.122,2.503-31.719,3.284c-12.652,0.933-25.334,1.511-38.012,1.998c-4.801,0.185-9.633-0.479-14.443-0.369
		c-1.077,0.025-2.489,1.483-3.093,2.628c-1.142,2.165-1.536,4.742-2.77,6.834c-0.88,1.492-2.627,2.473-3.988,3.682
		c-0.158-1.833-0.895-3.857-0.363-5.46c1.453-4.369,3.57-8.51,5.193-12.829c3.677-9.791,7.135-19.665,10.866-29.435
		c1.038-2.72,2.718-5.195,4.437-8.406c-6.79,0-12.781-0.133-18.764,0.043c-4.464,0.131-8.936,0.512-13.369,1.06
		c-3.542,0.438-5.999-1.773-8.79-3.139c-0.617-0.301-1.141-1.628-1.052-2.407c0.671-5.862,1.43-11.716,2.355-17.542
		C4.556,172.305,5.567,171.237,5.988,170.487z M135.411,124.229c-0.032-0.004-0.064-0.008-0.096-0.011
		c0-4.157-0.096-8.318,0.04-12.47c0.072-2.2-0.673-2.926-2.892-2.931c-14.345-0.038-28.696-0.525-43.031-0.223
		c-15.447,0.326-30.885,1.238-46.314,2.118c-9.581,0.546-19.13,1.699-28.712,2.17c-3.038,0.15-3.753,1.26-3.453,3.808
		c0.598,5.071,1.438,10.122,1.831,15.208c0.937,12.16,1.744,24.333,2.422,36.51c0.122,2.191,0.57,3.347,2.912,3.387
		c7.478,0.128,14.96,0.572,22.431,0.41c6.699-0.146,13.38-1.029,20.078-1.416c22.995-1.331,46.102-0.008,69.041-3.135
		c3.692-0.503,4.296-1.663,4.377-4.864C134.37,149.933,134.935,137.082,135.411,124.229z M134.082,51.875
		c1.233-0.949,3.128-1.789,3.074-2.472c-0.249-3.111-0.853-6.234-1.726-9.238c-0.445-1.531-1.748-2.806-2.626-4.22
		c-2.02-3.25-3.304-7.502-6.169-9.569c-6.34-4.574-13.103-9.089-20.386-11.679c-6.893-2.451-14.663-2.471-22.061-3.459
		c-12.444-1.663-24.73-1.347-36.705,3.001c-13.431,4.876-26.03,10.964-31.756,25.25c-1.869,4.665-2.149,9.965-3.139,14.892
		c41.866,3.882,82.674,1.544,123.558-1.82C135.51,52.35,134.873,52.138,134.082,51.875z M12.567,61.055
		c-0.519,15.168-1.075,31.405-1.62,47.309c22.337-1.447,43.879-2.842,65.734-4.259c-0.253-1.64-0.606-3.566-0.842-5.508
		c-1.199-9.874-2.177-19.778-3.606-29.618c-1.198-8.253-1.425-8.033-9.816-7.964C45.986,61.151,29.555,61.055,12.567,61.055z
		 M120.227,104.501c0-0.139,0-0.28,0-0.419c1.678,0.123,3.356,0.26,5.036,0.368c10.033,0.646,10.033,0.644,10.104-9.367
		c0.001-0.224,0.03-0.448,0.039-0.673c0.421-10.964,0.781-21.933,1.305-32.892c0.131-2.741-0.887-3.466-3.473-3.281
		c-10.112,0.723-20.229,1.42-30.354,1.906c-8.175,0.392-16.365,0.576-24.549,0.621c-2.618,0.014-3.498,0.717-2.805,3.291
		c1.2,4.452,2.778,8.869,3.348,13.407c1,7.984,1.491,16.041,1.914,24.082c0.137,2.603,1.06,3.21,3.438,3.093
		c3.902-0.192,7.817-0.124,11.726-0.13C104.045,104.492,112.136,104.501,120.227,104.501z M140.397,189.171
		c-0.507-2.864-1.708-5.318-1.154-7.277c2.306-8.159,0.905-10.396-7.25-10.256c-0.674,0.012-1.349,0.028-2.022,0.071
		c-15.627,0.996-31.247,2.151-46.885,2.947c-12.871,0.655-25.761,1.116-38.647,1.232c-11.193,0.102-22.396-0.288-33.585-0.701
		c-3.252-0.12-4.454,1.532-4.594,4.147c-0.165,3.071,0.469,6.193,0.227,9.251c-0.234,2.96,2.532,3.735,3.435,3.232
		c2.047-1.139,3.428-0.588,5.489-0.426c4.986,0.39,10.097-0.881,15.165-1.407c0.696-0.072,1.438,0.273,2.154,0.446
		c1.121,0.27,2.253,0.846,3.354,0.786c3.74-0.204,7.465-0.861,11.203-0.926c11.775-0.207,23.556-0.147,35.331-0.338
		c8.847-0.143,17.688-0.633,26.535-0.75C119.414,189.067,129.679,189.171,140.397,189.171z M33.05,235.506
		c28.956-2.021,56.804-3.966,85.264-5.953c-2.846-5.063-5.029-9.027-7.33-12.921c-0.23-0.391-1.201-0.561-1.788-0.492
		c-7.49,0.879-14.956,2.01-22.461,2.706c-12.581,1.166-25.187,2.067-37.783,3.071c-1.816,0.144-3.659,0.099-5.447,0.397
		c-1.731,0.29-3.407,0.911-5.107,1.386c-0.302-0.323-0.605-0.645-0.908-0.968C36.028,226.937,34.566,231.143,33.05,235.506z
		 M102,201.448c-1.467-7.461-1.706-7.353-8.126-7.212c-13.088,0.285-26.186,0.303-39.277,0.224c-4.579-0.028-6.684,1.14-8.411,5.822
		c-1.295,3.511-0.668,4.482,2.979,4.283c4.149-0.228,8.286-0.699,12.437-0.892c10.702-0.498,21.411-0.865,32.113-1.367
		C96.465,202.177,99.201,201.746,102,201.448z M107.272,209.932c-1.69-1.069-3.403-3.086-5.066-3.045
		c-8.357,0.205-16.693,1.135-25.05,1.452c-9.856,0.372-19.728,0.321-29.59,0.565c-4.648,0.116-7.146,2.664-7.914,8.138
		C62.156,216.85,84.359,214.408,107.272,209.932z"/>
	
		<path display="none" fill-rule="evenodd" clip-rule="evenodd" fill="#FFFFFF" stroke="#000000" stroke-width="2" stroke-miterlimit="10" d="
		M135.411,124.229c-0.477,12.853-1.042,25.703-1.367,38.56c-0.081,3.201-0.685,4.361-4.377,4.864
		c-22.939,3.127-46.046,1.804-69.041,3.135c-6.698,0.387-13.379,1.271-20.078,1.416c-7.47,0.162-14.953-0.281-22.431-0.41
		c-2.342-0.04-2.791-1.195-2.912-3.387c-0.678-12.178-1.485-24.35-2.422-36.51c-0.393-5.086-1.232-10.137-1.831-15.208
		c-0.301-2.547,0.415-3.657,3.453-3.808c9.583-0.471,19.131-1.624,28.712-2.17c15.43-0.88,30.868-1.792,46.314-2.118
		c14.335-0.302,28.686,0.185,43.031,0.223c2.219,0.005,2.963,0.731,2.892,2.931c-0.136,4.152-0.04,8.313-0.04,12.47
		C135.347,124.222,135.379,124.226,135.411,124.229z M43.051,153.566c4.708-0.079,9.337-5.182,9.23-10.175
		c-0.069-3.176-5.449-10.032-7.847-9.999c-6.51,0.091-13.064,6.021-12.877,11.649C31.684,148.878,38.118,153.648,43.051,153.566z
		 M109.711,152.107c5.121,0.029,8.605-3.121,8.572-7.75c-0.05-7.063-3.492-11.706-8.725-11.774
		c-3.757-0.049-10.544,6.362-10.454,9.876C99.204,146.37,105.485,152.083,109.711,152.107z"/>
	
		<path display="none" fill-rule="evenodd" clip-rule="evenodd" fill="#FFFFFF" stroke="#000000" stroke-width="2" stroke-miterlimit="10" d="
		M134.082,51.875c0.791,0.263,1.428,0.474,2.064,0.686c-40.883,3.364-81.691,5.702-123.558,1.82
		c0.99-4.927,1.27-10.228,3.139-14.892c5.726-14.286,18.325-20.374,31.756-25.25c11.975-4.348,24.26-4.664,36.705-3.001
		c7.398,0.988,15.168,1.008,22.061,3.459c7.283,2.59,14.045,7.105,20.386,11.679c2.866,2.067,4.149,6.319,6.169,9.569
		c0.878,1.414,2.181,2.689,2.626,4.22c0.873,3.004,1.477,6.127,1.726,9.238C137.21,50.087,135.315,50.926,134.082,51.875z
		 M75.988,42.287c0.009,0.084,0.018,0.168,0.027,0.252c3.026,0,6.052-0.05,9.077,0.012c4.416,0.091,8.053-1.348,11.673-4.077
		c3.368-2.538,3.112-5.556,1.922-8.206c-1.446-3.224-3.5-6.626-8.306-5.804c-5.707,0.976-11.451,2.156-17.202,2.293
		c-3.654,0.087-7.276-0.667-11.024,0.188c-2.564,0.584-5.427-0.194-8.021,0.319c-3.429,0.679-7.683,1.083-9.862,3.298
		c-3.533,3.592,1.511,12.897,6.686,13.24c1.876,0.125,3.774,0.21,5.645,0.074C63.067,43.404,69.526,42.826,75.988,42.287z"/>
	
		<path display="none" fill-rule="evenodd" clip-rule="evenodd" fill="#FFFFFF" stroke="#000000" stroke-width="2" stroke-miterlimit="10" d="
		M12.567,61.055c16.988,0,33.419,0.096,49.85-0.04c8.391-0.069,8.619-0.289,9.816,7.964c1.429,9.839,2.407,19.744,3.606,29.618
		c0.236,1.942,0.589,3.869,0.842,5.508c-21.854,1.417-43.397,2.812-65.734,4.259C11.492,92.46,12.048,76.223,12.567,61.055z
		 M30.374,87.294c2.397,0.908,4.241,2.171,4.824,1.738c4.387-3.26,8.604-6.766,12.668-10.424c0.735-0.662,0.961-2.532,0.609-3.568
		c-0.314-0.926-1.69-1.881-2.714-2.03c-0.617-0.09-1.498,1.298-2.182,2.09c-0.846,0.979-1.479,2.176-2.432,3.022
		C38.021,80.896,34.791,83.554,30.374,87.294z"/>
	
		<path display="none" fill-rule="evenodd" clip-rule="evenodd" fill="#FFFFFF" stroke="#000000" stroke-width="2" stroke-miterlimit="10" d="
		M120.227,104.501c-8.091,0-16.182-0.009-24.272,0.004c-3.909,0.006-7.824-0.062-11.726,0.13c-2.378,0.117-3.301-0.49-3.438-3.093
		c-0.423-8.041-0.914-16.098-1.914-24.082c-0.569-4.539-2.148-8.956-3.348-13.407c-0.693-2.573,0.187-3.276,2.805-3.291
		c8.184-0.045,16.375-0.229,24.549-0.621c10.125-0.486,20.242-1.183,30.354-1.906c2.586-0.185,3.604,0.541,3.473,3.281
		c-0.524,10.959-0.883,21.928-1.305,32.892c-0.009,0.225-0.037,0.449-0.039,0.673c-0.071,10.01-0.07,10.012-10.104,9.367
		c-1.679-0.108-3.357-0.245-5.036-0.368C120.227,104.221,120.227,104.362,120.227,104.501z M101.751,69.937
		c-0.508,0.363-1.015,0.726-1.521,1.09c0.478,1.835,0.36,4.388,1.543,5.371c3.597,2.982,7.645,5.442,11.656,7.875
		c0.608,0.369,1.959-0.487,2.967-0.778c-0.455-0.875-0.845-1.794-1.387-2.612c-0.419-0.633-0.969-1.214-1.564-1.69
		C109.563,76.087,105.652,73.017,101.751,69.937z"/>
	<path fill-rule="evenodd" clip-rule="evenodd" fill="#FFFFFF" stroke="#000000" stroke-width="2" stroke-miterlimit="10" d="
		M140.397,189.171c-10.719,0-20.983-0.104-31.245,0.032c-8.847,0.117-17.688,0.607-26.535,0.75
		c-11.775,0.191-23.556,0.131-35.331,0.338c-3.738,0.065-7.463,0.723-11.203,0.926c-1.1,0.06-2.232-0.516-3.354-0.786
		c-0.716-0.173-1.458-0.518-2.154-0.446c-5.068,0.525-10.179,1.796-15.165,1.407c-2.061-0.162-3.442-0.713-5.489,0.426
		c-0.903,0.502-3.669-0.272-3.435-3.232c0.242-3.058-0.392-6.18-0.227-9.251c0.14-2.615,1.342-4.267,4.594-4.147
		c11.189,0.413,22.392,0.803,33.585,0.701c12.887-0.117,25.777-0.577,38.647-1.232c15.638-0.796,31.257-1.951,46.885-2.947
		c0.673-0.043,1.348-0.059,2.022-0.071c8.155-0.14,9.556,2.097,7.25,10.256C138.689,183.853,139.891,186.307,140.397,189.171z"/>
	<path fill-rule="evenodd" clip-rule="evenodd" fill="#FFFFFF" stroke="#000000" stroke-width="2" stroke-miterlimit="10" d="
		M33.05,235.506c1.517-4.363,2.979-8.569,4.441-12.774c0.303,0.323,0.605,0.646,0.908,0.968c1.7-0.475,3.376-1.096,5.107-1.386
		c1.788-0.299,3.63-0.253,5.447-0.397c12.596-1.004,25.202-1.905,37.783-3.071c7.505-0.696,14.971-1.826,22.461-2.706
		c0.587-0.069,1.557,0.101,1.788,0.492c2.301,3.894,4.484,7.858,7.33,12.921C89.854,231.54,62.006,233.484,33.05,235.506z"/>
	<path fill-rule="evenodd" clip-rule="evenodd" fill="#FFFFFF" stroke="#000000" stroke-width="2" stroke-miterlimit="10" d="
		M102,201.448c-2.799,0.298-5.535,0.729-8.286,0.857c-10.702,0.502-21.411,0.869-32.113,1.367c-4.15,0.193-8.288,0.665-12.437,0.892
		c-3.648,0.199-4.275-0.771-2.979-4.283c1.727-4.682,3.833-5.85,8.411-5.822c13.091,0.079,26.188,0.061,39.277-0.224
		C100.294,194.095,100.534,193.986,102,201.448z"/>
	<path fill-rule="evenodd" clip-rule="evenodd" fill="#FFFFFF" stroke="#000000" stroke-width="2" stroke-miterlimit="10" d="
		M107.272,209.932c-22.913,4.476-45.117,6.918-67.621,7.109c0.768-5.474,3.266-8.022,7.914-8.138
		c9.862-0.245,19.734-0.193,29.59-0.565c8.357-0.317,16.693-1.247,25.05-1.452C103.869,206.846,105.582,208.863,107.272,209.932z"/>
	<path fill-rule="evenodd" clip-rule="evenodd" stroke="#000000" stroke-width="2" stroke-miterlimit="10" d="M43.051,153.566
		c-4.933,0.082-11.367-4.688-11.494-8.524c-0.187-5.629,6.368-11.558,12.877-11.649c2.398-0.033,7.778,6.822,7.847,9.999
		C52.389,148.384,47.759,153.488,43.051,153.566z M37.153,142.766c0.353,3.81,2.649,5.896,6.126,5.739
		c1.462-0.066,3.984-2.032,4.003-3.167c0.035-2.176-0.749-5.445-2.307-6.355C41.111,136.727,39.313,140.803,37.153,142.766z"/>
	<path fill-rule="evenodd" clip-rule="evenodd" stroke="#000000" stroke-width="2" stroke-miterlimit="10" d="M109.711,152.107
		c-4.226-0.024-10.507-5.737-10.606-9.648c-0.09-3.514,6.697-9.925,10.454-9.876c5.232,0.068,8.674,4.711,8.725,11.774
		C118.316,148.986,114.832,152.136,109.711,152.107z M112.106,147.293c0.449-0.533,1.99-1.54,2.188-2.764
		c0.433-2.679-3.035-7.172-4.996-6.526c-1.924,0.634-4.377,2.256-4.899,3.963C103.541,144.776,106.995,147.242,112.106,147.293z"/>
	<path fill-rule="evenodd" clip-rule="evenodd" stroke="#000000" stroke-width="2" stroke-miterlimit="10" d="M75.988,42.287
		c-6.462,0.539-12.92,1.117-19.387,1.59c-1.87,0.137-3.769,0.051-5.645-0.074c-5.175-0.343-10.219-9.648-6.686-13.24
		c2.179-2.215,6.434-2.619,9.862-3.298c2.594-0.514,5.457,0.265,8.021-0.319c3.748-0.854,7.37-0.101,11.024-0.188
		c5.751-0.138,11.495-1.318,17.202-2.293c4.806-0.822,6.86,2.58,8.306,5.804c1.19,2.65,1.446,5.668-1.922,8.206
		c-3.621,2.729-7.257,4.167-11.673,4.077c-3.025-0.062-6.051-0.012-9.077-0.012C76.006,42.455,75.997,42.372,75.988,42.287z
		 M59.288,33.825c-0.012-0.143-0.023-0.284-0.035-0.426c-2.238,0.109-4.497,0.066-6.706,0.379c-1.6,0.226-4.337-0.671-3.838,2.606
		c0.386,2.544,1.354,4.268,4.653,3.83c4.795-0.638,9.039-3.128,14.312-2.596c6.728,0.679,13.624-0.302,20.446-0.605
		c1.333-0.059,3.045,0.167,3.893-0.552c1.108-0.94,1.609-2.66,2.15-4.126c0.068-0.186-1.224-1.277-1.855-1.25
		c-4.002,0.169-7.999,0.499-11.991,0.843C73.306,32.535,66.297,33.19,59.288,33.825z"/>
	<path fill-rule="evenodd" clip-rule="evenodd" stroke="#000000" stroke-width="2" stroke-miterlimit="10" d="M30.374,87.294
		c4.417-3.741,7.647-6.398,10.773-9.172c0.953-0.846,1.586-2.042,2.432-3.022c0.684-0.792,1.565-2.18,2.182-2.09
		c1.024,0.149,2.4,1.104,2.714,2.03c0.352,1.036,0.126,2.906-0.609,3.568c-4.064,3.659-8.282,7.164-12.668,10.424
		C34.615,89.466,32.771,88.202,30.374,87.294z"/>
	<path fill-rule="evenodd" clip-rule="evenodd" stroke="#000000" stroke-width="2" stroke-miterlimit="10" d="M101.751,69.937
		c3.901,3.08,7.812,6.15,11.693,9.255c0.595,0.476,1.145,1.057,1.564,1.69c0.542,0.818,0.932,1.737,1.387,2.612
		c-1.008,0.291-2.359,1.147-2.967,0.778c-4.011-2.433-8.059-4.894-11.656-7.875c-1.184-0.982-1.066-3.535-1.543-5.371
		C100.736,70.663,101.243,70.3,101.751,69.937z"/>
	<path fill-rule="evenodd" clip-rule="evenodd" fill="#FFFFFF" stroke="#000000" stroke-width="2" stroke-miterlimit="10" d="
		M37.153,142.766c2.16-1.963,3.958-6.039,7.823-3.783c1.558,0.91,2.341,4.179,2.307,6.355c-0.019,1.135-2.542,3.101-4.003,3.167
		C39.802,148.663,37.505,146.576,37.153,142.766z"/>
	<path fill-rule="evenodd" clip-rule="evenodd" fill="#FFFFFF" stroke="#000000" stroke-width="2" stroke-miterlimit="10" d="
		M112.106,147.293c-5.112-0.051-8.566-2.518-7.708-5.327c0.521-1.707,2.975-3.33,4.899-3.963c1.961-0.646,5.429,3.848,4.996,6.526
		C114.096,145.754,112.555,146.761,112.106,147.293z"/>
	<path fill-rule="evenodd" clip-rule="evenodd" fill="#FFFFFF" stroke="#000000" stroke-width="2" stroke-miterlimit="10" d="
		M59.288,33.825c7.009-0.635,14.018-1.291,21.029-1.897c3.992-0.345,7.988-0.674,11.991-0.843c0.631-0.027,1.923,1.063,1.855,1.25
		c-0.541,1.466-1.042,3.186-2.15,4.126c-0.848,0.719-2.56,0.493-3.893,0.552c-6.822,0.303-13.718,1.284-20.446,0.605
		c-5.273-0.532-9.517,1.958-14.312,2.596c-3.299,0.438-4.267-1.285-4.653-3.83c-0.499-3.277,2.239-2.38,3.838-2.606
		c2.208-0.313,4.468-0.27,6.706-0.379C59.265,33.542,59.276,33.683,59.288,33.825z"/>
</g>
</svg>
