<?xml version="1.0" encoding="utf-8"?>
<!-- Generator: Adobe Illustrator 16.0.0, SVG Export Plug-In . SVG Version: 6.00 Build 0)  -->
<!DOCTYPE svg PUBLIC "-//W3C//DTD SVG 1.1//EN" "http://www.w3.org/Graphics/SVG/1.1/DTD/svg11.dtd">
<svg version="1.1" id="Calque_1" xmlns="http://www.w3.org/2000/svg" xmlns:xlink="http://www.w3.org/1999/xlink" x="0px" y="0px"
	 width="305.533px" height="240.578px" viewBox="0 0 305.533 240.578" enable-background="new 0 0 305.533 240.578"
	 xml:space="preserve">
<g>
	<path fill-rule="evenodd" clip-rule="evenodd" stroke="#F2F2F2" stroke-miterlimit="10" d="M118.49,160.975
		c-3.505,3.938-7.014,7.87-10.513,11.812c-3.884,4.373-7.448,9.09-11.716,13.047c-5.232,4.851-9.502,10.19-12.859,16.51
		c-3.614,6.803-8.34,12.966-14.938,17.193c-2.436,1.56-5.52,2.474-8.408,2.794c-1.262,0.141-3.521-1.702-3.979-3.09
		c-0.565-1.711,0.566-3.333,2.937-4.004c8.104-2.293,13.052-8.181,16.978-15.31c2.311-4.196,4.865-8.367,7.96-11.996
		c3.758-4.409,8.378-8.073,12.291-12.364c3.073-3.37,5.806-7.09,8.353-10.88c1.136-1.689,0.354-3.707-1.783-4.204
		c-8.53-1.983-12.629-8.457-16.147-15.561c-1.675-3.38-6.082-3.252-9.181-0.68c-6.188,5.137-9.409,12.095-13.492,18.695
		c-4.723,7.633-11.268,13.953-18.931,19.024c-3.286,2.175-5.923,5.335-8.837,8.067c-3.799,3.563-7.604,7.12-11.354,10.735
		c-0.905,0.873-1.572,1.988-2.402,2.946c-3.105,3.587-7.439,5-11.728,6.369c-2.877,0.918-7.435-1.866-7.526-4.404
		c-0.058-1.613,0.145-3.351,2.46-2.92c7.82,1.455,11.964-3.966,16.542-8.666c4.31-4.422,8.637-8.83,13.068-13.13
		c2.542-2.468,5.191-4.856,8.007-6.997c2.015-1.529,4.913-2.129,6.492-3.947c3.418-3.931,6.313-8.33,9.292-12.627
		c3.612-5.208,6.583-10.969,10.785-15.631c3.633-4.028,8.66-6.959,14.242-7.782c3.831-0.565,6.078,2.769,8.285,5.239
		c1.26,1.41,1.912,3.555,2.332,5.479c0.961,4.402,4.102,6.438,7.887,7.824c3.123,1.144,6.32,2.09,9.896,3.258
		c2.059-3.403,4.17-7.539,6.913-11.202c1.818-2.429,4.656-4.066,6.827-6.267c1.872-1.897,3.333-4.197,5.192-6.109
		c1.201-1.235,2.657-2.623,4.232-3.022c5.24-1.329,10.544-2.686,15.902-3.17c4.063-0.366,8.246,0.583,12.375,0.947
		c2.127,0.188,4.313,0.776,6.366,0.476c3.435-0.504,5.529,1.468,8.207,2.956c5.279,2.934,7.204,8.35,10.726,12.559
		c1.34,1.601,2.754,3.146,4.213,4.639c3.332,3.409,6.894,6.619,9.985,10.231c1.182,1.382,1.349,3.638,1.951,5.505
		c0.55,1.701,1.06,3.414,1.786,5.76c4.912-6.63,10.104-11.546,17.822-12.81c4.61-0.755,7.251,0.558,9.76,4.608
		c1.426,2.302,3.463,3.688,6.371,2.623c4.787-1.754,9.553-1.115,14.303,0.134c0.537,0.142,1.12,0.494,1.468,0.922
		c3.394,4.173,6.636,8.472,10.134,12.554c2.791,3.257,6.276,5.941,7.539,10.352c0.167,0.583,1.501,0.831,1.461,1.503
		c0.63,2.058,0.878,4.349,1.959,6.134c3.783,6.241,9.063,10.524,16.607,11.429c2.618,0.314,3.96,2.188,3.426,4.449
		c-0.281,1.188-2.488,2.878-3.617,2.731c-3.32-0.43-6.826-1.125-9.732-2.691c-6.805-3.668-12.34-9.381-15.453-16.112
		c-1.866-4.039-4.2-7.7-6.686-11.053c-3.648-4.925-8.426-9.06-13.021-13.197c-0.908-0.818-3.242-0.438-4.799-0.087
		c-6.617,1.492-12.495,1.359-16.229-5.617c-0.399-0.745-2.409-1.25-3.401-0.955c-5.089,1.52-9.846,3.769-11.784,9.22
		c-0.453,1.272-0.128,3.303,0.642,4.443c2.907,4.308,7.151,7.799,7.77,13.443c0.046,0.428,0.418,0.86,0.729,1.21
		c6.477,7.292,12.916,14.577,22.944,17.237c1.82,0.484,3.675,1.895,4.842,3.398c0.722,0.929,0.774,3.461,0.05,4.17
		c-1.057,1.033-3.432,1.903-4.639,1.396c-5.775-2.421-11.493-5.071-16.922-8.179c-2.457-1.406-4.229-4.036-6.252-6.166
		c-4.446-4.675-9.485-8.946-10.511-15.927c-0.159-1.085-0.909-2.189-1.646-3.066c-3.087-3.676-6.025-7.534-9.52-10.79
		c-2.006-1.868-2.275-3.726-2.68-6.142c-0.465-2.779-1.973-5.414-3.245-8.006c-0.263-0.536-1.479-0.604-2.671-1.038
		c2.068,6.654,3.695,12.758,5.926,18.631c0.891,2.344,2.932,4.364,4.773,6.208c3.777,3.781,5.926,8.598,5.859,13.533
		c-0.111,8.289,2.811,14.818,8.245,20.717c1.335,1.447,2.06,3.621,2.606,5.589c0.637,2.299-0.604,4.073-2.852,4.596
		c-2.084,0.483-3.684,0.304-4.955-2.414c-2.598-5.555-6.307-10.583-9.021-16.093c-1.119-2.272-1.107-5.222-1.158-7.871
		c-0.078-3.994-0.334-7.929-3.455-10.774c-7.565-6.9-9.27-16.307-11.314-25.599c-0.219-0.997-0.379-2.008-1.118-2.992
		c-0.505,3.234-1.013,6.468-1.505,9.703c-0.105,0.7,0.031,1.489-0.245,2.101c-2.548,5.644-0.813,10.686,2.071,15.589
		c2.435,4.139,1.482,8.444,0.593,12.73c-0.626,3.016-2.13,6.101-1.798,8.989c0.316,2.756,2.344,5.396,3.916,7.9
		c1.348,2.146,3.584,3.834,4.518,6.099c0.542,1.313-0.709,3.366-1.152,5.086c-1.531-0.479-3.408-0.558-4.527-1.519
		c-2.797-2.404-5.516-5.005-7.737-7.929c-1.317-1.733-2.356-4.267-2.249-6.376c0.232-4.591,1.586-9.121,1.885-13.713
		c0.197-3.041,0.265-6.696-1.197-9.118c-3.596-5.957-2.779-12.076-2.085-18.272c0.509-4.541,1.474-9.03,1.475-13.824
		c-2.024,5.722-4.121,11.418-6.054,17.169c-2.445,7.275-4.807,14.579-7.102,21.901c-1.025,3.273-0.583,6.013,1.588,9.178
		c1.933,2.816,2.081,6.925,2.754,10.512c0.49,2.618,0.734,5.313,0.744,7.977c0.005,1.687-0.623,3.375-0.968,5.063
		c-1.673-0.489-4.021-0.468-4.866-1.584c-1.39-1.837-2.434-4.393-2.498-6.677c-0.123-4.325-0.035-8.14-2.419-12.421
		c-2.071-3.72-2.11-9.432-1.106-13.818c1.904-8.321,5.217-16.318,7.908-24.461c1.75-5.293,3.494-10.588,5.122-15.918
		c0.822-2.691-1.009-6.998-3.103-7.799c1.133,4.906,0.378,9.486-2.097,13.89c-2.131,3.793-3.944,7.765-6.04,11.577
		c-1.008,1.833-2.191,3.616-3.562,5.192c-3.833,4.411-3.293,9.973-4.423,15.142c-0.945,4.322-2.422,8.644-6.933,10.958
		c-4.975,2.554-6.653,6.226-5.984,11.826c0.364,3.045,0.499,6.131,0.507,9.199c0.006,2.722-2.403,4.853-4.814,4.294
		c-2.844-0.659-3.054-2.592-2.602-5.234c0.43-2.507,0.064-5.151,0.023-7.735c-0.076-4.649-1.041-9.529,2.516-13.405
		c1.799-1.959,3.771-4.101,6.117-5.127c3.271-1.432,4.342-4.074,4.141-6.8c-0.477-6.498,1.674-11.675,5.734-16.612
		c2.113-2.572,2.99-6.134,4.646-9.126c0.566-1.024,1.885-1.602,2.722-2.511c2.8-3.039,3.768-10.983,1.892-14.985
		c-1.924,8.154-5.113,15.558-11.432,21.452c-3.457,3.225-4.668,7.787-5.348,12.362c-0.85,5.718-3.602,9.996-8.677,12.909
		c-5.04,2.895-8.331,7.133-10.192,12.811c-0.849,2.591-3.001,5.279-5.309,6.758c-4.719,3.024-4.797,7.748-5.876,12.266
		c-0.505,2.116-1.465,4.125-2.214,6.167c-4.664-1.5-5.621-4.386-4.947-7.841c0.651-3.337,1.354-6.775,2.791-9.809
		c0.982-2.071,3.303-3.492,4.961-5.263c1.285-1.374,3.305-2.706,3.561-4.287c1.244-7.72,6.859-11.802,12.331-16.212
		c3.87-3.118,6.954-6.604,6.899-12.361c-0.023-2.51,2.639-5.012,3.966-7.576c3.664-7.083,11.728-11.607,12.028-20.622
		c0.045-1.351-0.295-2.716-0.457-4.073c-0.348-0.059-0.693-0.117-1.04-0.176c-1.007,2.807-1.971,5.628-3.028,8.415
		c-2.053,5.42-6.461,8.846-10.745,12.298c-3.558,2.867-4.165,7.002-5.382,10.949c-0.63,2.047-1.21,4.351-2.558,5.886
		c-3.237,3.688-7.154,6.786-10.349,10.506c-3.266,3.806-5.99,8.076-8.967,12.132c-1.516,2.064-2.645,4.8-4.676,6.025
		c-5.904,3.56-8.912,8.713-9.643,15.267c-0.377,3.364-2.668,4.06-4.951,3.651c-2.439-0.437-2.84-2.79-2.418-5.171
		c1.291-7.293,5.086-12.771,11.013-17.27c3.052-2.315,5.545-5.722,7.45-9.108c3.006-5.34,6.781-9.792,11.617-13.488
		c3.535-2.701,5.797-6.146,6.941-10.658c1.506-5.934,4.044-11.193,9.487-15.196c4.917-3.615,9.116-8.578,9.611-16.843
		c-1.898,1.194-3.294,1.674-4.101,2.645c-4.723,5.69-9.46,11.383-13.879,17.308c-2.353,3.153-4.102,6.762-6.061,10.2
		c-0.458,0.805-0.688,1.746-0.977,2.641c-2.385,7.414-8.955,10.953-14.43,15.472c-1.576,1.301-3.594,2.057-5.335,3.176
		c-0.887,0.569-1.946,1.239-2.351,2.126c-1.712,3.757-3.464,7.53-4.717,11.452c-1.629,5.095-4.289,9.335-8.404,12.743
		c-1.15,0.953-1.881,2.4-2.992,3.413c-1.178,1.072-2.474,2.395-3.91,2.695c-1.497,0.314-3.223-0.46-4.849-0.759
		c0.646-1.777,0.76-4.394,2.025-5.196c7.033-4.459,10.427-11.154,12.783-18.724c2.472-7.942,7.94-13.203,15.028-17.367
		c3.316-1.949,6.409-4.98,8.449-8.244c3.223-5.154,5.475-10.918,8.137-16.424c7.062-4.463,11.976-10.807,16.648-18.74
		C126.082,146.345,122.684,154.005,118.49,160.975z M163.968,134.661c-6.591-1.396-13.121-1.557-19.429,1.277
		C151.286,140.132,157.686,138.621,163.968,134.661z"/>
	<path fill-rule="evenodd" clip-rule="evenodd" stroke="#F2F2F2" stroke-miterlimit="10" d="M198.936,40.032
		c-0.775,3.516-1.875,8.322-2.887,13.147c-0.553,2.636-0.959,5.303-1.428,7.957c-1.045,5.898-5.069,9.501-11.039,9.6
		c-9.59,0.157-11.396,2.112-10.985,12.462c0.165,4.164,0.548,8.519-0.42,12.481c-1.479,6.053-5.675,10.725-10.477,14.569
		c-3.345,2.679-5.773,5.724-6.683,9.938c-0.597,2.765-4.553,5.719-7.313,5.537c-2.005-0.131-3.994-4.686-3.152-7.215
		c2.112-6.352-1.389-16.28-7.314-19.264c-5.766-2.902-11.801-5.291-17.799-7.704c-5.758-2.317-11.182-4.864-14.521-10.577
		c-2.187-3.74-5.85-6.898-7.056-10.864c-1.722-5.655-3.356-11.642-1.78-17.838c0.768-3.017,0.756-6.23,1.501-9.256
		c1.903-7.729,8.2-10.54,14.919-12.557c8.128-2.439,12.717-7.912,15.074-15.873c1.852-6.256,8.039-10.146,15.045-10.037
		c5.83,0.093,9.173,3.909,11.861,8.487c2.6,4.426,6.799,6.57,11.484,5.117c6.559-2.034,12.827-1.563,19.152,0.842
		C192.896,21.943,198.965,30.452,198.936,40.032z M152.016,108.972c2.08-1.967,4.066-3.843,6.049-5.72
		c4.505-4.263,7.359-9.379,7.476-15.666c0.059-3.18-0.491-6.368-0.688-9.557c-0.326-5.248,3.451-11.575,7.703-12.666
		c3.304-0.849,6.658-1.599,10.036-2.03c2.55-0.325,3.653-1.402,4.153-3.939c1.165-5.926,2.631-11.796,4.045-17.671
		c1.65-6.862-0.906-12.201-7.139-15.671c-5.063-2.818-10.108-3.068-15.344-0.879c-7.619,3.188-12.988-0.393-16.699-5.378
		c-1.463-1.967-3.113-3.861-4.963-5.461c-3.4-2.94-7.537-3.03-9.539-0.321c-1.113,1.508-1.836,3.299-2.801,4.922
		c-2.154,3.63-3.8,7.774-6.673,10.711c-3.464,3.542-7.536,6.653-12.61,8.126c-7.546,2.19-12.106,7.223-12.381,15.264
		c-0.229,6.721,1.18,13.245,4.632,19.084c1.592,2.691,3.399,5.837,5.954,7.267c7.138,3.993,14.588,7.51,22.162,10.612
		c5.665,2.322,10.477,5.235,13.136,10.934C149.652,103.347,150.653,105.82,152.016,108.972z"/>
	<path fill-rule="evenodd" clip-rule="evenodd" fill="#FFFFFF" stroke="#F2F2F2" stroke-miterlimit="10" d="M163.968,134.661
		c-6.282,3.96-12.682,5.471-19.429,1.277C150.847,133.104,157.377,133.266,163.968,134.661z"/>
	<path fill-rule="evenodd" clip-rule="evenodd" fill="#FFFFFF" stroke="#F2F2F2" stroke-miterlimit="10" d="M118.49,160.975
		c4.193-6.97,7.592-14.63,16.566-18.82c-4.673,7.934-9.587,14.277-16.648,18.74C118.41,160.895,118.49,160.975,118.49,160.975z"/>
	<path fill-rule="evenodd" clip-rule="evenodd" fill="#FFFFFF" stroke="#F2F2F2" stroke-miterlimit="10" d="M152.016,108.972
		c-1.362-3.151-2.363-5.625-3.491-8.04c-2.659-5.698-7.471-8.611-13.136-10.934c-7.574-3.103-15.024-6.619-22.162-10.612
		c-2.555-1.43-4.362-4.575-5.954-7.267c-3.452-5.839-4.86-12.363-4.632-19.084c0.274-8.041,4.835-13.073,12.381-15.264
		c5.074-1.473,9.146-4.584,12.61-8.126c2.873-2.937,4.519-7.081,6.673-10.711c0.965-1.623,1.688-3.414,2.801-4.922
		c2.002-2.709,6.139-2.619,9.539,0.321c1.85,1.6,3.5,3.494,4.963,5.461c3.711,4.985,9.08,8.565,16.699,5.378
		c5.235-2.189,10.281-1.939,15.344,0.879c6.232,3.47,8.789,8.809,7.139,15.671c-1.414,5.875-2.88,11.745-4.045,17.671
		c-0.5,2.537-1.604,3.614-4.153,3.939c-3.378,0.432-6.732,1.182-10.036,2.03c-4.252,1.091-8.029,7.418-7.703,12.666
		c0.197,3.188,0.747,6.377,0.688,9.557c-0.116,6.287-2.971,11.403-7.476,15.666C156.082,105.129,154.096,107.005,152.016,108.972z"
		/>
</g>
</svg>
