<?xml version="1.0" encoding="UTF-8" standalone="no"?>
<!-- Generator: Adobe Illustrator 16.0.0, SVG Export Plug-In . SVG Version: 6.00 Build 0)  -->

<svg
   xmlns:dc="http://purl.org/dc/elements/1.1/"
   xmlns:cc="http://creativecommons.org/ns#"
   xmlns:rdf="http://www.w3.org/1999/02/22-rdf-syntax-ns#"
   xmlns:svg="http://www.w3.org/2000/svg"
   xmlns="http://www.w3.org/2000/svg"
   xmlns:sodipodi="http://sodipodi.sourceforge.net/DTD/sodipodi-0.dtd"
   xmlns:inkscape="http://www.inkscape.org/namespaces/inkscape"
   version="1.1"
   id="Calque_1"
   x="0px"
   y="0px"
   width="205"
   height="305"
   viewBox="0 0 205 305"
   enable-background="new 0 0 800 600"
   xml:space="preserve"
   sodipodi:docname="location-picto-17-17.svg"
   inkscape:version="0.92.1 r15371"><metadata
     id="metadata9"><rdf:RDF><cc:Work
         rdf:about=""><dc:format>image/svg+xml</dc:format><dc:type
           rdf:resource="http://purl.org/dc/dcmitype/StillImage" /><dc:title></dc:title></cc:Work></rdf:RDF></metadata><defs
     id="defs7" /><sodipodi:namedview
     pagecolor="#ffffff"
     bordercolor="#666666"
     borderopacity="1"
     objecttolerance="10"
     gridtolerance="10"
     guidetolerance="10"
     inkscape:pageopacity="0"
     inkscape:pageshadow="2"
     inkscape:window-width="929"
     inkscape:window-height="779"
     id="namedview5"
     showgrid="false"
     inkscape:zoom="1.55"
     inkscape:cx="214.69019"
     inkscape:cy="348.73551"
     inkscape:window-x="496"
     inkscape:window-y="151"
     inkscape:window-maximized="0"
     inkscape:current-layer="Calque_1" /><path
     stroke-miterlimit="10"
     d="m 102.81154,5.97004 c -53.572001,0 -97.0000003,43.429 -97.0000003,97 0,21.396 8.9999993,41.997 17.6679993,57.211 0,0 75.334005,139.904 81.022001,140.096 6.476,0.218 85.769,-155.307 85.769,-155.307 6.114,-12.709 9.541,-26.954 9.541,-42 0,-53.572 -43.429,-97 -97,-97 z m 0,131.332 c -20.435001,0 -37.000001,-16.565 -37.000001,-37 0,-20.435 16.565,-37 37.000001,-37 20.435,0 37,16.565 37,37 0,20.435 -16.565,37 -37,37 z"
     id="path2"
     inkscape:connector-curvature="0"
     style="clip-rule:evenodd;fill:#ffffff;fill-rule:evenodd;stroke:#000000;stroke-width:8;stroke-linecap:round;stroke-linejoin:round;stroke-miterlimit:10" /></svg>